<?xml version="1.0" encoding="utf-8"?>
<!-- Generator: Adobe Illustrator 26.0.0, SVG Export Plug-In . SVG Version: 6.00 Build 0)  -->
<svg version="1.1" id="Layer_1" xmlns="http://www.w3.org/2000/svg" xmlns:xlink="http://www.w3.org/1999/xlink" x="0px" y="0px"
	 viewBox="0 0 1000 800" style="enable-background:new 0 0 1000 800;" xml:space="preserve">
<style type="text/css">
	.st0{fill:url(#SVGID_1_);}
	.st1{fill:#9551B4;}
	.st2{fill:#6374E2;}
</style>
<g>
	<g>
		
			<linearGradient id="SVGID_1_" gradientUnits="userSpaceOnUse" x1="1428.8655" y1="1588.6033" x2="1580.1086" y2="1588.6033" gradientTransform="matrix(0 1 -1 0 2088.6885 -1136.6885)">
			<stop  offset="0" style="stop-color:#6374E2"/>
			<stop  offset="1" style="stop-color:#9551B4"/>
		</linearGradient>
		<path class="st0" d="M507.1,346.1c1.4-0.9,2.6-1.7,3.8-2.5c16.1-10.7,32.7-20.6,50.2-29.1c9.7-4.7,19.5-9,29.7-12.5
			c6.8-2.3,13.7-4.1,20.8-5.3c6.2-1,12.5-1.4,18.8-1.1c6,0.3,12,1.4,17.8,3.1c4.2,1.3,8.4,2.9,12.3,4.8c4.4,2.1,8.5,4.7,12.3,7.7
			c6.8,5.3,12.4,11.6,16.9,19c3.8,6.3,6.4,13,8.1,20.1c0.6,2.4,1.1,4.9,1.3,7.3c0.3,3.9,0.6,7.9,0.3,11.9c-0.3,4.4-1,8.7-2,12.9
			c-0.9,3.7-2.1,7.2-3.6,10.7c-1.7,4.1-3.7,8-6.1,11.7c-2.1,3.2-4.4,6.4-7.1,9.2c-2.4,2.5-4.9,4.9-7.6,7.1
			c-4.7,3.8-9.8,6.9-15.3,9.4c-5.9,2.8-12.1,4.7-18.5,5.9c-3.6,0.7-7.2,1.2-10.9,1.1c-1.3,0-2.7,0.3-4,0.2c-3.5-0.2-7-0.3-10.5-0.8
			c-4.5-0.6-8.9-1.4-13.3-2.4c-8.4-2-16.5-4.7-24.5-7.8c-18.6-7.1-36.4-15.8-54-24.9c-7.6-3.9-15.2-8-22.7-12.1
			c-0.6-0.3-1.2-0.8-1.9-0.9c-0.7,0.2-1.2,0.7-1.8,1.1c-7.3,5.2-14.6,10.4-22.1,15.4c-5.9,3.9-11.9,7.7-18,11.3
			c-10.9,6.4-22.1,12.1-33.7,17c-6.5,2.7-13.1,5-20,6.8c-4.4,1.1-8.9,1.9-13.4,2.5c-4.7,0.6-9.5,0.6-14.3,0.5
			c-4.1-0.1-8.1-0.7-12.1-1.6c-5.6-1.2-11-2.9-16.2-5.2c-5.5-2.4-10.6-5.4-15.3-9c-4.7-3.5-8.9-7.6-12.6-12.1
			c-3.7-4.4-6.7-9.3-9.4-14.4c-2.2-4.3-3.8-8.7-5.1-13.3c-1-3.7-1.9-7.4-2.2-11.2c-0.3-3.5-0.7-6.9-0.5-10.4
			c0.2-3.9,0.5-7.8,1.2-11.7c0.8-4.7,2.2-9.3,3.9-13.7c1.7-4.3,3.7-8.4,6.2-12.3c3-4.7,6.4-8.9,10.3-12.9c3.4-3.6,7.3-6.6,11.3-9.4
			c3.8-2.6,7.8-4.8,12-6.6c6.2-2.7,12.6-4.7,19.3-6c3.3-0.6,6.6-0.9,9.9-1.1c5.1-0.3,10.2-0.1,15.3,0.5c13.3,1.5,25.8,5.6,38.1,10.6
			c12.4,5.1,24.4,11.1,36.2,17.4c14.1,7.6,27.9,15.8,41.4,24.3C506,345.5,506.5,345.7,507.1,346.1z M539.2,365.9
			c0.3,0.5,0.6,0.6,1,0.8c8.8,5.2,17.6,10.4,26.6,15.3c10.2,5.5,20.4,10.8,31.1,15.3c5.7,2.4,11.4,4.6,17.3,6.2
			c4.3,1.2,8.7,1.9,13.2,2.2c2.6,0.2,5.1-0.2,7.7-0.5c4.2-0.6,8.1-1.8,11.8-3.8c5.5-2.8,10.2-6.6,14.1-11.4
			c3.4-4.2,5.9-8.8,6.6-14.2c0.7-4.9,0.7-9.8-0.2-14.7c-1.2-6-3.5-11.5-7.1-16.4c-3.3-4.4-7.3-8-12.1-10.7
			c-4.2-2.4-8.7-3.8-13.4-4.6c-4.2-0.6-8.3-0.6-12.4,0c-5.1,0.7-10.1,2.1-15,3.7c-8.2,2.7-16.1,6.1-24,9.7
			c-15,6.9-29.5,14.5-44.1,22.2C539.8,365.3,539.4,365.4,539.2,365.9z M462.8,370.4c-0.3-0.5-0.8-0.6-1.2-0.9
			c-7.9-4.1-15.7-8.2-23.7-12.1c-10.7-5.2-21.5-10.1-32.7-14.3c-7-2.6-14.1-4.9-21.5-6.2c-2.4-0.4-4.7-0.6-7.1-0.6
			c-1.9,0-3.8,0.2-5.8,0.5c-8.9,1.3-16.1,5.5-21.5,12.6c-4.2,5.6-6.3,12-6.5,19c-0.2,6.2,1.4,12.1,4.7,17.4
			c4.1,6.5,9.8,10.9,17,13.6c5.6,2,11.3,2.4,17.1,1.9c5.4-0.5,10.7-1.8,16-3.4c7.8-2.4,15.4-5.2,22.9-8.3
			c14-5.7,27.6-12.1,41.3-18.4C462.1,371,462.5,370.9,462.8,370.4z"/>
	</g>
	<g>
		<path class="st1" d="M236.3,506.9c-2.2,0-4.4-0.3-6.4-1s-3.7-1.6-4.8-2.7l1.6-3.3c1.1,1,2.5,1.8,4.3,2.4c1.7,0.6,3.5,1,5.4,1
			c1.7,0,3.1-0.2,4.2-0.6c1.1-0.4,1.8-0.9,2.4-1.6c0.5-0.7,0.8-1.5,0.8-2.3c0-1-0.3-1.8-1-2.4s-1.5-1.1-2.6-1.5s-2.2-0.7-3.5-1
			s-2.5-0.6-3.8-1s-2.4-0.9-3.5-1.4c-1.1-0.6-1.9-1.4-2.5-2.4s-1-2.3-1-3.8s0.4-2.9,1.2-4.2s2-2.3,3.7-3.1c1.7-0.8,3.8-1.2,6.4-1.2
			c1.7,0,3.4,0.2,5.1,0.7c1.7,0.4,3.1,1.1,4.4,1.9l-1.4,3.4c-1.3-0.8-2.6-1.4-4-1.8s-2.8-0.6-4.1-0.6c-1.7,0-3,0.2-4.1,0.6
			s-1.8,1-2.3,1.7s-0.7,1.5-0.7,2.4c0,1,0.3,1.9,1,2.5s1.5,1.1,2.6,1.5s2.2,0.7,3.5,1s2.5,0.6,3.8,1s2.4,0.8,3.5,1.4
			s1.9,1.4,2.5,2.4s1,2.2,1,3.8c0,1.5-0.4,2.9-1.2,4.1s-2.1,2.3-3.8,3.1C241,506.5,238.8,506.9,236.3,506.9z"/>
		<path class="st1" d="M269.3,502.9h17.1v3.7h-21.3v-29.4h20.7v3.7h-16.5V502.9L269.3,502.9z M268.9,489.8H284v3.6h-15.1V489.8
			L268.9,489.8z"/>
		<path class="st1" d="M317.8,506.9c-2.2,0-4.3-0.4-6.2-1.1c-1.9-0.8-3.6-1.8-5-3.2c-1.4-1.4-2.5-2.9-3.3-4.8
			c-0.8-1.8-1.2-3.8-1.2-6s0.4-4.1,1.2-6c0.8-1.8,1.9-3.4,3.3-4.8c1.4-1.4,3.1-2.4,5-3.2c1.9-0.8,4-1.1,6.3-1.1
			c2.2,0,4.3,0.4,6.2,1.1s3.6,1.8,5,3.2c1.4,1.4,2.5,3,3.3,4.8s1.2,3.8,1.2,6s-0.4,4.2-1.2,6s-1.9,3.4-3.3,4.8
			c-1.4,1.4-3.1,2.4-5,3.1C322.1,506.5,320.1,506.9,317.8,506.9z M317.8,503.1c1.7,0,3.2-0.3,4.6-0.8c1.4-0.6,2.6-1.4,3.6-2.4
			s1.8-2.2,2.4-3.6c0.6-1.4,0.9-2.9,0.9-4.5s-0.3-3.1-0.9-4.5c-0.6-1.4-1.4-2.6-2.4-3.6s-2.2-1.8-3.6-2.4c-1.4-0.6-2.9-0.8-4.6-0.8
			c-1.6,0-3.1,0.3-4.5,0.8c-1.4,0.6-2.6,1.4-3.6,2.4s-1.8,2.2-2.4,3.6c-0.6,1.4-0.9,2.8-0.9,4.5c0,1.6,0.3,3.1,0.9,4.5
			c0.6,1.4,1.4,2.6,2.4,3.6s2.2,1.8,3.6,2.4C314.7,502.9,316.2,503.1,317.8,503.1z"/>
		<path d="M350.7,506.8c-0.8,0-1.5-0.3-2-0.8c-0.6-0.5-0.8-1.2-0.8-2.1c0-0.8,0.3-1.5,0.8-2.1c0.6-0.5,1.2-0.8,2-0.8s1.4,0.3,2,0.8
			c0.5,0.5,0.8,1.2,0.8,2.1c0,0.8-0.3,1.5-0.8,2.1S351.5,506.8,350.7,506.8z"/>
		<path d="M371.2,506.5v-29.4h11.5c2.6,0,4.8,0.4,6.6,1.2c1.8,0.8,3.2,2,4.2,3.5s1.5,3.4,1.5,5.5s-0.5,4-1.5,5.5s-2.4,2.7-4.2,3.5
			s-4,1.2-6.6,1.2h-9.2l1.9-1.9v10.9L371.2,506.5L371.2,506.5z M375.4,496.1l-1.9-2.1h9c2.7,0,4.7-0.6,6.1-1.7
			c1.4-1.2,2.1-2.8,2.1-4.9s-0.7-3.7-2.1-4.9c-1.4-1.1-3.4-1.7-6.1-1.7h-9l1.9-2.1V496.1z M390.9,506.5l-7.5-10.7h4.5l7.6,10.7
			H390.9z"/>
		<path d="M417.3,502.9h17.1v3.7h-21.3v-29.4h20.7v3.7h-16.5V502.9L417.3,502.9z M416.9,489.8H432v3.6h-15.1V489.8z"/>
		<path d="M461.1,506.9c-2.2,0-4.4-0.3-6.4-1s-3.7-1.6-4.8-2.7l1.6-3.3c1.1,1,2.5,1.8,4.3,2.4c1.7,0.6,3.5,1,5.4,1
			c1.7,0,3.1-0.2,4.2-0.6c1.1-0.4,1.8-0.9,2.4-1.6c0.5-0.7,0.8-1.5,0.8-2.3c0-1-0.3-1.8-1-2.4s-1.5-1.1-2.6-1.5s-2.2-0.7-3.5-1
			s-2.5-0.6-3.8-1s-2.4-0.9-3.5-1.4c-1.1-0.6-1.9-1.4-2.5-2.4s-1-2.3-1-3.8s0.4-2.9,1.2-4.2c0.8-1.3,2-2.3,3.7-3.1
			c1.7-0.8,3.8-1.2,6.4-1.2c1.7,0,3.4,0.2,5.1,0.7c1.7,0.4,3.1,1.1,4.4,1.9l-1.4,3.4c-1.3-0.8-2.6-1.4-4-1.8s-2.8-0.6-4.1-0.6
			c-1.7,0-3,0.2-4.1,0.6s-1.8,1-2.3,1.7s-0.7,1.5-0.7,2.4c0,1,0.3,1.9,1,2.5s1.5,1.1,2.6,1.5s2.2,0.7,3.5,1s2.5,0.6,3.8,1
			s2.4,0.8,3.5,1.4s1.9,1.4,2.5,2.4s1,2.2,1,3.8c0,1.5-0.4,2.9-1.2,4.1s-2.1,2.3-3.8,3.1C465.8,506.5,463.7,506.9,461.1,506.9z"/>
		<path d="M502.2,506.9c-3.9,0-6.9-1.1-9.1-3.3c-2.2-2.2-3.3-5.4-3.3-9.7v-16.7h4.2v16.5c0,3.3,0.7,5.7,2.2,7.2
			c1.4,1.5,3.5,2.3,6.1,2.3c2.7,0,4.7-0.8,6.2-2.3c1.4-1.5,2.2-3.9,2.2-7.2v-16.5h4.1v16.7c0,4.3-1.1,7.5-3.3,9.7
			C509.1,505.8,506.1,506.9,502.2,506.9z"/>
		<path d="M534.6,506.5v-29.4h4.2v25.7h15.9v3.7L534.6,506.5L534.6,506.5z"/>
		<path d="M573.9,506.5v-25.7h-10.1v-3.7h24.3v3.7H578v25.7H573.9z"/>
		<path d="M612.3,506.9c-2.2,0-4.4-0.3-6.4-1s-3.7-1.6-4.8-2.7l1.6-3.3c1.1,1,2.5,1.8,4.3,2.4c1.7,0.6,3.5,1,5.4,1
			c1.7,0,3.1-0.2,4.2-0.6c1.1-0.4,1.8-0.9,2.4-1.6c0.5-0.7,0.8-1.5,0.8-2.3c0-1-0.3-1.8-1-2.4s-1.5-1.1-2.6-1.5
			c-1.1-0.4-2.2-0.7-3.5-1c-1.3-0.3-2.5-0.6-3.8-1c-1.3-0.4-2.4-0.9-3.5-1.4c-1.1-0.6-1.9-1.4-2.5-2.4c-0.6-1-1-2.3-1-3.8
			s0.4-2.9,1.2-4.2c0.8-1.3,2-2.3,3.7-3.1c1.7-0.8,3.8-1.2,6.4-1.2c1.7,0,3.4,0.2,5.1,0.7c1.7,0.4,3.1,1.1,4.4,1.9l-1.4,3.4
			c-1.3-0.8-2.6-1.4-4-1.8c-1.4-0.4-2.8-0.6-4.1-0.6c-1.7,0-3,0.2-4.1,0.6c-1.1,0.4-1.8,1-2.3,1.7s-0.7,1.5-0.7,2.4
			c0,1,0.3,1.9,1,2.5c0.7,0.6,1.5,1.1,2.6,1.5s2.2,0.7,3.5,1s2.5,0.6,3.8,1s2.4,0.8,3.5,1.4s1.9,1.4,2.5,2.4s1,2.2,1,3.8
			c0,1.5-0.4,2.9-1.2,4.1s-2.1,2.3-3.8,3.1C617,506.5,614.9,506.9,612.3,506.9z"/>
		<path d="M642.4,506.8c-0.8,0-1.5-0.3-2-0.8c-0.6-0.5-0.8-1.2-0.8-2.1c0-0.8,0.3-1.5,0.8-2.1c0.6-0.5,1.2-0.8,2-0.8
			c0.8,0,1.4,0.3,2,0.8c0.5,0.5,0.8,1.2,0.8,2.1c0,0.8-0.3,1.5-0.8,2.1S643.1,506.8,642.4,506.8z"/>
		<path class="st2" d="M662.9,506.5v-29.4h11.5c2.6,0,4.8,0.4,6.6,1.2s3.2,2,4.2,3.5s1.5,3.4,1.5,5.5s-0.5,4-1.5,5.5
			s-2.4,2.7-4.2,3.5s-4,1.2-6.6,1.2h-9.2l1.9-2v10.9L662.9,506.5L662.9,506.5z M667.1,496.1l-1.9-2.1h9c2.7,0,4.7-0.6,6.1-1.7
			s2.1-2.8,2.1-4.9s-0.7-3.7-2.1-4.9c-1.4-1.1-3.4-1.7-6.1-1.7h-9l1.9-2.1V496.1z"/>
		<path class="st2" d="M704.1,506.5v-29.4h11.5c2.6,0,4.8,0.4,6.6,1.2c1.8,0.8,3.2,2,4.2,3.5s1.5,3.4,1.5,5.5s-0.5,4-1.5,5.5
			s-2.4,2.7-4.2,3.5c-1.8,0.8-4,1.2-6.6,1.2h-9.2l1.9-1.9v10.9L704.1,506.5L704.1,506.5z M708.3,496.1l-1.9-2.1h9
			c2.7,0,4.7-0.6,6.1-1.7c1.4-1.2,2.1-2.8,2.1-4.9s-0.7-3.7-2.1-4.9c-1.4-1.1-3.4-1.7-6.1-1.7h-9l1.9-2.1V496.1z M723.8,506.5
			l-7.5-10.7h4.5l7.6,10.7H723.8z"/>
		<path class="st2" d="M759.3,506.9c-2.2,0-4.3-0.4-6.2-1.1c-1.9-0.8-3.6-1.8-5-3.2s-2.5-2.9-3.3-4.8c-0.8-1.8-1.2-3.8-1.2-6
			s0.4-4.1,1.2-6c0.8-1.8,1.9-3.4,3.3-4.8s3.1-2.4,5-3.2c1.9-0.8,4-1.1,6.3-1.1c2.2,0,4.3,0.4,6.2,1.1s3.6,1.8,5,3.2s2.5,3,3.3,4.8
			s1.2,3.8,1.2,6s-0.4,4.2-1.2,6s-1.9,3.4-3.3,4.8s-3.1,2.4-5,3.1C763.6,506.5,761.5,506.9,759.3,506.9z M759.2,503.1
			c1.7,0,3.2-0.3,4.6-0.8c1.4-0.6,2.6-1.4,3.6-2.4s1.8-2.2,2.4-3.6s0.9-2.9,0.9-4.5s-0.3-3.1-0.9-4.5s-1.4-2.6-2.4-3.6
			s-2.2-1.8-3.6-2.4s-2.9-0.8-4.6-0.8c-1.6,0-3.1,0.3-4.5,0.8c-1.4,0.6-2.6,1.4-3.6,2.4s-1.8,2.2-2.4,3.6c-0.6,1.4-0.9,2.8-0.9,4.5
			c0,1.6,0.3,3.1,0.9,4.5c0.6,1.4,1.4,2.6,2.4,3.6s2.2,1.8,3.6,2.4C756.1,502.9,757.6,503.1,759.2,503.1z"/>
	</g>
	<g>
		<path class="st1" d="M236.3,507.6c-2.4,0-4.7-0.3-6.6-1c-2.2-0.8-4-1.8-5.1-2.9l-0.4-0.4l2.2-4.6l0.7,0.6c1.1,1,2.4,1.7,4,2.2
			c1.8,0.6,3.5,1,5.2,1c1.6,0,2.9-0.2,4-0.6c0.9-0.3,1.5-0.7,2.1-1.4c0.4-0.6,0.6-1.2,0.6-1.8c0-0.8-0.2-1.4-0.7-1.9
			c-0.7-0.6-1.4-1-2.4-1.4s-2-0.7-3.4-1c-1.1-0.3-2.4-0.6-3.9-1c-1.3-0.4-2.5-0.9-3.6-1.4c-1.2-0.7-2.1-1.5-2.8-2.7
			s-1.1-2.6-1.1-4.2s0.4-3.2,1.3-4.6c0.9-1.4,2.2-2.5,4-3.4s4-1.3,6.7-1.3c1.9,0,3.6,0.2,5.3,0.7c1.5,0.4,2.9,1,4.6,2l0.5,0.3
			l-2,4.7l-0.7-0.4c-1.3-0.8-2.5-1.4-3.8-1.7c-1.3-0.4-2.7-0.6-3.9-0.6c-1.6,0-2.8,0.2-3.9,0.6c-0.9,0.3-1.5,0.8-2,1.4
			c-0.4,0.5-0.6,1.2-0.6,2c0,0.6,0.1,1.4,0.7,2c0.7,0.6,1.4,1,2.4,1.4s2,0.6,3.4,1c1.2,0.3,2.4,0.6,3.8,1c1.1,0.4,2.4,0.8,3.6,1.5
			c1.2,0.6,2.1,1.5,2.8,2.7s1.1,2.6,1.1,4.2s-0.5,3.2-1.3,4.5c-0.9,1.4-2.3,2.5-4.1,3.4l0,0h-0.1
			C240.8,507.3,238.6,507.6,236.3,507.6z"/>
		<polygon class="st1" points="264.3,507.3 264.3,476.5 286.5,476.5 286.5,481.6 270,481.6 270,489.1 284.7,489.1 284.7,494.1 
			270,494.1 270,502.2 287.1,502.2 287.1,507.3 		"/>
		<path class="st1" d="M317.8,507.6c-2.2,0-4.4-0.4-6.4-1.1c-2.2-0.9-3.9-2-5.3-3.4c-1.6-1.6-2.7-3.2-3.5-5c-0.8-1.9-1.3-4-1.3-6.3
			c0-2.2,0.4-4.2,1.3-6.3c0.8-1.9,2-3.6,3.5-5c1.3-1.3,3-2.4,5.2-3.4c1.8-0.8,4-1.2,6.6-1.2c2.2,0,4.4,0.4,6.4,1.1s3.8,1.9,5.3,3.4
			s2.6,3.1,3.4,5c0.8,1.9,1.3,4,1.3,6.3s-0.4,4.4-1.3,6.3c-0.8,1.9-2,3.6-3.4,5s-3.2,2.5-5.3,3.3
			C322.2,507.2,320.1,507.6,317.8,507.6z M317.8,481.2c-1.4,0-2.9,0.3-4.3,0.8c-1.3,0.5-2.4,1.3-3.3,2.2c-0.9,0.9-1.7,2.1-2.2,3.4
			c-0.6,1.4-0.8,2.7-0.8,4.2s0.3,2.9,0.8,4.2c0.6,1.3,1.3,2.4,2.2,3.4c0.9,0.9,2.1,1.7,3.4,2.2c1.2,0.5,2.5,0.7,4.2,0.7
			c1.5,0,2.9-0.2,4.4-0.8c1.3-0.5,2.4-1.3,3.3-2.2c0.9-0.9,1.7-2.1,2.2-3.4c0.6-1.3,0.8-2.7,0.8-4.2s-0.3-2.9-0.8-4.2
			c-0.6-1.3-1.3-2.4-2.2-3.4c-0.9-0.9-2.1-1.7-3.4-2.2C320.9,481.5,319.5,481.2,317.8,481.2z"/>
		<path d="M350.7,507.5c-1,0-1.9-0.4-2.5-1c-0.9-0.7-1-1.8-1-2.6c0-0.9,0.3-1.8,1-2.6l0,0h0.1c0.8-0.7,1.6-1,2.5-1s1.7,0.3,2.5,1
			c0.7,0.7,1.1,1.6,1.1,2.7c0,0.9-0.3,1.8-1,2.6C352.6,507.2,351.8,507.5,350.7,507.5z"/>
		<path d="M390.5,507.2l-6.3-9c-0.5,0-1,0-1.5,0h-6.6v9h-5.6v-30.8h12.2c2.7,0,5,0.4,6.9,1.3c1.9,0.8,3.4,2.1,4.5,3.8
			c1.1,1.6,1.6,3.6,1.6,5.9s-0.6,4.3-1.6,5.9c-1.1,1.7-2.6,2.9-4.5,3.8l7.3,10.3h-6.4V507.2z M382.5,493.3c2.4,0,4.4-0.5,5.7-1.5
			c1.2-1,1.8-2.5,1.8-4.3s-0.6-3.3-1.8-4.4c-1.3-1-3.2-1.5-5.6-1.5h-6.4v11.8h6.3V493.3z"/>
		<polygon points="412.3,507.3 412.3,476.5 434.5,476.5 434.5,481.6 418,481.6 418,489.1 432.7,489.1 432.7,494.1 418,494.1 
			418,502.2 435.1,502.2 435.1,507.3 		"/>
		<path d="M461.1,507.6c-2.4,0-4.7-0.3-6.6-1c-2.2-0.8-4-1.8-5.1-2.9l-0.4-0.4l2.2-4.6l0.7,0.6c1.1,1,2.4,1.7,4,2.2
			c1.8,0.7,3.5,1,5.2,1c1.6,0,2.9-0.2,4-0.6c0.9-0.3,1.5-0.7,2.1-1.4c0.4-0.6,0.6-1.2,0.6-1.8c0-0.8-0.2-1.4-0.7-1.9
			c-0.7-0.6-1.4-1-2.4-1.4s-2-0.7-3.4-1c-1.1-0.3-2.4-0.6-3.8-1c-1.3-0.4-2.5-0.9-3.6-1.4c-1.2-0.7-2.1-1.5-2.8-2.7
			s-1.1-2.6-1.1-4.2s0.4-3.2,1.3-4.6c0.9-1.4,2.2-2.5,4-3.4s4-1.3,6.7-1.3c1.9,0,3.6,0.2,5.3,0.7c1.5,0.4,2.9,1,4.6,2l0.5,0.3
			l-2,4.7l-0.7-0.4c-1.3-0.8-2.5-1.4-3.8-1.7c-1.3-0.4-2.7-0.6-3.9-0.6c-1.6,0-2.8,0.2-3.9,0.6c-0.9,0.3-1.5,0.8-2,1.4
			c-0.4,0.5-0.6,1.2-0.6,2c0,0.6,0.1,1.4,0.7,2c0.7,0.6,1.4,1,2.4,1.4s2,0.6,3.4,1c1.2,0.3,2.4,0.6,3.9,1c1.1,0.4,2.4,0.8,3.6,1.5
			c1.2,0.6,2.1,1.5,2.8,2.7s1.1,2.6,1.1,4.2s-0.5,3.2-1.3,4.5c-0.9,1.4-2.3,2.5-4.1,3.4l0,0h-0.1
			C465.6,507.3,463.5,507.6,461.1,507.6z"/>
		<path d="M502.2,507.6c-4.1,0-7.2-1.1-9.6-3.5c-2.4-2.4-3.5-5.7-3.5-10.2v-17.4h5.6v17.2c0,3.2,0.7,5.4,2,6.7
			c1.3,1.4,3.2,2.1,5.6,2.1c2.4,0,4.3-0.7,5.7-2.1c1.3-1.4,2-3.7,2-6.7v-17.2h5.5v17.4c0,4.5-1.1,7.8-3.5,10.2
			C509.4,506.5,506.2,507.6,502.2,507.6z"/>
		<polygon points="533.8,507.2 533.8,476.4 539.5,476.4 539.5,502.1 555.4,502.1 555.4,507.2 		"/>
		<polygon points="573.1,507.2 573.1,481.5 563,481.5 563,476.4 588.8,476.4 588.8,481.5 578.7,481.5 578.7,507.2 		"/>
		<path d="M612.3,507.6c-2.4,0-4.7-0.3-6.6-1c-2.2-0.8-4-1.8-5.1-2.9l-0.4-0.4l2.2-4.6l0.7,0.6c1.1,1,2.4,1.7,4,2.2
			c1.8,0.7,3.5,1,5.2,1c1.6,0,2.9-0.2,4-0.6c0.9-0.3,1.5-0.7,2.1-1.4c0.4-0.6,0.6-1.2,0.6-1.8c0-0.8-0.2-1.4-0.7-1.9
			c-0.7-0.6-1.4-1-2.4-1.4s-2-0.7-3.4-1c-1.1-0.3-2.4-0.6-3.8-1c-1.3-0.4-2.5-0.9-3.6-1.4c-1.2-0.7-2.1-1.5-2.8-2.7
			c-0.7-1.2-1.1-2.6-1.1-4.2s0.4-3.2,1.3-4.6c0.9-1.4,2.2-2.5,4-3.4c1.8-0.9,4-1.3,6.7-1.3c1.9,0,3.6,0.2,5.3,0.7
			c1.5,0.4,2.9,1,4.6,2l0.5,0.3l-2,4.7l-0.7-0.4c-1.3-0.8-2.5-1.4-3.8-1.7c-1.3-0.4-2.7-0.6-3.9-0.6c-1.6,0-2.8,0.2-3.9,0.6
			c-0.9,0.3-1.5,0.8-2,1.4c-0.4,0.5-0.6,1.2-0.6,2c0,0.6,0.1,1.4,0.7,2c0.7,0.6,1.4,1,2.4,1.4s2,0.6,3.4,1c1.1,0.3,2.4,0.6,3.9,1
			c1.1,0.4,2.4,0.8,3.6,1.5c1.2,0.6,2.1,1.5,2.8,2.7c0.7,1.2,1.1,2.6,1.1,4.2s-0.5,3.2-1.3,4.5c-0.9,1.4-2.3,2.5-4.1,3.4l0,0h-0.1
			C616.8,507.3,614.7,507.6,612.3,507.6z"/>
		<path d="M642.4,507.5c-1,0-1.9-0.4-2.5-1c-0.9-0.7-1-1.8-1-2.6c0-0.9,0.3-1.8,1-2.6v-0.1h0.1c0.8-0.7,1.6-1,2.5-1s1.7,0.3,2.5,1
			c0.7,0.7,1.1,1.6,1.1,2.7c0,0.9-0.3,1.8-1,2.6C644.3,507.2,643.4,507.5,642.4,507.5z"/>
		<path class="st2" d="M662.9,507.1v-0.7h-0.7v-30.1h12.2c2.7,0,5,0.4,6.9,1.3c1.9,0.8,3.4,2.1,4.5,3.8c1.1,1.6,1.6,3.6,1.6,5.9
			s-0.6,4.3-1.6,5.9c-1.1,1.7-2.6,2.9-4.5,3.8c-1.9,0.8-4.2,1.3-6.9,1.3h-6.6v8.9L662.9,507.1L662.9,507.1z M674.2,493.3
			c2.4,0,4.4-0.5,5.7-1.5c1.2-0.9,1.8-2.4,1.8-4.3s-0.6-3.3-1.8-4.4c-1.3-1-3.2-1.5-5.6-1.5h-6.4v11.8h6.3V493.3z"/>
		<path class="st2" d="M723.4,507.2l-6.3-9c-0.5,0-1,0-1.5,0H709v9h-5.6v-30.8h12.2c2.7,0,5,0.4,6.9,1.3c1.9,0.8,3.4,2.1,4.5,3.8
			c1.1,1.6,1.6,3.6,1.6,5.9s-0.6,4.3-1.6,5.9c-1.1,1.7-2.6,2.9-4.5,3.8l7.3,10.3h-6.4V507.2z M715.4,493.3c2.4,0,4.4-0.5,5.7-1.5
			c1.2-1,1.8-2.5,1.8-4.3s-0.6-3.3-1.8-4.4c-1.3-1-3.2-1.5-5.6-1.5h-6.4v11.8h6.3V493.3z"/>
		<path class="st2" d="M759.3,507.6c-2.2,0-4.4-0.4-6.4-1.1c-2.2-0.9-3.9-2-5.3-3.4c-1.6-1.6-2.7-3.2-3.5-5c-0.8-1.9-1.3-4-1.3-6.3
			c0-2.2,0.4-4.2,1.3-6.3c0.8-1.9,2-3.6,3.5-5c1.3-1.3,3.1-2.4,5.2-3.4c1.8-0.8,4-1.2,6.6-1.2c2.2,0,4.4,0.4,6.4,1.1
			s3.8,1.9,5.3,3.4s2.6,3.1,3.4,5s1.3,4,1.3,6.3s-0.4,4.4-1.3,6.3c-0.8,1.9-2,3.6-3.4,5c-1.4,1.4-3.2,2.5-5.3,3.3
			C763.7,507.2,761.5,507.6,759.3,507.6z M759.2,481.2c-1.4,0-2.8,0.3-4.3,0.8c-1.3,0.5-2.4,1.3-3.3,2.2c-0.9,0.9-1.7,2.1-2.2,3.4
			c-0.6,1.4-0.8,2.7-0.8,4.2s0.3,2.9,0.8,4.2c0.6,1.3,1.3,2.4,2.2,3.4c0.9,0.9,2.1,1.7,3.4,2.2c1.2,0.5,2.5,0.7,4.2,0.7
			c1.5,0,2.9-0.2,4.4-0.8c1.3-0.5,2.4-1.3,3.3-2.2c0.9-0.9,1.7-2.1,2.2-3.4c0.6-1.3,0.8-2.7,0.8-4.2s-0.3-2.9-0.8-4.2
			c-0.6-1.3-1.3-2.4-2.2-3.4s-2.1-1.7-3.4-2.2C762.3,481.5,760.9,481.2,759.2,481.2z"/>
	</g>
</g>
</svg>
