<svg xmlns="http://www.w3.org/2000/svg" width="87.869" height="50.23" viewBox="0 0 87.869 50.23"><g transform="translate(-141.5 -620.5)"><rect width="86.869" height="49.23" transform="translate(142 621)" fill="none" stroke="rgba(0,0,0,0.13)" stroke-width="1"/><line y2="49" transform="translate(186 621.5)" fill="none" stroke="rgba(0,0,0,0.13)" stroke-width="1"/><path d="M166.18,172.453a.587.587,0,0,1,.453.194.621.621,0,0,1,.194.453.669.669,0,0,1-.194.474.621.621,0,0,1-.453.194.587.587,0,0,1-.453-.194.634.634,0,0,1-.194-.474A.663.663,0,0,1,166.18,172.453Zm0,.086a.592.592,0,0,0-.561.561.631.631,0,0,0,.173.41.523.523,0,0,0,.776,0,.552.552,0,0,0,.173-.41.54.54,0,0,0-.173-.388.5.5,0,0,0-.388-.173Zm-20.055-7.375a3.056,3.056,0,0,1,2.243.733,2.113,2.113,0,0,1-.561,3.3,2.143,2.143,0,0,1,1.6,2.092c0,1.466-1.186,2.286-3,2.329H142.2v-8.475h3.925Zm8,0a3.056,3.056,0,0,1,2.243.733,2.113,2.113,0,0,1-.561,3.3,2.143,2.143,0,0,1,1.6,2.092c0,1.466-1.186,2.286-3,2.329H150.2v-8.475h3.925Zm8.022,0a3.056,3.056,0,0,1,2.243.733,2.113,2.113,0,0,1-.561,3.3,2.143,2.143,0,0,1,1.6,2.092c0,1.466-1.186,2.286-3,2.329h-4.205v-8.475h3.925Zm4.033,7.591a.478.478,0,0,1,.194.022.171.171,0,0,1,.108.173.2.2,0,0,1-.065.151c-.022.022-.065.022-.108.043h0c.065,0,.086.043.129.065.022.043.043.065.043.108v.129h-.108v-.086a.212.212,0,0,0-.065-.173c-.022-.022-.065-.022-.151-.022h-.108v.28h-.129v-.712h.259Zm-19.969-2.588h-2.243v1.855h2.243c.8,0,1.359-.323,1.359-.884s-.41-.971-1.359-.971Zm8,0h-2.243v1.855h2.243c.8,0,1.359-.323,1.359-.884s-.388-.971-1.358-.971Zm7.936,0h-2.156v1.855h2.221c.8,0,1.272-.323,1.272-.884.022-.562-.384-.971-1.336-.971Zm-16.26-3.3h-1.919v1.768h1.768c.8,0,1.359-.237,1.359-.884,0-.56-.409-.884-1.207-.884Zm8,0h-1.919v1.768h1.768c.8,0,1.359-.237,1.359-.884,0-.56-.409-.884-1.207-.884Zm8,0h-1.833v1.768h1.682c.8,0,1.359-.237,1.359-.884,0-.56-.408-.884-1.206-.884Zm-.949-7.267.539,1.7H157.66l-.712,2.415H150.63l-.712-2.415H146.1l.539-1.7Zm-10.2-12.357.5.41a1.019,1.019,0,0,0,.173,1.337l.108.086h0l3.235,2.351a3.771,3.771,0,0,1,1.272,1.9,4,4,0,0,1-.108,2.286c-.065.151-.151.3-.216.453l-.129.216-1.833,2.5-.518-.431c.022-.022.043-.043.043-.065.022-.043.043-.065.065-.108a.658.658,0,0,0,.065-.518c0-.043-.022-.065-.022-.108v-.022h0c0-.022-.022-.043-.043-.065l-.022-.043h0l-.022-.043-.043-.065-.194-.194-.043-.043-3.343-2.394a3.713,3.713,0,0,1-1.359-2.264,4.509,4.509,0,0,1-.022-.539,3.543,3.543,0,0,1,.518-1.941l.129-.194,1.315-1.768Zm3-11.343.41.323a1.39,1.39,0,0,0-.237,1.121,1.491,1.491,0,0,0,.518.863l.108.086,5.2,3.8a4.957,4.957,0,0,1,2.006,3.235,4.835,4.835,0,0,1-.733,3.515l-.151.194L157.4,153.8l-.474-.345a2.707,2.707,0,0,0,.367-.776l.043-.129.043-.173a3.265,3.265,0,0,0,.043-.647l-.022-.151v-.043a2.1,2.1,0,0,0-.129-.5c0-.022,0-.022-.022-.043h0a2.734,2.734,0,0,0-.755-1.035l-.151-.108L152.03,146.7a4.957,4.957,0,0,1-2.006-3.235,2.519,2.519,0,0,1-.086-.8,4.742,4.742,0,0,1,.8-2.674l.151-.216Z" transform="translate(10.167 490.067)" fill="#707070"/><g transform="translate(-15851.944 -4766.452)"><path d="M-208.99,662.764h-2.443a.27.27,0,0,1-.263-.243,2.215,2.215,0,0,0-.134-.338c0-.012-.018-.023-.018-.035a.47.47,0,0,0-.077-.24,2,2,0,0,1-.092-.289,2.207,2.207,0,0,1-.134-.326c-.021-.109-.12-.18-.11-.307.006-.076-.072-.157-.113-.236-.009-.017-.034-.031-.034-.047a1.038,1.038,0,0,0-.071-.245,2.472,2.472,0,0,0-.162-.377c-.047-.117-.063-.245-.1-.365a2.355,2.355,0,0,0-.1-.233c-.021-.05-.041-.1-.06-.151-.038-.1-.073-.2-.112-.3s-.081-.211-.125-.315-.1-.212-.145-.318a.182.182,0,0,1-.012-.027,1.091,1.091,0,0,0-.091-.3c-.084-.128-.078-.287-.16-.407s-.089-.28-.162-.405a.193.193,0,0,0-.171-.116h-9.659c-.1,0-.272.143-.269.239,0,.132-.1.219-.122.336,0,.022-.023.041-.029.063-.033.117-.056.237-.1.35-.064.164-.144.322-.214.483a.951.951,0,0,0-.021.1,1.331,1.331,0,0,1-.049.125c-.006.015-.026.027-.027.041a1.65,1.65,0,0,1-.07.247,2.221,2.221,0,0,1-.1.291,2.645,2.645,0,0,1-.141.326c0,.009-.012.019-.011.028a.735.735,0,0,1-.147.384c-.013.025-.007.059-.016.087a1.238,1.238,0,0,1-.048.125c-.006.015-.028.028-.027.04a.7.7,0,0,1-.08.292,3.216,3.216,0,0,1-.151.416,1.866,1.866,0,0,0-.1.286.657.657,0,0,1-.039.089c-.009.018-.033.033-.033.049,0,.2-.15.345-.179.537a1.473,1.473,0,0,1-.139.336c-.005.012-.007.026-.011.038-.03.094-.057.19-.094.282a.108.108,0,0,1-.081.042c-.077.006-.154,0-.231,0h-4.594c-.056,0-.148-.01-.16-.041a.234.234,0,0,1,.034-.233,1.218,1.218,0,0,0,.113-.286c.014-.036.026-.073.041-.109s.032-.039.033-.06a.63.63,0,0,1,.157-.357.046.046,0,0,0,.011-.027c-.019-.207.154-.354.17-.552,0-.052.049-.1.072-.151.05-.113.1-.225.147-.341.037-.1.059-.2.1-.292s.1-.214.143-.323c.037-.092.063-.189.094-.284v-.02c.106-.087.051-.238.141-.342a.814.814,0,0,0,.1-.284c.006-.019,0-.044.01-.058a.925.925,0,0,0,.16-.391.861.861,0,0,1,.116-.224c.008-.015.024-.028.025-.042a1.153,1.153,0,0,1,.156-.4c.071-.175.116-.36.18-.538.04-.111.1-.214.144-.324s.06-.2.1-.3c.023-.066.055-.13.083-.194.046-.1.093-.207.138-.312a.208.208,0,0,0,.018-.076.2.2,0,0,1,.059-.16.358.358,0,0,0,.09-.2,1.092,1.092,0,0,1,.156-.388,3.08,3.08,0,0,0,.1-.3c.044-.113.1-.222.145-.334.011-.027,0-.06.014-.088a.872.872,0,0,1,.05-.121,2.28,2.28,0,0,0,.1-.205c.036-.1.053-.2.089-.3s.1-.214.141-.323.06-.2.1-.295.074-.164.114-.245c.007-.015.026-.025.03-.039.034-.119.059-.24.1-.357a2.19,2.19,0,0,1,.113-.246c.01-.021.037-.038.037-.057a1.672,1.672,0,0,1,.153-.421,1.333,1.333,0,0,1,.164-.359.069.069,0,0,0,.011-.038.65.65,0,0,1,.145-.353.35.35,0,0,0,.017-.067c.019-.057.039-.114.06-.17,0-.009.016-.019.014-.025-.034-.12.069-.2.1-.3a2.782,2.782,0,0,1,.135-.326c.036-.091.062-.186.1-.277s.073-.174.109-.262c.019-.046.033-.093.051-.138.047-.12.1-.24.142-.36.036-.1.066-.2.1-.291s.076-.171.116-.256c.008-.018.029-.03.035-.048.033-.1.057-.2.1-.3s.1-.214.144-.322c.01-.023,0-.053.013-.078a1.574,1.574,0,0,1,.059-.147.793.793,0,0,0,.089-.19.7.7,0,0,1,.089-.262c.1-.165.079-.38.216-.532a.09.09,0,0,0,.021-.055.735.735,0,0,1,.14-.343.6.6,0,0,0,.026-.095c.016-.045.035-.089.054-.132.005-.012.023-.024.021-.033-.031-.122.069-.2.1-.31a2.864,2.864,0,0,1,.139-.316c.037-.1.058-.2.1-.295s.078-.165.118-.246c.009-.018.033-.033.032-.049,0-.2.145-.354.183-.547a2.38,2.38,0,0,1,.208-.48.1.1,0,0,0,.013-.037.82.82,0,0,1,.143-.359.8.8,0,0,0,.024-.1c.014-.042.031-.084.049-.125.006-.015.026-.028.026-.041a.892.892,0,0,1,.156-.4c.043-.091.058-.2.1-.291a2.557,2.557,0,0,0,.138-.33c.024-.1.113-.178.107-.3,0-.081.07-.165.107-.248.016-.036.028-.074.042-.11s.036-.089.055-.134c.005-.012.02-.023.02-.034,0-.18.128-.309.176-.47a2.693,2.693,0,0,1,.142-.318.115.115,0,0,0,.01-.048.772.772,0,0,1,.138-.336c0-.009.017-.018.016-.025-.029-.122.073-.2.1-.309a2,2,0,0,1,.137-.32.092.092,0,0,0,.013-.037.673.673,0,0,1,.141-.37.088.088,0,0,0,.015-.037.864.864,0,0,1,.144-.369.162.162,0,0,0,.015-.047,1.42,1.42,0,0,1,.158-.439c.04-.073.058-.159.1-.23a.152.152,0,0,1,.113-.054h4.886c.149,0,.2.045.25.185a2.55,2.55,0,0,1,.139.333c.02.106.12.174.106.3-.008.068.059.145.092.219l.062.147a.975.975,0,0,0,.1.249.23.23,0,0,1,.059.16.115.115,0,0,0,.006.049c.072.158.15.313.218.472.041.095.064.2.1.293s.083.175.126.262c.006.012.019.021.022.033.03.1.051.207.089.306s.1.211.143.32.063.2.1.3.078.2.119.3.083.192.125.287.094.205.136.31.071.2.109.3c.031.079.067.156.1.235.02.05.036.1.057.152q.055.133.115.264c.008.017.031.029.036.046.031.1.052.205.088.3s.1.206.138.312.069.192.1.288a1.829,1.829,0,0,0,.1.243c.046.109.1.218.143.327s.094.225.138.339c.063.162.122.325.184.487a.381.381,0,0,0,.036.068c.012.019.034.035.04.055a1.545,1.545,0,0,0,.092.3c.076.134.086.293.165.419a3.65,3.65,0,0,1,.15.394c.077.158.155.316.226.477.038.086.059.181.094.268.07.172.145.342.218.512.007.015.02.03.02.045a.686.686,0,0,0,.153.383.1.1,0,0,1,.012.048.636.636,0,0,0,.141.343.073.073,0,0,1,.017.036.682.682,0,0,0,.15.374.066.066,0,0,1,.012.037.618.618,0,0,0,.143.355.5.5,0,0,1,.021.066c.045.111.091.221.136.332.006.015.02.03.021.045a.916.916,0,0,0,.149.371,2.751,2.751,0,0,1,.092.26c.049.129.1.255.151.384.036.1.062.2.1.3a1.9,1.9,0,0,0,.1.213.839.839,0,0,1,.144.352.7.7,0,0,0,.1.224c.02.042.039.085.056.128s.03.084.047.125c.006.015.027.027.027.041a.89.89,0,0,0,.158.39c.038.08.055.17.089.252.075.184.156.365.23.549.037.094.06.193.1.288.044.116.1.229.141.346.037.1.064.2.1.292s.077.164.117.245c.011.024.036.045.038.068a.782.782,0,0,0,.149.368.087.087,0,0,1,.015.047.738.738,0,0,0,.135.333.189.189,0,0,1,.027.063.9.9,0,0,0,.139.345,2.433,2.433,0,0,1,.1.287,3.107,3.107,0,0,0,.174.464c.071.128.086.27.15.4.039.076.087.148.13.221.005.008.018.016.017.024a.424.424,0,0,0,.089.281.775.775,0,0,1,.046.091c.011.02.032.038.033.058a.756.756,0,0,0,.149.367.115.115,0,0,1,.014.057.694.694,0,0,0,.136.329c.008.014.022.029.023.044a.458.458,0,0,0,.073.23,1.93,1.93,0,0,1,.1.285,2.483,2.483,0,0,0,.129.244c0,.009.015.015.018.024.031.108.058.217.093.324a2.182,2.182,0,0,0,.1.265.982.982,0,0,1,.144.344.787.787,0,0,0,.1.229l.057.129c.042.1.083.194.126.29.006.015.027.026.028.04a1.033,1.033,0,0,0,.155.391,2.577,2.577,0,0,1,.093.268c.048.126.1.251.151.374.037.084,0,.145-.106.145h-2.513Zm-9.789-9.675h3.226c.081,0,.165-.1.141-.165-.083-.24-.162-.481-.253-.719-.141-.371-.3-.737-.435-1.108-.123-.327-.231-.659-.35-.987-.1-.289-.217-.575-.326-.862-.065-.172-.126-.345-.192-.516-.114-.3-.232-.6-.345-.9-.076-.2-.143-.409-.217-.612-.087-.238-.18-.474-.268-.712q-.215-.576-.427-1.152c-.1-.265-.193-.531-.292-.8-.051-.137-.109-.272-.162-.409-.029-.073-.093-.059-.146-.052-.037.005-.091.028-.1.057q-.174.449-.336.9c-.081.226-.151.456-.234.682-.064.174-.144.342-.208.516s-.121.367-.188.547c-.154.417-.316.83-.467,1.248-.092.254-.167.514-.258.768s-.2.526-.3.791c-.09.241-.175.484-.263.726l-.688,1.88a.121.121,0,0,1-.011.039c-.069.193-.13.39-.21.579-.072.169-.032.249.149.249Z" transform="translate(16275.024 4753.243)" fill="#707070"/><path d="M-70.765,666.066H-72.44c-.131,0-.137-.008-.137-.14v-2.1c0-.13.006-.137.14-.137h3.281a.345.345,0,0,0,.118-.044c.011,0,.021-.022.031-.022.133,0,.115-.087.115-.172V660.2a.192.192,0,0,1,.182-.187h1.851a.628.628,0,0,1,.242.1c.017.009.023.052.023.08v3.339a.174.174,0,0,0,.17.161h3.388c.088-.008.121.029.121.119v2.125c0,.117-.009.128-.129.128h-3.33c-.161,0-.22.061-.221.223v3.32c0,.126-.009.136-.131.136h-2.037c-.119,0-.126-.01-.126-.13v-3.369a.177.177,0,0,0-.051-.129.177.177,0,0,0-.128-.053h-1.694Z" transform="translate(16138.645 4734.786)" fill="#707070"/><g transform="translate(16278.091 4596.618)"><path d="M-233.234,842.539c0-.844-.021-1.564-.059-2.228h1.14l.05,1.4h.046a2.171,2.171,0,0,1,1.992-1.566,1.471,1.471,0,0,1,.362.037v1.223a2.062,2.062,0,0,0-.442-.038,1.817,1.817,0,0,0-1.741,1.664,3.46,3.46,0,0,0-.052.607v3.821h-1.294Z" transform="translate(0 -14.874)" fill="#707070"/><path d="M-205.6,847.464l-.115-.9h-.039a2.66,2.66,0,0,1-2.188,1.066,2.04,2.04,0,0,1-1.542-.548,2.04,2.04,0,0,1-.643-1.5c0-1.732,1.535-2.684,4.3-2.664v-.152a1.473,1.473,0,0,0-.413-1.221,1.473,1.473,0,0,0-1.216-.428,3.483,3.483,0,0,0-1.863.533l-.3-.865a4.5,4.5,0,0,1,2.361-.627c2.186,0,2.719,1.495,2.719,2.927v2.676a11.182,11.182,0,0,0,.108,1.712Zm-.2-3.652c-1.407-.03-3.019.223-3.019,1.606a1.145,1.145,0,0,0,.321.9,1.145,1.145,0,0,0,.893.343,1.791,1.791,0,0,0,1.743-1.2,1.353,1.353,0,0,0,.062-.41Z" transform="translate(-19.639 -14.874)" fill="#707070"/><path d="M-167.848,827.684v2.059h1.869v.985h-1.869v3.854c0,.891.257,1.394.984,1.394a2.585,2.585,0,0,0,.754-.094l.059.988a3.322,3.322,0,0,1-1.162.179,1.82,1.82,0,0,1-1.4-.551,2.737,2.737,0,0,1-.5-1.866v-3.905h-1.108v-.985h1.108V828.02Z" transform="translate(-53.47 -4.306)" fill="#707070"/><path d="M-136.951,823.415a.784.784,0,0,1-.236.586.784.784,0,0,1-.591.222.775.775,0,0,1-.566-.235.776.776,0,0,1-.219-.573.79.79,0,0,1,.231-.578.79.79,0,0,1,.578-.231.779.779,0,0,1,.577.23.779.779,0,0,1,.226.579Zm-1.453,9.174v-7.152h1.294v7.152Z" transform="translate(-80.319)" fill="#707070"/><path d="M-119.961,842.243c0-.746-.024-1.339-.059-1.932h1.149l.072,1.176h.036a2.639,2.639,0,0,1,2.365-1.339c.982,0,2.52.591,2.52,3.048v4.267h-1.294V843.34c0-1.156-.436-2.125-1.653-2.125a1.872,1.872,0,0,0-1.752,1.335,2.015,2.015,0,0,0-.09.6v4.31h-1.294Z" transform="translate(-96.042 -14.874)" fill="#707070"/><path d="M-67.263,840.312c-.036.505-.06,1.086-.06,1.957v4.153c0,1.656-.338,2.648-1.021,3.275a3.846,3.846,0,0,1-2.606.858,4.615,4.615,0,0,1-2.387-.589l.326-1a4.025,4.025,0,0,0,2.105.573c1.328,0,2.3-.695,2.3-2.506v-.8h-.03a2.536,2.536,0,0,1-2.273,1.2,3.2,3.2,0,0,1-2.276-1.1,3.2,3.2,0,0,1-.773-2.4c0-2.425,1.577-3.792,3.229-3.792a2.376,2.376,0,0,1,2.231,1.234h.03l.054-1.071Zm-1.353,2.813a2,2,0,0,0-.072-.582,1.879,1.879,0,0,0-1.827-1.384c-1.241,0-2.13,1.049-2.13,2.712,0,1.4.723,2.576,2.117,2.576a1.9,1.9,0,0,0,1.81-1.341,2.313,2.313,0,0,0,.1-.692Z" transform="translate(-135.099 -14.874)" fill="#707070"/></g></g></g></svg>