<svg xmlns="http://www.w3.org/2000/svg" width="60.243" height="51.005" viewBox="0 0 60.243 51.005"><g transform="translate(-142 -703)"><g transform="translate(59.102 159.555)"><path d="M39.828,122.286h1.641a1.644,1.644,0,0,1,.771.185,1.419,1.419,0,0,1,0,2.529,1.644,1.644,0,0,1-.771.185h-.9v1.84h-.741Zm1.654,2.2a.8.8,0,0,0,.424-.109.74.74,0,0,0,.271-1,.709.709,0,0,0-.271-.278.815.815,0,0,0-.424-.106h-.914v1.489Z" transform="translate(52.071 463.714)" fill="#707070"/><path d="M46.44,122.286H48.1a1.639,1.639,0,0,1,.775.185,1.4,1.4,0,0,1,.755,1.264,1.29,1.29,0,0,1-.308.849,1.487,1.487,0,0,1-.771.5l-.007.033,1.3,1.873v.04h-.857l-1.251-1.853H47.18v1.853h-.74Zm1.648,2.2a.8.8,0,0,0,.562-.211.7.7,0,0,0,.232-.542.754.754,0,0,0-.768-.748H47.18v1.5Z" transform="translate(49.264 463.714)" fill="#707070"/><path d="M53.248,122.286h2.878V123H53.989v1.311h1.926v.7H53.989v1.311h2.137v.709H53.248Z" transform="translate(46.373 463.714)" fill="#707070"/><path d="M59.618,122.286h1l1.363,3.594h.04l1.363-3.594H64.39v4.739h-.734v-2.654l.04-.853h-.04L62.3,127.025h-.594l-1.358-3.508h-.04l.04.853v2.654h-.735Z" transform="translate(43.67 463.714)" fill="#707070"/><path d="M69.578,122.286h.741v4.739h-.741Z" transform="translate(39.441 463.714)" fill="#707070"/><path d="M72.511,122.286h2.877V123H73.252v1.311h1.925v.7H73.252v1.311h2.136v.709H72.511Z" transform="translate(38.196 463.714)" fill="#707070"/><path d="M78.881,122.286h1.668a1.636,1.636,0,0,1,.775.185,1.4,1.4,0,0,1,.754,1.264,1.292,1.292,0,0,1-.306.849,1.5,1.5,0,0,1-.771.5l-.007.033,1.3,1.873v.04h-.862l-1.249-1.853h-.557v1.853h-.741Zm1.648,2.2a.8.8,0,0,0,.562-.211.7.7,0,0,0,.232-.542.752.752,0,0,0-.772-.748h-.934v1.5Z" transform="translate(35.492 463.714)" fill="#707070"/><path d="M87.748,126.416l.834-.837q.623-.626.827-.849a2.71,2.71,0,0,0,.38-.483.9.9,0,0,0,.1-.444.605.605,0,0,0-.2-.45.735.735,0,0,0-.536-.192.712.712,0,0,0-.509.182.849.849,0,0,0-.255.424l-.661-.272a1.343,1.343,0,0,1,.248-.469,1.473,1.473,0,0,1,.486-.39,1.5,1.5,0,0,1,.7-.158,1.622,1.622,0,0,1,.764.175,1.288,1.288,0,0,1,.517.477,1.264,1.264,0,0,1,.182.665,1.51,1.51,0,0,1-.2.751,3.05,3.05,0,0,1-.509.671q-.133.126-.669.662l-.542.542.014.026h1.972v.662H87.746Z" transform="translate(31.733 463.523)" fill="#707070"/><path d="M94.675,126.895a2.012,2.012,0,0,1-.652-.853,3.291,3.291,0,0,1,0-2.41,1.99,1.99,0,0,1,.652-.849,1.7,1.7,0,0,1,1.952,0,2.006,2.006,0,0,1,.649.849,3.29,3.29,0,0,1,0,2.41,2.012,2.012,0,0,1-.652.853,1.673,1.673,0,0,1-1.952,0Zm1.571-.594a1.4,1.4,0,0,0,.39-.6,2.793,2.793,0,0,0,0-1.717,1.376,1.376,0,0,0-.39-.6.918.918,0,0,0-1.188,0,1.391,1.391,0,0,0-.387.6,2.782,2.782,0,0,0,0,1.717,1.418,1.418,0,0,0,.387.6.9.9,0,0,0,1.188,0Z" transform="translate(29.159 463.525)" fill="#707070"/><path d="M101.031,126.416l.834-.837q.622-.626.827-.849a2.682,2.682,0,0,0,.38-.483.9.9,0,0,0,.1-.444.605.605,0,0,0-.2-.45.735.735,0,0,0-.535-.192.712.712,0,0,0-.509.182.849.849,0,0,0-.255.424l-.661-.272a1.343,1.343,0,0,1,.248-.469,1.48,1.48,0,0,1,.486-.39,1.5,1.5,0,0,1,.7-.158,1.62,1.62,0,0,1,.764.175,1.288,1.288,0,0,1,.517.477,1.259,1.259,0,0,1,.182.665,1.516,1.516,0,0,1-.2.751,3.071,3.071,0,0,1-.509.671q-.132.126-.669.662l-.542.542.014.026h1.969v.662h-2.945Z" transform="translate(26.094 463.523)" fill="#707070"/><path d="M1.87.658C2.932.658,3.6.1,3.6-.678a1.159,1.159,0,0,0-1.062-1.11,1.1,1.1,0,0,0,.986-1.048c0-.76-.658-1.226-1.644-1.226a2.119,2.119,0,0,0-1.671.719l.411.5A1.585,1.585,0,0,1,1.8-3.35c.507,0,.925.219.925.637s-.4.6-.945.6c-.178,0-.445,0-.521-.007v.726c.069-.007.329-.014.521-.014.658,0,1.014.2,1.014.651,0,.418-.349.7-.952.7A1.691,1.691,0,0,1,.582-.609L.144-.082A2.138,2.138,0,0,0,1.87.658Z" transform="translate(130.358 590.062)" fill="#707070"/></g><g transform="translate(60 161)"><g transform="translate(82.999 539.224)"><path d="M84.981,45.443a10.456,10.456,0,0,0-.2-1.819h-8.29v3.437H81.14a3.987,3.987,0,0,1-1.675,2.689v2.239h2.877a8.712,8.712,0,0,0,2.638-6.545Z" transform="translate(-47.336 -28.67)" fill="#707070"/><path d="M65.112,58.86a8.473,8.473,0,0,0,5.877-2.147l-2.877-2.239a5.346,5.346,0,0,1-7.965-2.817H57.189v2.3a8.863,8.863,0,0,0,7.923,4.9Z" transform="translate(-35.984 -33.394)" fill="#707070"/><path d="M58.8,43.538a5.336,5.336,0,0,1,0-3.382v-2.3H55.84a8.914,8.914,0,0,0,0,7.987l2.958-2.3Z" transform="translate(-34.634 -25.276)" fill="#707070"/><path d="M65.112,29.491a4.8,4.8,0,0,1,3.392,1.33l2.542-2.549a8.5,8.5,0,0,0-5.934-2.318,8.863,8.863,0,0,0-7.923,4.9l2.958,2.3a5.291,5.291,0,0,1,4.965-3.663Z" transform="translate(-35.984 -18.277)" fill="#707070"/><g transform="translate(2.839 29.627)"><path d="M29.046,86.882a2.8,2.8,0,0,1-1.037-1.037,2.963,2.963,0,0,1,0-2.917,2.82,2.82,0,0,1,2.465-1.413,3.01,3.01,0,0,1,1.14.215,2.3,2.3,0,0,1,.879.606l-.468.469a1.7,1.7,0,0,0-.668-.5,2.223,2.223,0,0,0-.875-.173,2.2,2.2,0,0,0-1.087.28,2.139,2.139,0,0,0-.806.792,2.442,2.442,0,0,0,0,2.358,2.121,2.121,0,0,0,.81.792,2.37,2.37,0,0,0,2.008.108,2.078,2.078,0,0,0,.641-.456,1.686,1.686,0,0,0,.322-.519,2.289,2.289,0,0,0,.154-.672H30.489v-.607h2.642a2.269,2.269,0,0,1,.039.4,3.063,3.063,0,0,1-.158.986,2.187,2.187,0,0,1-.514.841,2.621,2.621,0,0,1-2.019.821,2.809,2.809,0,0,1-1.432-.375Z" transform="translate(-27.561 -81.447)" fill="#707070"/><path d="M30.417,87.267a2.89,2.89,0,0,1-1.462-.385h0A2.874,2.874,0,0,1,27.9,85.821a3.031,3.031,0,0,1,0-2.985,2.884,2.884,0,0,1,2.524-1.446,3.094,3.094,0,0,1,1.165.219,2.37,2.37,0,0,1,.9.624l.042.048-.566.566-.047-.058a1.634,1.634,0,0,0-.642-.475,2.161,2.161,0,0,0-.849-.167,2.139,2.139,0,0,0-1.054.272,2.079,2.079,0,0,0-.781.766,2.376,2.376,0,0,0,0,2.29,2.075,2.075,0,0,0,.785.766,2.307,2.307,0,0,0,1.948.105,2.024,2.024,0,0,0,.62-.442,1.622,1.622,0,0,0,.309-.5,2.207,2.207,0,0,0,.142-.58H30.365v-.741H33.13l.01.055a2.36,2.36,0,0,1,.04.411,3.152,3.152,0,0,1-.165,1.008,2.268,2.268,0,0,1-.53.867,2.693,2.693,0,0,1-2.068.843Zm0-5.744A2.752,2.752,0,0,0,28.01,82.9a2.9,2.9,0,0,0,0,2.852,2.747,2.747,0,0,0,1.012,1.012h0a2.756,2.756,0,0,0,1.4.368,2.569,2.569,0,0,0,1.97-.8,2.134,2.134,0,0,0,.5-.817,3.022,3.022,0,0,0,.158-.965,2.144,2.144,0,0,0-.029-.333H30.5v.475h2.04l-.006.073a2.383,2.383,0,0,1-.158.691,1.762,1.762,0,0,1-.335.539,2.166,2.166,0,0,1-.662.475,2.441,2.441,0,0,1-2.069-.109,2.2,2.2,0,0,1-.836-.816,2.509,2.509,0,0,1,0-2.425A2.218,2.218,0,0,1,29.3,82.3a2.343,2.343,0,0,1,2.021-.111,1.793,1.793,0,0,1,.646.458l.372-.371a2.256,2.256,0,0,0-.812-.542,2.957,2.957,0,0,0-1.115-.214Z" transform="translate(-27.504 -81.389)" fill="#707070"/><path d="M40.118,88.345a1.923,1.923,0,0,1-.718-.753,2.28,2.28,0,0,1,0-2.1,1.93,1.93,0,0,1,.718-.753,2.082,2.082,0,0,1,2.074,0,1.934,1.934,0,0,1,.718.753,2.28,2.28,0,0,1,0,2.1,1.927,1.927,0,0,1-.718.753A2.082,2.082,0,0,1,40.118,88.345Zm1.709-.5a1.333,1.333,0,0,0,.5-.518,1.758,1.758,0,0,0,0-1.584,1.336,1.336,0,0,0-.5-.518,1.316,1.316,0,0,0-.672-.18,1.331,1.331,0,0,0-1.179.7,1.754,1.754,0,0,0,0,1.584,1.32,1.32,0,0,0,.5.518,1.337,1.337,0,0,0,.676.181,1.317,1.317,0,0,0,.671-.181Z" transform="translate(-32.894 -82.81)" fill="#707070"/><path d="M41.1,88.631a2.05,2.05,0,0,1-1.072-.284,2.009,2.009,0,0,1-.743-.778,2.349,2.349,0,0,1,0-2.169,2.017,2.017,0,0,1,.743-.778,2.151,2.151,0,0,1,2.139,0,2.017,2.017,0,0,1,.743.778,2.348,2.348,0,0,1,0,2.169,2.009,2.009,0,0,1-.743.778A2.049,2.049,0,0,1,41.1,88.631Zm0-4.162a1.922,1.922,0,0,0-1,.267,1.877,1.877,0,0,0-.693.727,2.212,2.212,0,0,0,0,2.04,1.87,1.87,0,0,0,.693.727h0a2.014,2.014,0,0,0,2,0,1.867,1.867,0,0,0,.694-.727,2.212,2.212,0,0,0,0-2.04,1.874,1.874,0,0,0-.694-.727,1.915,1.915,0,0,0-1-.27Zm0,3.571a1.4,1.4,0,0,1-1.238-.733,1.822,1.822,0,0,1,0-1.647,1.4,1.4,0,0,1,2.467,0,1.827,1.827,0,0,1,0,1.647,1.418,1.418,0,0,1-.524.544h0a1.4,1.4,0,0,1-.705.189Zm0-2.979a1.267,1.267,0,0,0-1.12.664,1.688,1.688,0,0,0,0,1.516,1.267,1.267,0,0,0,.475.493,1.286,1.286,0,0,0,1.281,0h0a1.275,1.275,0,0,0,.475-.493,1.693,1.693,0,0,0,0-1.516,1.267,1.267,0,0,0-.475-.493,1.252,1.252,0,0,0-.636-.17Z" transform="translate(-32.836 -82.753)" fill="#707070"/><path d="M48.626,88.345a1.931,1.931,0,0,1-.718-.753,2.28,2.28,0,0,1,0-2.1,1.938,1.938,0,0,1,.718-.753,2.082,2.082,0,0,1,2.074,0,1.936,1.936,0,0,1,.718.753,2.28,2.28,0,0,1,0,2.1,1.929,1.929,0,0,1-.718.753,2.082,2.082,0,0,1-2.074,0Zm1.709-.5a1.334,1.334,0,0,0,.5-.518,1.759,1.759,0,0,0,0-1.584,1.338,1.338,0,0,0-.5-.518,1.315,1.315,0,0,0-.672-.18,1.332,1.332,0,0,0-1.179.7,1.759,1.759,0,0,0,0,1.584,1.347,1.347,0,0,0,1.85.518Z" transform="translate(-36.833 -82.81)" fill="#707070"/><path d="M49.606,88.632a2.052,2.052,0,0,1-1.07-.284,2.008,2.008,0,0,1-.742-.778,2.344,2.344,0,0,1,0-2.169,2.015,2.015,0,0,1,.742-.776,2.151,2.151,0,0,1,2.139,0,2.019,2.019,0,0,1,.742.778,2.344,2.344,0,0,1,0,2.169,2.011,2.011,0,0,1-.742.778,2.05,2.05,0,0,1-1.069.282Zm0-4.162a1.918,1.918,0,0,0-1,.267,1.874,1.874,0,0,0-.694.727,2.212,2.212,0,0,0,0,2.04,1.866,1.866,0,0,0,.694.727h0a2.014,2.014,0,0,0,2,0A1.874,1.874,0,0,0,51.3,87.5a2.212,2.212,0,0,0,0-2.04,1.882,1.882,0,0,0-.694-.727,1.919,1.919,0,0,0-1-.27Zm0,3.571a1.4,1.4,0,0,1-1.237-.733,1.822,1.822,0,0,1,0-1.647,1.389,1.389,0,0,1,.528-.544,1.421,1.421,0,0,1,1.415,0,1.405,1.405,0,0,1,.524.544,1.822,1.822,0,0,1,0,1.647,1.414,1.414,0,0,1-.524.544h0A1.391,1.391,0,0,1,49.606,88.041Zm0-2.979a1.267,1.267,0,0,0-1.12.664,1.693,1.693,0,0,0,0,1.516,1.267,1.267,0,0,0,.475.493,1.285,1.285,0,0,0,1.28,0h0a1.267,1.267,0,0,0,.475-.493,1.688,1.688,0,0,0,0-1.516,1.267,1.267,0,0,0-.475-.493,1.249,1.249,0,0,0-.635-.17Z" transform="translate(-36.775 -82.754)" fill="#707070"/><path d="M56.947,89.957a1.576,1.576,0,0,1-.6-.775l.592-.253a1.173,1.173,0,0,0,.434.55,1.229,1.229,0,0,0,.718.211,1.267,1.267,0,0,0,.94-.339,1.318,1.318,0,0,0,.334-.966v-.438h-.031a1.436,1.436,0,0,1-.541.488,1.648,1.648,0,0,1-.792.188,1.7,1.7,0,0,1-.925-.264,1.862,1.862,0,0,1-.665-.737,2.482,2.482,0,0,1,0-2.155,1.856,1.856,0,0,1,.665-.741A1.7,1.7,0,0,1,58,84.459a1.649,1.649,0,0,1,.792.189,1.41,1.41,0,0,1,.541.494h.029v-.561h.622v3.763a1.892,1.892,0,0,1-.522,1.44,2.164,2.164,0,0,1-2.515.173Zm1.781-2.107a1.271,1.271,0,0,0,.461-.515,1.712,1.712,0,0,0,.173-.792,1.732,1.732,0,0,0-.173-.8,1.222,1.222,0,0,0-1.747-.507,1.267,1.267,0,0,0-.464.514,1.721,1.721,0,0,0-.173.792,1.743,1.743,0,0,0,.173.8,1.21,1.21,0,0,0,1.109.69,1.188,1.188,0,0,0,.64-.177Z" transform="translate(-40.772 -82.81)" fill="#707070"/><path d="M58.03,90.29a1.98,1.98,0,0,1-1.179-.335,1.647,1.647,0,0,1-.627-.809l-.02-.059.713-.306.025.065a1.114,1.114,0,0,0,.41.518,1.167,1.167,0,0,0,.68.2,1.2,1.2,0,0,0,.893-.317,1.26,1.26,0,0,0,.317-.92v-.273a1.576,1.576,0,0,1-.475.383,1.73,1.73,0,0,1-.826.2,1.772,1.772,0,0,1-.961-.274,1.935,1.935,0,0,1-.688-.764,2.551,2.551,0,0,1,0-2.218,1.929,1.929,0,0,1,.689-.767,1.765,1.765,0,0,1,.961-.275,1.727,1.727,0,0,1,.826.2,1.533,1.533,0,0,1,.475.387v-.461H60v3.83a1.966,1.966,0,0,1-.543,1.489,1.988,1.988,0,0,1-1.425.513Zm-1.659-1.129a1.542,1.542,0,0,0,.554.684,1.813,1.813,0,0,0,2.931-1.558v-3.7h-.488v.561h-.135l-.02-.031a1.352,1.352,0,0,0-.516-.475,1.593,1.593,0,0,0-.763-.181,1.636,1.636,0,0,0-.89.254,1.8,1.8,0,0,0-.641.713,2.414,2.414,0,0,0,0,2.092,1.806,1.806,0,0,0,.641.713,1.641,1.641,0,0,0,.89.253,1.584,1.584,0,0,0,.763-.18,1.386,1.386,0,0,0,.516-.464l.02-.031h.134v.5a1.389,1.389,0,0,1-.353,1.014,1.331,1.331,0,0,1-.988.359,1.294,1.294,0,0,1-.756-.223,1.241,1.241,0,0,1-.431-.516ZM58.03,88.04a1.274,1.274,0,0,1-1.17-.726,1.815,1.815,0,0,1-.181-.83,1.791,1.791,0,0,1,.181-.829,1.339,1.339,0,0,1,.49-.541,1.29,1.29,0,0,1,1.842.533,1.822,1.822,0,0,1,.18.835,1.8,1.8,0,0,1-.18.826,1.355,1.355,0,0,1-.486.541,1.267,1.267,0,0,1-.676.191Zm0-2.979a1.148,1.148,0,0,0-.61.17,1.21,1.21,0,0,0-.44.488,1.663,1.663,0,0,0-.166.764,1.691,1.691,0,0,0,.166.769,1.144,1.144,0,0,0,1.05.653,1.126,1.126,0,0,0,.6-.17,1.216,1.216,0,0,0,.436-.489,1.653,1.653,0,0,0,.166-.764,1.675,1.675,0,0,0-.166-.773,1.188,1.188,0,0,0-.436-.484,1.147,1.147,0,0,0-.606-.163Z" transform="translate(-40.714 -82.752)" fill="#707070"/><path d="M65.068,81.743h.653v5.5h-.653Z" transform="translate(-44.896 -81.552)" fill="#707070"/><path d="M65.73,87.25h-.787V81.618h.787Zm-.653-.134H65.6V81.752h-.518Z" transform="translate(-44.839 -81.494)" fill="#707070"/><path d="M68.643,88.354a1.864,1.864,0,0,1-.695-.741,2.24,2.24,0,0,1-.249-1.061,2.337,2.337,0,0,1,.238-1.045,1.9,1.9,0,0,1,.665-.76,1.772,1.772,0,0,1,1-.284,1.884,1.884,0,0,1,1,.257,1.708,1.708,0,0,1,.649.713,2.289,2.289,0,0,1,.227,1.036.75.75,0,0,1-.023.2h-3.1a1.552,1.552,0,0,0,.215.752,1.247,1.247,0,0,0,.488.461,1.32,1.32,0,0,0,.618.154,1.274,1.274,0,0,0,1.16-.706l.554.269a1.962,1.962,0,0,1-.687.753,2.071,2.071,0,0,1-2.054.008Zm2.135-2.227a1.271,1.271,0,0,0-.139-.492,1.049,1.049,0,0,0-.387-.414,1.214,1.214,0,0,0-.665-.169,1.109,1.109,0,0,0-.779.295,1.426,1.426,0,0,0-.418.779Z" transform="translate(-46.115 -82.81)" fill="#707070"/><path d="M69.591,88.631a1.985,1.985,0,0,1-1.041-.278h0a1.941,1.941,0,0,1-.719-.767,2.319,2.319,0,0,1-.257-1.1,2.418,2.418,0,0,1,.238-1.074,1.967,1.967,0,0,1,.688-.787,1.842,1.842,0,0,1,1.035-.3,1.955,1.955,0,0,1,1.03.268,1.782,1.782,0,0,1,.674.737,2.367,2.367,0,0,1,.238,1.066.816.816,0,0,1-.026.218l-.013.049H68.365a1.453,1.453,0,0,0,.2.65,1.188,1.188,0,0,0,.462.437,1.262,1.262,0,0,0,.588.146,1.2,1.2,0,0,0,1.1-.673l.031-.054.672.326-.032.062a2.047,2.047,0,0,1-.713.778,1.986,1.986,0,0,1-1.082.291Zm-.971-.4a2,2,0,0,0,1.98-.007,1.9,1.9,0,0,0,.634-.666L70.8,87.35a1.329,1.329,0,0,1-1.188.686,1.4,1.4,0,0,1-.65-.158,1.327,1.327,0,0,1-.514-.486,1.624,1.624,0,0,1-.225-.784v-.071h3.111a.81.81,0,0,0,.01-.132,2.236,2.236,0,0,0-.219-1.007,1.651,1.651,0,0,0-.623-.683,1.827,1.827,0,0,0-.963-.248,1.709,1.709,0,0,0-.962.273,1.84,1.84,0,0,0-.641.733,2.277,2.277,0,0,0-.227,1.015,2.181,2.181,0,0,0,.242,1.03,1.808,1.808,0,0,0,.67.713Zm2.172-2.1H68.25l.016-.079a1.494,1.494,0,0,1,.437-.813,1.175,1.175,0,0,1,.825-.317,1.284,1.284,0,0,1,.7.179,1.109,1.109,0,0,1,.411.441,1.347,1.347,0,0,1,.146.517ZM68.416,86h2.23a1.237,1.237,0,0,0-.124-.4.986.986,0,0,0-.363-.387,1.158,1.158,0,0,0-.629-.158,1.044,1.044,0,0,0-.734.277,1.335,1.335,0,0,0-.379.668Z" transform="translate(-46.057 -82.752)" fill="#707070"/><path d="M79.123,81.743h1.85a1.8,1.8,0,0,1,.853.2,1.6,1.6,0,0,1,0,2.841,1.789,1.789,0,0,1-.853.208H79.768v2.242h-.645Zm1.867,2.634a1,1,0,0,0,.541-.146,1.049,1.049,0,0,0,.364-.376.962.962,0,0,0,0-.968,1.049,1.049,0,0,0-.364-.376,1,1,0,0,0-.541-.146H79.768v2.012Z" transform="translate(-51.404 -81.552)" fill="#707070"/><path d="M79.778,87.25H79V81.618h1.918a1.871,1.871,0,0,1,.885.215,1.666,1.666,0,0,1,0,2.959,1.865,1.865,0,0,1-.885.215h-1.14Zm-.645-.134h.511V84.874h1.273a1.738,1.738,0,0,0,.821-.2,1.579,1.579,0,0,0,.6-.554,1.56,1.56,0,0,0,0-1.61,1.579,1.579,0,0,0-.6-.554,1.743,1.743,0,0,0-.821-.2H79.132Zm1.8-2.73h-1.29V82.237h1.289a1.079,1.079,0,0,1,.577.158,1.128,1.128,0,0,1,.387.4,1.03,1.03,0,0,1,0,1.03,1.118,1.118,0,0,1-.387.4,1.07,1.07,0,0,1-.577.159Zm-1.155-.134h1.155a.937.937,0,0,0,.5-.135.989.989,0,0,0,.342-.352.9.9,0,0,0,0-.9,1,1,0,0,0-.342-.353.944.944,0,0,0-.5-.135H79.778Z" transform="translate(-51.346 -81.494)" fill="#707070"/><path d="M87.594,88.451a1.268,1.268,0,0,1-.523-.465,1.245,1.245,0,0,1-.184-.672,1.143,1.143,0,0,1,.468-.971,1.922,1.922,0,0,1,1.183-.349,2.683,2.683,0,0,1,.657.079,1.71,1.71,0,0,1,.464.177v-.238a.885.885,0,0,0-.307-.705,1.145,1.145,0,0,0-.776-.265,1.306,1.306,0,0,0-.607.143,1.1,1.1,0,0,0-.437.4l-.491-.369a1.572,1.572,0,0,1,.634-.554,1.987,1.987,0,0,1,.9-.2,1.788,1.788,0,0,1,1.255.418,1.471,1.471,0,0,1,.457,1.14V88.5H89.66v-.56h-.031a1.406,1.406,0,0,1-.506.484,1.472,1.472,0,0,1-.76.2A1.7,1.7,0,0,1,87.594,88.451Zm1.444-.576a1.284,1.284,0,0,0,.452-.453,1.2,1.2,0,0,0,.17-.622,1.639,1.639,0,0,0-.453-.2,2.067,2.067,0,0,0-.569-.079,1.251,1.251,0,0,0-.81.223.707.707,0,0,0-.272.576.64.64,0,0,0,.246.522.954.954,0,0,0,.622.2,1.183,1.183,0,0,0,.612-.166Z" transform="translate(-54.999 -82.809)" fill="#707070"/><path d="M88.305,88.631a1.762,1.762,0,0,1-.8-.176h0a1.336,1.336,0,0,1-.55-.489,1.32,1.32,0,0,1-.194-.708,1.213,1.213,0,0,1,.5-1.025,2,2,0,0,1,1.223-.363,2.746,2.746,0,0,1,.673.079,2.116,2.116,0,0,1,.381.129v-.126a.81.81,0,0,0-.284-.652,1.08,1.08,0,0,0-.731-.249,1.24,1.24,0,0,0-.576.135,1.044,1.044,0,0,0-.412.372l-.039.061-.6-.45.034-.052a1.643,1.643,0,0,1,.657-.572,2.066,2.066,0,0,1,.924-.207,1.859,1.859,0,0,1,1.3.436,1.54,1.54,0,0,1,.475,1.188v2.544H89.53v-.457a1.563,1.563,0,0,1-.436.371,1.541,1.541,0,0,1-.786.212ZM88.482,86a1.865,1.865,0,0,0-1.142.336,1.069,1.069,0,0,0-.441.917,1.181,1.181,0,0,0,.174.634,1.2,1.2,0,0,0,.5.44h0a1.638,1.638,0,0,0,.737.158,1.41,1.41,0,0,0,.726-.19,1.347,1.347,0,0,0,.483-.46l.019-.032h.136v.56h.488v-2.4a1.411,1.411,0,0,0-.436-1.091,1.731,1.731,0,0,0-1.21-.4,1.931,1.931,0,0,0-.865.192,1.52,1.52,0,0,0-.571.475l.384.288a1.18,1.18,0,0,1,.423-.36,1.379,1.379,0,0,1,.634-.149,1.217,1.217,0,0,1,.82.281.951.951,0,0,1,.33.754v.359l-.1-.062a1.65,1.65,0,0,0-.446-.169A2.626,2.626,0,0,0,88.482,86Zm-.116,2.05a1.023,1.023,0,0,1-.665-.215.7.7,0,0,1-.27-.573.775.775,0,0,1,.3-.627,1.322,1.322,0,0,1,.852-.238,2.145,2.145,0,0,1,.587.079,1.7,1.7,0,0,1,.475.208l.03.02v.036a1.268,1.268,0,0,1-.178.656,1.361,1.361,0,0,1-.475.475h0a1.253,1.253,0,0,1-.653.181Zm.215-1.52a1.2,1.2,0,0,0-.767.208.64.64,0,0,0-.248.524.573.573,0,0,0,.221.47.9.9,0,0,0,.579.185,1.122,1.122,0,0,0,.581-.158,1.229,1.229,0,0,0,.429-.429,1.139,1.139,0,0,0,.158-.554,1.606,1.606,0,0,0-.4-.172,2.024,2.024,0,0,0-.553-.069Z" transform="translate(-54.942 -82.753)" fill="#707070"/><path d="M94.7,83.793h.623v.623h.031a1.063,1.063,0,0,1,.468-.538,1.415,1.415,0,0,1,.722-.192,1.454,1.454,0,0,1,.279.028v.668a1.61,1.61,0,0,0-.353-.031,1.064,1.064,0,0,0-.81.33,1.2,1.2,0,0,0-.311.86v2.174H94.7Zm3.974,3.9a1,1,0,0,1-.342-.211.981.981,0,0,1-.23-.345,1.314,1.314,0,0,1-.079-.475V84.326h-.684v-.592h.684V82.625h.653v1.109h.951v.592h-.951v2.182a.785.785,0,0,0,.123.486.52.52,0,0,0,.422.173.8.8,0,0,0,.43-.131v.639a.985.985,0,0,1-.238.079,1.622,1.622,0,0,1-.3.023,1.221,1.221,0,0,1-.439-.082Z" transform="translate(-58.614 -81.962)" fill="#707070"/><path d="M99.053,87.783a1.311,1.311,0,0,1-.466-.079,1.089,1.089,0,0,1-.364-.226,1.047,1.047,0,0,1-.246-.368,1.371,1.371,0,0,1-.079-.5V84.335h-.684v-.726H97.9V82.5h.787v1.109h.951v.726h-.951V86.45a.729.729,0,0,0,.109.445.455.455,0,0,0,.369.147.735.735,0,0,0,.4-.12l.1-.065v.8l-.039.018a1.08,1.08,0,0,1-.25.079,1.676,1.676,0,0,1-.323.029ZM97.346,84.2h.684v2.4a1.254,1.254,0,0,0,.071.452.909.909,0,0,0,.215.317.945.945,0,0,0,.317.2,1.154,1.154,0,0,0,.417.074,1.549,1.549,0,0,0,.29-.022.912.912,0,0,0,.181-.055v-.475a.846.846,0,0,1-.363.084.586.586,0,0,1-.475-.2.84.84,0,0,1-.139-.529V84.2h.951v-.457h-.951V82.635h-.518v1.109h-.684Zm-1.989,3.521H94.57v-4.05h.756v.471a1.148,1.148,0,0,1,.4-.377,1.484,1.484,0,0,1,.756-.2,1.614,1.614,0,0,1,.3.024l.054.011v.808l-.079-.019a1.537,1.537,0,0,0-.337-.029.99.99,0,0,0-.761.309,1.147,1.147,0,0,0-.292.814Zm-.653-.134h.519V85.481a1.275,1.275,0,0,1,.33-.906,1.133,1.133,0,0,1,.859-.351,2.135,2.135,0,0,1,.286.017V83.71a1.615,1.615,0,0,0-.216-.013,1.354,1.354,0,0,0-.688.183.991.991,0,0,0-.44.5l-.017.042h-.143V83.8H94.7Z" transform="translate(-58.556 -81.904)" fill="#707070"/><path d="M105.263,84.582h.623v.577h.031a1.314,1.314,0,0,1,.514-.5,1.486,1.486,0,0,1,.753-.2,1.381,1.381,0,0,1,1.079.411,1.6,1.6,0,0,1,.372,1.118V88.5h-.653V86.087a1.042,1.042,0,0,0-.261-.792,1,1,0,0,0-.713-.246.95.95,0,0,0-.565.176,1.181,1.181,0,0,0-.387.464,1.372,1.372,0,0,0-.138.6v2.2h-.653Z" transform="translate(-63.506 -82.809)" fill="#707070"/><path d="M108.645,88.5h-.787V86.029a.988.988,0,0,0-.238-.742.943.943,0,0,0-.668-.227.89.89,0,0,0-.526.164,1.123,1.123,0,0,0-.366.439,1.32,1.32,0,0,0-.131.574V88.5h-.787V84.457h.756v.466a1.506,1.506,0,0,1,.444-.376,1.562,1.562,0,0,1,.786-.212,1.45,1.45,0,0,1,1.128.433,1.67,1.67,0,0,1,.39,1.163Zm-.653-.134h.519V85.93a1.544,1.544,0,0,0-.356-1.069,1.322,1.322,0,0,0-1.03-.389,1.426,1.426,0,0,0-.719.194,1.261,1.261,0,0,0-.49.47l-.019.035h-.138v-.577h-.488v3.782h.519V86.238a1.44,1.44,0,0,1,.145-.634,1.258,1.258,0,0,1,.41-.49,1.025,1.025,0,0,1,.6-.188,1.07,1.07,0,0,1,.76.264,1.109,1.109,0,0,1,.282.84Z" transform="translate(-63.449 -82.752)" fill="#707070"/><path d="M113.843,88.354a1.867,1.867,0,0,1-.695-.741,2.247,2.247,0,0,1-.248-1.061,2.337,2.337,0,0,1,.238-1.045,1.891,1.891,0,0,1,.664-.76,1.773,1.773,0,0,1,1-.284,1.881,1.881,0,0,1,1,.257,1.71,1.71,0,0,1,.65.713,2.3,2.3,0,0,1,.227,1.036.774.774,0,0,1-.023.2h-3.1a1.546,1.546,0,0,0,.215.753,1.247,1.247,0,0,0,.488.461,1.318,1.318,0,0,0,.618.154,1.273,1.273,0,0,0,1.16-.706l.554.269a1.968,1.968,0,0,1-.688.753,2.071,2.071,0,0,1-2.054.008Zm2.139-2.227a1.289,1.289,0,0,0-.139-.492,1.047,1.047,0,0,0-.387-.414,1.211,1.211,0,0,0-.665-.169,1.1,1.1,0,0,0-.779.295,1.426,1.426,0,0,0-.418.779Z" transform="translate(-67.042 -82.81)" fill="#707070"/><path d="M114.791,88.631a1.98,1.98,0,0,1-1.04-.278h0a1.934,1.934,0,0,1-.719-.767,2.323,2.323,0,0,1-.257-1.1,2.409,2.409,0,0,1,.242-1.074,1.96,1.96,0,0,1,.687-.787,1.846,1.846,0,0,1,1.036-.3,1.951,1.951,0,0,1,1.03.268,1.775,1.775,0,0,1,.674.737,2.367,2.367,0,0,1,.238,1.066.844.844,0,0,1-.025.217l-.013.049H113.57a1.434,1.434,0,0,0,.2.65,1.188,1.188,0,0,0,.461.437,1.26,1.26,0,0,0,.587.146,1.2,1.2,0,0,0,1.1-.673l.032-.054.672.326-.032.062a2.053,2.053,0,0,1-.713.778,1.987,1.987,0,0,1-1.086.292Zm-.971-.4a2,2,0,0,0,1.98-.007,1.918,1.918,0,0,0,.634-.666L116,87.35a1.328,1.328,0,0,1-1.188.686,1.394,1.394,0,0,1-.649-.158,1.326,1.326,0,0,1-.514-.486,1.628,1.628,0,0,1-.225-.784v-.071h3.111a.764.764,0,0,0,.01-.132,2.241,2.241,0,0,0-.219-1.007,1.652,1.652,0,0,0-.624-.683,1.822,1.822,0,0,0-.963-.248,1.708,1.708,0,0,0-.962.273,1.83,1.83,0,0,0-.641.733,2.282,2.282,0,0,0-.227,1.016,2.184,2.184,0,0,0,.242,1.03,1.808,1.808,0,0,0,.67.713Zm2.172-2.1H113.45l.017-.079a1.492,1.492,0,0,1,.439-.814,1.174,1.174,0,0,1,.825-.317,1.283,1.283,0,0,1,.7.179,1.113,1.113,0,0,1,.411.441,1.347,1.347,0,0,1,.146.517ZM113.615,86h2.23a1.252,1.252,0,0,0-.124-.4.984.984,0,0,0-.364-.387,1.157,1.157,0,0,0-.628-.158,1.044,1.044,0,0,0-.734.277,1.338,1.338,0,0,0-.379.668Z" transform="translate(-66.984 -82.752)" fill="#707070"/><path d="M121.32,84.584h.623v.634h.031a1.074,1.074,0,0,1,.445-.538,1.252,1.252,0,0,1,.691-.215,1.151,1.151,0,0,1,.461.084v.7a1.227,1.227,0,0,0-.555-.124.911.911,0,0,0-.521.158,1.159,1.159,0,0,0-.38.436,1.252,1.252,0,0,0-.143.588V88.5h-.653Z" transform="translate(-70.94 -82.81)" fill="#707070"/><path d="M121.983,88.506H121.2V84.458h.756v.47a1.23,1.23,0,0,1,.372-.366,1.324,1.324,0,0,1,.728-.226,1.219,1.219,0,0,1,.488.09l.04.017V85.3l-.1-.048a1.167,1.167,0,0,0-.524-.116.844.844,0,0,0-.484.151,1.092,1.092,0,0,0-.358.41,1.188,1.188,0,0,0-.135.554Zm-.653-.134h.519V86.247a1.325,1.325,0,0,1,.15-.619,1.237,1.237,0,0,1,.4-.459.981.981,0,0,1,.559-.173,1.33,1.33,0,0,1,.486.087v-.554a1.133,1.133,0,0,0-.4-.063,1.188,1.188,0,0,0-.654.2,1.012,1.012,0,0,0-.419.5l-.016.044h-.145v-.634h-.488Z" transform="translate(-70.884 -82.752)" fill="#707070"/></g></g><path d="M-111.818-100H-157v-51l60.242.12V-100h-15.061Zm14.061-1v-9.856L-156-110.878V-101l43.682,0Zm0-10.855v-38.031L-156-150v38.119Z" transform="translate(239 693)" fill="rgba(0,0,0,0.13)"/><g transform="translate(82 542)"><path d="M0,0,60.243.119V51H0Z" fill="none"/></g><g transform="translate(82 581.121)"><path d="M0,0,60.243.028V11.883H0Z" fill="none"/></g></g></g></svg>