<svg xmlns="http://www.w3.org/2000/svg" width="144.373" height="50.659" viewBox="0 0 144.373 50.659"><g transform="translate(-465.464 -634.5)"><path d="M12.32,24.88a11.878,11.878,0,0,0-1.854.148,7.725,7.725,0,0,0-5.913,4.031,8.7,8.7,0,0,0-.8,5.872,7.265,7.265,0,0,0,5.1,6,10.817,10.817,0,0,0,3.453.545,16.189,16.189,0,0,0,4.546-.725c.2-.062.221-.2.221-.366v-2.3c0-1.766,0-3.593.008-5.415,0-.286-.113-.339-.366-.339H11.659a.387.387,0,0,0-.291.078.359.359,0,0,0-.07.268c.022.572.022,1.124,0,1.7a.373.373,0,0,0,.069.286.361.361,0,0,0,.276.078H14c.236,0,.315.082.315.326-.015,1.144-.008,2.3,0,3.321v.1c0,.224-.053.365-.319.381-.22.011-.441.03-.653.047h-.087q-.618.062-1.24.07c-.076,0-.163,0-.3-.007a5.15,5.15,0,0,1-4.183-2.213,6.148,6.148,0,0,1-.963-4.883A5.1,5.1,0,0,1,10.3,27.625a8.152,8.152,0,0,1,2.218-.321,7.4,7.4,0,0,1,3.759,1.04,2,2,0,0,0,.208.123l.031.016.025.013h.01l.077.041.018.01.02-.26a.9.9,0,0,1,.009-.1v-.124l.023-.3h0l.011-.137.008-.1c.043-.548.083-1.067.113-1.609.007-.1-.163-.229-.278-.27a12.38,12.38,0,0,0-4.231-.772Zm8.612,13.274-.031.314-.011.113-.015.151-.015.149v.045l-.01.1c-.052.507-.106,1.031-.147,1.55-.007.069.11.2.191.228a11,11,0,0,0,3.555.657,7.78,7.78,0,0,0,1.576-.159A4.726,4.726,0,0,0,29.5,38.924a5.062,5.062,0,0,0,.519-2.642,3.866,3.866,0,0,0-1.5-3.133,17.174,17.174,0,0,0-1.848-1.165l-.028-.015-.013-.007-.027-.015-.113-.065c-.215-.123-.418-.238-.616-.358s-.419-.237-.668-.373l-.021-.011h-.01A12.3,12.3,0,0,1,24.08,30.5a1.565,1.565,0,0,1-.668-1.784A1.654,1.654,0,0,1,24.8,27.47a4.726,4.726,0,0,1,1.12-.132,5.964,5.964,0,0,1,1.782.286c.294.084.572.183.875.294l.381.135c.1-.66.165-1.164.236-1.633V26.4c.129-.916.121-.926-.793-1.158a10.81,10.81,0,0,0-2.63-.365,6.771,6.771,0,0,0-2.405.42,4.036,4.036,0,0,0-2.791,3.278,3.91,3.91,0,0,0,1.739,4.2,18.694,18.694,0,0,0,1.679.937l.039.021c.344.177.63.325.913.477l.115.063.053.03.109.059.011.006h.007a7.009,7.009,0,0,1,1.2.763,2.1,2.1,0,0,1,.752,1.881,2.061,2.061,0,0,1-1.209,1.612,4.161,4.161,0,0,1-1.392.346q-.185.017-.372.016a7.39,7.39,0,0,1-2.5-.555l-.254-.1-.08-.03-.058-.021-.391-.147Zm21.88-5.027-.424.4c-.5.463-.967.9-1.431,1.351-.049.05-.033.216,0,.3.592,1.39,1.2,2.8,1.786,4.161l.018.043.661,1.535a.357.357,0,0,0,.368.249h.027c.218-.006.454-.009.763-.009h1.828L44.4,36.67l-.01-.021-.032-.073-1.545-3.453Zm-7.778.021c-1.188,2.67-2.325,5.213-3.581,8.011h.867c.79,0,1.37,0,1.883-.006a.421.421,0,0,0,.184-.063l.034-.018q3.088-1.506,6.171-3.022a2.044,2.044,0,0,0,.2-.109l.07-.041.039-.022-.243-.191-.1-.079-.151-.115-.14-.107c-.365-.28-.742-.572-1.116-.866a.413.413,0,0,0-.258-.108.491.491,0,0,0-.234.072c-.566.3-1.144.609-1.741.921l-.236.124-.621.325q-.127.069-.259.126l-.023.01L35.75,38l-.12.055.231-.531.023-.053c.338-.777.656-1.512.992-2.251a.342.342,0,0,0-.1-.47q-.411-.368-.811-.748l-.031-.03-.5-.468a1.522,1.522,0,0,0-.162-.144l-.015-.013-.017-.014-.209-.186Zm1.411-.029c.326,0,.6,0,.874.014h.058a.554.554,0,0,0,.6-.437c.217-.582.457-1.15.71-1.751l.11-.262.13-.309.09.191q.05.1.1.21.1.225.184.45v.012l.007.015c.214.525.434,1.065.668,1.6.047.106.169.257.263.263.447.015.883.017,1.251.017h1.32l-.858-1.907v-.006l-.3-.678-.2-.437c-.85-1.888-1.652-3.672-2.472-5.5h-.1L36.459,30l-.046.1L35.05,33.13h1.392Z" transform="translate(467 633)" fill="#707070"/><path d="M143.315,49.592H.2a1.723,1.723,0,0,0-.025-.236A3.579,3.579,0,0,1,.138,48.9V.588A.925.925,0,0,0,.063.28V.227A.3.3,0,0,1,0,.076.193.193,0,0,0,.039.047.113.113,0,0,1,.1.007H.9C48.38,0,96.641,0,143.315,0V.142a1.6,1.6,0,0,0-.033.273V49.177a1.526,1.526,0,0,0,.033.269v.008l.022.129v.01Z" transform="translate(466 635)" fill="none" stroke="rgba(0,0,0,0.13)" stroke-width="1"/><path d="M50.685,49.592H.071a2.087,2.087,0,0,0-.009-.236C.057,49.23.049,49.063.049,48.9V.588A2.414,2.414,0,0,0,.022.28V.227A.687.687,0,0,1,0,.076.164.164,0,0,0,.014.047.08.08,0,0,1,.035.007H.319C17.11,0,34.178,0,50.685,0V.142c-.006.1-.012.183-.012.273V49.177c0,.09.006.176.012.269v.008l.008.129v.01Z" transform="translate(466 635)" fill="none" stroke="rgba(0,0,0,0.13)" stroke-width="1"/><g transform="translate(524.99 638.859)"><path d="M7.385,3.06H6.216C5.477,1.319,4.42.79,2.645,1.351A1.431,1.431,0,0,0,1.589,2.627a1.185,1.185,0,0,0,.882,1.351c1.057.357,2.124.659,3.17,1.027A2.609,2.609,0,0,1,7.6,7.858a3.256,3.256,0,0,1-2.349,2.659,5.834,5.834,0,0,1-3.354-.27A3.378,3.378,0,0,1,.02,7.079H.964A14.973,14.973,0,0,0,2.02,8.773a3.043,3.043,0,0,0,3.539.3,1.6,1.6,0,0,0,.79-1.431,1.289,1.289,0,0,0-.893-1.308C4.4,5.981,3.332,5.689,2.275,5.322A2.5,2.5,0,0,1,.348,2.778,2.623,2.623,0,0,1,2.369.228,4.1,4.1,0,0,1,6.421.953,3.227,3.227,0,0,1,7.385,3.06Z" transform="translate(-0.001 31.178)" fill="#707070"/><path d="M7.385,3.046H6.217C5.469,1.29,4.556.835,2.712,1.312A1.629,1.629,0,0,0,1.6,2.612a1.2,1.2,0,0,0,.88,1.355C3.536,4.325,4.6,4.628,5.647,5A2.6,2.6,0,0,1,7.6,7.847a3.261,3.261,0,0,1-2.347,2.67,5.722,5.722,0,0,1-3.353-.27A3.4,3.4,0,0,1,.017,7.067H.954A9.773,9.773,0,0,0,2.077,8.8a3.017,3.017,0,0,0,3.535.249A1.629,1.629,0,0,0,6.35,7.587,1.282,1.282,0,0,0,5.459,6.34C4.4,5.983,3.339,5.691,2.282,5.333A2.5,2.5,0,0,1,.355,2.787,2.635,2.635,0,0,1,2.374.228,4.087,4.087,0,0,1,6.422.953a3.094,3.094,0,0,1,.963,2.093Z" transform="translate(-0.001 15.963)" fill="#707070"/><path d="M3.042,1.335a1.649,1.649,0,0,1-.351-.054C1.812.867,1.35,1.6,1.221,2.368A11.807,11.807,0,0,0,1.1,4.085c-.018,1.166-.01,2.322-.01,3.521H0V.165H.954C.972.457.981.716,1,1.051A1.1,1.1,0,0,0,1.23.845c.536-.9.8-.961,1.748-.734" transform="translate(18.256 19.005)" fill="#707070"/><path d="M4.564,7.583c-1.658.075-1.658.075-2.338-1.747Q1.288,3.311.375.788.206.385,0,0" transform="translate(22.44 19.005)" fill="#707070"/><path d="M0,0C.638,0,.842.076,1.516.076c.772,2.015,1.529,4,2.3,6.027.763-2,1.5-3.987,2.263-5.992H7.6c-.928,2.5-1.839,4.971-2.753,7.451a.537.537,0,0,1-.12.043" transform="translate(22.44 19.005)" fill="#707070"/><path d="M1.288,10.65H0V0C.533.019,1.073.031,1.6.043,2.9.072,4.234.1,5.536.243a2.124,2.124,0,0,1,1.475.979,3.36,3.36,0,0,1,.51,2.67c-.5,1.937-1.49,2.371-3.151,2.5-.335.022-.694.032-1.13.032-.313,0-.621,0-.947-.01s-.664-.019-1-.019v4.255Zm2-9.382H1.312v3.91c.286,0,.572,0,.85.006h.011c.274,0,.546.006.814.006.422,0,.771-.008,1.094-.023a3.832,3.832,0,0,0,1.32-.3,1.825,1.825,0,0,0,.859-2.02A1.749,1.749,0,0,0,4.747,1.286c-.423-.012-.887-.018-1.457-.018Z" transform="translate(0 1.521)" fill="#707070"/><path d="M2.955,10.649A2.933,2.933,0,0,1,1.479,10.2,3.455,3.455,0,0,1,.043,7.451a5.083,5.083,0,0,1,.78-3.615A2.623,2.623,0,0,1,2.936,2.722,1.822,1.822,0,0,1,4.494,3.5a.947.947,0,0,0,.175.183,2.642,2.642,0,0,1,.191.183C4.853,2.521,4.853,1.3,4.853,0h1.23V10.513H4.9q-.017-.286-.028-.572c0-.109-.009-.2-.013-.28-.154.1-.309.218-.46.334a2.819,2.819,0,0,1-1.129.628,1.842,1.842,0,0,1-.319.028Zm.057-6.727a1.513,1.513,0,0,0-1.477,1.03,4.212,4.212,0,0,0,.1,3.538,1.6,1.6,0,0,0,1.409,1,1.622,1.622,0,0,0,.191-.011A1.541,1.541,0,0,0,4.607,8.347,10.95,10.95,0,0,0,4.87,7.2c.028-.141.055-.286.085-.426L4.86,6.3c-.074-.39-.144-.757-.246-1.125a1.864,1.864,0,0,0-1.5-1.249Z" transform="translate(33.47 31.177)" fill="#707070"/><path d="M2.245,7.607A2.967,2.967,0,0,1,1.176,7.4,2.206,2.206,0,0,1,0,5.539,2,2,0,0,1,1.167,3.691q.808-.227,1.631-.4c.4-.087.807-.176,1.207-.279.23-.065.593-.317.584-.433A1.876,1.876,0,0,0,4.171,1.45a1.621,1.621,0,0,0-1.056-.371,2.171,2.171,0,0,0-1.774.983.69.69,0,0,1-.534.222H.752a1.294,1.294,0,0,1-.406-.1q-.1-.035-.2-.064a2.464,2.464,0,0,1,2.6-2.1A3.266,3.266,0,0,1,3.07,0,6.471,6.471,0,0,1,4.686.258,1.659,1.659,0,0,1,5.913,2.022v.969c0,.482-.008.98.01,1.471.02.7.066,1.414.11,2.1l.054.875-.048.007c-.224.023-.381.04-.52.04-.43,0-.507-.171-.832-.891A4.036,4.036,0,0,1,2.244,7.6ZM4.6,4.092c-.191.035-.381.067-.562.1-.264.045-.51.086-.763.135-.13.025-.263.044-.393.063a3.643,3.643,0,0,0-.939.222,1.457,1.457,0,0,0-.719.763.954.954,0,0,0,.33.8,1.766,1.766,0,0,0,1,.322A2.419,2.419,0,0,0,3.817,6.09a1.928,1.928,0,0,0,.783-2Z" transform="translate(68.459 4.564)" fill="#707070"/><path d="M3.98,7.608a4.713,4.713,0,0,1-2.392-.635A3.575,3.575,0,0,1,.034,3.243,3.478,3.478,0,0,1,2.92.109,4.9,4.9,0,0,1,3.932,0,3.758,3.758,0,0,1,6.817,1.248a3.388,3.388,0,0,1,.739,2.78H1.53a1.839,1.839,0,0,0,.437,1.518,2.575,2.575,0,0,0,1.958.9,2.48,2.48,0,0,0,.689-.1,3.078,3.078,0,0,0,.917-.512A5.7,5.7,0,0,1,6.043,5.5a1.717,1.717,0,0,1,.763-.22h.031a1.614,1.614,0,0,1,.484.1c.071.023.143.047.214.065A3.533,3.533,0,0,1,3.98,7.608ZM3.924,1.144a3.281,3.281,0,0,0-.332.011c-.976.074-2.12.561-2.132,1.7H6.2A2.013,2.013,0,0,0,3.924,1.144Z" transform="translate(9.129 19.004)" fill="#707070"/><path d="M3.986,7.606a5.374,5.374,0,0,1-.954-.085C-.286,6.928-.077,3.884.066,2.966A3.651,3.651,0,0,1,3.433.015,3.6,3.6,0,0,1,3.836,0a3.815,3.815,0,0,1,2.9,1.168,3.651,3.651,0,0,1,.842,2.877H1.464a2.067,2.067,0,0,0,.548,1.594,2.581,2.581,0,0,0,1.907.816,2.766,2.766,0,0,0,.65-.078,2.681,2.681,0,0,0,.9-.485,4.841,4.841,0,0,1,.548-.355A2.246,2.246,0,0,1,6.842,5.3H6.9a1.419,1.419,0,0,1,.405.086c.073.023.151.047.225.064A3.442,3.442,0,0,1,3.988,7.61Zm-.03-6.462c-1.5,0-2.4.612-2.54,1.717l.2.012c.14.01.286.019.427.019H6.179A2,2,0,0,0,3.956,1.144Z" transform="translate(40.699 19.005)" fill="#707070"/><path d="M3.967,7.607a4.631,4.631,0,0,1-2.4-.645C.321,6.2-.148,5.04.043,3.217A3.452,3.452,0,0,1,2.738.131,5.654,5.654,0,0,1,3.925,0,3.707,3.707,0,0,1,6.711,1.116a3.719,3.719,0,0,1,.877,2.919H1.512a2.024,2.024,0,0,0,.523,1.592,2.586,2.586,0,0,0,1.907.834,2.691,2.691,0,0,0,.635-.076,2.834,2.834,0,0,0,.917-.5,5.251,5.251,0,0,1,.518-.337A2.229,2.229,0,0,1,6.823,5.3.546.546,0,0,1,6.9,5.293a1.4,1.4,0,0,1,.409.089c.072.023.145.046.22.065a3.529,3.529,0,0,1-3.562,2.16ZM3.825,1.521a3.4,3.4,0,0,0-.352.012c-1.144.085-1.93.691-1.952,1.509H6.085a2.015,2.015,0,0,0-2.26-1.521Z" transform="translate(25.862 4.564)" fill="#707070"/><path d="M3.976,7.607a4.673,4.673,0,0,1-2.407-.645C.321,6.2-.148,5.04.043,3.217A3.453,3.453,0,0,1,2.738.131,5.654,5.654,0,0,1,3.926,0,3.708,3.708,0,0,1,6.707,1.112a3.709,3.709,0,0,1,.882,2.9H1.512A2.035,2.035,0,0,0,2.03,5.627a2.575,2.575,0,0,0,1.907.836,2.659,2.659,0,0,0,.631-.076,2.835,2.835,0,0,0,.919-.5,5.257,5.257,0,0,1,.521-.341A2.206,2.206,0,0,1,6.819,5.3a.6.6,0,0,1,.08-.006,1.423,1.423,0,0,1,.42.09c.071.022.143.045.217.064A3.5,3.5,0,0,1,3.976,7.61ZM3.864,1.153H3.826c-1.347,0-2.258.653-2.373,1.708H6.189c-.136-1.1-.961-1.708-2.325-1.708Z" transform="translate(24.341 34.22)" fill="#707070"/><path d="M3.992,7.607a4.742,4.742,0,0,1-2.4-.635A3.523,3.523,0,0,1,.039,3.242,3.456,3.456,0,0,1,2.926.11,4.9,4.9,0,0,1,3.941,0,3.7,3.7,0,0,1,6.806,1.24a3.433,3.433,0,0,1,.753,2.8h-6.1A2.3,2.3,0,0,0,3.071,6.31a2.992,2.992,0,0,0,.917.147A2.716,2.716,0,0,0,6,5.57a1.3,1.3,0,0,1,.8-.286h.055a1.431,1.431,0,0,1,.415.088c.085.027.172.053.26.072A3.514,3.514,0,0,1,3.992,7.607Zm-.13-6.462H3.679c-1.106.048-2.226.646-2.214,1.707a1.228,1.228,0,0,1,.166.019,1.884,1.884,0,0,0,.252.023H6.206c-.168-1.159-.956-1.75-2.344-1.75Z" transform="translate(51.725 34.22)" fill="#707070"/><path d="M6.048,10.649H4.755V6.091c0-1.455-.46-2.1-1.5-2.128A1.99,1.99,0,0,0,1.25,6.17c-.01,1.467,0,2.934,0,4.445H0V0H1.229V3.953a2.814,2.814,0,0,1,2.48-1.2c1.516.19,2.2.738,2.3,2.2C6.155,6.83,6.048,8.723,6.048,10.649Z" transform="translate(16.735 31.177)" fill="#707070"/><path d="M2.995,7.607a2.812,2.812,0,0,1-2.816-2.3A6.115,6.115,0,0,1,.4,1.655,2.962,2.962,0,0,1,3.134,0,2.39,2.39,0,0,1,3.74.074c1.5.4,2.382,1.8,2.343,3.748A3.725,3.725,0,0,1,4.748,7.065,3.139,3.139,0,0,1,2.995,7.607Zm.014-6.448H2.984A1.8,1.8,0,0,0,1.255,2.675a6.676,6.676,0,0,0-.122,1.61C1.276,5.9,2.169,6.478,2.957,6.478a1.959,1.959,0,0,0,.84-.2c.918-.422,1.122-1.335,1.151-2.665q-.012-.1-.022-.191a7.273,7.273,0,0,0-.118-.781,1.843,1.843,0,0,0-1.8-1.485Z" transform="translate(14.833 4.563)" fill="#707070"/><path d="M2.974,7.606A2.861,2.861,0,0,1,.163,5.221a5.961,5.961,0,0,1,.264-3.6A3.025,3.025,0,0,1,3.168,0a2.345,2.345,0,0,1,.594.072C5.231.464,6.141,1.942,6.08,3.836A3.729,3.729,0,0,1,4.78,7.03,3.161,3.161,0,0,1,2.972,7.6Zm.073-6.461A1.786,1.786,0,0,0,1.275,2.687a6.417,6.417,0,0,0-.122,1.54c.1,1.364.817,2.245,1.831,2.245a1.983,1.983,0,0,0,.844-.2c.874-.413,1.081-1.3,1.131-2.6l-.012-.106Q4.9,3.121,4.818,2.68A1.819,1.819,0,0,0,3.047,1.144Z" transform="translate(53.247 4.564)" fill="#707070"/><path d="M0,5.341a2.322,2.322,0,0,1,.735-.169.852.852,0,0,1,.6.306,2.127,2.127,0,0,0,3.11.59.916.916,0,0,0,.336-.7,1.128,1.128,0,0,0-.63-.633c-.84-.306-1.717-.527-2.575-.8a1.831,1.831,0,0,1-1.491-1.7A2.009,2.009,0,0,1,1.355.292c1.072-.549,3.215-.3,3.8.566a11.7,11.7,0,0,1,.6,1.149,4.428,4.428,0,0,0-.714.148c-.368.137-.567.042-.763-.317A1.936,1.936,0,0,0,1.636,1.49c-.442.4-.368.917.252,1.149.966.348,1.954.644,2.931.928a1.851,1.851,0,0,1,.84,2.964,2.645,2.645,0,0,1-1.938,1.06,6.716,6.716,0,0,1-2.1-.2A2.341,2.341,0,0,1,0,5.341Z" transform="translate(34.61 4.563)" fill="#707070"/><path d="M5.766,2.023a4.094,4.094,0,0,0-.694.136c-.358.147-.551.063-.745-.3a1.864,1.864,0,0,0-2.562-.367.628.628,0,0,0,.224,1.144c.938.357,1.9.619,2.848.933A1.869,1.869,0,0,1,5.6,6.595,3.591,3.591,0,0,1,1,6.931,6.53,6.53,0,0,1,0,5.325a2.716,2.716,0,0,0,.694-.1c.469-.241.653-.01.858.4a2.073,2.073,0,0,0,3.2.168c.265-.42.051-.88-.541-1.08-.828-.274-1.676-.5-2.5-.788A1.8,1.8,0,0,1,.257,2.232,2.083,2.083,0,0,1,1.541.261C2.59-.242,4.633,0,5.174.834,5.388,1.215,5.542,1.6,5.766,2.023Z" transform="translate(42.216 4.563)" fill="#707070"/><path d="M5.751,2.03a4.254,4.254,0,0,0-.711.137c-.366.137-.565.042-.763-.317a1.93,1.93,0,0,0-2.625-.36.634.634,0,0,0,.24,1.152c.962.349,1.945.645,2.917.93a1.855,1.855,0,0,1,.847,2.956A2.663,2.663,0,0,1,3.733,7.59a6.735,6.735,0,0,1-2.1-.2A2.272,2.272,0,0,1,0,5.349,2.622,2.622,0,0,1,.731,5.18a.846.846,0,0,1,.6.306,2.111,2.111,0,0,0,3.1.6.92.92,0,0,0,.335-.7,1.128,1.128,0,0,0-.617-.645c-.836-.306-1.7-.528-2.562-.8A1.812,1.812,0,0,1,.1,1.976,2.2,2.2,0,0,1,1.778.148,3.292,3.292,0,0,1,5.123.867,4.683,4.683,0,0,1,5.751,2.03Z" transform="translate(49.443 19.007)" fill="#707070"/><path d="M1.251,7.607H0V.181H1.219c.022.291.032.549.054.948.216-.2.366-.356.518-.5C3.052-.508,5.479.01,5.835,1.259a3.732,3.732,0,0,1,.237.819c.022,1.832.01,3.664.01,5.531H4.789V2.951c0-1.056-.485-1.681-1.38-1.778A1.788,1.788,0,0,0,1.391,2.585a19.656,19.656,0,0,0-.14,2.522c-.022.83,0,1.649,0,2.5Z" transform="translate(60.853 4.563)" fill="#707070"/><path d="M4.84,0H6.086V7.521H4.864V6.515a6.088,6.088,0,0,1-1.592,1.02,4.241,4.241,0,0,1-1.847-.076A1.8,1.8,0,0,1,.04,5.575C-.035,3.738.018,1.9.018.022h1.3V4.645c0,.995.268,1.509.923,1.749A1.744,1.744,0,0,0,4.41,5.75a3.042,3.042,0,0,0,.419-1.443C4.871,2.9,4.84,1.487,4.84,0Z" transform="translate(41.076 34.22)" fill="#707070"/><path d="M4.978,4.709c.381.063.744.126,1.106.191a2.95,2.95,0,0,1-4.2,2.428A3.2,3.2,0,0,1,.039,4.5,4.416,4.416,0,0,1,.914.978,2.966,2.966,0,0,1,3.87.078,2.61,2.61,0,0,1,5.993,2.3a1.516,1.516,0,0,0-.5.052c-.422.22-.644.115-.865-.337a1.5,1.5,0,0,0-1.71-.852A1.741,1.741,0,0,0,1.48,2.4a4.068,4.068,0,0,0-.111,2.47c.312,1.061.794,1.514,1.621,1.566.925.052,1.431-.3,1.871-1.325C4.9,5,4.917,4.9,4.978,4.709Z" transform="translate(34.611 19.006)" fill="#707070"/><path d="M5.963,2.35a1.258,1.258,0,0,0-.477.042c-.453.242-.685.1-.906-.368A1.52,1.52,0,0,0,2.849,1.2,1.767,1.767,0,0,0,1.423,2.479a4.315,4.315,0,0,0-.06,2.594,1.76,1.76,0,0,0,1.56,1.4A1.679,1.679,0,0,0,4.756,5.282c.071-.157.121-.316.212-.536q.544.1,1.118.191a2.9,2.9,0,0,1-3,2.67,3.1,3.1,0,0,1-3-2.693A5,5,0,0,1,.779,1.109,2.894,2.894,0,0,1,3.759.058a2.67,2.67,0,0,1,2.2,2.292Z" transform="translate(9.129 34.221)" fill="#707070"/><path d="M4.564.227c-.068.352-.124.637-.181.922-1.943.329-2.045.44-1.864,1.878H3.807V4.213H2.462v6.436H1.1V4.279C.711,4.257.373,4.224,0,4.2V3.082c.339-.022.655-.044,1.061-.066C1.13,2.017.954.886,2.112.293A3.018,3.018,0,0,1,4.564.227Z" transform="translate(21.299 1.521)" fill="#707070"/><path d="M1.526,10.649H0V0H1.526Z" transform="translate(48.682 31.177)" fill="#707070"/><path d="M0,10.649V0H1.526V10.649Z" transform="translate(76.446 1.521)" fill="#707070"/><path d="M4.564.376a6.357,6.357,0,0,0-.25.6c-.113.355-.362.42-.751.322C2.487,1.046,1.75,1.46,1.62,2.428a23.09,23.09,0,0,0-.162,2.453c-.025.893,0,1.786,0,2.722H0V.2H1.275c.025.279.05.548.075.858C2.776-.162,3.139-.237,4.564.376Z" transform="translate(9.128 4.563)" fill="#707070"/><path d="M1.526,7.607H0V0H1.526Z" transform="translate(31.472 19.005)" fill="#707070"/><path d="M1.526,0V7.607H0V0Z" transform="translate(50.204 4.563)" fill="#707070"/><path d="M1.526,1.526H0V0H1.526Z" transform="translate(50.204)" fill="#707070"/><path d="M1.526,0V1.526H0V0Z" transform="translate(31.472 15.962)" fill="#707070"/></g><path d="M2.8,5.7A2.826,2.826,0,0,1,0,2.848,2.826,2.826,0,0,1,2.8,0,2.826,2.826,0,0,1,5.6,2.848,2.827,2.827,0,0,1,2.8,5.7ZM2.8.513A2.306,2.306,0,0,0,.514,2.837,2.307,2.307,0,0,0,2.8,5.162,2.307,2.307,0,0,0,5.08,2.837,2.307,2.307,0,0,0,2.8.513Z" transform="translate(518.567 637)" fill="#707070"/><path d="M.381,3.815H0V.076H.01A2.976,2.976,0,0,1,.733,0a1.034,1.034,0,0,1,.842.3,1.1,1.1,0,0,1,.225.73A.989.989,0,0,1,1.251,2v.013c.216.1.358.346.43.763a8.229,8.229,0,0,0,.226,1.042H1.516a5.006,5.006,0,0,1-.2-.9c-.089-.525-.248-.725-.587-.737H.381ZM.744.368A.954.954,0,0,0,.372.419V1.8H.763a.649.649,0,0,0,.654-.726A.632.632,0,0,0,.744.368Z" transform="translate(520.693 637.954)" fill="#707070"/></g></svg>