<svg xmlns="http://www.w3.org/2000/svg" width="121" height="51" viewBox="0 0 121 51"><g transform="translate(-475 -542)"><g transform="translate(7)"><g transform="translate(468 542)" fill="none" stroke="rgba(0,0,0,0.13)" stroke-width="1"><rect width="121" height="51" stroke="none"/><rect x="0.5" y="0.5" width="120" height="50" fill="none"/></g></g><g transform="translate(488.119 550.008)"><path d="M.06,27.679H3.107v6.77H9.534v-6.77h3.051V44.3H9.534V37.385H3.107V44.3H.06Zm22.178,11.2a2.524,2.524,0,0,1-5.048,0V31.73H14.3v7.155a5.413,5.413,0,0,0,10.827,0V31.73H22.238v7.155m10.956-7.071a4.441,4.441,0,0,0-3.4,1.364v-5.5h-2.9V37.87c0,3.815,2.758,6.427,5.856,6.427a6.346,6.346,0,0,0,6.463-6.242,6.133,6.133,0,0,0-6.02-6.242Zm.072,9.8a3.561,3.561,0,0,1,0-7.12,3.584,3.584,0,0,1,0,7.12Zm10.817-9.071a1.789,1.789,0,0,1,2.034-1.919,4.343,4.343,0,0,1,2.727,1.433l1.9-2.219a5.987,5.987,0,0,0-4.438-2.15c-3.144,0-5.41,1.826-5.41,4.855,0,5.617,6.912,3.837,6.912,6.981a1.989,1.989,0,0,1-2.033,1.826c-1.711,0-2.266-.832-3.052-1.711l-2.1,2.173a6.217,6.217,0,0,0,4.994,2.474C48.6,44.286,51,42.437,51,39.547c0-6.241-6.912-4.3-6.912-7m14.544-.893c-3.1,0-5.856,2.611-5.856,6.426V48.294h2.9V42.769a4.443,4.443,0,0,0,3.4,1.364,6.133,6.133,0,0,0,6.02-6.242,6.346,6.346,0,0,0-6.463-6.241Zm.515,9.8a3.585,3.585,0,1,1,3.167-3.56,3.585,3.585,0,0,1-3.167,3.56Zm27.287.162c-1.71,0-2.2-.739-2.2-1.873V34.726H86.9V32.183H84.234V28.831L81.3,30.149V40.366c0,2.613,1.8,3.93,4.275,3.93a5.936,5.936,0,0,0,1.157-.092l.717-2.635c-.324.022-.693.045-1.018.045" transform="translate(0 -22.953)" fill="#707070"/><path d="M355.542,11.921a6.376,6.376,0,0,0-2.315-2.3,6.216,6.216,0,0,0-2.341-.811V5.772a2.243,2.243,0,0,0,1.383-2.1,2.307,2.307,0,1,0-4.613,0,2.216,2.216,0,0,0,1.353,2.1v3.04a6.685,6.685,0,0,0-2.037.639c-1.321-1-5.651-4.293-8.184-6.215a2.512,2.512,0,0,0,.106-.675,2.579,2.579,0,1,0-1.243,2.185l.535.406,7.346,5.293a6.157,6.157,0,0,0-1.039,1.217,5.68,5.68,0,0,0-.945,3.062v.232a6.416,6.416,0,0,0,.4,2.213,5.807,5.807,0,0,0,.952,1.653l-2.438,2.444a1.97,1.97,0,1,0,1.208,1.26L346.19,20a6.476,6.476,0,0,0,1.12.613,6.547,6.547,0,0,0,2.62.55h.175a6.275,6.275,0,0,0,5.334-2.962,5.789,5.789,0,0,0,.91-3.118v-.057a6.114,6.114,0,0,0-.806-3.108Zm-3.079,5.287a3.2,3.2,0,0,1-2.359,1.228h-.146a3.188,3.188,0,0,1-1.49-.4,3.444,3.444,0,0,1-1.3-1.189,2.773,2.773,0,0,1-.543-1.618v-.175a3.315,3.315,0,0,1,.38-1.608,3.491,3.491,0,0,1,1.215-1.329,2.975,2.975,0,0,1,1.684-.508h.057a3.412,3.412,0,0,1,1.583.365,3.354,3.354,0,0,1,1.243,1.131,3.6,3.6,0,0,1,.558,1.589c.009.119.014.242.014.358a3.145,3.145,0,0,1-.893,2.155Z" transform="translate(-276.758)" fill="#707070"/></g><path d="M4.656-.2a3.694,3.694,0,0,1-1.6.3A2.7,2.7,0,0,1,1.027-.66,2.77,2.77,0,0,1,.289-2.68a2.96,2.96,0,0,1,.83-2.18A2.9,2.9,0,0,1,3.273-5.7a4.029,4.029,0,0,1,1.383.207v1.215a2.45,2.45,0,0,0-1.281-.336,1.7,1.7,0,0,0-1.273.5A1.841,1.841,0,0,0,1.617-2.77a1.806,1.806,0,0,0,.457,1.295A1.615,1.615,0,0,0,3.3-.992a2.625,2.625,0,0,0,1.352-.359Zm5.536.2H6.833V-5.6h3.23v1.027H8.1v1.246H9.927V-2.3H8.1v1.281h2.1Zm6.8,0H15.541L14.67-1.441q-.1-.164-.187-.293a1.628,1.628,0,0,0-.182-.221A.722.722,0,0,0,14.11-2.1a.486.486,0,0,0-.217-.049h-.34V0H12.291V-5.6h2q2.039,0,2.039,1.523a1.578,1.578,0,0,1-.09.541,1.5,1.5,0,0,1-.254.447,1.609,1.609,0,0,1-.4.344,2.045,2.045,0,0,1-.518.227V-2.5a.8.8,0,0,1,.242.127,1.734,1.734,0,0,1,.227.205,2.861,2.861,0,0,1,.209.252q.1.135.182.264Zm-3.44-4.656V-3.1H14.1a.907.907,0,0,0,.652-.234.782.782,0,0,0,.25-.59q0-.734-.879-.734Zm8.934.082h-1.6V0H19.623V-4.574h-1.59V-5.6h4.453ZM25.7,0H24.441V-5.6H25.7Zm5.712-4.574H29.438V-3.2h1.816v1.023H29.438V0H28.176V-5.6h3.238ZM34.8,0H33.536V-5.6H34.8Zm5.83,0H37.271V-5.6H40.5v1.027H38.533v1.246h1.832V-2.3H38.533v1.281h2.1Zm2.1,0V-5.6h1.984Q47.7-5.6,47.7-2.87a2.761,2.761,0,0,1-.814,2.09A3,3,0,0,1,44.713,0Zm1.262-4.574v3.551h.625A1.689,1.689,0,0,0,45.9-1.516a1.867,1.867,0,0,0,.467-1.34,1.694,1.694,0,0,0-.463-1.26,1.765,1.765,0,0,0-1.3-.459ZM54.5-1.93V0H53.234V-5.6h1.977q2.117,0,2.117,1.785a1.713,1.713,0,0,1-.607,1.365,2.406,2.406,0,0,1-1.621.52Zm0-2.7v1.746H55q1,0,1-.886,0-.863-1.008-.863ZM63.8,0H62.427l-.4-1.246H60.036L59.641,0H58.274l2.039-5.6h1.5ZM61.739-2.215l-.6-1.883a2.454,2.454,0,0,1-.094-.5h-.031a2.137,2.137,0,0,1-.1.488l-.609,1.9ZM70.4,0H68.951L68.08-1.441q-.1-.164-.187-.293a1.628,1.628,0,0,0-.182-.221A.722.722,0,0,0,67.52-2.1a.486.486,0,0,0-.217-.049h-.34V0H65.7V-5.6h2q2.039,0,2.039,1.523a1.577,1.577,0,0,1-.09.541,1.5,1.5,0,0,1-.254.447,1.61,1.61,0,0,1-.4.344,2.045,2.045,0,0,1-.518.227V-2.5a.8.8,0,0,1,.242.127,1.733,1.733,0,0,1,.227.2,2.864,2.864,0,0,1,.209.252q.1.135.182.264ZM66.963-4.656V-3.1h.547a.907.907,0,0,0,.652-.234.782.782,0,0,0,.25-.59q0-.734-.879-.734Zm8.934.082H74.3V0H73.034V-4.574h-1.59V-5.6H75.9ZM82.89,0H81.616L79.308-3.52a5.092,5.092,0,0,1-.281-.465h-.016q.031.3.031.906V0H77.851V-5.6H79.21l2.223,3.41q.152.23.281.457h.016A5.988,5.988,0,0,1,81.7-2.5V-5.6h1.19Zm5.84,0H85.371V-5.6H88.6v1.027H86.633v1.246h1.832V-2.3H86.633v1.281h2.1Zm6.8,0H94.079l-.871-1.441q-.1-.164-.187-.293a1.628,1.628,0,0,0-.182-.221.722.722,0,0,0-.191-.141.486.486,0,0,0-.217-.049h-.34V0H90.829V-5.6h2q2.039,0,2.039,1.523a1.577,1.577,0,0,1-.09.541,1.5,1.5,0,0,1-.254.447,1.61,1.61,0,0,1-.4.344,2.045,2.045,0,0,1-.518.227V-2.5a.8.8,0,0,1,.242.127,1.734,1.734,0,0,1,.227.205,2.863,2.863,0,0,1,.209.252q.1.135.182.264ZM92.091-4.656V-3.1h.547a.907.907,0,0,0,.652-.234.782.782,0,0,0,.25-.59q0-.734-.879-.734Z" transform="translate(488 586)" fill="#707070"/></g></svg>