<svg xmlns="http://www.w3.org/2000/svg" xmlns:xlink="http://www.w3.org/1999/xlink" width="533.028" height="437.5" viewBox="0 0 533.028 437.5"><defs><linearGradient id="a" x1="0.5" x2="0.5" y2="1" gradientUnits="objectBoundingBox"><stop offset="0" stop-color="#587bea"/><stop offset="0" stop-color="#5b79e7"/><stop offset="1" stop-color="#a646a5"/></linearGradient></defs><g transform="translate(-923.472 -1237.5)"><path d="M1.73,35.47q11.738-9.2,19.241-15.853A83.958,83.958,0,0,0,33.557,5.882Q38.64-1.2,38.64-7.612a9.4,9.4,0,0,0-1.755-6.051,6.214,6.214,0,0,0-5.143-2.178A6.147,6.147,0,0,0,26.3-12.876Q24.36-9.911,24.481-4.223H1.488q.363-10.77,4.72-17.85A26.6,26.6,0,0,1,17.583-32.48a35.979,35.979,0,0,1,15.611-3.328q14.885,0,22.146,7.382T62.6-9.306q0,12.586-8.411,23.6a92.022,92.022,0,0,1-21,19.725H63.448V53.259H1.73Zm69.584-26.5q0-20.815,8.471-32.8t26.623-11.98q18.152,0,26.684,11.98t8.532,32.8q0,21.057-8.471,33.037t-26.744,11.98q-18.273,0-26.684-11.98T71.314,8.968Zm46.833,0q0-10.891-2.3-16.64t-9.439-5.748q-7.14,0-9.439,5.748t-2.3,16.64q0,11.133,2.239,16.882t9.5,5.748q7.261,0,9.5-5.748T118.146,8.968Zm32.674,0q0-20.815,8.471-32.8t26.623-11.98q18.152,0,26.684,11.98t8.532,32.8q0,21.057-8.471,33.037t-26.744,11.98q-18.273,0-26.684-11.98T150.82,8.968Zm46.833,0q0-10.891-2.3-16.64t-9.439-5.748q-7.14,0-9.439,5.748t-2.3,16.64q0,11.133,2.239,16.882t9.5,5.748q7.261,0,9.5-5.748T197.653,8.968Zm31.1-20.209q0-10.286,5.809-15.732t15.248-5.446q9.318,0,15.127,5.446t5.809,15.732q0,10.165-5.809,15.671T249.811,9.936q-9.318,0-15.187-5.506T228.754-11.242Zm85.921-19.846L268.81,54.469H246.059l45.865-85.558ZM249.69-18.5q-4.962,0-4.962,7.261t4.962,7.261A4.542,4.542,0,0,0,253.5-5.8a8.879,8.879,0,0,0,1.392-5.446,8.879,8.879,0,0,0-1.392-5.446A4.542,4.542,0,0,0,249.69-18.5Zm40.3,53q0-10.165,5.869-15.671t15.187-5.506q9.318,0,15.066,5.506T331.859,34.5q0,10.286-5.748,15.792T311.044,55.8q-9.318,0-15.187-5.506T289.987,34.5Zm20.936-7.261q-5.083,0-5.083,7.261,0,7.382,5.083,7.382a4.374,4.374,0,0,0,3.691-1.876,9.163,9.163,0,0,0,1.392-5.506,8.924,8.924,0,0,0-1.392-5.385A4.374,4.374,0,0,0,310.923,27.241Zm90.64-3.751H382.08V43.578H359.329V23.489h-19.6V2.07h19.6V-18.14H382.08V2.07h19.483Z" transform="translate(979.272 1244.974) rotate(90)" fill="#3b3b3b"/><line y2="407" transform="translate(1029.5 1237.5)" fill="none" stroke="#707070" stroke-width="1"/><g transform="translate(0 -166.5)"><line x1="427" transform="translate(1029.5 1472.5)" fill="none" stroke="#707070" stroke-width="1"/><line x1="427" transform="translate(1029.5 1404.5)" fill="none" stroke="#707070" stroke-width="1"/></g><g transform="translate(0 -31.5)"><line x1="427" transform="translate(1029.5 1472.5)" fill="none" stroke="#707070" stroke-width="1"/><line x1="427" transform="translate(1029.5 1404.5)" fill="none" stroke="#707070" stroke-width="1"/></g><g transform="translate(0 103.5)"><line x1="427" transform="translate(1029.5 1472.5)" fill="none" stroke="#707070" stroke-width="1"/><line x1="427" transform="translate(1029.5 1404.5)" fill="none" stroke="#707070" stroke-width="1"/></g><line x1="427" transform="translate(1029.5 1644)" fill="none" stroke="#707070" stroke-width="1"/><rect width="76" height="88" transform="translate(1044 1556)" fill="url(#a)"/><rect width="76" height="204" transform="translate(1151 1440)" fill="url(#a)"/><rect width="76" height="311" transform="translate(1258 1333)" fill="url(#a)"/><rect width="76" height="393" transform="translate(1365 1251)" fill="url(#a)"/><text transform="translate(1082 1670)" fill="#c5c5c5" font-size="13" font-family="Poppins-Medium, Poppins" font-weight="500"><tspan x="-21.034" y="0">0-25%</tspan></text><text transform="translate(1189 1670)" fill="#c5c5c5" font-size="13" font-family="Poppins-Medium, Poppins" font-weight="500"><tspan x="-27.476" y="0">25-100%</tspan></text><text transform="translate(1296 1670)" fill="#c5c5c5" font-size="13" font-family="Poppins-Medium, Poppins" font-weight="500"><tspan x="-31.655" y="0">100-200%</tspan></text><text transform="translate(1403 1670)" fill="#c5c5c5" font-size="13" font-family="Poppins-Medium, Poppins" font-weight="500"><tspan x="-33.534" y="0">200-500%</tspan></text></g></svg>