<svg xmlns="http://www.w3.org/2000/svg" width="110" height="50" viewBox="0 0 110 50"><g transform="translate(-82 -617)"><g transform="translate(82 617)" fill="none" stroke="rgba(0,0,0,0.13)" stroke-width="1"><rect width="110" height="50" stroke="none"/><rect x="0.5" y="0.5" width="109" height="49" fill="none"/></g><rect width="0.682" height="37.548" transform="translate(143.566 623.726)" fill="#707070"/><g transform="translate(-171 -9)"><text transform="translate(324 652)" fill="#707070" font-size="19" font-family="SegoeUI-Semibold, Segoe UI" font-weight="600"><tspan x="0" y="0">SIX</tspan></text><text transform="translate(324 665)" fill="#707070" font-size="10" font-family="SegoeUI, Segoe UI"><tspan x="0" y="0">YEARS</tspan></text></g><path d="M-81.731,89.221V86.14h1.911V78.386h-1.911V75.1h9.665v3.292h-1.911v7.754h1.911v3.075Zm18.9,0V86.14h1.272V82.956c0-.959-.639-1.381-1.592-1.381a1.981,1.981,0,0,0-2.02,1.8V86.14h1.381v3.081h-7.428V86.14h1.272V81.576h-1.272V78.494h5.945v2.122l.32-.32a4.9,4.9,0,0,1,4.034-1.7c2.333,0,4.245.959,4.245,3.5V86.13H-55.4v3.088Zm19.753-6.265-4.142.422c0-1.17-.32-2.333-1.7-2.333-1.8,0-1.911,1.489-1.911,2.87h0c0,1.489.109,2.972,1.911,2.972a1.645,1.645,0,0,0,1.21-.37,1.645,1.645,0,0,0,.59-1.119v-.211h4.142v.32c-.639,3.4-3.714,3.931-5.843,3.931-3.4,0-6.8-1.7-6.8-5.523h0c0-3.823,3.4-5.523,6.8-5.523-.1.1,5.321-.217,5.745,4.564ZM-39.9,87.52a1.676,1.676,0,0,1-.491,1.209,1.676,1.676,0,0,1-1.209.491,1.676,1.676,0,0,1-1.209-.491A1.676,1.676,0,0,1-43.3,87.52a1.676,1.676,0,0,1,.491-1.209A1.676,1.676,0,0,1-41.6,85.82h0a1.68,1.68,0,0,1,1.208.492A1.68,1.68,0,0,1-39.9,87.52ZM-68.984,90.6c-4.142,0-6.476,2.762-6.476,8.176s2.333,8.176,6.476,8.176,6.476-2.762,6.476-8.176S-64.951,90.6-68.984,90.6Zm0,13.06c-1.489,0-1.8-1.489-1.8-4.884s.32-4.884,1.8-4.884,1.8,1.489,1.8,4.884S-67.5,103.66-68.984,103.66Zm13.7-13.06c-4.142,0-6.476,2.762-6.476,8.176s2.333,8.176,6.476,8.176,6.476-2.762,6.476-8.176S-51.251,90.6-55.285,90.6Zm0,13.06c-1.489,0-1.8-1.489-1.8-4.884s.32-4.884,1.8-4.884,1.8,1.489,1.8,4.884S-53.8,103.66-55.284,103.66Zm13.7-13.06c-4.142,0-6.476,2.762-6.476,8.176s2.333,8.176,6.476,8.176,6.476-2.762,6.476-8.176S-37.552,90.6-41.586,90.6Zm0,13.06c-1.489,0-1.8-1.489-1.8-4.884s.32-4.884,1.8-4.884,1.8,1.489,1.8,4.884S-40.1,103.66-41.584,103.66Zm-35.785-6.476a5.333,5.333,0,0,0-3.72-1.279,4.271,4.271,0,0,0-2.972,1.061l.32-2.551h6.687V90.7h-9.768l-1.061,7.434,2.87,1.489a3.9,3.9,0,0,1,2.551-1.061,2.225,2.225,0,0,1,1.381.531,2.8,2.8,0,0,1,.742,2.02,2.024,2.024,0,0,1-.109.85,1.7,1.7,0,0,1-.644,1.145,1.7,1.7,0,0,1-1.267.344c-1.8,0-1.7-2.231-1.272-3.081h0l-4.564,2.442c.32,2.87,3.292,4.245,5.734,4.245A6.57,6.57,0,0,0-78,105.471a5.6,5.6,0,0,0,1.17-1.489,5.517,5.517,0,0,0,.742-2.87,4.845,4.845,0,0,0-1.283-3.926Z" transform="translate(175.098 552.313)" fill="#707070"/></g></svg>