<svg xmlns="http://www.w3.org/2000/svg" width="120.215" height="50" viewBox="0 0 120.215 50"><g transform="translate(-479.785 -623)"><g transform="translate(479.785 623)"><path d="M0,0H120.215L104.38,25.011,120.215,50H0Z" fill="none"/><path d="M1,1V49H118.4L103.2,25.011,118.4,1H1M0,0H120.215L104.38,25.011,120.215,50H0Z" fill="rgba(0,0,0,0.13)"/></g><g transform="translate(488.432 631.192)"><path d="M41.46,4.319A1.489,1.489,0,0,0,42.5,3.9a1.469,1.469,0,0,0,.449-1.022,1.492,1.492,0,0,0-.441-1.042A1.512,1.512,0,0,0,41.46,1.4a1.489,1.489,0,0,0-1.029.446,1.468,1.468,0,0,0-.419,1.034,1.445,1.445,0,0,0,.428,1.014,1.465,1.465,0,0,0,1.02.425ZM51.588,5.7h3.6v.283a1.923,1.923,0,0,0-.57.2,4.435,4.435,0,0,0-1.49,2.133q-1.281,3.233-2.695,7.618l-.351,1.106c-.154.5-.285.826-.351,1.023s-.154.5-.306.87a4.855,4.855,0,0,1-.334.805,4.819,4.819,0,0,1-.767,1.2,2.491,2.491,0,0,1-1.8.675,2.536,2.536,0,0,1-2.63-2.415,1.371,1.371,0,0,1,1.425-1.48,1.036,1.036,0,0,1,1.161,1.022c0,.5-.5,1.023-.5,1.284,0,.675.394,1,1.162,1,.613,0,1.114-.392,1.489-1.175a3.32,3.32,0,0,0,.131-2.96L45.6,8.588c-.724-1.915-1.272-2.544-1.951-2.612V5.693h4.974v.283a.927.927,0,0,0-.9,1.044,6.71,6.71,0,0,0,.5,2.047l.592,1.61c.679,1.741,1.225,3.265,1.513,4.223.635-1.98,1.225-3.722,1.8-5.245a8.156,8.156,0,0,0,.614-2.416A1.084,1.084,0,0,0,51.583,6l.006-.3Zm-34.6,10.6c-.635-.111-1.183-.675-1.183-1.872V0L12.186.783v.305c.614-.065,1.225.478,1.225,1.632V14.429c0,1.132-.614,1.784-1.225,1.872a1.648,1.648,0,0,1-.174.021,1.935,1.935,0,0,1-.913-.16,2.733,2.733,0,0,1-1.234-1.145L8.194,12.362a3.087,3.087,0,0,0-3.431-1.328L6.648,8.966a10.1,10.1,0,0,1,3.988-2.981V5.7H6.49v.283C7.564,6.4,7.5,7.312,6.267,8.751L3.616,11.818V0L0,.783v.305c.614,0,1.225.608,1.225,1.675V14.429C1.225,15.714.634,16.214,0,16.3v.283H4.8V16.3c-.789-.111-1.183-.718-1.183-1.872V12.275L4.65,11.144l2.493,4.069c.592.98,1.14,1.372,2.016,1.372H17.5v-.221s-.238-.017-.517-.062Zm9.954-1.376V10.057c-.048-3.183-1.391-4.632-4.468-4.632a4.4,4.4,0,0,0-2.717.914,2.6,2.6,0,0,0-1.205,2.112A1.213,1.213,0,0,0,19.71,9.822c.768,0,1.316-.435,1.316-1.044,0-.457-.308-1.089-.308-1.523A1.48,1.48,0,0,1,22.34,5.8c1.316,0,2.257.98,2.257,3.156v1.305l-1.1.261c-.57.111-1.051.221-1.425.332s-.854.261-1.425.478a4.194,4.194,0,0,0-2.279,1.633,2.272,2.272,0,0,0-.394,1.284c0,1.8,1.271,2.633,3.047,2.633A3.97,3.97,0,0,0,24.6,14.744a3,3,0,0,0,.311,1.266c.743,1.493,3.2.611,3.2.611v-.283c-1.077.167-1.166-1.1-1.172-1.413ZM24.6,13.418a2.085,2.085,0,0,1-.789,1.719,2.471,2.471,0,0,1-1.577.632,1.732,1.732,0,0,1-1.776-1.981,2.455,2.455,0,0,1,.614-1.5,2.673,2.673,0,0,1,.767-.544c.372-.2.557-.3.811-.414l1-.369c.5-.2.81-.3.941-.369l.006,2.829ZM73.014,5.7H64.491V0h8.523L71.225,2.851ZM55.69,15.2a5.7,5.7,0,0,1-1.625-4.054A5.611,5.611,0,0,1,55.69,7.111a5.363,5.363,0,0,1,7.835,0,5.539,5.539,0,0,1,1.646,4.034A5.622,5.622,0,0,1,63.525,15.2a5.412,5.412,0,0,1-7.835,0Zm5.9-7.907a2.506,2.506,0,0,0-1.671-1.468c-1.356-.271-2.554,1.113-3,3.313a10.374,10.374,0,0,0-.137,3,8.265,8.265,0,0,0,.827,2.876,2.5,2.5,0,0,0,1.671,1.468c1.356.271,2.589-1.171,3.039-3.394a8.97,8.97,0,0,0-.733-5.794h.006Z" fill="#707070"/><path d="M231.02,54.1V45.371h-7.714v.262c1.03.153,1.52.925,1.053,2.177-2.411,6.507-2.257,6.215-2.411,6.737-.154-.5-.5-1.732-1.074-3.277s-.942-2.569-1.1-3.026c-.592-1.807-.394-2.481.57-2.59v-.283h-5v.283c.745.153,1.4,1,1.951,2.524l.767,1.98c.843,2.14,1.834,5.089,2.164,6.1h1.661c.535-1.549,2.68-7.73,2.968-8.358a4.958,4.958,0,0,1,1.053-1.633,1.961,1.961,0,0,1,1.486-.617,1.165,1.165,0,0,1,1.2,1.154v7.3c0,1.217-.592,1.784-1.205,1.872v.283h4.778V55.97C231.545,55.883,231.02,55.318,231.02,54.1Z" transform="translate(-188.288 -39.669)" fill="#707070"/></g><text transform="translate(489 663)" fill="#707070" font-size="9.5" font-family="SegoeUI-Semibold, Segoe UI" font-weight="600"><tspan x="0" y="0">MASTER+CHAMPION</tspan></text></g></svg>