<svg xmlns="http://www.w3.org/2000/svg" xmlns:xlink="http://www.w3.org/1999/xlink" width="110" height="51" viewBox="0 0 110 51"><defs><clipPath id="a"><path d="M232.89,237.93c-2.28,0-4.061,1.716-5.676,3.9-2.217-2.823-4.068-3.9-6.287-3.9-4.522,0-7.987,5.885-7.987,12.125,0,3.9,1.884,6.357,5.035,6.357,2.275,0,3.911-1.074,6.819-6.154l2.043-3.616q.439.71.922,1.524l1.362,2.294c2.654,4.445,4.136,5.952,6.814,5.952,3.078,0,4.789-2.5,4.789-6.472C240.736,243.41,237.2,237.93,232.89,237.93Zm-10.309,10.945c-2.35,3.691-3.172,4.52-4.483,4.52s-2.156-1.184-2.156-3.3c0-4.522,2.256-9.148,4.944-9.148,1.454,0,2.685.843,4.536,3.509-1.766,2.715-2.84,4.419-2.84,4.419Zm8.9-.468-1.629-2.715q-.671-1.071-1.273-1.98c1.468-2.266,2.685-3.4,4.122-3.4,2.991,0,5.372,4.41,5.372,9.822,0,2.065-.672,3.263-2.079,3.263C234.667,253.414,234.025,252.51,231.476,248.407Z" transform="translate(-212.94 -237.93)" fill="#707070"/></clipPath><clipPath id="b"><rect width="31.155" height="21.83" fill="#707070"/></clipPath></defs><g transform="translate(-342 -542)"><g transform="translate(37.232 -62.17)"><path d="M356.7,240.49h3.474l5.908,10.685,5.906-10.685h3.4v17.57h-2.837V244.589l-5.18,9.318h-2.652l-5.187-9.318V258.06H356.7Z" transform="translate(-9.282 372.279)" fill="#707070"/><path d="M453.9,271.961a6.763,6.763,0,0,1-3.462-.868,6.134,6.134,0,0,1-2.327-2.413,7.327,7.327,0,0,1-.833-3.539,7.574,7.574,0,0,1,.812-3.574,6.071,6.071,0,0,1,2.266-2.43,6.266,6.266,0,0,1,3.331-.88,5.5,5.5,0,0,1,5.29,3.357,8.89,8.89,0,0,1,.728,3.74v.775h-9.618a4.181,4.181,0,0,0,1.3,2.528,3.779,3.779,0,0,0,2.615.922,5.74,5.74,0,0,0,2.182-.379,5.5,5.5,0,0,0,1.718-1.142l1.5,1.847a7.822,7.822,0,0,1-5.5,2.056Zm2.072-10.4a3.121,3.121,0,0,0-2.35-.911,3.228,3.228,0,0,0-2.35.927,4.362,4.362,0,0,0-1.2,2.5h6.915a3.906,3.906,0,0,0-1.014-2.521Z" transform="translate(-78.654 358.676)" fill="#707070"/><path d="M506.532,249.371H503.92v-2.32h2.612V243.21h2.732v3.841h3.961v2.322h-3.961v5.878a3.4,3.4,0,0,0,.5,2.095,2.052,2.052,0,0,0,1.718.625,8.019,8.019,0,0,0,.918-.044c.253-.026.527-.068.826-.117v2.29a7.9,7.9,0,0,1-1.044.229,8.235,8.235,0,0,1-1.224.087q-4.428,0-4.424-4.841Z" transform="translate(-122.042 370.196)" fill="#707070"/><path d="M562.206,271.713h-2.685v-1.83a4.849,4.849,0,0,1-1.819,1.585,5.468,5.468,0,0,1-2.507.557,5.409,5.409,0,0,1-3.064-.882,6.029,6.029,0,0,1-2.1-2.434,7.882,7.882,0,0,1-.765-3.542,7.727,7.727,0,0,1,.78-3.549,6.01,6.01,0,0,1,2.149-2.42,5.719,5.719,0,0,1,3.155-.88,5.411,5.411,0,0,1,2.406.52,4.74,4.74,0,0,1,1.77,1.461v-1.678h2.685v13.094Zm-2.736-8.5a3.717,3.717,0,0,0-1.386-1.763,3.771,3.771,0,0,0-2.189-.644,3.547,3.547,0,0,0-2.8,1.175,4.669,4.669,0,0,0-1.042,3.186,4.749,4.749,0,0,0,1.007,3.2,3.383,3.383,0,0,0,2.722,1.182,4,4,0,0,0,2.256-.672,3.657,3.657,0,0,0,1.43-1.756Z" transform="translate(-156.771 358.626)" fill="#707070"/><g transform="translate(313.768 612.17)"><g clip-path="url(#a)"><g transform="translate(-1.678 -1.678)"><g clip-path="url(#b)"><rect width="31.26" height="21.915" transform="translate(-0.024 -0.063)" fill="#707070"/></g></g></g></g><path d="M255.86,245.692c-3.535-5.751-5.887-7.762-8.923-7.762l-.037,3.022c1.987,0,3.528,1.568,6.879,7.209l.2.335Z" transform="translate(74.817 374.24)" fill="#707070"/><g transform="translate(315.814 637.653)"><path d="M211.83,364.964V356.65h3.12a3.858,3.858,0,0,1,1.528.253,1.959,1.959,0,0,1,.9.777,2.044,2.044,0,0,1,.325,1.1,1.873,1.873,0,0,1-.29,1,2.09,2.09,0,0,1-.873.761,2.16,2.16,0,0,1,1.159.754,2.027,2.027,0,0,1,.4,1.259,2.439,2.439,0,0,1-.246,1.086,2.115,2.115,0,0,1-.609.775,2.536,2.536,0,0,1-.911.412,5.492,5.492,0,0,1-1.341.138H211.83Zm1.1-4.82h1.8a4.061,4.061,0,0,0,1.049-.1,1.1,1.1,0,0,0,.845-1.14,1.321,1.321,0,0,0-.2-.728,1,1,0,0,0-.566-.431,4.734,4.734,0,0,0-1.264-.117H212.93Zm0,3.839H215a4.877,4.877,0,0,0,.749-.04,1.773,1.773,0,0,0,.634-.227,1.2,1.2,0,0,0,.419-.461,1.438,1.438,0,0,0,.164-.7,1.376,1.376,0,0,0-.239-.808,1.261,1.261,0,0,0-.66-.482,4.071,4.071,0,0,0-1.217-.138h-1.922v2.856Z" transform="translate(-211.83 -356.65)" fill="#707070"/><path d="M250.72,372.447v-.885a2.2,2.2,0,0,1-1.912,1.021,2.432,2.432,0,0,1-1-.2,1.632,1.632,0,0,1-.686-.513,1.887,1.887,0,0,1-.314-.758,5.118,5.118,0,0,1-.063-.953v-3.731h1.021v3.34a5.861,5.861,0,0,0,.063,1.077,1.062,1.062,0,0,0,.407.632,1.275,1.275,0,0,0,.772.229,1.675,1.675,0,0,0,.861-.236,1.291,1.291,0,0,0,.569-.641,3.206,3.206,0,0,0,.166-1.177V366.42h1.021v6.023h-.911Z" transform="translate(-239.345 -364.133)" fill="#707070"/><path d="M272.7,370.2l1.009-.159a1.411,1.411,0,0,0,.473.929,1.652,1.652,0,0,0,1.086.323,1.606,1.606,0,0,0,1.044-.286.855.855,0,0,0,.339-.672.626.626,0,0,0-.3-.545,4.413,4.413,0,0,0-1.044-.346,9.49,9.49,0,0,1-1.557-.492,1.49,1.49,0,0,1-.882-1.381,1.542,1.542,0,0,1,.185-.747,1.68,1.68,0,0,1,.5-.571,2.124,2.124,0,0,1,.648-.3,3.071,3.071,0,0,1,.882-.122,3.5,3.5,0,0,1,1.245.2,1.7,1.7,0,0,1,.791.552,2.132,2.132,0,0,1,.351.934l-1,.136a1.086,1.086,0,0,0-.393-.726,1.447,1.447,0,0,0-.922-.26,1.678,1.678,0,0,0-1,.232.674.674,0,0,0-.3.545.574.574,0,0,0,.124.358.887.887,0,0,0,.391.272q.15.056.9.26a12.605,12.605,0,0,1,1.512.473,1.537,1.537,0,0,1,.672.536,1.5,1.5,0,0,1,.243.873,1.717,1.717,0,0,1-.3.962,1.927,1.927,0,0,1-.859.7,3.14,3.14,0,0,1-1.271.246,2.826,2.826,0,0,1-1.788-.487,2.242,2.242,0,0,1-.779-1.437Z" transform="translate(-259.221 -363.689)" fill="#707070"/><path d="M299.28,357.825V356.65h1.02v1.175Zm0,7.139v-6.023h1.02v6.023Z" transform="translate(-279.579 -356.65)" fill="#707070"/><path d="M310.27,372.018V366h.918v.857a2.164,2.164,0,0,1,1.917-.992,2.508,2.508,0,0,1,1,.2,1.593,1.593,0,0,1,.684.513,1.96,1.96,0,0,1,.318.754,5.9,5.9,0,0,1,.056.992v3.7h-1.021v-3.663a2.758,2.758,0,0,0-.119-.934.984.984,0,0,0-.424-.494,1.354,1.354,0,0,0-.712-.185,1.653,1.653,0,0,0-1.126.414,2.043,2.043,0,0,0-.473,1.571v3.289H310.27Z" transform="translate(-287.997 -363.704)" fill="#707070"/><path d="M340.884,370.08l1.056.131a2.575,2.575,0,0,1-.925,1.435,2.786,2.786,0,0,1-1.725.51,2.752,2.752,0,0,1-2.1-.815,3.176,3.176,0,0,1-.775-2.282,3.327,3.327,0,0,1,.782-2.359,2.65,2.65,0,0,1,2.029-.84,2.575,2.575,0,0,1,1.973.822,3.267,3.267,0,0,1,.765,2.313v.271h-4.492a2.3,2.3,0,0,0,.562,1.519,1.673,1.673,0,0,0,1.259.527,1.57,1.57,0,0,0,.96-.295,1.933,1.933,0,0,0,.626-.937Zm-3.352-1.65H340.9a2.025,2.025,0,0,0-.386-1.14,1.564,1.564,0,0,0-1.264-.59,1.621,1.621,0,0,0-1.182.47,1.851,1.851,0,0,0-.536,1.26Z" transform="translate(-308.026 -363.704)" fill="#707070"/><path d="M363.72,370.2l1.009-.159a1.411,1.411,0,0,0,.473.929,1.652,1.652,0,0,0,1.086.323,1.606,1.606,0,0,0,1.044-.286.855.855,0,0,0,.339-.672.626.626,0,0,0-.3-.545,4.411,4.411,0,0,0-1.044-.346,9.485,9.485,0,0,1-1.557-.492,1.49,1.49,0,0,1-.882-1.381,1.543,1.543,0,0,1,.185-.747,1.679,1.679,0,0,1,.5-.571,2.124,2.124,0,0,1,.648-.3,3.069,3.069,0,0,1,.882-.122,3.5,3.5,0,0,1,1.245.2,1.7,1.7,0,0,1,.791.552,2.132,2.132,0,0,1,.351.934l-1,.136a1.086,1.086,0,0,0-.393-.726,1.447,1.447,0,0,0-.922-.26,1.678,1.678,0,0,0-1,.232.674.674,0,0,0-.3.545.574.574,0,0,0,.124.358.887.887,0,0,0,.391.272q.15.056.9.26a12.605,12.605,0,0,1,1.512.473,1.537,1.537,0,0,1,.672.536,1.5,1.5,0,0,1,.243.873,1.717,1.717,0,0,1-.3.962,1.928,1.928,0,0,1-.859.7,3.141,3.141,0,0,1-1.271.246,2.826,2.826,0,0,1-1.788-.487A2.263,2.263,0,0,1,363.72,370.2Z" transform="translate(-328.935 -363.689)" fill="#707070"/><path d="M388.53,370.2l1.009-.159a1.411,1.411,0,0,0,.473.929,1.652,1.652,0,0,0,1.086.323,1.606,1.606,0,0,0,1.044-.286.855.855,0,0,0,.339-.672.626.626,0,0,0-.3-.545,4.409,4.409,0,0,0-1.044-.346,9.486,9.486,0,0,1-1.557-.492,1.49,1.49,0,0,1-.882-1.381,1.541,1.541,0,0,1,.185-.747,1.679,1.679,0,0,1,.5-.571,2.123,2.123,0,0,1,.648-.3,3.069,3.069,0,0,1,.882-.122,3.5,3.5,0,0,1,1.245.2,1.7,1.7,0,0,1,.791.552,2.131,2.131,0,0,1,.351.934l-1,.136a1.086,1.086,0,0,0-.393-.726,1.446,1.446,0,0,0-.922-.26,1.678,1.678,0,0,0-1,.232.674.674,0,0,0-.3.545.574.574,0,0,0,.124.358.887.887,0,0,0,.391.272q.15.056.9.26a12.6,12.6,0,0,1,1.512.473,1.537,1.537,0,0,1,.672.536,1.5,1.5,0,0,1,.243.873,1.717,1.717,0,0,1-.3.962,1.928,1.928,0,0,1-.859.7,3.141,3.141,0,0,1-1.271.246,2.826,2.826,0,0,1-1.788-.487A2.263,2.263,0,0,1,388.53,370.2Z" transform="translate(-347.938 -363.689)" fill="#707070"/><path d="M432.22,364.964V356.65h3.137a7.448,7.448,0,0,1,1.264.08,2.488,2.488,0,0,1,1.028.389,2.049,2.049,0,0,1,.667.8,2.708,2.708,0,0,1-.421,2.931,3.24,3.24,0,0,1-2.439.735h-2.132v3.38h-1.1Zm1.1-4.361h2.149a2.268,2.268,0,0,0,1.514-.4,1.41,1.41,0,0,0,.447-1.117,1.506,1.506,0,0,0-.264-.894,1.232,1.232,0,0,0-.7-.492,4.672,4.672,0,0,0-1.028-.075H433.31V360.6Z" transform="translate(-381.401 -356.65)" fill="#707070"/><path d="M468.117,371.284a3.836,3.836,0,0,1-1.091.681,3.183,3.183,0,0,1-1.126.2,2.192,2.192,0,0,1-1.526-.485,1.6,1.6,0,0,1-.534-1.238,1.683,1.683,0,0,1,.728-1.4,2.448,2.448,0,0,1,.735-.335,7.115,7.115,0,0,1,.908-.154,9.4,9.4,0,0,0,1.821-.351v-.267a1.124,1.124,0,0,0-.29-.88,1.714,1.714,0,0,0-1.163-.346,1.8,1.8,0,0,0-1.063.253,1.541,1.541,0,0,0-.508.894l-1-.136a2.506,2.506,0,0,1,.447-1.035,1.957,1.957,0,0,1,.9-.606,4,4,0,0,1,1.367-.213,3.584,3.584,0,0,1,1.252.183,1.676,1.676,0,0,1,.709.456,1.591,1.591,0,0,1,.318.7,5.866,5.866,0,0,1,.052.941v1.36a14.218,14.218,0,0,0,.065,1.8,2.31,2.31,0,0,0,.258.723H468.32a2.2,2.2,0,0,1-.2-.745Zm-.084-2.28a7.4,7.4,0,0,1-1.667.386,3.912,3.912,0,0,0-.889.2.886.886,0,0,0-.4.332.9.9,0,0,0,.166,1.166,1.338,1.338,0,0,0,.906.272,2.116,2.116,0,0,0,1.049-.257,1.572,1.572,0,0,0,.674-.707,2.457,2.457,0,0,0,.164-1.021Z" transform="translate(-405.62 -363.712)" fill="#707070"/><g transform="translate(64.926 2.156)"><path d="M492.49,372.018V366h.92v.913a2.52,2.52,0,0,1,.648-.845,1.136,1.136,0,0,1,.655-.2,1.986,1.986,0,0,1,1.049.33l-.351.948a1.464,1.464,0,0,0-.749-.222.98.98,0,0,0-.6.2,1.08,1.08,0,0,0-.379.559,4.015,4.015,0,0,0-.171,1.191v3.153H492.49Z" transform="translate(-492.49 -365.86)" fill="#707070"/></g><path d="M512.43,364.672l.147.9a3.779,3.779,0,0,1-.772.091,1.746,1.746,0,0,1-.861-.176.983.983,0,0,1-.431-.461,3.634,3.634,0,0,1-.124-1.205v-3.464h-.749v-.793h.749v-1.491l1.016-.613v2.1h1.028v.793H511.4v3.523a1.816,1.816,0,0,0,.054.562.413.413,0,0,0,.176.2.677.677,0,0,0,.349.075,4.112,4.112,0,0,0,.451-.041Z" transform="translate(-440.7 -357.27)" fill="#707070"/><path d="M525.83,372.018V366h.918v.857a2.163,2.163,0,0,1,1.917-.992,2.508,2.508,0,0,1,1,.2,1.593,1.593,0,0,1,.683.513,1.959,1.959,0,0,1,.318.754,5.906,5.906,0,0,1,.056.992v3.7H529.7v-3.663a2.757,2.757,0,0,0-.119-.934.984.984,0,0,0-.424-.494,1.354,1.354,0,0,0-.712-.185,1.653,1.653,0,0,0-1.126.414,2.042,2.042,0,0,0-.473,1.571v3.289H525.83Z" transform="translate(-453.1 -363.704)" fill="#707070"/><path d="M556.434,370.08l1.056.131a2.575,2.575,0,0,1-.925,1.435,2.786,2.786,0,0,1-1.725.51,2.752,2.752,0,0,1-2.095-.815,3.186,3.186,0,0,1-.775-2.282,3.326,3.326,0,0,1,.782-2.359,2.65,2.65,0,0,1,2.029-.84,2.575,2.575,0,0,1,1.973.822,3.267,3.267,0,0,1,.765,2.313c0,.061,0,.152,0,.271h-4.492a2.3,2.3,0,0,0,.562,1.519,1.673,1.673,0,0,0,1.259.527,1.57,1.57,0,0,0,.96-.3,1.917,1.917,0,0,0,.626-.937Zm-3.352-1.65h3.364a2.025,2.025,0,0,0-.386-1.14,1.564,1.564,0,0,0-1.264-.59,1.621,1.621,0,0,0-1.182.47,1.851,1.851,0,0,0-.532,1.26Z" transform="translate(-473.121 -363.704)" fill="#707070"/><path d="M580.97,372.018V366h.918v.913a2.52,2.52,0,0,1,.648-.845,1.136,1.136,0,0,1,.655-.2,1.986,1.986,0,0,1,1.049.33l-.351.948a1.464,1.464,0,0,0-.749-.222.98.98,0,0,0-.6.2,1.08,1.08,0,0,0-.379.559,4.012,4.012,0,0,0-.171,1.191v3.153h-1.02Z" transform="translate(-495.333 -363.704)" fill="#707070"/></g></g><g transform="translate(342 542)" fill="none" stroke="rgba(0,0,0,0.13)" stroke-width="1"><rect width="110" height="51" stroke="none"/><rect x="0.5" y="0.5" width="109" height="50" fill="none"/></g></g></svg>