<svg xmlns="http://www.w3.org/2000/svg" width="146.869" height="50.23" viewBox="0 0 146.869 50.23"><g transform="translate(0.5 0.501)"><rect width="145.869" height="49.23" transform="translate(0 -0.001)" fill="none" stroke="rgba(0,0,0,0.13)" stroke-width="1"/><rect width="18.234" height="49.23" transform="translate(0 -0.001)" fill="none" stroke="rgba(0,0,0,0.13)" stroke-width="1"/><g transform="translate(4.987 11.611)"><path d="M13.421,74.619a1.716,1.716,0,0,0-.663.119,1.316,1.316,0,0,0-.471.323,1.332,1.332,0,0,0-.282.482,1.882,1.882,0,0,0-.092.6,1.985,1.985,0,0,0,.075.543,2.673,2.673,0,0,0,.208.517,3.213,3.213,0,0,0,.318.485,3.528,3.528,0,0,0,.41.435H11.906a2.813,2.813,0,0,1-.591-.892,3.131,3.131,0,0,1-.205-1.2,2.894,2.894,0,0,1,.148-.941,2.145,2.145,0,0,1,.43-.751,1.99,1.99,0,0,1,.7-.5,2.361,2.361,0,0,1,.953-.182,3.287,3.287,0,0,1,.889.112,2.752,2.752,0,0,1,.75.341,3.606,3.606,0,0,1,.676.574,8.2,8.2,0,0,1,.658.814q.416.583.71.961a4.242,4.242,0,0,0,.552.6,1.6,1.6,0,0,0,.514.311,1.789,1.789,0,0,0,.592.09V73.337h.847v5.11H19.12a3.423,3.423,0,0,1-.936-.116,2.416,2.416,0,0,1-.768-.381,4.234,4.234,0,0,1-.728-.7q-.363-.43-.82-1.054a6.545,6.545,0,0,0-.618-.753,3.19,3.19,0,0,0-.589-.488,2.113,2.113,0,0,0-.6-.263,2.565,2.565,0,0,0-.643-.078Z" transform="translate(-11.108 -51.552)" fill="#707070"/><path d="M15.356,57.041a8.137,8.137,0,0,1,1.842.188,4.271,4.271,0,0,1,1.354.543,2.452,2.452,0,0,1,.838.872,2.394,2.394,0,0,1,.282,1.175,2.234,2.234,0,0,1-.274,1.112,2.325,2.325,0,0,1-.8.823,4.043,4.043,0,0,1-1.29.509,8.01,8.01,0,0,1-1.752.173,9.055,9.055,0,0,1-1.917-.181,4.4,4.4,0,0,1-1.4-.534,2.375,2.375,0,0,1-.847-.874,2.451,2.451,0,0,1-.286-1.2Q11.111,57.041,15.356,57.041Zm.092.97q-3.534,0-3.534,1.68,0,1.772,3.6,1.773,3.354,0,3.355-1.738Q18.866,58.011,15.448,58.011Z" transform="translate(-11.109 -42.668)" fill="#707070"/><path d="M13.421,42.687a1.716,1.716,0,0,0-.663.119,1.311,1.311,0,0,0-.471.323,1.328,1.328,0,0,0-.282.482,1.881,1.881,0,0,0-.092.6,1.989,1.989,0,0,0,.075.543,2.658,2.658,0,0,0,.208.517,3.2,3.2,0,0,0,.318.486,3.565,3.565,0,0,0,.41.436H11.906a2.823,2.823,0,0,1-.591-.892,3.139,3.139,0,0,1-.205-1.2,2.894,2.894,0,0,1,.148-.941,2.134,2.134,0,0,1,.43-.75,1.986,1.986,0,0,1,.7-.5,2.354,2.354,0,0,1,.953-.182,3.251,3.251,0,0,1,.889.113,2.752,2.752,0,0,1,.75.341,3.6,3.6,0,0,1,.676.574,8.237,8.237,0,0,1,.658.814q.416.584.71.962a4.261,4.261,0,0,0,.552.6,1.6,1.6,0,0,0,.515.311,1.789,1.789,0,0,0,.592.09V41.4h.847v5.111h-.41a3.423,3.423,0,0,1-.936-.116,2.444,2.444,0,0,1-.768-.381,4.272,4.272,0,0,1-.728-.7q-.363-.429-.82-1.054a6.584,6.584,0,0,0-.618-.753,3.2,3.2,0,0,0-.589-.488,2.117,2.117,0,0,0-.6-.263,2.586,2.586,0,0,0-.643-.078Z" transform="translate(-11.108 -34.144)" fill="#707070"/><path d="M3.192,11.144c1.764,0,2.832-.972,2.832-2.3A2.013,2.013,0,0,0,4.176,6.872,1.949,1.949,0,0,0,5.9,5.012c0-1.356-1.176-2.136-2.712-2.136A3.468,3.468,0,0,0,.456,4.112l.552.624A2.712,2.712,0,0,1,3.12,3.764c.972,0,1.788.48,1.788,1.368,0,.924-.852,1.32-1.86,1.32-.324,0-.7,0-.828-.012v.912c.12-.012.492-.012.828-.012,1.176,0,1.992.42,1.992,1.416,0,.924-.708,1.5-1.872,1.5A2.78,2.78,0,0,1,.936,9.2l-.588.624a3.376,3.376,0,0,0,2.844,1.32Z" transform="translate(-2.821 6.247) rotate(-89.026)" fill="#707070"/></g><g transform="translate(27.225 9.137)"><path d="M91.907,23.515v5.458h-.948V24.695h-.015L89.25,28.973h-.628l-1.735-4.278h-.011v4.278H86V23.515h1.359l1.568,4.046h.023l1.656-4.046Zm.793.415a.5.5,0,0,1,.166-.383.558.558,0,0,1,.394-.154.551.551,0,0,1,.4.158.515.515,0,0,1,.159.379.494.494,0,0,1-.163.377.565.565,0,0,1-.4.152.555.555,0,0,1-.4-.154.5.5,0,0,1-.162-.377Zm1.016,1.129v3.913h-.921V25.06Zm2.794,3.246a1.265,1.265,0,0,0,.452-.1,1.923,1.923,0,0,0,.457-.251v.856a1.842,1.842,0,0,1-.5.191,2.723,2.723,0,0,1-.615.065A1.862,1.862,0,0,1,94.36,27.12a2.231,2.231,0,0,1,.552-1.553,2,2,0,0,1,1.564-.611,2.151,2.151,0,0,1,.524.066,1.764,1.764,0,0,1,.423.154v.885a1.89,1.89,0,0,0-.436-.242,1.261,1.261,0,0,0-.454-.085,1.155,1.155,0,0,0-.879.353,1.333,1.333,0,0,0-.337.956,1.27,1.27,0,0,0,.32.925,1.16,1.16,0,0,0,.874.331ZM100.039,25a1.185,1.185,0,0,1,.2.015.882.882,0,0,1,.148.038v.932a.8.8,0,0,0-.212-.1,1.045,1.045,0,0,0-.337-.048.716.716,0,0,0-.573.282,1.371,1.371,0,0,0-.234.879v1.976H98.11V25.06h.921v.617h.015a1.08,1.08,0,0,1,.38-.5,1.035,1.035,0,0,1,.62-.181Zm.4,2.078a2.117,2.117,0,0,1,.548-1.538,2.018,2.018,0,0,1,1.522-.565,1.877,1.877,0,0,1,1.433.546,2.367,2.367,0,0,1-.032,2.99,1.985,1.985,0,0,1-1.493.565,1.952,1.952,0,0,1-1.445-.535,1.976,1.976,0,0,1-.531-1.467Zm.959-.03a1.4,1.4,0,0,0,.277.937.992.992,0,0,0,.8.323.927.927,0,0,0,.765-.323,1.5,1.5,0,0,0,.263-.959,1.443,1.443,0,0,0-.272-.953.944.944,0,0,0-.763-.322.964.964,0,0,0-.786.337,1.464,1.464,0,0,0-.276.958Zm4.43-.955a.4.4,0,0,0,.126.311,2.163,2.163,0,0,0,.556.282,1.886,1.886,0,0,1,.776.494,1.029,1.029,0,0,1,.223.668,1.074,1.074,0,0,1-.423.887,1.8,1.8,0,0,1-1.148.335,2.752,2.752,0,0,1-.538-.059,2.386,2.386,0,0,1-.5-.15v-.905a2.252,2.252,0,0,0,.541.278,1.581,1.581,0,0,0,.525.1.938.938,0,0,0,.461-.088.314.314,0,0,0,.148-.294.407.407,0,0,0-.155-.322,2.293,2.293,0,0,0-.584-.3,1.8,1.8,0,0,1-.723-.48,1.048,1.048,0,0,1-.212-.678,1.069,1.069,0,0,1,.423-.869,1.675,1.675,0,0,1,1.09-.341,2.636,2.636,0,0,1,.461.045,2.026,2.026,0,0,1,.423.119V26a1.967,1.967,0,0,0-.423-.212,1.427,1.427,0,0,0-.483-.088.706.706,0,0,0-.409.1.327.327,0,0,0-.15.284Zm2.074.988a2.117,2.117,0,0,1,.548-1.538,2.018,2.018,0,0,1,1.522-.565,1.877,1.877,0,0,1,1.433.546,2.367,2.367,0,0,1-.032,2.99,1.985,1.985,0,0,1-1.492.565,1.951,1.951,0,0,1-1.444-.535,1.971,1.971,0,0,1-.532-1.469Zm.959-.03a1.4,1.4,0,0,0,.278.937.988.988,0,0,0,.8.323.928.928,0,0,0,.77-.329,1.5,1.5,0,0,0,.263-.959,1.443,1.443,0,0,0-.272-.953.945.945,0,0,0-.763-.322.964.964,0,0,0-.786.337,1.467,1.467,0,0,0-.282.961Zm6.116-1.229H113.6v3.159h-.932V25.814h-.654V25.06h.654v-.546a1.354,1.354,0,0,1,.4-1.011,1.411,1.411,0,0,1,1.03-.394,2.29,2.29,0,0,1,.3.017,1.183,1.183,0,0,1,.229.052v.8a.972.972,0,0,0-.16-.065.826.826,0,0,0-.263-.038.558.558,0,0,0-.446.181.8.8,0,0,0-.156.534v.472h1.372v-.877l.925-.282V25.06h.933v.754H115.9v1.831a.772.772,0,0,0,.131.51.524.524,0,0,0,.413.148.616.616,0,0,0,.193-.038.9.9,0,0,0,.2-.091v.761a1.069,1.069,0,0,1-.291.092,1.969,1.969,0,0,1-.4.042,1.142,1.142,0,0,1-.873-.311,1.32,1.32,0,0,1-.291-.934Z" transform="translate(-74.175 -21.696)" fill="#707070"/><rect width="4.323" height="4.323" fill="#707070"/><rect width="4.323" height="4.323" transform="translate(4.773)" fill="#707070"/><rect width="4.323" height="4.323" transform="translate(0 4.773)" fill="#707070"/><rect width="4.323" height="4.323" transform="translate(4.773 4.773)" fill="#707070"/></g><g transform="translate(84.139 10.956)"><path d="M189.889,29.736h-.927l-.459-1.3h-2l-.44,1.3h-.924l1.906-5.1H188Zm-1.61-1.986-.706-2.033a2.4,2.4,0,0,1-.071-.32h-.014a2.038,2.038,0,0,1-.071.32l-.7,2.033Z" transform="translate(-185.134 -24.35)" fill="#707070"/><path d="M199.949,29.387h-.824v-.618h-.014a1.423,1.423,0,0,1-2.3.212,2.028,2.028,0,0,1-.4-1.331,2.208,2.208,0,0,1,.446-1.446,1.459,1.459,0,0,1,1.188-.544,1.139,1.139,0,0,1,1.07.59h.014V24h.824Zm-.814-1.663v-.477a.929.929,0,0,0-.252-.658.847.847,0,0,0-.643-.27.866.866,0,0,0-.727.344,1.537,1.537,0,0,0-.265.956,1.378,1.378,0,0,0,.254.876.826.826,0,0,0,.684.322.855.855,0,0,0,.686-.311,1.169,1.169,0,0,0,.263-.783Z" transform="translate(-191.278 -24)" fill="#707070"/><path d="M209.092,27.844l-1.407,3.639h-.892l-1.341-3.639h.9l.807,2.541a2.37,2.37,0,0,1,.114.494h.011a2.637,2.637,0,0,1,.1-.476l.847-2.558Z" transform="translate(-196.211 -26.096)" fill="#707070"/><path d="M217.353,29.784h-2.48a1.048,1.048,0,0,0,.311.776,1.156,1.156,0,0,0,.816.273,1.8,1.8,0,0,0,1.069-.348v.665a2.44,2.44,0,0,1-1.315.313,1.627,1.627,0,0,1-1.26-.494,1.982,1.982,0,0,1-.457-1.4,1.938,1.938,0,0,1,.5-1.384,1.646,1.646,0,0,1,1.249-.535,1.435,1.435,0,0,1,1.155.48,2,2,0,0,1,.409,1.332Zm-.8-.583a1.062,1.062,0,0,0-.212-.692.706.706,0,0,0-.569-.247.8.8,0,0,0-.6.259,1.185,1.185,0,0,0-.3.679Z" transform="translate(-200.891 -25.992)" fill="#707070"/><path d="M225.166,28.553a.682.682,0,0,0-.43-.117.737.737,0,0,0-.611.331,1.482,1.482,0,0,0-.245.9v1.741h-.824v-3.64h.824v.749h.014a1.27,1.27,0,0,1,.372-.6.838.838,0,0,1,.56-.212.7.7,0,0,1,.341.071Z" transform="translate(-205.808 -26.02)" fill="#707070"/><path d="M230.9,30.151a1.429,1.429,0,0,1-.635.121q-1.059,0-1.059-1.016V27.2h-.6v-.649h.608V25.71l.824-.234v1.075h.871V27.2h-.871v1.824a.716.716,0,0,0,.117.462.487.487,0,0,0,.391.141.565.565,0,0,0,.363-.121Z" transform="translate(-208.829 -24.805)" fill="#707070"/><path d="M235.548,25.04a.494.494,0,0,1-.347-.131.432.432,0,0,1-.141-.334.445.445,0,0,1,.141-.338.49.49,0,0,1,.347-.135.505.505,0,0,1,.353.135.442.442,0,0,1,.145.338.433.433,0,0,1-.145.328A.5.5,0,0,1,235.548,25.04Zm.409,4.4h-.824V25.8h.824Z" transform="translate(-212.351 -24.055)" fill="#707070"/><path d="M238.9,31.266V30.5a1.644,1.644,0,0,0,1.02.353q.746,0,.746-.44a.353.353,0,0,0-.064-.212.624.624,0,0,0-.172-.155,1.385,1.385,0,0,0-.256-.121l-.328-.121a3.419,3.419,0,0,1-.4-.188,1.213,1.213,0,0,1-.3-.226.854.854,0,0,1-.18-.286,1.051,1.051,0,0,1-.061-.373.861.861,0,0,1,.125-.464,1.079,1.079,0,0,1,.334-.337,1.591,1.591,0,0,1,.476-.206,2.171,2.171,0,0,1,.55-.071,2.512,2.512,0,0,1,.9.153v.721a1.522,1.522,0,0,0-.881-.263,1.144,1.144,0,0,0-.282.032.734.734,0,0,0-.212.089.447.447,0,0,0-.141.136.327.327,0,0,0-.049.176.377.377,0,0,0,.049.2.453.453,0,0,0,.148.141,1.235,1.235,0,0,0,.234.114q.136.052.315.112a4.629,4.629,0,0,1,.423.2,1.422,1.422,0,0,1,.318.226.894.894,0,0,1,.2.291,1,1,0,0,1,.071.393.9.9,0,0,1-.128.483,1.063,1.063,0,0,1-.341.341,1.582,1.582,0,0,1-.494.2,2.566,2.566,0,0,1-.588.066,2.477,2.477,0,0,1-1.037-.2Z" transform="translate(-214.445 -25.993)" fill="#707070"/><path d="M246.626,25.04a.494.494,0,0,1-.347-.131.432.432,0,0,1-.141-.334.445.445,0,0,1,.141-.338.49.49,0,0,1,.347-.135.5.5,0,0,1,.353.135.442.442,0,0,1,.146.338.434.434,0,0,1-.146.328A.5.5,0,0,1,246.626,25.04Zm.409,4.4h-.824V25.8h.824Z" transform="translate(-218.391 -24.055)" fill="#707070"/><path d="M253.718,31.379h-.826v-2.05q0-1.019-.721-1.02a.788.788,0,0,0-.622.282,1.048,1.048,0,0,0-.245.712v2.076h-.828V27.741h.828v.6h.014a1.3,1.3,0,0,1,1.18-.69,1.1,1.1,0,0,1,.906.386,1.733,1.733,0,0,1,.313,1.114Z" transform="translate(-220.757 -25.992)" fill="#707070"/><path d="M262.843,31.088a1.776,1.776,0,0,1-2.015,2,3,3,0,0,1-1.24-.238V32.1a2.3,2.3,0,0,0,1.133.341,1.137,1.137,0,0,0,1.3-1.276v-.4H262a1.431,1.431,0,0,1-2.3.212,1.962,1.962,0,0,1-.407-1.3,2.3,2.3,0,0,1,.437-1.475,1.453,1.453,0,0,1,1.2-.547,1.158,1.158,0,0,1,1.07.59h.014v-.5h.824Zm-.817-1.375v-.474a.927.927,0,0,0-.254-.656.832.832,0,0,0-.635-.272.872.872,0,0,0-.734.346,1.568,1.568,0,0,0-.265.968,1.347,1.347,0,0,0,.254.858.815.815,0,0,0,.673.322.873.873,0,0,0,.693-.308,1.156,1.156,0,0,0,.267-.785Z" transform="translate(-225.565 -25.993)" fill="#707070"/></g><rect width="0.682" height="9.096" transform="translate(76.801 9.137)" fill="#707070"/><g transform="translate(28.3 27.33)"><path d="M62.362,73.567v-1.76a3.412,3.412,0,0,0,.724.48,5.852,5.852,0,0,0,.889.36,7.042,7.042,0,0,0,.937.227,5.232,5.232,0,0,0,.871.08,3.408,3.408,0,0,0,2.057-.511,1.916,1.916,0,0,0,.453-2.367,2.548,2.548,0,0,0-.626-.7,6.226,6.226,0,0,0-.946-.6q-.546-.288-1.176-.608-.666-.338-1.244-.684a5.382,5.382,0,0,1-1-.764,3.176,3.176,0,0,1-.67-.946,3.223,3.223,0,0,1,.138-2.752,3.284,3.284,0,0,1,1-1.059,4.564,4.564,0,0,1,1.417-.622,6.493,6.493,0,0,1,1.623-.2,6.211,6.211,0,0,1,2.745.453v1.679a4.978,4.978,0,0,0-2.894-.781,4.788,4.788,0,0,0-.977.1,2.786,2.786,0,0,0-.871.333,1.935,1.935,0,0,0-.622.6,1.583,1.583,0,0,0-.24.889,1.835,1.835,0,0,0,.182.847,2.07,2.07,0,0,0,.538.649,5.359,5.359,0,0,0,.866.569q.511.276,1.177.6.685.338,1.3.711a5.917,5.917,0,0,1,1.075.826,3.67,3.67,0,0,1,.733,1,2.816,2.816,0,0,1,.271,1.261,3.2,3.2,0,0,1-.369,1.594,3.023,3.023,0,0,1-.994,1.059,4.346,4.346,0,0,1-1.444.591,7.932,7.932,0,0,1-1.723.182,7.107,7.107,0,0,1-.747-.049q-.444-.049-.906-.141a7.332,7.332,0,0,1-.875-.231,2.707,2.707,0,0,1-.666-.313Z" transform="translate(-62.362 -60.615)" fill="#707070"/><path d="M90.852,74.263H84.429a3.4,3.4,0,0,0,.817,2.345,2.818,2.818,0,0,0,2.15.831,4.468,4.468,0,0,0,2.823-1.013v1.366a5.28,5.28,0,0,1-3.172.871,3.844,3.844,0,0,1-3.029-1.239,5.071,5.071,0,0,1-1.1-3.486,4.975,4.975,0,0,1,1.2-3.458,3.861,3.861,0,0,1,2.99-1.337A3.42,3.42,0,0,1,89.872,70.3a4.815,4.815,0,0,1,.977,3.206ZM89.36,73.027a2.964,2.964,0,0,0-.608-1.963,2.074,2.074,0,0,0-1.666-.7,2.355,2.355,0,0,0-1.75.738,3.348,3.348,0,0,0-.889,1.927Z" transform="translate(-73.567 -64.982)" fill="#707070"/><path d="M106.466,73.467h-1.457V60h1.457Z" transform="translate(-85.612 -60)" fill="#707070"/><path d="M121.058,74.263h-6.422a3.4,3.4,0,0,0,.817,2.345,2.818,2.818,0,0,0,2.15.826,4.468,4.468,0,0,0,2.823-1.013v1.37a5.28,5.28,0,0,1-3.172.871,3.843,3.843,0,0,1-3.029-1.239,5.073,5.073,0,0,1-1.1-3.486,4.976,4.976,0,0,1,1.2-3.458,3.861,3.861,0,0,1,2.99-1.337,3.42,3.42,0,0,1,2.762,1.155,4.813,4.813,0,0,1,.977,3.206Zm-1.493-1.235a2.964,2.964,0,0,0-.608-1.963,2.074,2.074,0,0,0-1.666-.7,2.354,2.354,0,0,0-1.75.738,3.348,3.348,0,0,0-.889,1.927Z" transform="translate(-90.034 -64.982)" fill="#707070"/><path d="M140.668,78.031a4.728,4.728,0,0,1-2.488.631,4.118,4.118,0,0,1-3.14-1.266,4.587,4.587,0,0,1-1.195-3.282,5.043,5.043,0,0,1,1.288-3.611,4.506,4.506,0,0,1,3.438-1.364,4.793,4.793,0,0,1,2.117.444v1.492a3.707,3.707,0,0,0-2.168-.711,2.928,2.928,0,0,0-2.287,1,3.792,3.792,0,0,0-.893,2.625,3.611,3.611,0,0,0,.84,2.523,2.893,2.893,0,0,0,2.252.924,3.648,3.648,0,0,0,2.239-.791Z" transform="translate(-101.332 -64.982)" fill="#707070"/><path d="M156.4,75.391a2.807,2.807,0,0,1-1.359.282q-2.39,0-2.39-2.665V67.627h-1.563V66.379h1.56V64.162l1.457-.471v2.688H156.4v1.244h-2.292v5.129a2.123,2.123,0,0,0,.311,1.306,1.24,1.24,0,0,0,1.03.391,1.531,1.531,0,0,0,.951-.3Z" transform="translate(-110.733 -62.012)" fill="#707070"/><path d="M179.525,69.521v4.815h-1.493V61.6h3.5a4.619,4.619,0,0,1,3.167.994,3.552,3.552,0,0,1,1.124,2.807,3.86,3.86,0,0,1-1.248,2.964A4.766,4.766,0,0,1,181.2,69.52Zm0-6.573V68.17h1.563a3.5,3.5,0,0,0,2.359-.706,2.5,2.5,0,0,0,.813-1.994q0-2.522-2.985-2.523Z" transform="translate(-125.422 -60.869)" fill="#707070"/><path d="M204.14,78.45h-1.457V77.029h-.035a3.05,3.05,0,0,1-2.8,1.635,2.989,2.989,0,0,1-2.127-.72,2.493,2.493,0,0,1-.769-1.91q0-2.549,3-2.964l2.727-.382q0-2.319-1.874-2.318a4.479,4.479,0,0,0-2.964,1.119v-1.5a5.638,5.638,0,0,1,3.091-.853q3.206,0,3.207,3.393Zm-1.457-4.6-2.194.3a3.562,3.562,0,0,0-1.528.5,1.447,1.447,0,0,0-.515,1.275,1.389,1.389,0,0,0,.475,1.088,1.835,1.835,0,0,0,1.266.423,2.339,2.339,0,0,0,1.79-.759,2.714,2.714,0,0,0,.706-1.923Z" transform="translate(-135.737 -64.983)" fill="#707070"/><path d="M223.334,70.892a1.782,1.782,0,0,0-1.1-.294,1.86,1.86,0,0,0-1.559.879,4.064,4.064,0,0,0-.626,2.4v4.637H218.59v-9.1h1.457v1.874h.035a3.176,3.176,0,0,1,.951-1.5,2.168,2.168,0,0,1,1.431-.537,2.393,2.393,0,0,1,.871.124Z" transform="translate(-147.533 -65.047)" fill="#707070"/><path d="M235.206,75.391a2.807,2.807,0,0,1-1.359.282q-2.39,0-2.39-2.665V67.627h-1.563V66.379h1.563V64.162l1.457-.471v2.688h2.292v1.244h-2.292v5.129a2.122,2.122,0,0,0,.311,1.306,1.239,1.239,0,0,0,1.03.391,1.531,1.531,0,0,0,.951-.3Z" transform="translate(-153.696 -62.012)" fill="#707070"/><path d="M253.2,78.448h-1.457V73.26q0-2.894-2.117-2.894a2.292,2.292,0,0,0-1.807.822,3.046,3.046,0,0,0-.715,2.074V78.45H245.65v-9.1h1.457v1.51h.035a3.283,3.283,0,0,1,2.985-1.723,2.784,2.784,0,0,1,2.283.964,4.293,4.293,0,0,1,.79,2.785Z" transform="translate(-162.286 -64.981)" fill="#707070"/><path d="M274.648,74.263h-6.422a3.4,3.4,0,0,0,.817,2.345,2.817,2.817,0,0,0,2.15.826,4.467,4.467,0,0,0,2.823-1.013v1.37a5.278,5.278,0,0,1-3.171.871,3.844,3.844,0,0,1-3.029-1.239,5.07,5.07,0,0,1-1.1-3.486,4.975,4.975,0,0,1,1.2-3.458,3.861,3.861,0,0,1,2.99-1.337,3.42,3.42,0,0,1,2.762,1.155,4.815,4.815,0,0,1,.977,3.206Zm-1.492-1.235a2.964,2.964,0,0,0-.608-1.963,2.074,2.074,0,0,0-1.666-.7,2.355,2.355,0,0,0-1.75.738,3.348,3.348,0,0,0-.889,1.927Z" transform="translate(-173.768 -64.982)" fill="#707070"/><path d="M293.55,70.892a1.779,1.779,0,0,0-1.1-.294,1.859,1.859,0,0,0-1.559.879,4.065,4.065,0,0,0-.626,2.4v4.637h-1.457v-9.1h1.457v1.874h.035a3.176,3.176,0,0,1,.951-1.5,2.168,2.168,0,0,1,1.43-.537,2.39,2.39,0,0,1,.87.124Z" transform="translate(-185.813 -65.047)" fill="#707070"/></g></g></svg>