<svg version="1.2" xmlns="http://www.w3.org/2000/svg" viewBox="0 0 300 130" width="300" height="130"><style>tspan{white-space:pre}.a{fill:#fff}.b{font-size: 30px;fill: #303c47;font-weight: 700;font-family: "Inter-Bold", "Inter"}.c{font-size: 11px;fill: #828a90;font-weight: 500;font-family: "Inter-Medium", "Inter"}.d{fill:#eef1fd}.e{fill:#859eef}</style><path class="a" d="m29 33c0-5.5 4.5-10 10-10h221c5.5 0 10 4.5 10 10v63c0 5.5-4.5 10-10 10h-221c-5.5 0-10-4.5-10-10z"/><text style="transform:matrix(1,0,0,1,49.227,68)" ><tspan x="0" y="0" class="b">$59.4+
</tspan></text><text style="transform:matrix(1,0,0,1,49,87)" ><tspan x="0" y="0" class="c">Million Worth Traffic Driven
</tspan></text><path class="d" d="m227 88c-12.7 0-23-10.3-23-23 0-12.7 10.3-23 23-23 12.7 0 23 10.3 23 23 0 12.7-10.3 23-23 23z"/><path fill-rule="evenodd" class="e" d="m221.4 67.4c-3.1-0.2-5.5-2.8-5.4-5.9 0.1-3.1 2.6-5.6 5.7-5.6 3.1 0 5.7 2.5 5.8 5.6 0 3.1-2.4 5.7-5.5 5.9v1.7h0.8q0.1 0 0.1 0 0.1 0 0.1 0 0.1 0.1 0.1 0.1 0 0.1 0 0.1v5.5q0 0.1 0 0.2 0 0-0.1 0.1 0 0-0.1 0 0 0-0.1 0h-2.2q0 0-0.1 0-0.1 0-0.1-0.1 0 0-0.1 0 0-0.1 0-0.2v-5.5q0 0 0-0.1 0.1 0 0.1-0.1 0 0 0.1 0 0.1 0 0.1 0h0.8zm12.6-2.2h-1.4q-0.1 0-0.1 0-0.1 0-0.1-0.1-0.1 0-0.1-0.1 0 0 0-0.1l-0.2-1.2q-0.2-0.1-0.5-0.2-0.2-0.1-0.4-0.3-0.3-0.1-0.5-0.2-0.2-0.2-0.4-0.4l-1.2 0.5q0 0-0.1 0 0 0-0.1 0 0 0-0.1 0 0-0.1 0-0.1l-0.7-1.2q-0.1 0-0.1-0.1 0-0.1 0-0.1 0-0.1 0.1-0.1 0-0.1 0-0.1l1.1-0.8q-0.1-0.2-0.1-0.5 0-0.3 0-0.5 0-0.3 0-0.5 0-0.3 0.1-0.6l-1.1-0.7q0-0.1 0-0.1-0.1-0.1-0.1-0.1 0-0.1 0-0.1 0-0.1 0.1-0.1l0.7-1.2q0-0.1 0-0.1 0.1 0 0.1-0.1 0.1 0 0.1 0 0.1 0 0.1 0l1.2 0.6q0.2-0.2 0.4-0.4 0.2-0.1 0.5-0.3 0.2-0.1 0.4-0.2 0.3-0.1 0.5-0.2l0.2-1.3q0 0 0-0.1 0 0 0.1-0.1 0 0 0.1 0 0 0 0.1 0h1.4q0 0 0.1 0 0 0 0.1 0 0 0.1 0 0.1 0.1 0.1 0.1 0.1l0.1 1.3q0.3 0.1 0.5 0.2 0.3 0.1 0.5 0.2 0.2 0.2 0.4 0.3 0.2 0.2 0.4 0.4l1.2-0.6q0.1 0 0.1 0 0.1 0 0.1 0 0.1 0.1 0.1 0.1 0.1 0 0.1 0.1l0.7 1.2q0 0 0 0.1 0 0 0 0.1 0 0 0 0.1 0 0-0.1 0.1l-1 0.7q0 0.3 0.1 0.6 0 0.2 0 0.5 0 0.2 0 0.5-0.1 0.3-0.1 0.5l1 0.8q0.1 0 0.1 0.1 0 0 0 0.1 0 0 0 0.1 0 0.1 0 0.1l-0.7 1.2q0 0-0.1 0.1 0 0-0.1 0 0 0-0.1 0 0 0-0.1 0l-1.2-0.5q-0.2 0.2-0.4 0.4-0.2 0.1-0.4 0.2-0.2 0.2-0.5 0.3-0.2 0.1-0.5 0.2l-0.1 1.2q0 0.1-0.1 0.1 0 0.1 0 0.1-0.1 0.1-0.1 0.1-0.1 0-0.1 0zm0.2-3.5q0.4-0.1 0.7-0.5 0.4-0.3 0.5-0.7 0.2-0.5 0.2-0.9c0-1-0.6-1.8-1.4-2.2-0.9-0.3-1.9-0.1-2.6 0.5-0.6 0.7-0.8 1.7-0.5 2.6 0.4 0.8 1.2 1.4 2.2 1.4q0.4 0 0.9-0.2zm-7.4 12.1v-2.3q0-0.1 0-0.1 0-0.1 0.1-0.1 0-0.1 0.1-0.1 0 0 0.1 0h1.5q0.1 0 0.1 0 0.1 0 0.1 0.1 0.1 0 0.1 0.1 0 0 0 0.1v2.3zm2.9 0v-4.3q0 0 0-0.1 0 0 0.1-0.1 0 0 0.1-0.1 0 0 0.1 0h1.5q0.1 0 0.1 0 0.1 0.1 0.1 0.1 0 0.1 0.1 0.1 0 0.1 0 0.1v4.3zm2.8 0v-5.6q0.1-0.1 0.1-0.1 0-0.1 0-0.1 0.1 0 0.1-0.1 0.1 0 0.1 0h1.6q0 0 0.1 0 0 0.1 0.1 0.1 0 0 0 0.1 0.1 0 0.1 0.1v5.6zm2.8 0v-7.3q0 0 0.1-0.1 0 0 0-0.1 0.1 0 0.1 0 0.1 0 0.1-0.1h1.5q0.1 0.1 0.2 0.1 0 0 0.1 0 0 0.1 0 0.1 0 0.1 0 0.1v7.3zm2.9 2.5h-12.2q0 0-0.1 0 0 0-0.1-0.1 0 0 0 0-0.1-0.1-0.1-0.2v-1.5q0-0.1 0.1-0.1 0-0.1 0-0.1 0.1-0.1 0.1-0.1 0.1 0 0.1 0h12.2q0.1 0 0.1 0 0.1 0 0.1 0.1 0.1 0 0.1 0.1 0 0 0 0.1v1.5q0 0.1 0 0.2-0.1 0-0.1 0 0 0.1-0.1 0.1 0 0-0.1 0zm-16.5-10.4c1.7 0 3.3-1.1 3.9-2.6 0.7-1.6 0.3-3.4-0.9-4.7-1.2-1.2-3-1.5-4.6-0.9-1.6 0.7-2.6 2.2-2.6 3.9q0 0.9 0.3 1.7 0.3 0.7 0.9 1.3 0.6 0.6 1.4 1 0.7 0.3 1.6 0.3zm0-8.2c1.6 0 3 1 3.6 2.4 0.6 1.5 0.3 3.2-0.8 4.3-1.2 1.1-2.8 1.4-4.3 0.8-1.4-0.6-2.4-2-2.4-3.6q0-0.7 0.3-1.5 0.3-0.7 0.8-1.2 0.6-0.6 1.3-0.9 0.7-0.3 1.5-0.3zm0 6.8q0 0 0.1 0 0-0.1 0-0.1 0 0 0.1 0 0-0.1 0-0.1v-0.7h0.7q0.1 0 0.1 0 0 0 0 0 0.1 0 0.1-0.1 0 0 0 0v-1.9q0 0 0 0 0-0.1-0.1-0.1 0 0 0 0 0 0-0.1 0h-1.7v-1.5h1.7q0.1 0 0.1-0.1 0.1 0 0.1-0.1 0-0.1-0.1-0.1 0-0.1-0.1-0.1h-0.7v-0.6q0-0.1 0-0.1-0.1 0-0.1-0.1 0 0 0 0-0.1 0-0.1 0 0 0-0.1 0 0 0 0 0 0 0.1 0 0.1-0.1 0-0.1 0.1v0.6h-0.7q0 0-0.1 0 0 0 0 0.1-0.1 0-0.1 0 0 0.1 0 0.1v1.8q0 0.1 0 0.1 0 0 0.1 0.1 0 0 0 0 0.1 0 0.1 0h1.7v1.5h-1.7q-0.1 0-0.1 0.1-0.1 0-0.1 0.1 0 0 0.1 0.1 0 0 0.1 0h0.7v0.7q0 0 0 0.1 0.1 0 0.1 0 0 0 0 0.1 0.1 0 0.1 0z"/></svg>