<svg version="1.2" xmlns="http://www.w3.org/2000/svg" viewBox="0 0 186 173" width="186" height="173"><style>.a{fill:#fff}.b{opacity:.6;fill:#303c47}.c{fill:#303c47}.d{opacity:.1;fill:#587bea}.e{fill:#587bea}</style><path class="a" d="m25 35c0-5.5 4.5-10 10-10h116c5.5 0 10 4.5 10 10v103c0 5.5-4.5 10-10 10h-116c-5.5 0-10-4.5-10-10z"/><path fill-rule="evenodd" class="b" d="m41.7 106.1v-7.9h5.1v0.9h-3.9v2.7h3.4v0.9h-3.4v3.4zm7.6-0.1q-0.5-0.2-1-0.6-0.4-0.4-0.6-1-0.2-0.5-0.2-1.1c0-1.2 0.7-2.3 1.8-2.7 1.1-0.5 2.4-0.2 3.2 0.6 0.8 0.8 1.1 2.1 0.6 3.2-0.4 1.1-1.5 1.8-2.7 1.8q-0.6 0-1.1-0.2zm1.9-0.9q0.3-0.1 0.6-0.4 0.2-0.3 0.4-0.7 0.1-0.3 0.1-0.7c0-0.8-0.5-1.5-1.2-1.8-0.8-0.3-1.7-0.2-2.2 0.4-0.6 0.6-0.7 1.5-0.4 2.2 0.4 0.8 1.1 1.2 1.9 1.2q0.4 0 0.8-0.2zm3.7 1v-8.2h1.1v8.2zm3.1 0v-8.2h1.1v8.2zm4.5-0.1q-0.5-0.2-1-0.6-0.4-0.4-0.6-1-0.2-0.5-0.2-1.1c0-1.2 0.7-2.3 1.8-2.7 1.1-0.5 2.4-0.2 3.2 0.6 0.9 0.8 1.1 2.1 0.7 3.2-0.5 1.1-1.6 1.8-2.8 1.8q-0.6 0-1.1-0.2zm1.9-0.9q0.3-0.1 0.6-0.4 0.2-0.3 0.4-0.7 0.1-0.3 0.1-0.7c0-0.8-0.5-1.5-1.2-1.8-0.8-0.4-1.6-0.2-2.2 0.4-0.6 0.6-0.7 1.5-0.4 2.2 0.4 0.8 1.1 1.2 1.9 1.2q0.4 0 0.8-0.2zm5 1l-2.1-5.6h1.2l1.4 4.1 1.3-4h1l1.2 4 1.5-4.1h1.2l-2.1 5.6h-1l-1.3-3.9-1.3 3.9zm13 0q-0.6-0.2-1.1-0.7-0.4-0.4-0.7-1-0.2-0.6-0.2-1.2v-5h1.2v5c0 0.5 0.2 1 0.6 1.4 0.3 0.4 0.8 0.6 1.4 0.6 0.5 0 1-0.2 1.4-0.6 0.4-0.4 0.6-0.9 0.6-1.4v-5h1.1v5q0 0.6-0.2 1.2-0.2 0.6-0.7 1-0.4 0.5-1 0.7-0.6 0.2-1.2 0.1-0.6 0.1-1.2-0.1zm6.3 2.6v-8.2h1.1v0.9q0.2-0.3 0.4-0.5 0.2-0.2 0.5-0.3 0.3-0.1 0.6-0.2 0.3-0.1 0.6-0.1c0.7 0.1 1.4 0.4 1.9 1 0.5 0.5 0.8 1.2 0.8 2 0 0.7-0.3 1.5-0.8 2-0.5 0.6-1.2 0.9-1.9 0.9q-0.3 0.1-0.6 0-0.3-0.1-0.6-0.2-0.3-0.1-0.5-0.3-0.2-0.2-0.4-0.5v3.5zm4.3-4.1c0.4-0.3 0.6-0.8 0.6-1.3 0-0.5-0.2-1-0.6-1.4-0.3-0.3-0.8-0.6-1.3-0.6-0.5 0-1 0.2-1.4 0.6-0.4 0.4-0.6 0.9-0.6 1.4 0 0.5 0.2 1 0.6 1.4 0.4 0.4 0.9 0.6 1.4 0.6 0.5-0.1 1-0.3 1.3-0.7zm6.2 1.5l0.8-7.9h1.2l2.7 6.3 2.6-6.3h1.3l0.7 7.9h-1.1l-0.6-6.2-2.5 6.1h-0.8l-2.6-6.1-0.5 6.2zm11.5-0.6c-0.6-0.6-0.9-1.3-0.9-2.1-0.1-0.9 0.3-1.6 0.8-2.2 0.6-0.6 1.4-0.9 2.2-0.9q0.6 0 1.2 0.2 0.6 0.3 1 0.7 0.4 0.4 0.6 1 0.2 0.6 0.1 1.2h-4.8q0 0.4 0.2 0.8 0.1 0.3 0.4 0.6 0.3 0.3 0.7 0.4 0.4 0.1 0.8 0.1 0.2 0 0.5-0.1 0.2 0 0.5-0.1 0.2-0.1 0.4-0.2 0.3-0.2 0.4-0.4l0.7 0.7q-0.3 0.2-0.6 0.4-0.2 0.2-0.6 0.4-0.3 0.1-0.6 0.2-0.4 0-0.7 0c-0.8 0.1-1.6-0.2-2.3-0.7zm3.6-3.5q-0.1-0.2-0.4-0.4-0.2-0.2-0.5-0.3-0.3 0-0.6 0-0.3 0-0.5 0.1-0.3 0-0.6 0.2-0.2 0.2-0.4 0.4-0.2 0.2-0.3 0.5h3.6q-0.1-0.2-0.3-0.5zm3.4 3.5c-0.7-0.6-1-1.3-1-2.1 0-0.9 0.3-1.6 0.9-2.2 0.5-0.6 1.3-0.9 2.1-0.9q0.6 0 1.2 0.2 0.6 0.3 1 0.7 0.4 0.4 0.6 1 0.2 0.6 0.1 1.2h-4.8q0 0.4 0.2 0.8 0.1 0.3 0.4 0.6 0.3 0.3 0.7 0.4 0.4 0.1 0.8 0.1 0.3 0 0.5-0.1 0.3 0 0.5-0.1 0.2-0.1 0.5-0.2 0.2-0.2 0.4-0.4l0.6 0.7q-0.3 0.2-0.5 0.4-0.3 0.2-0.6 0.4-0.4 0.1-0.7 0.2-0.4 0-0.7 0c-0.8 0.1-1.6-0.2-2.2-0.7zm3.6-3.5q-0.2-0.2-0.4-0.4-0.3-0.2-0.6-0.3-0.2 0-0.5 0-0.3 0-0.6 0.1-0.3 0-0.6 0.2-0.2 0.2-0.4 0.4-0.2 0.2-0.3 0.5h3.6q-0.1-0.2-0.2-0.5zm4 4.1q-0.3-0.1-0.6-0.4-0.2-0.3-0.4-0.6-0.1-0.4 0-0.8v-3h-0.9v-0.8h0.9l0.2-1.7h0.9v1.7h1.8v0.8h-1.8v3.1c0 0.6 0.3 0.9 0.7 0.9q0.1 0 0.2-0.1 0.1 0 0.2-0.1 0.1-0.1 0.2-0.2 0-0.1 0.1-0.2 0-0.1-0.1-0.2 0 0 0-0.1 0 0 0-0.1 0-0.1 0-0.1h0.9q0 0.1 0.1 0.1 0 0.1 0 0.2 0 0.1 0 0.1 0 0.1 0 0.2c0 0.8-0.6 1.4-1.7 1.4q-0.3 0.1-0.7-0.1zm3.9-6.8q-0.1 0-0.2-0.1-0.1-0.1-0.2-0.3 0-0.1 0-0.3 0-0.1 0-0.3 0.1-0.1 0.2-0.2 0.1-0.1 0.2-0.2 0.2 0 0.3 0 0.2 0 0.3 0 0.2 0.1 0.3 0.2 0.1 0.1 0.1 0.2 0.1 0.2 0.1 0.3 0 0.2-0.1 0.3 0 0.2-0.1 0.3-0.1 0.1-0.3 0.1-0.1 0.1-0.3 0.1-0.1 0-0.3-0.1zm-0.2 6.8v-5.6h1.1v5.6zm3 0v-5.6h1.1v1.1q0.1-0.3 0.3-0.6 0.2-0.2 0.5-0.4 0.2-0.1 0.5-0.2 0.3-0.1 0.6-0.1c1.3 0 2.2 0.8 2.2 2.6v3.2h-1.1v-3.2c0-1.2-0.5-1.6-1.1-1.6q-0.4 0-0.8 0.2-0.4 0.2-0.6 0.5-0.3 0.3-0.4 0.7-0.1 0.4-0.1 0.8v2.6zm9 2.6q-0.3 0-0.7-0.1-0.3-0.1-0.6-0.3-0.2-0.2-0.5-0.4l0.5-0.8q0.2 0.2 0.4 0.3 0.2 0.1 0.5 0.2 0.2 0.1 0.5 0.2 0.3 0 0.5 0 0.4 0 0.8-0.1 0.3-0.1 0.6-0.4 0.3-0.3 0.4-0.6 0.1-0.4 0.1-0.8v-0.7q-0.2 0.2-0.4 0.4-0.2 0.2-0.5 0.4-0.3 0.1-0.6 0.2-0.3 0-0.6 0c-0.7 0-1.4-0.4-1.9-0.9-0.6-0.6-0.8-1.3-0.8-2 0-0.8 0.2-1.5 0.8-2.1 0.5-0.5 1.2-0.8 1.9-0.9q0.3 0 0.6 0.1 0.3 0 0.6 0.2 0.3 0.1 0.5 0.3 0.2 0.2 0.4 0.4v-0.9h1.1v5.7q0 0.5-0.2 1.1-0.3 0.5-0.7 0.9-0.4 0.4-0.9 0.5-0.6 0.2-1.2 0.2-0.3 0-0.6-0.1zm2-4c0.3-0.4 0.6-0.9 0.6-1.4 0-0.5-0.3-1.1-0.6-1.4-0.4-0.4-0.9-0.6-1.4-0.6-0.5 0-1 0.3-1.3 0.6-0.4 0.4-0.6 0.9-0.6 1.4 0 0.5 0.2 1 0.6 1.3 0.3 0.4 0.8 0.6 1.3 0.7 0.5 0 1-0.3 1.4-0.6z"/><path fill-rule="evenodd" class="c" d="m56.2 127.8v-9.2h1l5.1 6.8v-6.8h1.3v9.2h-1l-5-6.8v6.8zm10.3-0.7c-0.7-0.7-1.1-1.6-1.2-2.5 0-1 0.4-1.9 1.1-2.5 0.6-0.7 1.5-1.1 2.5-1q0.7-0.1 1.3 0.2 0.7 0.3 1.2 0.8 0.5 0.5 0.7 1.1 0.2 0.7 0.1 1.4h-5.6q0 0.5 0.2 0.9 0.2 0.4 0.5 0.8 0.4 0.3 0.8 0.4 0.5 0.2 1 0.1 0.3 0 0.6 0 0.2-0.1 0.5-0.2 0.3-0.1 0.6-0.3 0.2-0.1 0.4-0.3l0.7 0.7q-0.2 0.3-0.6 0.5-0.3 0.3-0.7 0.4-0.3 0.2-0.7 0.3-0.4 0.1-0.8 0c-1 0.1-1.9-0.2-2.6-0.8zm4.2-4.1q-0.2-0.3-0.5-0.5-0.3-0.2-0.6-0.3-0.4-0.1-0.7 0-0.3 0-0.7 0-0.3 0.1-0.6 0.3-0.3 0.2-0.5 0.5-0.3 0.3-0.4 0.6h4.2q-0.1-0.3-0.2-0.6zm2.1 4.8l2.8-3.4-2.6-3.2h1.4l2.1 2.4 2-2.4h1.5l-2.7 3.2 2.9 3.4h-1.6l-2.1-2.6-2.2 2.6zm10 0q-0.4-0.2-0.7-0.5-0.3-0.3-0.4-0.7-0.1-0.5-0.1-0.9v-3.5h-1.1v-1h1.1l0.3-1.9h1v1.9h2.1v1h-2.1v3.6c0 0.7 0.4 1 0.8 1q0.1 0 0.3 0 0.1-0.1 0.3-0.2 0.1-0.1 0.1-0.2 0.1-0.2 0.1-0.3 0-0.1 0-0.1 0-0.1 0-0.2 0-0.1-0.1-0.1 0-0.1 0-0.2h1.1q0 0.1 0.1 0.2 0 0.1 0 0.2 0 0.1 0 0.2 0 0.1 0 0.2c0 0.9-0.6 1.6-1.9 1.6q-0.5 0.1-0.9-0.1zm7.8 0v-9.2h5.9v1h-4.6v3.1h4v1.1h-4v4zm7.4 0v-6.6h1.3v1.5q0-0.3 0.2-0.6 0.1-0.3 0.3-0.6 0.3-0.2 0.6-0.3 0.3-0.1 0.6-0.1 0.1 0 0.2 0 0.1 0 0.1 0 0.1 0 0.2 0 0.1 0.1 0.1 0.1v1.3q0-0.1-0.1-0.1-0.1-0.1-0.2-0.1-0.1 0-0.2 0-0.1 0-0.2 0c-0.4 0-1.6 0.2-1.6 3v2.5zm5.1-7.9q-0.1-0.1-0.3-0.2-0.1-0.1-0.2-0.3 0-0.2 0-0.3 0-0.2 0-0.4 0.1-0.1 0.2-0.3 0.2-0.1 0.3-0.2 0.2 0 0.4 0 0.1 0 0.3 0 0.2 0.1 0.3 0.2 0.1 0.2 0.2 0.3 0.1 0.2 0.1 0.4 0 0.1-0.1 0.3-0.1 0.2-0.2 0.3-0.1 0.1-0.3 0.2-0.2 0.1-0.3 0.1-0.2 0-0.4-0.1zm-0.3 7.9v-6.6h1.3v6.6zm3.8-0.9c-0.6-0.7-0.9-1.5-0.9-2.4 0-0.9 0.3-1.7 0.9-2.4 0.6-0.6 1.5-1 2.4-1.1q0.3 0 0.6 0.1 0.4 0.1 0.7 0.2 0.3 0.2 0.6 0.4 0.2 0.3 0.4 0.5v-4h1.3v9.6h-1.3v-1.1q-0.2 0.3-0.4 0.6-0.3 0.2-0.6 0.3-0.3 0.2-0.7 0.3-0.3 0-0.6 0c-0.9 0-1.8-0.4-2.4-1zm4.1-0.8c0.5-0.4 0.7-1 0.7-1.6 0-0.6-0.2-1.2-0.7-1.6-0.4-0.5-1-0.7-1.6-0.7-0.6 0-1.1 0.3-1.5 0.7-0.4 0.4-0.6 1-0.6 1.6 0 0.6 0.2 1.1 0.6 1.6 0.4 0.4 0.9 0.7 1.5 0.7 0.6 0 1.2-0.2 1.6-0.7zm4.4 0.8c-0.6-0.7-0.9-1.5-0.9-2.4 0-0.9 0.3-1.7 0.9-2.4 0.6-0.6 1.5-1 2.3-1.1q0.4 0 0.7 0.1 0.4 0.1 0.7 0.2 0.3 0.2 0.6 0.4 0.2 0.3 0.4 0.5v-1h1.3v6.6h-1.3v-1.1q-0.2 0.3-0.4 0.6-0.3 0.2-0.6 0.3-0.3 0.2-0.7 0.3-0.3 0-0.7 0c-0.8 0-1.7-0.4-2.3-1zm4.1-0.8c0.5-0.4 0.7-1 0.7-1.6 0-0.6-0.2-1.2-0.7-1.6-0.4-0.5-1-0.7-1.6-0.7-0.6 0-1.1 0.3-1.5 0.7-0.4 0.4-0.7 1-0.7 1.6 0 0.6 0.3 1.1 0.7 1.6 0.4 0.4 0.9 0.7 1.5 0.7 0.6 0 1.2-0.2 1.6-0.7zm4.7 4.6l1.2-3.1-2.7-6.4h1.4l2 4.9 1.9-4.9h1.5l-4 9.5z"/><path class="d" d="m93.5 82c-11.3 0-20.5-9.2-20.5-20.5 0-11.3 9.2-20.5 20.5-20.5 11.3 0 20.5 9.2 20.5 20.5 0 11.3-9.2 20.5-20.5 20.5z"/><g style="opacity:.7"><path fill-rule="evenodd" class="e" d="m85.6 59.3h16.1v10q0 0.2-0.1 0.4-0.1 0.1-0.2 0.3-0.1 0.1-0.3 0.2-0.2 0.1-0.4 0.1h-14.1q-0.2 0-0.4-0.1-0.2-0.1-0.3-0.2-0.1-0.2-0.2-0.3-0.1-0.2-0.1-0.4zm9.7 2.1q0 0.1 0 0.3 0 0.1 0 0.2 0.1 0.1 0.3 0.1h3.2q0.1 0 0.2-0.1 0.1-0.1 0.1-0.2 0-0.2-0.1-0.3-0.1 0-0.2-0.1h-3.2q-0.2 0.1-0.3 0.1zm-0.6 2.8q-0.1 0.1-0.1 0.2 0 0.2 0.1 0.3 0.1 0.1 0.2 0.1h3.9q0.1 0 0.2-0.1 0.1-0.1 0.1-0.3 0-0.1-0.1-0.2-0.1-0.1-0.2-0.1h-3.9q-0.1 0-0.2 0.1zm0 2.7q-0.1 0.1-0.1 0.3 0 0.1 0.1 0.2 0.1 0.1 0.2 0.1h3.9q0.1 0 0.2-0.1 0.1-0.1 0.1-0.2 0-0.2-0.1-0.3-0.1-0.1-0.2-0.1h-3.9q-0.1 0-0.2 0.1zm-6.4-5.5q-0.1 0.1-0.1 0.3 0 0.1 0.1 0.2 0.1 0.1 0.2 0.1h3.9q0.1 0 0.2-0.1 0.1-0.1 0.1-0.2 0-0.2-0.1-0.3-0.1 0-0.2-0.1h-3.9q-0.1 0.1-0.2 0.1zm0.3 2.8q-0.1 0.1-0.1 0.2 0 0.2 0.1 0.3 0.1 0.1 0.2 0.1h3.6q0.1 0 0.2-0.1 0.1-0.1 0.1-0.3 0-0.1-0.1-0.2-0.1-0.1-0.2-0.1h-3.6q-0.1 0-0.2 0.1zm-0.3 2.7q-0.1 0.1-0.1 0.3 0 0.1 0.1 0.2 0.1 0.1 0.2 0.1h3.9q0.1 0 0.2-0.1 0.1-0.1 0.1-0.2 0-0.2-0.1-0.3-0.1-0.1-0.2-0.1h-3.9q-0.1 0-0.2 0.1z"/><path class="e" d="m100.7 54.5h-1.9v1.5q0 0.2-0.1 0.3-0.1 0.1-0.2 0.1-0.2 0-0.3-0.1-0.1-0.1-0.1-0.3v-2.3q0.1-0.1 0-0.2-0.1-0.2-0.3-0.2-0.1 0-0.2 0.2-0.1 0.1-0.1 0.2v0.8h-7.1v1.5q0.1 0.1 0 0.2 0 0 0 0.1-0.1 0-0.1 0.1-0.1 0-0.2 0 0 0-0.1 0-0.1-0.1-0.1-0.1-0.1-0.1-0.1-0.1 0-0.1 0-0.2v-2.3q0 0 0-0.1 0-0.1-0.1-0.1 0-0.1-0.1-0.1 0 0-0.1-0.1-0.1 0.1-0.1 0.1-0.1 0-0.2 0.1 0 0 0 0.1 0 0.1 0 0.1v0.8h-2.6q-0.2 0-0.4 0.1-0.2 0.1-0.3 0.3-0.1 0.1-0.2 0.3-0.1 0.2-0.1 0.4v2.7h16.1v-2.7q0-0.2-0.1-0.4-0.1-0.2-0.2-0.3-0.1-0.2-0.3-0.3-0.2-0.1-0.4-0.1z"/></g></svg>