<svg version="1.2" xmlns="http://www.w3.org/2000/svg" viewBox="0 0 349 136" width="349" height="136"><style>tspan{white-space:pre}.a{fill:#fff}.b{font-size: 20px;fill: #303c47;font-weight: 700;font-family: "Inter-Bold", "Inter"}.c{font-size: 11px;fill: #828a90;font-weight: 500;font-family: "Inter-Medium", "Inter"}.d{fill:#eef1fd}.e{fill:#859eef}</style><path class="a" d="m25 35c0-5.5 4.5-10 10-10h279c5.5 0 10 4.5 10 10v66c0 5.5-4.5 10-10 10h-279c-5.5 0-10-4.5-10-10z"/><text style="transform:matrix(1,0,0,1,48.244,67)" ><tspan x="0" y="0" class="b">Page #1 Rankings
</tspan></text><text style="transform:matrix(1,0,0,1,48,86)" ><tspan x="0" y="0" class="c">Increased Sales and Conversions!
</tspan></text><path class="d" d="m277 91c-12.7 0-23-10.3-23-23 0-12.7 10.3-23 23-23 12.7 0 23 10.3 23 23 0 12.7-10.3 23-23 23z"/><path class="e" d="m272.2 76.8q0 0-0.1-0.1 0 0-0.1 0-0.1-0.1-0.1-0.1-0.1 0-0.1-0.1 0-0.1 0-0.2 0-0.1 0-0.3-0.1-0.1-0.1-0.2 0-0.1 0-0.2-0.1-0.3-0.2-0.5-0.1-0.2-0.2-0.4-0.1-0.2-0.2-0.4-0.1-0.1-0.3-0.3-0.1 0.1-0.2 0.3-0.1 0.1-0.2 0.3-0.1 0.2-0.1 0.4 0 0.2 0 0.4-0.4-0.4-0.7-0.8 0-0.1 0.1-0.2 0-0.2 0.1-0.3 0-0.1 0-0.2 0-0.1 0-0.3 0-0.2 0-0.4 0-0.2-0.1-0.4 0-0.2-0.1-0.4 0-0.2-0.1-0.4-0.2 0-0.4 0.2-0.1 0.1-0.2 0.3-0.1 0.1-0.2 0.3-0.1 0.2-0.1 0.4c-0.2-0.3-0.3-0.6-0.5-0.9q0.1-0.1 0.2-0.2 0.1-0.1 0.1-0.2 0.1-0.1 0.1-0.3 0.1-0.1 0.1-0.2 0.1-0.2 0.2-0.4 0-0.2 0-0.4 0-0.2 0-0.5 0-0.2 0-0.4-0.2 0.1-0.4 0.1-0.2 0.1-0.4 0.3-0.1 0.1-0.3 0.3-0.1 0.1-0.1 0.3-0.1-0.1-0.1-0.2-0.1-0.2-0.1-0.3 0-0.1 0-0.3 0-0.1-0.1-0.3 0.2 0 0.3-0.1 0.1-0.1 0.2-0.2 0.1-0.1 0.1-0.2 0.1-0.1 0.2-0.2 0.1-0.1 0.2-0.3 0.1-0.2 0.2-0.4 0-0.2 0.1-0.5 0-0.2 0-0.4-0.2 0-0.4 0-0.2 0.1-0.4 0.2-0.2 0.1-0.3 0.2-0.2 0.2-0.3 0.4c0-0.4 0-0.8 0.1-1.2q0.1 0 0.2-0.1 0.2 0 0.3-0.1 0.1 0 0.2-0.1 0.1-0.1 0.2-0.2 0.2-0.1 0.3-0.3 0.2-0.1 0.3-0.3 0.1-0.2 0.2-0.4 0.1-0.2 0.2-0.4-0.2 0-0.4-0.1-0.2 0-0.5 0.1-0.2 0-0.4 0.1-0.2 0.2-0.3 0.3c0.1-0.4 0.2-0.8 0.3-1.1q0.2 0 0.3-0.1 0.2 0 0.3 0 0.1 0 0.3-0.1 0.1 0 0.2-0.1 0.2-0.1 0.4-0.2 0.2-0.1 0.4-0.2 0.1-0.2 0.3-0.4 0.1-0.1 0.2-0.3-0.2-0.1-0.4-0.2-0.2-0.1-0.4-0.1-0.3 0-0.5 0.1-0.2 0-0.4 0.2 0.1-0.2 0.2-0.3 0.1-0.1 0.2-0.3 0-0.1 0.1-0.2 0.1-0.2 0.2-0.3 0.2 0.1 0.3 0.1 0.1 0 0.3 0 0.1 0.1 0.3 0 0.1 0 0.3 0 0.2 0 0.4-0.1 0.2-0.1 0.5-0.2 0.2-0.1 0.4-0.2 0.1-0.1 0.3-0.3-0.1-0.1-0.3-0.3-0.2-0.1-0.5-0.2-0.2 0-0.4 0-0.3 0-0.5 0.1 0.2-0.2 0.4-0.4 0.2-0.2 0.4-0.3 0.3-0.2 0.5-0.4 0.2-0.1 0.5-0.2 0-0.1 0.1-0.1 0-0.1 0.1-0.2 0-0.1 0-0.1 0-0.1-0.1-0.2 0 0-0.1-0.1-0.1 0-0.1-0.1-0.1 0-0.2 0-0.1 0-0.1 0.1-0.3 0.1-0.6 0.3-0.2 0.2-0.4 0.3-0.3 0.2-0.5 0.4-0.2 0.2-0.5 0.4 0.2-0.2 0.2-0.5 0.1-0.2 0.1-0.5 0-0.2-0.1-0.5 0-0.2-0.2-0.4-0.2 0.1-0.4 0.3-0.2 0.2-0.4 0.4-0.1 0.3-0.2 0.5-0.2 0.3-0.2 0.6-0.1 0.1-0.1 0.3 0 0.2 0 0.3 0.1 0.2 0.1 0.3 0.1 0.2 0.2 0.3-0.2 0.2-0.3 0.3-0.1 0.1-0.2 0.3-0.1 0.1-0.1 0.3-0.1 0.1-0.2 0.3 0-0.3 0-0.5 0-0.3-0.1-0.5-0.1-0.2-0.2-0.5-0.1-0.2-0.3-0.3-0.2 0.2-0.3 0.4-0.1 0.3-0.2 0.6-0.1 0.2-0.1 0.5-0.1 0.3-0.1 0.6 0 0.2 0.1 0.3 0 0.2 0.1 0.3 0.1 0.2 0.1 0.3 0.1 0.1 0.3 0.2-0.1 0.2-0.2 0.4 0 0.1-0.1 0.3 0 0.2-0.1 0.3 0 0.2-0.1 0.4 0-0.3-0.1-0.5-0.1-0.3-0.2-0.5-0.2-0.2-0.3-0.4-0.2-0.1-0.4-0.3-0.1 0.3-0.2 0.6-0.1 0.3-0.1 0.6 0 0.2 0.1 0.5 0 0.3 0.1 0.6 0 0.1 0.1 0.3 0.1 0.1 0.2 0.2 0.1 0.2 0.2 0.3 0.2 0 0.3 0.1 0 0.2 0 0.4 0 0.1-0.1 0.3 0 0.2 0 0.3 0 0.2 0 0.4-0.1-0.3-0.2-0.5-0.1-0.2-0.3-0.3-0.2-0.2-0.4-0.3-0.2-0.1-0.5-0.1 0 0.3 0 0.5 0 0.3 0.1 0.6 0.1 0.3 0.2 0.5 0.1 0.3 0.2 0.5 0.1 0.2 0.2 0.3 0.1 0.1 0.3 0.2 0.1 0.1 0.3 0.1 0.1 0.1 0.2 0.1 0.1 0.2 0.1 0.3 0 0.2 0 0.4 0.1 0.1 0.1 0.3 0 0.1 0.1 0.3-0.2-0.2-0.4-0.3-0.1-0.2-0.4-0.3-0.2-0.1-0.4-0.1-0.2-0.1-0.5-0.1 0.1 0.3 0.2 0.6 0 0.3 0.2 0.5 0.1 0.3 0.3 0.5 0.2 0.2 0.4 0.4 0.1 0.1 0.2 0.2 0.2 0 0.3 0.1 0.2 0 0.3 0.1 0.2 0 0.3 0 0.1 0.1 0.1 0.2 0.1 0.2 0.1 0.3 0.1 0.2 0.2 0.3 0 0.1 0.1 0.3-0.2-0.1-0.4-0.2-0.2-0.1-0.4-0.1-0.3 0-0.5 0-0.2 0-0.4 0.1 0.1 0.3 0.2 0.5 0.2 0.2 0.4 0.5 0.2 0.2 0.4 0.3 0.3 0.2 0.5 0.4 0.2 0 0.3 0 0.1 0.1 0.3 0.1 0.1 0 0.3 0 0.1 0 0.3 0 0.1 0.1 0.2 0.2 0.1 0.1 0.2 0.2 0.1 0.2 0.2 0.3 0.1 0.1 0.2 0.2-0.2-0.1-0.4-0.1-0.2 0-0.4 0-0.3 0-0.5 0.1-0.2 0.1-0.3 0.2 0.2 0.3 0.4 0.4 0.2 0.2 0.5 0.4 0.3 0.1 0.6 0.3 0.2 0.1 0.5 0.1 0.2 0 0.3 0.1 0.2 0 0.3-0.1 0.1 0 0.3 0 0.1-0.1 0.2-0.1c0.2 0.1 0.4 0.2 0.5 0.3q0.1 0.1 0.2 0.1 0.2 0 0.3 0 0.1-0.1 0.2-0.1 0.1-0.1 0.1-0.2 0.1-0.1 0.1-0.2 0-0.1 0-0.2 0-0.1-0.1-0.2-0.1-0.1-0.2-0.2z"/><path class="e" d="m287.1 71q0.1-0.2 0.1-0.3 0-0.2 0.1-0.3 0-0.2 0-0.4 0-0.1 0.1-0.3 0.1 0 0.3-0.1 0.1 0 0.2-0.1 0.2-0.1 0.3-0.2 0.1-0.1 0.2-0.3 0.1-0.2 0.2-0.5 0.2-0.2 0.2-0.5 0.1-0.3 0.1-0.6 0-0.2 0-0.5-0.2 0-0.5 0.1-0.2 0.1-0.4 0.3-0.1 0.2-0.3 0.4-0.1 0.1-0.2 0.4 0-0.7-0.1-1.4 0.1 0 0.3-0.1 0.1-0.1 0.2-0.3 0.1-0.1 0.2-0.2 0.1-0.2 0.1-0.3 0.1-0.3 0.2-0.6 0-0.3 0-0.5 0-0.3-0.1-0.6 0-0.3-0.2-0.6-0.2 0.2-0.4 0.3-0.1 0.2-0.3 0.4-0.1 0.2-0.2 0.5-0.1 0.2-0.1 0.5 0-0.2-0.1-0.4 0-0.1-0.1-0.3-0.1-0.2-0.1-0.3-0.1-0.2-0.1-0.4 0.1-0.1 0.2-0.2 0.1-0.1 0.1-0.3 0.1-0.1 0.1-0.3 0.1-0.1 0.1-0.3 0-0.3 0-0.6-0.1-0.2-0.2-0.5-0.1-0.3-0.2-0.6-0.1-0.2-0.3-0.5-0.2 0.2-0.3 0.4-0.1 0.3-0.2 0.5-0.1 0.2-0.1 0.5 0 0.2 0 0.5c-0.3-0.4-0.5-0.8-0.8-1.2q0.1-0.1 0.1-0.3 0.1-0.1 0.1-0.3 0-0.1 0-0.3 0-0.2 0-0.3-0.1-0.3-0.2-0.6-0.2-0.3-0.3-0.5-0.2-0.3-0.4-0.5-0.2-0.2-0.5-0.4-0.1 0.2-0.2 0.5 0 0.2 0 0.5 0 0.2 0 0.5 0.1 0.2 0.2 0.4-0.2-0.2-0.4-0.3-0.3-0.2-0.5-0.4-0.2-0.2-0.5-0.4-0.2-0.1-0.5-0.3-0.1 0-0.1 0-0.1 0-0.2 0-0.1 0-0.1 0.1-0.1 0-0.2 0.1 0 0 0 0.1 0 0.1 0 0.2 0 0 0.1 0.1 0 0.1 0.1 0.1 0.2 0.1 0.5 0.3 0.2 0.1 0.4 0.3 0.2 0.2 0.4 0.3 0.3 0.2 0.5 0.4-0.3-0.1-0.5-0.1-0.3 0-0.5 0.1-0.2 0-0.4 0.2-0.2 0.1-0.4 0.3 0.2 0.1 0.4 0.3 0.2 0.1 0.4 0.2 0.2 0.1 0.4 0.1 0.3 0.1 0.5 0.1 0.1 0.1 0.3 0.1 0.1 0 0.3 0 0.1 0 0.3 0 0.1-0.1 0.2-0.1 0.1 0.1 0.2 0.2 0.1 0.1 0.2 0.3 0.1 0.1 0.2 0.2 0.1 0.2 0.2 0.3-0.2-0.1-0.5-0.2-0.2 0-0.4 0-0.2 0-0.5 0-0.2 0.1-0.4 0.3 0.2 0.1 0.3 0.3 0.2 0.2 0.3 0.3 0.2 0.1 0.4 0.3 0.1 0.1 0.3 0.2 0.2 0 0.3 0.1 0.1 0 0.3 0.1 0.1 0 0.2 0 0.2 0 0.3 0 0.1 0.1 0.1 0.3 0.1 0.1 0.1 0.3 0.1 0.1 0.1 0.3 0.1 0.1 0.1 0.3-0.2-0.2-0.4-0.3-0.1-0.1-0.4-0.2-0.2 0-0.4 0-0.2 0-0.4 0.1 0 0.2 0.1 0.4 0.1 0.2 0.3 0.3 0.1 0.2 0.2 0.4 0.2 0.1 0.3 0.3 0.1 0.1 0.2 0.1 0.2 0.1 0.3 0.2 0.1 0 0.2 0.1 0.2 0 0.3 0.1c0 0.3 0.1 0.7 0.1 1.1q-0.1-0.2-0.3-0.3-0.2-0.2-0.3-0.3-0.2-0.1-0.5-0.1-0.2 0-0.4 0 0 0.2 0.1 0.4 0 0.2 0.1 0.4 0.1 0.2 0.2 0.4 0.1 0.2 0.2 0.4 0 0.1 0.1 0.2 0.1 0.1 0.2 0.2 0.1 0.1 0.2 0.2 0.1 0 0.2 0.1c0 0.4-0.1 0.7-0.2 1.1q-0.1-0.2-0.2-0.4-0.1-0.2-0.2-0.3-0.2-0.1-0.4-0.2-0.2-0.1-0.4-0.1 0 0.2 0 0.4-0.1 0.2 0 0.4 0 0.2 0 0.4 0.1 0.2 0.1 0.5 0.1 0.1 0.1 0.2 0.1 0.1 0.1 0.2 0.1 0.1 0.2 0.2 0 0.1 0.1 0.2 0 0.1-0.1 0.3 0 0.1-0.1 0.2 0 0.1-0.1 0.2-0.1 0.1-0.1 0.2-0.1-0.1-0.1-0.3-0.1-0.2-0.2-0.4-0.1-0.1-0.3-0.3-0.1-0.1-0.3-0.2-0.1 0.2-0.2 0.4 0 0.2-0.1 0.4 0 0.2 0 0.5-0.1 0.2 0 0.4 0 0.1 0 0.2 0 0.2 0 0.3 0 0.1 0.1 0.2 0 0.1 0.1 0.2-0.4 0.4-0.8 0.8 0.1-0.2 0.1-0.4-0.1-0.2-0.1-0.3-0.1-0.2-0.2-0.4-0.1-0.1-0.3-0.3-0.1 0.2-0.2 0.4-0.2 0.2-0.3 0.4-0.1 0.2-0.2 0.4-0.1 0.2-0.1 0.4 0 0.1-0.1 0.2 0 0.2 0 0.3 0 0.1 0 0.2 0 0.2 0 0.3 0 0-0.1 0.1-0.1 0-0.1 0-0.1 0.1-0.1 0.1-0.1 0.1-0.2 0.1-0.1 0-0.1 0.1-0.1 0.1-0.1 0.2-0.1 0.1-0.1 0.2 0.1 0.1 0.1 0.2 0.1 0.1 0.1 0.2 0.1 0.1 0.3 0.1 0.1 0.1 0.2 0 0.1 0 0.2 0 0.1-0.1 0.1-0.1 0.1-0.1 0.2-0.1 0 0 0.1-0.1 0.1 0 0.1-0.1 0.1 0.1 0.3 0.1 0.1 0.1 0.2 0.1 0.2 0 0.3 0 0.2 0 0.3 0 0.3-0.1 0.6-0.2 0.3-0.1 0.5-0.3 0.3-0.1 0.5-0.3 0.3-0.2 0.5-0.4-0.2-0.2-0.4-0.2-0.2-0.1-0.4-0.1-0.2-0.1-0.4 0-0.3 0-0.5 0 0.2-0.1 0.3-0.2 0.1-0.1 0.2-0.2 0.1-0.1 0.2-0.2 0.1-0.2 0.2-0.3 0.1 0 0.3 0 0.1 0 0.2 0 0.2 0 0.3 0 0.2-0.1 0.3-0.1 0.3-0.1 0.5-0.3 0.2-0.2 0.4-0.4 0.2-0.2 0.4-0.4 0.1-0.3 0.3-0.6-0.2 0-0.5 0-0.2-0.1-0.4 0-0.2 0-0.4 0.1-0.2 0.1-0.4 0.2 0.3-0.6 0.5-1.1 0.1 0 0.3 0 0.1-0.1 0.3-0.1 0.1-0.1 0.2-0.1 0.2-0.1 0.3-0.2 0.2-0.2 0.4-0.4 0.2-0.2 0.3-0.5 0.1-0.2 0.2-0.5 0.1-0.3 0.2-0.5-0.2 0-0.5 0.1-0.2 0-0.4 0.1-0.2 0.1-0.3 0.3-0.2 0.1-0.4 0.3z"/><path class="e" d="m281.5 74.4l-0.8-4.5 3.3-3.2q0.1-0.1 0.1-0.1 0 0 0-0.1 0.1 0 0.1-0.1 0 0-0.1-0.1 0 0 0-0.1 0 0-0.1-0.1 0 0-0.1 0 0 0-0.1-0.1l-4.5-0.6-2-4.1q-0.1-0.1-0.1-0.1 0-0.1-0.1-0.1 0 0-0.1 0 0-0.1-0.1-0.1 0 0-0.1 0 0 0.1-0.1 0.1 0 0-0.1 0.1 0 0 0 0.1l-2 4.1-4.6 0.6q-0.1 0.1-0.1 0.1-0.1 0-0.1 0 0 0.1-0.1 0.1 0 0.1 0 0.1 0 0.1 0 0.1 0 0.1 0 0.1 0 0.1 0 0.1 0.1 0.1 0.1 0.1l3.3 3.2-0.8 4.5q0 0.1 0 0.1 0 0.1 0 0.1 0.1 0.1 0.1 0.1 0 0.1 0.1 0.1 0 0 0.1 0.1 0 0 0.1 0 0 0 0.1 0 0 0 0.1-0.1l4-2.1 4.1 2.1q0 0 0 0 0.1 0 0.1 0 0 0 0 0 0.1 0 0.1 0 0 0 0 0 0.1 0 0.1 0 0 0 0.1 0 0 0 0 0 0-0.1 0.1-0.1 0 0 0-0.1 0 0 0-0.1 0 0 0-0.1z"/></svg>