<svg xmlns="http://www.w3.org/2000/svg" width="1066.127" height="683.798" viewBox="0 0 1066.127 683.798"><g transform="translate(-553.018 -2607.387)"><path d="M12.65,0Q-46.656,142.38,172.077,308.749t72.36,373.776" transform="translate(769.284 2608.55)" fill="none" stroke="#a646a5" stroke-width="0.385" fill-rule="evenodd"/><path d="M12.65,0Q-46.656,142.38,172.077,308.749t72.36,373.776" transform="translate(829.284 2608.55)" fill="none" stroke="#a646a5" stroke-width="0.385" fill-rule="evenodd"/><path d="M12.65,0Q-46.656,142.38,172.077,308.749t72.36,373.776" transform="translate(885.053 2607.78)" fill="none" stroke="#a646a5" stroke-width="0.385" fill-rule="evenodd"/><path d="M12.65,0Q-46.656,142.38,172.077,308.749t72.36,373.776" transform="translate(942.361 2607.78)" fill="none" stroke="#a646a5" stroke-width="0.385" fill-rule="evenodd"/><path d="M12.65,0Q-46.656,142.38,172.077,308.749t72.36,373.776" transform="translate(1000.438 2607.78)" fill="none" stroke="#a646a5" stroke-width="0.385" fill-rule="evenodd"/><path d="M12.65,0Q-46.656,142.38,172.077,308.749t72.36,373.776" transform="translate(1054.284 2607.78)" fill="none" stroke="#a646a5" stroke-width="0.385" fill-rule="evenodd"/><path d="M12.65,0Q-46.656,142.38,172.077,308.749t72.36,373.776" transform="translate(1108.13 2607.78)" fill="none" stroke="#a646a5" stroke-width="0.385" fill-rule="evenodd"/><path d="M12.65,0Q-46.656,142.38,172.077,308.749t72.36,373.776" transform="translate(1158.13 2607.78)" fill="none" stroke="#a646a5" stroke-width="0.385" fill-rule="evenodd"/><path d="M12.65,0Q-46.656,142.38,172.077,308.749t72.36,373.776" transform="translate(1215.822 2607.78)" fill="none" stroke="#a646a5" stroke-width="0.385" fill-rule="evenodd"/><path d="M12.65,0Q-46.656,142.38,172.077,308.749t72.36,373.776" transform="translate(1265.822 2607.78)" fill="none" stroke="#a646a5" stroke-width="0.385" fill-rule="evenodd"/><path d="M12.65,0Q-46.656,142.38,172.077,308.749t72.36,373.776" transform="translate(1315.822 2607.78)" fill="none" stroke="#a646a5" stroke-width="0.385" fill-rule="evenodd"/><path d="M12.65,0Q-46.656,142.38,172.077,308.749t72.36,373.776" transform="translate(712.826 2607.461)" fill="none" stroke="#a646a5" stroke-width="0.385" fill-rule="evenodd"/><path d="M12.65,0Q-46.656,142.38,172.077,308.749t72.36,373.776" transform="translate(658.98 2607.461)" fill="none" stroke="#a646a5" stroke-width="0.385" fill-rule="evenodd"/><path d="M12.65,0Q-46.656,142.38,172.077,308.749t72.36,373.776" transform="translate(607.441 2607.461)" fill="none" stroke="#a646a5" stroke-width="0.385" fill-rule="evenodd"/><path d="M12.65,0Q-46.656,142.38,172.077,308.749t72.36,373.776" transform="translate(553.211 2607.461)" fill="none" stroke="#a646a5" stroke-width="0.385" fill-rule="evenodd"/></g></svg>