<svg xmlns="http://www.w3.org/2000/svg" width="15" height="15" viewBox="0 0 15 15"><g transform="translate(-358.665 -2553.665)"><circle cx="7.5" cy="7.5" r="7.5" transform="translate(358.665 2553.665)" fill="#587bea"/><g transform="translate(361.537 2557.134)"><path d="M45.385,51.093h0a.191.191,0,0,1-.136-.061L41.65,47.123a.191.191,0,0,1,.221-.3l3.29,1.541a.071.071,0,0,0,.082-.015L50.262,43.1a.191.191,0,0,1,.3.236l-4.992,7.648a.193.193,0,0,1-.025.031l-.022.022A.192.192,0,0,1,45.385,51.093Z" transform="translate(-41.6 -43.042)" fill="#fff"/></g></g></svg>