<?xml version="1.0" encoding="UTF-8"?>
<!DOCTYPE svg PUBLIC "-//W3C//DTD SVG 1.1//EN" "http://www.w3.org/Graphics/SVG/1.1/DTD/svg11.dtd">
<svg xmlns="http://www.w3.org/2000/svg" version="1.1" width="257px" height="242px" style="shape-rendering:geometricPrecision; text-rendering:geometricPrecision; image-rendering:optimizeQuality; fill-rule:evenodd; clip-rule:evenodd" xmlns:xlink="http://www.w3.org/1999/xlink">
<g><path style="opacity:1" fill="#fefefe" d="M -0.5,-0.5 C 85.1667,-0.5 170.833,-0.5 256.5,-0.5C 256.5,80.1667 256.5,160.833 256.5,241.5C 170.833,241.5 85.1667,241.5 -0.5,241.5C -0.5,195.833 -0.5,150.167 -0.5,104.5C 0.5,104.5 1.5,104.5 2.5,104.5C 2.5,105.833 2.5,107.167 2.5,108.5C 4.16667,108.5 5.83333,108.5 7.5,108.5C 7.64945,107.448 7.48278,106.448 7,105.5C 5.41399,104.624 3.91399,103.624 2.5,102.5C 6.40826,101.786 9.40826,103.286 11.5,107C 12.7932,107.49 14.1266,107.657 15.5,107.5C 19.4101,109.088 22.7435,111.421 25.5,114.5C 26.1152,118.097 27.4485,121.431 29.5,124.5C 26.7492,127.055 27.4159,128.055 31.5,127.5C 31.5,128.833 31.5,130.167 31.5,131.5C 34.899,131.45 36.2323,129.95 35.5,127C 39.1992,126.177 41.5325,127.677 42.5,131.5C 44.3686,132.624 46.3686,133.457 48.5,134C 47.269,135.183 47.269,136.349 48.5,137.5C 49.3279,136.585 50.3279,135.919 51.5,135.5C 53.1772,136.187 54.8439,136.854 56.5,137.5C 60.1327,138.142 62.4661,140.142 63.5,143.5C 65.8029,145.967 68.3029,148.3 71,150.5C 71.1667,151.333 71.3333,152.167 71.5,153C 68.502,161.534 66.502,170.367 65.5,179.5C 65.1016,183.761 64.1016,187.761 62.5,191.5C 61.2502,191.423 60.4169,190.756 60,189.5C 59.7031,192.914 59.0365,196.247 58,199.5C 54.9681,201.805 54.1348,204.638 55.5,208C 55.0418,210.398 53.7085,212.064 51.5,213C 51.8333,213.333 52.1667,213.667 52.5,214C 50.9315,220.176 49.5981,226.342 48.5,232.5C 47.4808,234.54 47.4808,236.54 48.5,238.5C 53.5146,234.33 58.8479,230.663 64.5,227.5C 65.8734,227.657 67.2068,227.49 68.5,227C 72.8831,222.13 78.2165,218.964 84.5,217.5C 84.4208,216.07 84.7542,214.736 85.5,213.5C 87.1836,212.85 88.5169,211.85 89.5,210.5C 92.99,205.412 97.6567,201.745 103.5,199.5C 107.266,198.231 110.933,196.731 114.5,195C 115.893,193.829 116.727,192.329 117,190.5C 118.677,189.484 120.343,188.484 122,187.5C 125.024,189.212 128.19,190.545 131.5,191.5C 132.167,191.833 132.833,192.167 133.5,192.5C 133.586,193.496 133.252,194.329 132.5,195C 135.952,197.393 139.619,199.226 143.5,200.5C 143.5,201.5 143.5,202.5 143.5,203.5C 145.824,203.662 147.491,204.828 148.5,207C 149.793,207.49 151.127,207.657 152.5,207.5C 152.833,207.5 153.167,207.5 153.5,207.5C 153.33,208.822 153.663,209.989 154.5,211C 158.217,212.223 161.217,214.389 163.5,217.5C 165.071,218.309 166.738,218.643 168.5,218.5C 177.851,225.269 187.351,231.936 197,238.5C 196.635,235.206 196.135,231.873 195.5,228.5C 195.852,223.994 195.185,219.661 193.5,215.5C 193.043,214.702 192.376,214.369 191.5,214.5C 190.883,214.389 190.383,214.056 190,213.5C 187.563,206.021 185.063,198.687 182.5,191.5C 180.691,183.912 178.358,176.578 175.5,169.5C 175.5,168.833 175.5,168.167 175.5,167.5C 175.666,163.154 175.499,158.821 175,154.5C 173.028,149.534 174.861,147.034 180.5,147C 181.772,145.693 182.772,144.193 183.5,142.5C 187.471,141.522 190.138,139.189 191.5,135.5C 195.533,134.327 199.533,132.827 203.5,131C 203.795,126.704 206.129,124.371 210.5,124C 211.665,122.008 212.998,120.175 214.5,118.5C 220.002,113.836 225.668,109.336 231.5,105C 234.329,103.644 236.996,102.144 239.5,100.5C 242.09,100.082 244.423,99.0818 246.5,97.5C 247.086,97.7093 247.586,98.0426 248,98.5C 248.667,100.5 248.667,102.5 248,104.5C 245.929,105.525 243.762,106.358 241.5,107C 242.593,108.365 243.926,108.699 245.5,108C 251.322,105.861 253.655,101.695 252.5,95.5C 251.448,95.6495 250.448,95.4828 249.5,95C 251.087,94.1376 252.754,93.4709 254.5,93C 253.953,92.0754 253.287,91.2421 252.5,90.5C 247.491,90.1577 243.158,89.1577 239.5,87.5C 239.5,88.5 239.5,89.5 239.5,90.5C 212.167,90.5 184.833,90.5 157.5,90.5C 157.5,86.8333 157.5,83.1667 157.5,79.5C 156.167,79.5 154.833,79.5 153.5,79.5C 153.665,82.5184 153.498,85.5184 153,88.5C 151.374,87.0445 150.208,85.3779 149.5,83.5C 146.588,76.9684 146.921,70.635 150.5,64.5C 149.833,64.1667 149.167,63.8333 148.5,63.5C 146.795,64.545 145.295,65.8783 144,67.5C 142.393,61.5245 140.893,55.5245 139.5,49.5C 137.483,45.7272 135.483,42.0605 133.5,38.5C 129.563,28.3194 126.063,17.9861 123,7.5C 122.148,8.57075 121.315,9.57075 120.5,10.5C 119.883,10.6107 119.383,10.944 119,11.5C 117.265,18.3705 114.932,25.0372 112,31.5C 111.503,34.146 111.336,36.8127 111.5,39.5C 111.5,39.8333 111.5,40.1667 111.5,40.5C 110.883,40.3893 110.383,40.056 110,39.5C 108.632,47.4435 105.799,54.7768 101.5,61.5C 100.018,59.5171 98.3513,57.6837 96.5,56C 97.6753,53.1619 97.5086,50.3285 96,47.5C 95.1012,52.9708 95.9345,58.1374 98.5,63C 96.0182,64.5944 95.8515,66.4277 98,68.5C 98.4986,72.1516 98.6653,75.8183 98.5,79.5C 96.5633,80.5903 94.73,81.9236 93,83.5C 94.2353,90.4306 91.4019,93.0973 84.5,91.5C 82.9644,92.2485 81.6311,93.2485 80.5,94.5C 79.5713,93.3112 79.238,91.9778 79.5,90.5C 58.1667,90.5 36.8333,90.5 15.5,90.5C 15.719,91.675 15.3857,92.675 14.5,93.5C 12.4956,91.2477 9.99563,89.9143 7,89.5C 4.72976,90.8599 2.22976,91.5266 -0.5,91.5C -0.5,60.8333 -0.5,30.1667 -0.5,-0.5 Z"/></g>
<g><path style="opacity:1" fill="#2cac7c" d="M 133.5,38.5 C 134.578,41.4021 135.244,44.4021 135.5,47.5C 132.695,41.4344 130.195,35.101 128,28.5C 127.333,29.8333 126.667,29.8333 126,28.5C 125.625,23.045 124.625,17.7117 123,12.5C 122.148,13.5707 121.315,14.5707 120.5,15.5C 120.5,13.8333 120.5,12.1667 120.5,10.5C 121.315,9.57075 122.148,8.57075 123,7.5C 126.063,17.9861 129.563,28.3194 133.5,38.5 Z"/></g>
<g><path style="opacity:1" fill="#d7fcf3" d="M 120.5,10.5 C 120.5,12.1667 120.5,13.8333 120.5,15.5C 119.833,15.5 119.5,15.8333 119.5,16.5C 116.186,23.7817 113.853,31.4483 112.5,39.5C 112.167,39.5 111.833,39.5 111.5,39.5C 111.336,36.8127 111.503,34.146 112,31.5C 114.932,25.0372 117.265,18.3705 119,11.5C 119.383,10.944 119.883,10.6107 120.5,10.5 Z"/></g>
<g><path style="opacity:1" fill="#48b28a" d="M 119.5,16.5 C 119.11,19.8394 118.61,23.1727 118,26.5C 116.227,30.968 114.394,35.3013 112.5,39.5C 113.853,31.4483 116.186,23.7817 119.5,16.5 Z"/></g>
<g><path style="opacity:1" fill="#eafcf7" d="M 111.5,40.5 C 111.5,41.1667 111.5,41.8333 111.5,42.5C 108.712,49.3081 106.378,56.3081 104.5,63.5C 102.5,68.8333 100.5,74.1667 98.5,79.5C 98.6653,75.8183 98.4986,72.1516 98,68.5C 95.8515,66.4277 96.0182,64.5944 98.5,63C 95.9345,58.1374 95.1012,52.9708 96,47.5C 97.5086,50.3285 97.6753,53.1619 96.5,56C 98.3513,57.6837 100.018,59.5171 101.5,61.5C 105.799,54.7768 108.632,47.4435 110,39.5C 110.383,40.056 110.883,40.3893 111.5,40.5 Z"/></g>
<g><path style="opacity:1" fill="#37ac81" d="M 111.5,42.5 C 111.326,45.8738 110.826,49.2072 110,52.5C 108.669,56.4963 106.835,60.163 104.5,63.5C 106.378,56.3081 108.712,49.3081 111.5,42.5 Z"/></g>
<g><path style="opacity:1" fill="#defcf4" d="M 133.5,38.5 C 135.483,42.0605 137.483,45.7272 139.5,49.5C 140.893,55.5245 142.393,61.5245 144,67.5C 145.295,65.8783 146.795,64.545 148.5,63.5C 149.167,63.8333 149.833,64.1667 150.5,64.5C 146.921,70.635 146.588,76.9684 149.5,83.5C 149.5,84.8333 149.5,86.1667 149.5,87.5C 144.633,74.231 139.966,60.8976 135.5,47.5C 135.244,44.4021 134.578,41.4021 133.5,38.5 Z"/></g>
<g><path style="opacity:1" fill="#1fae79" d="M 135.5,47.5 C 139.966,60.8976 144.633,74.231 149.5,87.5C 149.858,90.2666 150.525,92.9333 151.5,95.5C 150.5,95.5 149.5,95.5 148.5,95.5C 148.324,91.9671 146.991,88.9671 144.5,86.5C 146.693,79.9033 144.86,74.9033 139,71.5C 138.821,68.4465 138.321,65.4465 137.5,62.5C 136.137,63.8793 135.137,63.7126 134.5,62C 135.646,61.2406 136.646,60.5739 137.5,60C 135.894,55.9878 135.228,51.8211 135.5,47.5 Z"/></g>
<g><path style="opacity:1" fill="#f4fdfb" d="M 239.5,100.5 C 241.094,99.017 242.76,97.517 244.5,96C 213.502,95.5 182.502,95.3334 151.5,95.5C 150.525,92.9333 149.858,90.2666 149.5,87.5C 149.5,86.1667 149.5,84.8333 149.5,83.5C 150.208,85.3779 151.374,87.0445 153,88.5C 153.498,85.5184 153.665,82.5184 153.5,79.5C 154.833,79.5 156.167,79.5 157.5,79.5C 157.5,83.1667 157.5,86.8333 157.5,90.5C 184.833,90.5 212.167,90.5 239.5,90.5C 239.5,89.5 239.5,88.5 239.5,87.5C 243.158,89.1577 247.491,90.1577 252.5,90.5C 253.287,91.2421 253.953,92.0754 254.5,93C 252.754,93.4709 251.087,94.1376 249.5,95C 250.448,95.4828 251.448,95.6495 252.5,95.5C 253.655,101.695 251.322,105.861 245.5,108C 243.926,108.699 242.593,108.365 241.5,107C 243.762,106.358 245.929,105.525 248,104.5C 248.667,102.5 248.667,100.5 248,98.5C 247.586,98.0426 247.086,97.7093 246.5,97.5C 244.423,99.0818 242.09,100.082 239.5,100.5 Z"/></g>
<g><path style="opacity:1" fill="#f2fdfb" d="M 98.5,79.5 C 97.3631,84.9052 96.0298,90.2385 94.5,95.5C 63.1649,95.3334 31.8316,95.5 0.5,96C 5.70908,99.7279 10.7091,103.561 15.5,107.5C 14.1266,107.657 12.7932,107.49 11.5,107C 9.40826,103.286 6.40826,101.786 2.5,102.5C 3.91399,103.624 5.41399,104.624 7,105.5C 7.48278,106.448 7.64945,107.448 7.5,108.5C 5.83333,108.5 4.16667,108.5 2.5,108.5C 2.5,107.167 2.5,105.833 2.5,104.5C 1.5,104.5 0.5,104.5 -0.5,104.5C -0.5,100.167 -0.5,95.8333 -0.5,91.5C 2.22976,91.5266 4.72976,90.8599 7,89.5C 9.99563,89.9143 12.4956,91.2477 14.5,93.5C 15.3857,92.675 15.719,91.675 15.5,90.5C 36.8333,90.5 58.1667,90.5 79.5,90.5C 79.238,91.9778 79.5713,93.3112 80.5,94.5C 81.6311,93.2485 82.9644,92.2485 84.5,91.5C 91.4019,93.0973 94.2353,90.4306 93,83.5C 94.73,81.9236 96.5633,80.5903 98.5,79.5 Z"/></g>
<g><path style="opacity:1" fill="#02b576" d="M 135.5,47.5 C 135.228,51.8211 135.894,55.9878 137.5,60C 136.646,60.5739 135.646,61.2406 134.5,62C 135.137,63.7126 136.137,63.8793 137.5,62.5C 138.321,65.4465 138.821,68.4465 139,71.5C 144.86,74.9033 146.693,79.9033 144.5,86.5C 146.991,88.9671 148.324,91.9671 148.5,95.5C 149.5,95.5 150.5,95.5 151.5,95.5C 182.502,95.3334 213.502,95.5 244.5,96C 242.76,97.517 241.094,99.017 239.5,100.5C 236.996,102.144 234.329,103.644 231.5,105C 225.668,109.336 220.002,113.836 214.5,118.5C 209.337,122.144 204.004,125.644 198.5,129C 195.712,130.719 193.379,132.885 191.5,135.5C 185.599,138.72 179.933,142.387 174.5,146.5C 172.563,147.954 170.897,149.621 169.5,151.5C 165.84,153.513 162.507,155.847 159.5,158.5C 148.129,165.186 137.462,172.852 127.5,181.5C 128,181.833 128.5,182.167 129,182.5C 144.417,178.368 159.917,174.701 175.5,171.5C 176.167,176.167 176.833,180.833 177.5,185.5C 178.5,185.5 179.5,185.5 180.5,185.5C 180.025,188.082 180.692,190.082 182.5,191.5C 182.335,194.85 182.502,198.183 183,201.5C 184.836,202.669 186.002,204.336 186.5,206.5C 185.953,209.378 185.62,212.211 185.5,215C 186.282,217.74 186.782,220.574 187,223.5C 187.333,222.833 187.667,222.167 188,221.5C 190.101,226.751 188.268,228.417 182.5,226.5C 182.66,224.801 182.494,223.134 182,221.5C 178.805,220.851 175.639,220.018 172.5,219C 171.663,217.989 171.33,216.822 171.5,215.5C 169.833,215.5 168.167,215.5 166.5,215.5C 166.5,214.5 166.5,213.5 166.5,212.5C 164.394,212.321 162.728,211.321 161.5,209.5C 161.709,208.914 162.043,208.414 162.5,208C 160.5,207.667 158.5,207.333 156.5,207C 153.368,204.922 150.368,202.589 147.5,200C 145.913,199.138 144.246,198.471 142.5,198C 141.547,196.045 140.213,194.378 138.5,193C 134.697,191.345 131.03,189.511 127.5,187.5C 125.695,186.763 124.029,185.763 122.5,184.5C 116.471,188.843 110.471,193.176 104.5,197.5C 102.801,197.34 101.134,197.506 99.5,198C 98.7433,199.512 97.7433,200.846 96.5,202C 93.624,202.438 90.9573,203.438 88.5,205C 88.8333,205.333 89.1667,205.667 89.5,206C 86.8017,208.685 83.8017,211.018 80.5,213C 79.7476,213.671 79.4142,214.504 79.5,215.5C 77.7772,217.218 75.7772,218.551 73.5,219.5C 71.8211,219.892 70.1545,220.392 68.5,221C 65.6087,224.555 62.1087,227.389 58,229.5C 56.3379,228.003 54.8379,226.337 53.5,224.5C 55.6528,219.71 56.9861,214.71 57.5,209.5C 58.5798,203.339 60.2464,197.339 62.5,191.5C 64.1016,187.761 65.1016,183.761 65.5,179.5C 68.4648,172.997 71.1314,166.331 73.5,159.5C 74.5,159.5 75.5,159.5 76.5,159.5C 77.3761,156.201 77.5428,152.868 77,149.5C 74.447,147.461 71.947,145.295 69.5,143C 69.9574,142.586 70.2907,142.086 70.5,141.5C 68.4759,139.642 66.3092,137.975 64,136.5C 63.5172,135.552 63.3505,134.552 63.5,133.5C 62.5,133.5 61.5,133.5 60.5,133.5C 60.6495,134.552 60.4828,135.552 60,136.5C 57.1365,134.294 54.3031,132.128 51.5,130C 50.2068,129.51 48.8734,129.343 47.5,129.5C 47.2786,128.265 46.6119,127.265 45.5,126.5C 46.8334,125.38 47.3334,124.047 47,122.5C 44.631,122.273 42.131,122.107 39.5,122C 38.6198,120.644 38.2865,119.144 38.5,117.5C 42.2168,117.115 45.2168,115.448 47.5,112.5C 52.8025,111.671 58.1358,111.171 63.5,111C 52.8385,110.5 42.1719,110.333 31.5,110.5C 31.5,108.5 31.5,106.5 31.5,104.5C 28.6145,103.754 25.6145,103.92 22.5,105C 23.7932,105.49 25.1266,105.657 26.5,105.5C 26.719,106.675 26.3857,107.675 25.5,108.5C 22.4621,106.481 19.1288,105.314 15.5,105C 11.597,102.673 12.097,101.173 17,100.5C 21.0137,102.249 24.5137,101.582 27.5,98.5C 34.9851,101.013 42.9851,102.346 51.5,102.5C 60.8399,101.497 70.1732,100.497 79.5,99.5C 79.5,100.5 79.5,101.5 79.5,102.5C 82.7107,102.988 85.544,102.321 88,100.5C 88.3879,101.428 89.0546,102.095 90,102.5C 93.095,100.627 94.9283,97.9599 95.5,94.5C 97.7614,95.4092 99.928,95.7425 102,95.5C 100.141,89.2956 100.307,82.9623 102.5,76.5C 103.386,77.325 103.719,78.325 103.5,79.5C 104.5,79.5 105.5,79.5 106.5,79.5C 105.704,74.1839 105.037,68.8506 104.5,63.5C 106.835,60.163 108.669,56.4963 110,52.5C 110.826,49.2072 111.326,45.8738 111.5,42.5C 111.5,41.8333 111.5,41.1667 111.5,40.5C 111.5,40.1667 111.5,39.8333 111.5,39.5C 111.833,39.5 112.167,39.5 112.5,39.5C 114.394,35.3013 116.227,30.968 118,26.5C 118.61,23.1727 119.11,19.8394 119.5,16.5C 119.5,15.8333 119.833,15.5 120.5,15.5C 121.315,14.5707 122.148,13.5707 123,12.5C 124.625,17.7117 125.625,23.045 126,28.5C 126.667,29.8333 127.333,29.8333 128,28.5C 130.195,35.101 132.695,41.4344 135.5,47.5 Z"/></g>
<g><path style="opacity:1" fill="#10b176" d="M 104.5,63.5 C 105.037,68.8506 105.704,74.1839 106.5,79.5C 105.5,79.5 104.5,79.5 103.5,79.5C 103.719,78.325 103.386,77.325 102.5,76.5C 100.307,82.9623 100.141,89.2956 102,95.5C 99.928,95.7425 97.7614,95.4092 95.5,94.5C 94.9283,97.9599 93.095,100.627 90,102.5C 89.0546,102.095 88.3879,101.428 88,100.5C 85.544,102.321 82.7107,102.988 79.5,102.5C 79.5,101.5 79.5,100.5 79.5,99.5C 70.1732,100.497 60.8399,101.497 51.5,102.5C 42.9851,102.346 34.9851,101.013 27.5,98.5C 24.5137,101.582 21.0137,102.249 17,100.5C 12.097,101.173 11.597,102.673 15.5,105C 19.1288,105.314 22.4621,106.481 25.5,108.5C 26.3857,107.675 26.719,106.675 26.5,105.5C 25.1266,105.657 23.7932,105.49 22.5,105C 25.6145,103.92 28.6145,103.754 31.5,104.5C 31.5,106.5 31.5,108.5 31.5,110.5C 42.1719,110.333 52.8385,110.5 63.5,111C 58.1358,111.171 52.8025,111.671 47.5,112.5C 45.2168,115.448 42.2168,117.115 38.5,117.5C 38.2865,119.144 38.6198,120.644 39.5,122C 42.131,122.107 44.631,122.273 47,122.5C 47.3334,124.047 46.8334,125.38 45.5,126.5C 46.6119,127.265 47.2786,128.265 47.5,129.5C 40.0925,124.474 32.7591,119.474 25.5,114.5C 22.7435,111.421 19.4101,109.088 15.5,107.5C 10.7091,103.561 5.70908,99.7279 0.5,96C 31.8316,95.5 63.1649,95.3334 94.5,95.5C 96.0298,90.2385 97.3631,84.9052 98.5,79.5C 100.5,74.1667 102.5,68.8333 104.5,63.5 Z"/></g>
<g><path style="opacity:1" fill="#eafbf6" d="M 25.5,114.5 C 32.7591,119.474 40.0925,124.474 47.5,129.5C 50.5,132.167 53.5,134.833 56.5,137.5C 54.8439,136.854 53.1772,136.187 51.5,135.5C 50.3279,135.919 49.3279,136.585 48.5,137.5C 47.269,136.349 47.269,135.183 48.5,134C 46.3686,133.457 44.3686,132.624 42.5,131.5C 41.5325,127.677 39.1992,126.177 35.5,127C 36.2323,129.95 34.899,131.45 31.5,131.5C 31.5,130.167 31.5,128.833 31.5,127.5C 27.4159,128.055 26.7492,127.055 29.5,124.5C 27.4485,121.431 26.1152,118.097 25.5,114.5 Z"/></g>
<g><path style="opacity:1" fill="#d7faf1" d="M 214.5,118.5 C 212.998,120.175 211.665,122.008 210.5,124C 206.129,124.371 203.795,126.704 203.5,131C 199.533,132.827 195.533,134.327 191.5,135.5C 193.379,132.885 195.712,130.719 198.5,129C 204.004,125.644 209.337,122.144 214.5,118.5 Z"/></g>
<g><path style="opacity:1" fill="#21ad7a" d="M 47.5,129.5 C 48.8734,129.343 50.2068,129.51 51.5,130C 54.3031,132.128 57.1365,134.294 60,136.5C 60.4828,135.552 60.6495,134.552 60.5,133.5C 61.5,133.5 62.5,133.5 63.5,133.5C 63.3505,134.552 63.5172,135.552 64,136.5C 66.3092,137.975 68.4759,139.642 70.5,141.5C 70.2907,142.086 69.9574,142.586 69.5,143C 71.947,145.295 74.447,147.461 77,149.5C 77.5428,152.868 77.3761,156.201 76.5,159.5C 75.5,159.5 74.5,159.5 73.5,159.5C 74.5475,156.211 75.0475,152.878 75,149.5C 71.4792,146.791 67.6459,144.791 63.5,143.5C 62.4661,140.142 60.1327,138.142 56.5,137.5C 53.5,134.833 50.5,132.167 47.5,129.5 Z"/></g>
<g><path style="opacity:1" fill="#ddfcf5" d="M 63.5,143.5 C 67.6459,144.791 71.4792,146.791 75,149.5C 75.0475,152.878 74.5475,156.211 73.5,159.5C 71.1314,166.331 68.4648,172.997 65.5,179.5C 66.502,170.367 68.502,161.534 71.5,153C 71.3333,152.167 71.1667,151.333 71,150.5C 68.3029,148.3 65.8029,145.967 63.5,143.5 Z"/></g>
<g><path style="opacity:1" fill="#dffaef" d="M 191.5,135.5 C 190.138,139.189 187.471,141.522 183.5,142.5C 182.772,144.193 181.772,145.693 180.5,147C 174.861,147.034 173.028,149.534 175,154.5C 175.499,158.821 175.666,163.154 175.5,167.5C 173.7,162.1 171.7,156.767 169.5,151.5C 170.897,149.621 172.563,147.954 174.5,146.5C 179.933,142.387 185.599,138.72 191.5,135.5 Z"/></g>
<g><path style="opacity:1" fill="#065028" d="M 169.5,151.5 C 171.7,156.767 173.7,162.1 175.5,167.5C 175.5,168.167 175.5,168.833 175.5,169.5C 175.5,169.833 175.5,170.167 175.5,170.5C 170.435,170.219 165.435,170.552 160.5,171.5C 159.614,170.675 159.281,169.675 159.5,168.5C 158.127,168.343 156.793,168.51 155.5,169C 153.9,170.815 151.9,171.982 149.5,172.5C 148.5,172.167 147.833,171.5 147.5,170.5C 150.952,167.601 154.618,164.934 158.5,162.5C 159.429,161.311 159.762,159.978 159.5,158.5C 162.507,155.847 165.84,153.513 169.5,151.5 Z"/></g>
<g><path style="opacity:1" fill="#015928" d="M 159.5,158.5 C 159.762,159.978 159.429,161.311 158.5,162.5C 154.618,164.934 150.952,167.601 147.5,170.5C 147.833,171.5 148.5,172.167 149.5,172.5C 151.9,171.982 153.9,170.815 155.5,169C 156.793,168.51 158.127,168.343 159.5,168.5C 159.281,169.675 159.614,170.675 160.5,171.5C 165.435,170.552 170.435,170.219 175.5,170.5C 175.5,170.833 175.5,171.167 175.5,171.5C 159.917,174.701 144.417,178.368 129,182.5C 128.5,182.167 128,181.833 127.5,181.5C 137.462,172.852 148.129,165.186 159.5,158.5 Z"/></g>
<g><path style="opacity:1" fill="#38b184" d="M 175.5,169.5 C 178.358,176.578 180.691,183.912 182.5,191.5C 180.692,190.082 180.025,188.082 180.5,185.5C 179.5,185.5 178.5,185.5 177.5,185.5C 176.833,180.833 176.167,176.167 175.5,171.5C 175.5,171.167 175.5,170.833 175.5,170.5C 175.5,170.167 175.5,169.833 175.5,169.5 Z"/></g>
<g><path style="opacity:1" fill="#d2fbf0" d="M 127.5,187.5 C 128.833,188.833 130.167,190.167 131.5,191.5C 128.19,190.545 125.024,189.212 122,187.5C 120.343,188.484 118.677,189.484 117,190.5C 116.727,192.329 115.893,193.829 114.5,195C 110.933,196.731 107.266,198.231 103.5,199.5C 103.833,198.833 104.167,198.167 104.5,197.5C 110.471,193.176 116.471,188.843 122.5,184.5C 124.029,185.763 125.695,186.763 127.5,187.5 Z"/></g>
<g><path style="opacity:1" fill="#d1fcf0" d="M 133.5,192.5 C 138.088,196.588 143.088,200.088 148.5,203C 149.699,204.694 151.032,206.194 152.5,207.5C 151.127,207.657 149.793,207.49 148.5,207C 147.491,204.828 145.824,203.662 143.5,203.5C 143.5,202.5 143.5,201.5 143.5,200.5C 139.619,199.226 135.952,197.393 132.5,195C 133.252,194.329 133.586,193.496 133.5,192.5 Z"/></g>
<g><path style="opacity:1" fill="#31ac7f" d="M 104.5,197.5 C 104.167,198.167 103.833,198.833 103.5,199.5C 97.6567,201.745 92.99,205.412 89.5,210.5C 88.1266,210.343 86.7932,210.51 85.5,211C 83.9052,213.102 81.9052,214.602 79.5,215.5C 79.4142,214.504 79.7476,213.671 80.5,213C 83.8017,211.018 86.8017,208.685 89.5,206C 89.1667,205.667 88.8333,205.333 88.5,205C 90.9573,203.438 93.624,202.438 96.5,202C 97.7433,200.846 98.7433,199.512 99.5,198C 101.134,197.506 102.801,197.34 104.5,197.5 Z"/></g>
<g><path style="opacity:1" fill="#d9fcf2" d="M 62.5,191.5 C 60.2464,197.339 58.5798,203.339 57.5,209.5C 54.6527,217.219 51.6527,224.885 48.5,232.5C 49.5981,226.342 50.9315,220.176 52.5,214C 52.1667,213.667 51.8333,213.333 51.5,213C 53.7085,212.064 55.0418,210.398 55.5,208C 54.1348,204.638 54.9681,201.805 58,199.5C 59.0365,196.247 59.7031,192.914 60,189.5C 60.4169,190.756 61.2502,191.423 62.5,191.5 Z"/></g>
<g><path style="opacity:1" fill="#d7fbf0" d="M 89.5,210.5 C 88.5169,211.85 87.1836,212.85 85.5,213.5C 84.7542,214.736 84.4208,216.07 84.5,217.5C 78.2165,218.964 72.8831,222.13 68.5,227C 67.2068,227.49 65.8734,227.657 64.5,227.5C 67.5,224.833 70.5,222.167 73.5,219.5C 75.7772,218.551 77.7772,217.218 79.5,215.5C 81.9052,214.602 83.9052,213.102 85.5,211C 86.7932,210.51 88.1266,210.343 89.5,210.5 Z"/></g>
<g><path style="opacity:1" fill="#d1f9ee" d="M 153.5,207.5 C 159.372,210.047 164.372,213.714 168.5,218.5C 166.738,218.643 165.071,218.309 163.5,217.5C 161.217,214.389 158.217,212.223 154.5,211C 153.663,209.989 153.33,208.822 153.5,207.5 Z"/></g>
<g><path style="opacity:1" fill="#d6fcf2" d="M 191.5,214.5 C 192.376,214.369 193.043,214.702 193.5,215.5C 195.185,219.661 195.852,223.994 195.5,228.5C 192.944,224.288 191.61,219.622 191.5,214.5 Z"/></g>
<g><path style="opacity:1" fill="#26b07c" d="M 127.5,187.5 C 131.03,189.511 134.697,191.345 138.5,193C 140.213,194.378 141.547,196.045 142.5,198C 144.246,198.471 145.913,199.138 147.5,200C 150.368,202.589 153.368,204.922 156.5,207C 158.5,207.333 160.5,207.667 162.5,208C 162.043,208.414 161.709,208.914 161.5,209.5C 162.728,211.321 164.394,212.321 166.5,212.5C 166.5,213.5 166.5,214.5 166.5,215.5C 168.167,215.5 169.833,215.5 171.5,215.5C 171.33,216.822 171.663,217.989 172.5,219C 175.639,220.018 178.805,220.851 182,221.5C 182.494,223.134 182.66,224.801 182.5,226.5C 188.268,228.417 190.101,226.751 188,221.5C 187.667,222.167 187.333,222.833 187,223.5C 186.782,220.574 186.282,217.74 185.5,215C 185.62,212.211 185.953,209.378 186.5,206.5C 186.002,204.336 184.836,202.669 183,201.5C 182.502,198.183 182.335,194.85 182.5,191.5C 185.063,198.687 187.563,206.021 190,213.5C 190.383,214.056 190.883,214.389 191.5,214.5C 191.61,219.622 192.944,224.288 195.5,228.5C 196.135,231.873 196.635,235.206 197,238.5C 187.351,231.936 177.851,225.269 168.5,218.5C 164.372,213.714 159.372,210.047 153.5,207.5C 153.167,207.5 152.833,207.5 152.5,207.5C 151.032,206.194 149.699,204.694 148.5,203C 143.088,200.088 138.088,196.588 133.5,192.5C 132.833,192.167 132.167,191.833 131.5,191.5C 130.167,190.167 128.833,188.833 127.5,187.5 Z"/></g>
<g><path style="opacity:1" fill="#2fb080" d="M 57.5,209.5 C 56.9861,214.71 55.6528,219.71 53.5,224.5C 54.8379,226.337 56.3379,228.003 58,229.5C 62.1087,227.389 65.6087,224.555 68.5,221C 70.1545,220.392 71.8211,219.892 73.5,219.5C 70.5,222.167 67.5,224.833 64.5,227.5C 58.8479,230.663 53.5146,234.33 48.5,238.5C 47.4808,236.54 47.4808,234.54 48.5,232.5C 51.6527,224.885 54.6527,217.219 57.5,209.5 Z"/></g>
</svg>
