<?xml version="1.0" encoding="utf-8"?>
<!-- Generator: Adobe Illustrator 26.0.0, SVG Export Plug-In . SVG Version: 6.00 Build 0)  -->
<svg version="1.1" id="Layer_1" xmlns="http://www.w3.org/2000/svg" xmlns:xlink="http://www.w3.org/1999/xlink" x="0px" y="0px"
	 viewBox="0 0 815.5 150.1" style="enable-background:new 0 0 815.5 150.1;" xml:space="preserve">
<g>
	<path d="M107.3,89.4c0,14,0,27.9,0,42.1c-1.2,0.1-2.1,0.3-3.1,0.3c-16,0-32,0-48,0c-6,0-8.1-2.1-8.1-8.1c0-32,0-64,0-95.9
		c0-6.1,2.1-8.2,8-8.2c32,0,64,0,95.9,0c6,0,7.7,1.8,7.8,7.8c0,32.3,0,64.6,0,96.9c0,5.7-1.9,7.5-7.4,7.6c-8.6,0.1-17.2,0-26.2,0
		c0-14.4,0-28.3,0-42.9c3.4,0,6.8-0.1,10.2,0c3.2,0.2,4.4-1.1,4.6-4.3c0.3-4.3,1-8.6,1.6-13.5c-5.6,0-10.9,0-16.6,0
		c0-4.7-0.2-8.8,0.1-12.9c0.2-3.9,3-5.4,6.5-5.6c3.3-0.2,6.6,0,10.7,0c0-4.9,0.2-9.4-0.2-13.8c-0.1-1-2.1-2.4-3.3-2.5
		c-4.5-0.3-9-0.6-13.5-0.2c-10.7,1-17.9,8.9-18.6,20.1c-0.3,4.6,0,9.3,0,14.7c-3.9,0-7.5,0.1-11.1,0c-2.8-0.1-3.9,1-3.8,3.8
		c0.2,4.3-1.2,9.7,0.8,12.6c1.6,2.2,7.6,1.2,11.6,1.7C105.8,88.9,106.4,89.1,107.3,89.4z"/>
</g>
<g>
	<path d="M227.7,80.2c-0.4-7.2-0.8-15.9-0.8-22.3h-0.2c-1.8,6.1-3.9,12.5-6.5,19.6l-9.1,25.1H206l-8.4-24.6c-2.5-7.3-4.5-14-6-20.1
		h-0.2c-0.2,6.4-0.5,15.1-1,22.8l-1.4,22.2h-6.4l3.6-51.7h8.5l8.8,25c2.1,6.4,3.9,12,5.2,17.4h0.2c1.3-5.2,3.1-10.9,5.4-17.4l9.2-25
		h8.5l3.2,51.7H229L227.7,80.2z"/>
	<path d="M266.6,102.9l-0.5-4.7h-0.2c-2.1,2.9-6.1,5.5-11.3,5.5c-7.5,0-11.3-5.3-11.3-10.7c0-9,8-13.9,22.3-13.8v-0.8
		c0-3.1-0.8-8.6-8.4-8.6c-3.4,0-7.1,1.1-9.7,2.8l-1.5-4.4c3.1-2,7.5-3.3,12.2-3.3c11.3,0,14.1,7.7,14.1,15.2V94
		c0,3.2,0.2,6.4,0.6,8.9H266.6z M265.6,83.9c-7.4-0.2-15.7,1.2-15.7,8.4c0,4.4,2.9,6.4,6.4,6.4c4.8,0,7.9-3.1,9-6.2
		c0.2-0.7,0.4-1.5,0.4-2.1V83.9z"/>
	<path d="M283,77.3c0-4.4-0.1-8.1-0.3-11.6h5.9l0.2,7.3h0.3c1.7-5,5.7-8.1,10.3-8.1c0.8,0,1.3,0.1,1.9,0.2v6.4
		c-0.7-0.2-1.4-0.2-2.3-0.2c-4.8,0-8.1,3.6-9,8.7c-0.2,0.9-0.3,2-0.3,3.1v19.8H283V77.3z"/>
	<path d="M315,82.8h0.2c0.9-1.3,2.2-2.9,3.3-4.2l10.9-12.8h8.1L323.2,81l16.3,21.8h-8.2l-12.8-17.8l-3.4,3.8v14h-6.7V48.4h6.7V82.8z
		"/>
	<path d="M348.1,85.5c0.2,9.1,6,12.9,12.7,12.9c4.8,0,7.7-0.8,10.3-1.9l1.1,4.8c-2.4,1.1-6.4,2.3-12.3,2.3
		c-11.4,0-18.2-7.5-18.2-18.7c0-11.2,6.6-20,17.4-20c12.1,0,15.3,10.7,15.3,17.5c0,1.4-0.2,2.5-0.2,3.1H348.1z M367.9,80.7
		c0.1-4.3-1.8-11-9.4-11c-6.8,0-9.8,6.3-10.3,11H367.9z"/>
	<path d="M390.9,55.1v10.7h9.7v5.1h-9.7v20c0,4.6,1.3,7.2,5.1,7.2c1.8,0,3.1-0.2,3.9-0.5l0.3,5.1c-1.3,0.5-3.4,0.9-6,0.9
		c-3.1,0-5.7-1-7.3-2.8c-1.9-2-2.6-5.3-2.6-9.7V70.9h-5.7v-5.1h5.7v-8.9L390.9,55.1z"/>
	<path d="M415.6,55.3c0.1,2.3-1.6,4.1-4.3,4.1c-2.4,0-4.1-1.8-4.1-4.1c0-2.4,1.8-4.2,4.2-4.2C414,51.1,415.6,53,415.6,55.3z
		 M408.1,102.9V65.8h6.7v37.1H408.1z"/>
	<path d="M426.1,75.8c0-3.8-0.1-7-0.3-10h6l0.4,6.1h0.2c1.8-3.5,6.1-7,12.3-7c5.1,0,13.1,3.1,13.1,15.8v22.2h-6.7V81.5
		c0-6-2.2-11-8.6-11c-4.4,0-7.9,3.1-9,6.9c-0.3,0.8-0.5,2-0.5,3.1v22.3h-6.7V75.8z"/>
	<path d="M500.6,65.8c-0.2,2.7-0.3,5.7-0.3,10.2v21.5c0,8.5-1.7,13.7-5.3,16.9c-3.6,3.4-8.8,4.4-13.5,4.4c-4.4,0-9.4-1.1-12.3-3.1
		l1.7-5.1c2.5,1.5,6.3,2.9,10.9,2.9c6.9,0,12-3.6,12-13v-4.1h-0.2c-2.1,3.5-6.1,6.2-11.8,6.2c-9.2,0-15.8-7.8-15.8-18.1
		c0-12.6,8.2-19.7,16.7-19.7c6.4,0,10,3.4,11.6,6.4h0.2l0.3-5.6H500.6z M493.6,80.4c0-1.2-0.1-2.1-0.4-3.1c-1.2-3.9-4.5-7.1-9.4-7.1
		c-6.4,0-11,5.4-11,14c0,7.3,3.7,13.3,11,13.3c4.1,0,7.9-2.6,9.4-6.9c0.4-1.1,0.5-2.5,0.5-3.6V80.4z"/>
	<path d="M527.9,51.8c3.2-0.5,7.4-1,12.8-1c6.6,0,11.4,1.5,14.5,4.3c2.8,2.5,4.5,6.2,4.5,10.8c0,4.7-1.4,8.4-4,11
		c-3.5,3.8-9.3,5.7-15.8,5.7c-2,0-3.8-0.1-5.4-0.5v20.7h-6.7V51.8z M534.6,76.7c1.5,0.4,3.3,0.5,5.5,0.5c8,0,13-3.9,13-11
		c0-6.8-4.8-10.1-12.2-10.1c-2.9,0-5.1,0.2-6.3,0.5V76.7z"/>
	<path d="M587,102.9l-0.5-4.7h-0.2c-2.1,2.9-6.1,5.5-11.3,5.5c-7.5,0-11.3-5.3-11.3-10.7c0-9,8-13.9,22.3-13.8v-0.8
		c0-3.1-0.8-8.6-8.4-8.6c-3.5,0-7.1,1.1-9.7,2.8l-1.5-4.4c3.1-2,7.5-3.3,12.2-3.3c11.3,0,14.1,7.7,14.1,15.2V94
		c0,3.2,0.2,6.4,0.6,8.9H587z M586.1,83.9c-7.4-0.2-15.7,1.2-15.7,8.4c0,4.4,2.9,6.4,6.4,6.4c4.8,0,7.9-3.1,9-6.2
		c0.2-0.7,0.4-1.5,0.4-2.1V83.9z"/>
	<path d="M603.5,77.3c0-4.4-0.1-8.1-0.3-11.6h5.9l0.2,7.3h0.3c1.7-5,5.7-8.1,10.3-8.1c0.8,0,1.3,0.1,1.9,0.2v6.4
		c-0.7-0.2-1.4-0.2-2.3-0.2c-4.8,0-8.1,3.6-9,8.7c-0.2,0.9-0.3,2-0.3,3.1v19.8h-6.7V77.3z"/>
	<path d="M638.5,55.1v10.7h9.7v5.1h-9.7v20c0,4.6,1.3,7.2,5.1,7.2c1.8,0,3.1-0.2,3.9-0.5l0.3,5.1c-1.3,0.5-3.4,0.9-6,0.9
		c-3.1,0-5.7-1-7.3-2.8c-1.9-2-2.6-5.3-2.6-9.7V70.9h-5.8v-5.1h5.8v-8.9L638.5,55.1z"/>
	<path d="M655.7,75.8c0-3.8-0.1-7-0.3-10h6l0.4,6.1h0.2c1.8-3.5,6.1-7,12.3-7c5.1,0,13.1,3.1,13.1,15.8v22.2h-6.7V81.5
		c0-6-2.2-11-8.6-11c-4.4,0-7.9,3.1-9,6.9c-0.3,0.8-0.5,2-0.5,3.1v22.3h-6.7V75.8z"/>
	<path d="M702,85.5c0.2,9.1,6,12.9,12.7,12.9c4.8,0,7.7-0.8,10.3-1.9l1.2,4.8c-2.4,1.1-6.4,2.3-12.3,2.3c-11.4,0-18.2-7.5-18.2-18.7
		c0-11.2,6.6-20,17.4-20c12.1,0,15.3,10.7,15.3,17.5c0,1.4-0.2,2.5-0.2,3.1H702z M721.8,80.7c0.1-4.3-1.8-11-9.4-11
		c-6.8,0-9.8,6.3-10.3,11H721.8z"/>
	<path d="M736.7,77.3c0-4.4-0.1-8.1-0.3-11.6h5.9l0.2,7.3h0.3c1.7-5,5.8-8.1,10.3-8.1c0.8,0,1.3,0.1,1.9,0.2v6.4
		c-0.7-0.2-1.4-0.2-2.3-0.2c-4.8,0-8.1,3.6-9,8.7c-0.2,0.9-0.3,2-0.3,3.1v19.8h-6.7V77.3z"/>
	<path d="M760.8,96c2,1.3,5.5,2.7,8.9,2.7c4.9,0,7.2-2.5,7.2-5.5c0-3.2-1.9-5-6.9-6.8c-6.7-2.4-9.8-6.1-9.8-10.5
		c0-6,4.8-10.9,12.8-10.9c3.8,0,7.1,1.1,9.1,2.3l-1.7,4.9c-1.5-0.9-4.1-2.1-7.6-2.1c-4,0-6.2,2.3-6.2,5.1c0,3.1,2.2,4.4,7.1,6.3
		c6.4,2.5,9.7,5.7,9.7,11.2c0,6.5-5.1,11.1-13.9,11.1c-4.1,0-7.8-1-10.4-2.5L760.8,96z"/>
</g>
</svg>
