<?xml version="1.0" encoding="utf-8"?>
<!-- Generator: Adobe Illustrator 26.0.0, SVG Export Plug-In . SVG Version: 6.00 Build 0)  -->
<svg version="1.1" id="Layer_1" xmlns="http://www.w3.org/2000/svg" xmlns:xlink="http://www.w3.org/1999/xlink" x="0px" y="0px"
	 viewBox="0 0 870.6 176.9" style="enable-background:new 0 0 870.6 176.9;" xml:space="preserve">
<g>
	<path d="M110,160.6c-10.3,0-20.6,0.1-31,0c-18.9-0.3-33.6-10.5-39.7-27.4C33.3,116.5,38.1,99,52,86.6c1.4-1.2,2.5-3.1,3.1-4.9
		c7-22.7,28.1-39,52.5-40.3c23.8-1.3,46.4,12.8,55.6,35c2.1,5.2,5,9.4,9,13.4c12.6,12.8,15.5,28.2,8.9,44.7
		c-6.7,16.6-19.7,25.2-37.5,25.9c-11.1,0.4-22.3,0.1-33.5,0.1C110,160.5,110,160.5,110,160.6z M93.7,111.4c-1.8-1.9-2.7-2.9-3.6-3.9
		c-5.6-5.7-13.2-6.9-19.6-3.3c-6.7,3.7-10,11.5-8.2,18.8c1.8,7,7.6,11.5,15.6,11.6c21.7,0.2,43.3,0.3,65,0.1
		c8.1,0,14.4-5.9,15.6-13.6c1.2-8.1-3.3-15.7-11.1-17.8c-3.7-1-4.5-2.8-4.8-6.1c-1.2-15.1-12-27-26.8-29.4
		c-10.8-1.7-20.2,1.3-28.5,9.9c2.2,0.9,3.8,1.2,5.2,2.1c5.4,3.5,10.8,7,16.1,10.7c1.9,1.3,2.4,2.9,0.4,4.9
		C103.9,100.6,99,105.8,93.7,111.4z"/>
	<path d="M299,70.7c-2.9,3-5.4,5.4-7.7,7.7c-19.1-10.5-31.7-9.8-43,1.9c-8.8,9.2-10.6,24.9-4.1,35.8c7.4,12.5,20.9,17.8,34.8,13.9
		c10.8-3,17.7-11.1,17.7-21.5c-6.9,0-13.9-0.2-20.8,0.1c-4.4,0.2-5.7-1.2-5.7-5.6c0-4.3,1.2-5.9,5.6-5.8c9.5,0.3,19,0.3,28.5,0.1
		c3.8-0.1,4.7,1.5,4.9,5c0.5,15.7-4.9,28.5-19.2,35.7c-15.1,7.7-30.4,6.6-44.5-3.2c-18.7-13.1-23.3-38.7-10.3-57.1
		c13.5-19.1,39.7-24.2,58.4-11.3C295.2,67.4,296.7,68.8,299,70.7z"/>
	<path d="M470.2,93.5c2.7-5,7-2.8,10.7-2.6c0.5,0,1.4,2.4,1.4,3.7c0.1,15.8,0.2,31.6-0.1,47.5c-0.2,11.6-6.3,20.1-15.7,23.2
		c-11.4,3.7-22.5,0.7-29.7-8.3c-1.3-1.6-2.2-3.6-3.7-5.9c3.1-1.3,5.5-2.8,8.2-3.4c1.2-0.2,3.1,1.2,4.1,2.4c4.3,5.1,9.4,6.9,16,5.4
		c6.8-1.6,11.7-10.4,8.9-17.2c-14.8,6.9-26.1,4.7-34.3-6.5c-7.3-10.1-6.5-25,1.8-34.2C446.5,88,458.2,86.5,470.2,93.5z M472.1,115.9
		c0-9-6.2-16.2-14.1-16.4c-8.2-0.2-15.4,7.5-15.3,16.4c0.1,8.9,6.9,16.2,15.1,16.2C465.6,132.1,472,124.8,472.1,115.9z"/>
	<path d="M826.1,96.7c0-8.3,0.1-16-0.1-23.6c-0.1-3.7,1.3-4.9,5-4.9c3.7,0,4.4,1.6,4.4,4.8c-0.1,20.7,0,41.3-0.1,62
		c0,2.3,1.6,5.7-2.9,6.1c-3.7,0.3-6.8,0-6.4-6.2c-6.9,6.6-14.2,9.1-22.5,7c-5.8-1.4-10.1-4.9-13.5-9.7c-7.4-10.6-6.1-26.9,3-36
		C802,87.4,812.8,87.4,826.1,96.7z M826.4,115.9c0-10.1-6.7-17.6-15.7-17.7c-9.3-0.1-16.2,7.5-16.2,17.8c0,10.1,7.2,18.1,16.1,18.1
		C819.8,134,826.4,126.4,826.4,115.9z"/>
	<path d="M340.8,89.1c15.4,0.1,26.6,11.6,26.5,27c-0.2,15.3-11.8,26.5-27.2,26.5c-15.3-0.1-26.7-11.6-26.7-26.9
		C313.4,100,324.8,89,340.8,89.1z M355.4,115.7c0-9.2-6.8-16.4-15.4-16.2c-8.2,0.2-14.8,7.5-14.8,16.4c0.1,9,6.6,16.2,14.9,16.3
		C348.4,132.2,355.4,124.7,355.4,115.7z"/>
	<path d="M399,142.5c-15.4,0-26.9-11.6-26.8-26.9c0-15.2,11.8-26.9,27-26.8c15.2,0.1,26.9,11.8,26.9,27
		C426,131.1,414.4,142.6,399,142.5z M384.1,115.5c-0.1,9.2,6.6,16.6,15,16.6c8.4,0,15-7,15.2-16c0.1-9.2-6.6-16.4-15.1-16.5
		C390.6,99.5,384.2,106.2,384.1,115.5z"/>
	<path d="M522.2,123.9c5.9,10.6,15.4,10.8,26.1,1c2.7,1.8,5.5,3.7,8.3,5.5c-6.1,10.5-19,14.9-30.8,10.9
		c-12.7-4.3-19.4-15.9-17.5-30.6c1.5-11.9,10.9-20.9,22.6-21.6c13-0.8,22.4,6.2,26,20C545.7,114,534.1,118.9,522.2,123.9z
		 M520.8,114.5c7.6-3.2,15-6.4,22.7-9.6c-4.4-5.6-9.3-6.8-14.6-4.4C522.6,103.2,519.6,108.2,520.8,114.5z"/>
	<path d="M647.9,129.4c-10.2,15.3-36.6,17.7-52.3,5.3c-16.9-13.4-18.9-40.4-4.1-56.1c15-16,40.1-16.3,54.8,0.2
		c-2.1,1.6-4.3,3.3-6.8,5.3c-6.6-6.9-15.1-9.8-25-8.1c-7,1.2-12.8,4.6-17.2,10.1c-8.6,10.8-8.1,28.4,1.1,38.3
		c11.5,12.4,25,12.2,43.9-0.8C644.2,125.5,646.1,127.4,647.9,129.4z"/>
	<path d="M674.3,116.1c0-15.7,10.6-26.6,25.7-26.5c15,0,25.6,11.2,25.5,26.8c-0.1,15.3-10.7,26.2-25.5,26.3
		C684.8,142.7,674.3,131.7,674.3,116.1z M683.5,116.3c0.1,10.1,7.4,17.9,16.5,17.7c9.1-0.1,16.3-8.1,16.3-18
		c0-10.4-7.1-18-16.7-17.8C690.3,98.4,683.4,106.2,683.5,116.3z"/>
	<path d="M768.2,135c-5.2,5-10.2,7.6-16.4,7.6c-10.6-0.1-17.8-6.5-18.3-17.1c-0.4-10.1-0.1-20.3-0.2-30.5c0-3.3,1.8-3.7,4.5-3.8
		c3-0.1,4.7,0.6,4.6,4.1c-0.1,8.7-0.1,17.3,0.1,26c0.3,9.6,7,14.6,15.7,12.1c5.2-1.5,9.3-7.3,9.5-13.9c0.2-7.8,0.3-15.7,0.1-23.5
		c-0.1-3.7,1.3-4.8,4.9-4.9c3.9,0,4.7,1.6,4.6,5.1c-0.2,12.8,0,25.6-0.1,38.5c0,2.3,1.9,6.1-2.9,6.5
		C770.2,141.6,767.2,140.9,768.2,135z"/>
	<path d="M490.5,101.5c0-11.5,0.2-23-0.1-34.5c-0.1-4.8,2.4-5,5.9-4.9c3.3,0.1,6.2-0.2,6.1,4.7c-0.2,23.3-0.2,46.7-0.1,70
		c0,5.2-3.3,4.3-6.4,4.4c-3.4,0.2-5.7-0.2-5.5-4.7C490.7,124.9,490.5,113.2,490.5,101.5C490.5,101.5,490.5,101.5,490.5,101.5z"/>
	<path d="M666.2,104.7c0,10.5-0.1,21,0.1,31.5c0,3.5-1,5.1-4.8,5.1c-4,0-4.7-1.7-4.7-5.2c0.1-21,0-42-0.1-63c0-3.5,0.9-5.1,4.8-5.1
		c3.9,0,4.8,1.7,4.7,5.2C666,83.7,666.1,94.2,666.2,104.7C666.2,104.7,666.2,104.7,666.2,104.7z"/>
</g>
</svg>
