<?xml version="1.0" encoding="utf-8"?>
<!-- Generator: Adobe Illustrator 26.0.0, SVG Export Plug-In . SVG Version: 6.00 Build 0)  -->
<svg version="1.1" id="Layer_1" xmlns="http://www.w3.org/2000/svg" xmlns:xlink="http://www.w3.org/1999/xlink" x="0px" y="0px"
	 viewBox="0 0 2500 770.8" style="enable-background:new 0 0 2500 770.8;" xml:space="preserve">
<style type="text/css">
	.st0{fill:#706D6E;}
	.st1{fill:#F1511B;}
	.st2{fill:#80CC28;}
	.st3{fill:#00ADEF;}
	.st4{fill:#FBBC09;}
	.st5{fill:#A09059;}
</style>
<g>
	<g>
		<path class="st0" d="M2429,635.8v-12.6h-15.7v-19.6l-0.5,0.2l-14.7,4.5l-0.3,0.1v14.9h-23.2v-8.3c0-3.9,0.9-6.8,2.6-8.8
			c1.7-1.9,4.1-2.9,7.2-2.9c2.2,0,4.5,0.5,6.8,1.5l0.6,0.3v-13.3l-0.3-0.1c-2.2-0.8-5.1-1.2-8.7-1.2c-4.6,0-8.7,1-12.3,3
			c-3.6,2-6.5,4.8-8.5,8.4c-2,3.6-3,7.7-3,12.3v9.1H2348v12.6h10.9V689h15.7v-53.2h23.2v33.8c0,13.9,6.6,21,19.5,21
			c2.1,0,4.4-0.2,6.7-0.7c2.3-0.5,3.9-1,4.8-1.5l0.2-0.1v-12.7l-0.6,0.4c-0.9,0.6-1.9,1-3.2,1.4c-1.2,0.4-2.3,0.5-3.1,0.5
			c-3,0-5.3-0.8-6.7-2.4c-1.4-1.6-2.1-4.5-2.1-8.5v-31.1H2429L2429,635.8z M2313,677.8c-5.7,0-10.2-1.9-13.3-5.6
			c-3.2-3.7-4.8-9.1-4.8-15.8c0-7,1.6-12.4,4.8-16.2c3.2-3.8,7.6-5.7,13.2-5.7c5.4,0,9.8,1.8,12.9,5.4c3.1,3.6,4.7,9,4.7,16.1
			c0,7.1-1.5,12.6-4.4,16.3C2323.1,675.9,2318.7,677.8,2313,677.8 M2313.7,621.6c-10.9,0-19.5,3.2-25.6,9.5
			c-6.1,6.3-9.3,15-9.3,25.8c0,10.3,3,18.6,9,24.6c6,6,14.2,9.1,24.2,9.1c10.5,0,19-3.2,25.1-9.6c6.1-6.4,9.3-14.9,9.3-25.5
			c0-10.5-2.9-18.8-8.7-24.8C2332,624.7,2323.9,621.6,2313.7,621.6 M2253.6,621.6c-7.4,0-13.5,1.9-18.2,5.6
			c-4.7,3.7-7.1,8.7-7.1,14.6c0,3.1,0.5,5.8,1.5,8.2c1,2.3,2.6,4.4,4.7,6.1c2.1,1.7,5.3,3.5,9.5,5.3c3.6,1.5,6.2,2.7,7.9,3.7
			c1.7,1,2.8,1.9,3.5,2.9c0.6,0.9,1,2.2,1,3.7c0,4.4-3.3,6.6-10.1,6.6c-2.5,0-5.4-0.5-8.6-1.6c-3.1-1-6.1-2.5-8.8-4.4l-0.7-0.5v15.1
			l0.2,0.1c2.2,1,5,1.9,8.3,2.6c3.3,0.7,6.3,1,8.9,1c8,0,14.5-1.9,19.2-5.6c4.7-3.8,7.1-8.8,7.1-14.9c0-4.4-1.3-8.2-3.8-11.3
			c-2.5-3-6.9-5.8-13-8.3c-4.9-2-8-3.6-9.3-4.8c-1.2-1.2-1.9-2.9-1.9-5.1c0-1.9,0.8-3.4,2.4-4.7c1.6-1.2,3.9-1.9,6.7-1.9
			c2.6,0,5.3,0.4,7.9,1.2c2.7,0.8,5,1.9,6.9,3.2l0.6,0.4v-14.3l-0.2-0.1c-1.8-0.8-4.2-1.4-7-2
			C2258.4,621.9,2255.8,621.6,2253.6,621.6 M2187.5,677.8c-5.7,0-10.2-1.9-13.3-5.6c-3.2-3.7-4.8-9.1-4.8-15.8
			c0-7,1.6-12.4,4.8-16.2c3.2-3.8,7.6-5.7,13.2-5.7c5.4,0,9.8,1.8,12.9,5.4c3.1,3.6,4.7,9,4.7,16.1c0,7.1-1.5,12.6-4.4,16.3
			C2197.6,675.9,2193.2,677.8,2187.5,677.8 M2188.2,621.6c-10.9,0-19.5,3.2-25.6,9.5c-6.1,6.3-9.3,15-9.3,25.8c0,10.3,3,18.6,9,24.6
			c6,6,14.2,9.1,24.2,9.1c10.5,0,19-3.2,25.1-9.6c6.1-6.4,9.3-14.9,9.3-25.5c0-10.5-2.9-18.8-8.7-24.8
			C2206.5,624.7,2198.4,621.6,2188.2,621.6 M2129.5,634.6v-11.4h-15.5V689h15.5v-33.7c0-5.7,1.3-10.4,3.9-14c2.5-3.5,5.9-5.3,10-5.3
			c1.4,0,3,0.2,4.7,0.7c1.7,0.5,2.9,0.9,3.6,1.5l0.7,0.5v-15.6l-0.3-0.1c-1.4-0.6-3.5-0.9-6.1-0.9c-3.9,0-7.4,1.2-10.4,3.7
			c-2.6,2.2-4.5,5.1-6,8.8H2129.5z M2086.3,621.6c-7.1,0-13.4,1.5-18.8,4.5c-5.4,3-9.6,7.3-12.4,12.8c-2.8,5.4-4.3,11.8-4.3,18.9
			c0,6.2,1.4,11.9,4.1,17c2.8,5,6.6,9,11.6,11.7c4.9,2.7,10.6,4.1,16.9,4.1c7.4,0,13.6-1.5,18.7-4.4l0.2-0.1v-14.2l-0.7,0.5
			c-2.3,1.7-4.8,3-7.6,3.9c-2.7,1-5.2,1.4-7.4,1.4c-6.1,0-10.9-1.9-14.5-5.6c-3.5-3.8-5.3-9-5.3-15.6c0-6.7,1.9-12.1,5.6-16.1
			c3.7-4,8.6-6,14.5-6c5.1,0,10,1.7,14.7,5.1l0.6,0.5v-14.9l-0.2-0.1c-1.8-1-4.2-1.8-7.2-2.4C2092,621.9,2089.1,621.6,2086.3,621.6
			 M2040.2,623.2h-15.5V689h15.5V623.2L2040.2,623.2z M2032.6,595.2c-2.5,0-4.8,0.9-6.6,2.6c-1.8,1.7-2.8,3.9-2.8,6.5
			c0,2.5,0.9,4.7,2.7,6.3c1.8,1.7,4,2.5,6.6,2.5c2.6,0,4.8-0.8,6.7-2.5c1.8-1.7,2.8-3.8,2.8-6.3c0-2.5-0.9-4.6-2.7-6.4
			C2037.5,596.1,2035.3,595.2,2032.6,595.2 M1994,618.4V689h15.8v-91.8h-21.9l-27.8,68.2l-27-68.2h-22.8V689h14.8v-70.7h0.5
			l28.5,70.7h11.2l28-70.7L1994,618.4L1994,618.4z"/>
		<path class="st1" d="M1784.1,639.3h-72.8v-72.8h72.8V639.3z"/>
		<path class="st2" d="M1864.5,639.3h-72.8v-72.8h72.8V639.3L1864.5,639.3z"/>
		<path class="st3" d="M1784.1,719.7h-72.8v-72.8h72.8V719.7z"/>
		<path class="st4" d="M1864.5,719.7h-72.8v-72.8h72.8V719.7L1864.5,719.7z"/>
	</g>
	<g>
		<path d="M320.5,496.9h-25.1V352.3c0-11.4,0.7-25.4,2.1-42h-0.6c-2.4,9.7-4.6,16.7-6.5,20.9l-73.7,165.7h-12.3l-73.5-164.5
			c-2.1-4.8-4.3-12.2-6.5-22.1h-0.6c0.8,8.6,1.2,22.7,1.2,42.3v144.4h-24.4V281.3H134l66.2,150.4c5.1,11.5,8.4,20.2,9.9,25.9h0.9
			c4.3-11.8,7.8-20.7,10.4-26.5l67.5-149.8h31.6V496.9z"/>
		<path d="M386.5,303.8c-4.4,0-8.2-1.5-11.3-4.5c-3.1-3-4.7-6.8-4.7-11.4c0-4.6,1.6-8.4,4.7-11.5c3.1-3.1,6.9-4.6,11.3-4.6
			c4.5,0,8.3,1.5,11.5,4.6c3.2,3.1,4.7,6.9,4.7,11.5c0,4.4-1.6,8.2-4.7,11.3C394.9,302.3,391,303.8,386.5,303.8z M398.6,496.9h-24.7
			v-154h24.7V496.9z"/>
		<path d="M553.5,489.9c-11.8,7.1-25.9,10.7-42.1,10.7c-22,0-39.7-7.1-53.2-21.4c-13.5-14.3-20.2-32.8-20.2-55.6
			c0-25.4,7.3-45.7,21.8-61.1c14.5-15.4,33.9-23.1,58.2-23.1c13.5,0,25.5,2.5,35.8,7.5v25.3c-11.4-8-23.7-12-36.7-12
			c-15.7,0-28.6,5.6-38.7,16.9s-15.1,26.1-15.1,44.4c0,18,4.7,32.3,14.2,42.7c9.5,10.4,22.2,15.6,38.1,15.6
			c13.4,0,26.1-4.5,37.9-13.4V489.9z"/>
		<path d="M671.1,367.9c-4.3-3.3-10.5-5-18.6-5c-10.5,0-19.3,5-26.4,14.9s-10.6,23.5-10.6,40.6v78.5h-24.7v-154h24.7v31.7h0.6
			c3.5-10.8,8.9-19.3,16.1-25.3c7.2-6.1,15.3-9.1,24.2-9.1c6.4,0,11.3,0.7,14.7,2.1V367.9z"/>
		<path d="M758.1,500.6c-22.8,0-40.9-7.2-54.5-21.6c-13.6-14.4-20.4-33.5-20.4-57.2c0-25.9,7.1-46.1,21.2-60.6
			c14.1-14.5,33.2-21.8,57.3-21.8c23,0,40.9,7.1,53.8,21.2c12.9,14.1,19.3,33.7,19.3,58.8c0,24.6-6.9,44.2-20.8,59
			C800.1,493.2,781.5,500.6,758.1,500.6z M760,360.1c-15.8,0-28.4,5.4-37.6,16.2c-9.2,10.8-13.8,25.6-13.8,44.6
			c0,18.2,4.7,32.6,14,43.2s21.8,15.8,37.4,15.8c15.9,0,28.2-5.2,36.8-15.5c8.6-10.3,12.9-25,12.9-44.1c0-19.2-4.3-34.1-12.9-44.5
			C788.2,365.3,775.9,360.1,760,360.1z"/>
		<path d="M864.9,491.4v-26.5c13.4,9.9,28.2,14.9,44.4,14.9c21.7,0,32.5-7.2,32.5-21.7c0-4.1-0.9-7.6-2.8-10.5
			c-1.9-2.9-4.4-5.4-7.5-7.6c-3.2-2.2-6.9-4.2-11.1-5.9c-4.3-1.8-8.8-3.6-13.8-5.5c-6.8-2.7-12.8-5.4-18-8.2
			c-5.2-2.8-9.5-5.9-12.9-9.3s-6.1-7.4-7.8-11.8c-1.8-4.4-2.6-9.6-2.6-15.5c0-7.2,1.7-13.6,5-19.2s7.7-10.2,13.2-14
			c5.5-3.8,11.8-6.6,18.9-8.5c7.1-1.9,14.4-2.9,21.9-2.9c13.3,0,25.3,2.3,35.8,6.9v25c-11.3-7.4-24.4-11.1-39.1-11.1
			c-4.6,0-8.8,0.5-12.5,1.6c-3.7,1.1-6.9,2.5-9.5,4.4c-2.7,1.9-4.7,4.2-6.2,6.8c-1.5,2.7-2.2,5.6-2.2,8.8c0,4,0.7,7.4,2.2,10.1
			c1.5,2.7,3.6,5.1,6.4,7.2c2.8,2.1,6.2,4,10.2,5.7c4,1.7,8.6,3.6,13.7,5.6c6.8,2.6,12.9,5.3,18.3,8c5.4,2.8,10,5.9,13.8,9.3
			c3.8,3.5,6.7,7.4,8.8,12c2.1,4.5,3.1,9.9,3.1,16.1c0,7.6-1.7,14.2-5,19.9c-3.4,5.6-7.8,10.3-13.5,14c-5.6,3.7-12.1,6.5-19.4,8.3
			c-7.3,1.8-15,2.7-23,2.7C890.3,500.6,876.6,497.5,864.9,491.4z"/>
		<path d="M1069.3,500.6c-22.8,0-40.9-7.2-54.5-21.6c-13.6-14.4-20.4-33.5-20.4-57.2c0-25.9,7.1-46.1,21.2-60.6
			c14.1-14.5,33.2-21.8,57.3-21.8c23,0,40.9,7.1,53.8,21.2c12.9,14.1,19.3,33.7,19.3,58.8c0,24.6-6.9,44.2-20.8,59
			C1111.3,493.2,1092.7,500.6,1069.3,500.6z M1071.1,360.1c-15.8,0-28.4,5.4-37.6,16.2c-9.2,10.8-13.8,25.6-13.8,44.6
			c0,18.2,4.7,32.6,14,43.2s21.8,15.8,37.4,15.8c15.9,0,28.2-5.2,36.8-15.5c8.6-10.3,12.9-25,12.9-44.1c0-19.2-4.3-34.1-12.9-44.5
			C1099.3,365.3,1087.1,360.1,1071.1,360.1z"/>
		<path d="M1255.9,290.6c-4.8-2.7-10.3-4.1-16.4-4.1c-17.2,0-25.9,10.9-25.9,32.6v23.8h36.1V364h-36.1v132.9h-24.5V364h-26.3v-21.1
			h26.3v-25c0-16.1,4.7-28.9,14-38.3c9.3-9.4,21-14.1,34.9-14.1c7.5,0,13.5,0.9,17.9,2.7V290.6z"/>
		<path d="M1353.2,495.4c-5.8,3.2-13.5,4.8-23,4.8c-27,0-40.5-15-40.5-45.1V364h-26.5v-21.1h26.5v-37.6l24.7-8v45.6h38.8V364h-38.8
			v86.8c0,10.3,1.8,17.7,5.3,22.1c3.5,4.4,9.3,6.6,17.4,6.6c6.2,0,11.6-1.7,16.1-5.1V495.4z"/>
		<path d="M1499.1,415.4v81.5h-25.3V281.3h59.3c23.1,0,40.9,5.6,53.6,16.8c12.7,11.2,19,27.1,19,47.5s-7,37.2-21.1,50.2
			c-14.1,13-33.1,19.6-57.1,19.6H1499.1z M1499.1,304.1v88.4h26.5c17.4,0,30.8-4,39.9-12s13.8-19.2,13.8-33.8
			c0-28.5-16.8-42.7-50.5-42.7H1499.1z"/>
		<path d="M1743.4,496.9h-24.7v-24.1h-0.6c-10.7,18.4-26.5,27.7-47.4,27.7c-15.3,0-27.3-4.1-36-12.2c-8.7-8.1-13-18.9-13-32.3
			c0-28.8,16.9-45.5,50.8-50.2l46.2-6.5c0-26.2-10.6-39.3-31.7-39.3c-18.5,0-35.3,6.3-50.2,18.9v-25.3c15.1-9.6,32.6-14.4,52.3-14.4
			c36.2,0,54.3,19.2,54.3,57.4V496.9z M1718.7,419l-37.1,5.1c-11.4,1.6-20.1,4.4-25.9,8.5c-5.8,4.1-8.7,11.3-8.7,21.6
			c0,7.5,2.7,13.7,8,18.4c5.4,4.8,12.5,7.1,21.4,7.1c12.2,0,22.3-4.3,30.3-12.9s12-19.4,12-32.6V419z"/>
		<path d="M1870.1,367.9c-4.3-3.3-10.5-5-18.6-5c-10.5,0-19.3,5-26.4,14.9s-10.6,23.5-10.6,40.6v78.5h-24.7v-154h24.7v31.7h0.6
			c3.5-10.8,8.9-19.3,16.1-25.3c7.2-6.1,15.3-9.1,24.2-9.1c6.4,0,11.3,0.7,14.7,2.1V367.9z"/>
		<path d="M1977.2,495.4c-5.8,3.2-13.5,4.8-23,4.8c-27,0-40.5-15-40.5-45.1V364h-26.5v-21.1h26.5v-37.6l24.7-8v45.6h38.8V364h-38.8
			v86.8c0,10.3,1.8,17.7,5.3,22.1c3.5,4.4,9.3,6.6,17.4,6.6c6.2,0,11.6-1.7,16.1-5.1V495.4z"/>
		<path d="M2138,496.9h-24.7v-87.8c0-32.7-11.9-49-35.8-49c-12.3,0-22.5,4.6-30.6,13.9c-8.1,9.3-12.1,21-12.1,35.1v87.8h-24.7v-154
			h24.7v25.6h0.6c11.6-19.4,28.5-29.2,50.5-29.2c16.8,0,29.7,5.4,38.7,16.3c8.9,10.9,13.4,26.6,13.4,47.1V496.9z"/>
		<path d="M2308.2,426.1h-108.7c0.4,17.1,5,30.4,13.8,39.7c8.8,9.3,21,14,36.4,14c17.3,0,33.3-5.7,47.8-17.1v23.2
			c-13.5,9.8-31.4,14.7-53.7,14.7c-21.8,0-38.9-7-51.3-21c-12.4-14-18.6-33.7-18.6-59c0-24,6.8-43.5,20.4-58.6
			c13.6-15.1,30.5-22.6,50.6-22.6s35.7,6.5,46.8,19.6c11,13,16.5,31.1,16.5,54.3V426.1z M2283,405.2c-0.1-14.2-3.5-25.3-10.3-33.2
			c-6.8-7.9-16.2-11.9-28.2-11.9c-11.6,0-21.5,4.2-29.6,12.5c-8.1,8.3-13.1,19.2-15,32.6H2283z"/>
		<path d="M2425.8,367.9c-4.3-3.3-10.5-5-18.6-5c-10.5,0-19.3,5-26.4,14.9s-10.6,23.5-10.6,40.6v78.5h-24.7v-154h24.7v31.7h0.6
			c3.5-10.8,8.9-19.3,16.1-25.3c7.2-6.1,15.3-9.1,24.2-9.1c6.4,0,11.3,0.7,14.7,2.1V367.9z"/>
	</g>
	<g>
		<path class="st5" d="M220.8,181.7c-13.6,7.7-28.7,11.5-45.3,11.5c-19.3,0-35-6.2-46.9-18.7c-11.9-12.5-17.9-29-17.9-49.5
			c0-21,6.6-38.2,19.9-51.6C143.8,60,160.6,53.2,181,53.2c14.7,0,27.1,2.4,37.1,7.2V78c-11-6.9-23.9-10.4-38.9-10.4
			c-15.2,0-27.6,5.2-37.3,15.7c-9.7,10.5-14.5,24-14.5,40.6c0,17.1,4.5,30.6,13.5,40.4c9,9.8,21.2,14.7,36.6,14.7
			c10.6,0,19.7-2.1,27.5-6.3v-38h-29.7v-14.4h45.5V181.7z"/>
		<path class="st5" d="M290.6,193.2c-14.3,0-25.7-4.5-34.2-13.6c-8.5-9-12.8-21-12.8-35.9c0-16.2,4.4-28.9,13.3-38.1
			c8.9-9.1,20.9-13.7,36-13.7c14.4,0,25.7,4.4,33.8,13.3c8.1,8.9,12.1,21.2,12.1,36.9c0,15.4-4.4,27.8-13.1,37.1
			C317,188.6,305.3,193.2,290.6,193.2z M291.8,105c-10,0-17.8,3.4-23.6,10.2c-5.8,6.8-8.7,16.1-8.7,28c0,11.5,2.9,20.5,8.8,27.1
			c5.9,6.6,13.7,9.9,23.5,9.9c10,0,17.7-3.2,23.1-9.7c5.4-6.5,8.1-15.7,8.1-27.7c0-12.1-2.7-21.4-8.1-28
			C309.5,108.3,301.8,105,291.8,105z"/>
		<path class="st5" d="M379.1,191h-15.5V47.8h15.5V191z"/>
		<path class="st5" d="M493,191h-15.5v-16.4h-0.4c-7.2,12.5-18.3,18.7-33.2,18.7c-12.2,0-21.9-4.3-29.1-13
			c-7.3-8.7-10.9-20.4-10.9-35.4c0-16,4-28.8,12.1-38.4c8.1-9.6,18.8-14.5,32.2-14.5c13.3,0,23,5.2,29,15.7h0.4V47.8H493V191z
			 M477.5,147.2V133c0-7.8-2.6-14.4-7.7-19.8c-5.2-5.4-11.7-8.1-19.6-8.1c-9.4,0-16.9,3.5-22.3,10.4c-5.4,6.9-8.1,16.5-8.1,28.7
			c0,11.1,2.6,19.9,7.8,26.4c5.2,6.5,12.2,9.7,20.9,9.7c8.6,0,15.6-3.1,21-9.4C474.8,164.6,477.5,156.7,477.5,147.2z"/>
	</g>
</g>
</svg>
