<svg xmlns="http://www.w3.org/2000/svg" width="63.71" height="44.454" viewBox="0 0 63.71 44.454"><defs><style>.a{fill:#85985a;}</style></defs><g transform="translate(-897.689 -78.321)"><g transform="translate(900.104 78.321)"><path class="a" d="M959.46,113.306a1.2,1.2,0,0,1-1.2-1.2V83.72a2.853,2.853,0,0,0-2.67-3H906.85a2.853,2.853,0,0,0-2.669,3v28.226a1.2,1.2,0,0,1-2.4,0V83.72a5.248,5.248,0,0,1,5.069-5.4h48.741a5.248,5.248,0,0,1,5.07,5.4v28.385A1.2,1.2,0,0,1,959.46,113.306Z" transform="translate(-901.781 -78.321)"/></g><g transform="translate(904.091 82.726)"><path class="a" d="M958.239,115.17a1.2,1.2,0,0,1-1.2-1.2V88.4c0-.071,0-.145,0-.217H910.935c0,.071,0,.145,0,.217v25.447a1.2,1.2,0,1,1-2.4,0V88.413a2.638,2.638,0,0,1,.523-2.091,2.818,2.818,0,0,1,2.171-.539h45.519c.953,0,1.634,0,2.168.539a2.64,2.64,0,0,1,.524,2.091V113.97A1.2,1.2,0,0,1,958.239,115.17Z" transform="translate(-908.535 -85.784)"/></g><g transform="translate(897.689 114.374)"><path class="a" d="M954.258,147.8H904.83a7.149,7.149,0,0,1-7.141-7.141,1.253,1.253,0,0,1,1.2-1.26H960.2a1.2,1.2,0,0,1,1.2,1.2A7.163,7.163,0,0,1,954.258,147.8Zm-54.021-6a4.742,4.742,0,0,0,4.593,3.6h49.428a4.75,4.75,0,0,0,4.6-3.6Z" transform="translate(-897.689 -139.403)"/></g><path class="a" d="M954.593,112.936l-3.135-3.134a8.629,8.629,0,1,0-4.048,4.034l3.141,3.141a2.858,2.858,0,0,0,4.041-4.041Zm-15.232-2.464a6.171,6.171,0,1,1,9.592-1.08,5.747,5.747,0,0,1-.859,1.08,5.876,5.876,0,0,1-1.1.872,6.176,6.176,0,0,1-7.635-.872Zm13.512,4.807a.44.44,0,0,1-.624,0l-2.793-2.792q.172-.154.335-.319c.109-.108.212-.218.313-.328l2.792,2.792A.45.45,0,0,1,952.872,115.28Z" transform="translate(-15.353 -7.874)"/></g></svg>