<svg xmlns="http://www.w3.org/2000/svg" width="43" height="43.04" viewBox="0 0 43 43.04"><defs><style>.a{fill:#85985a;}</style></defs><g transform="translate(-265 -4418)"><g transform="translate(165.961 4357.277)"><g transform="translate(99.039 70.353)"><path class="a" d="M137.818,66.381a.6.6,0,0,0-.456-.2H117.428a9.848,9.848,0,1,0,0,9.71h4.617a.731.731,0,0,0,.476-.2l2.279-2.3.238-.1a.382.382,0,0,1,.218.1l1.783,1.8a.816.816,0,0,0,.416.2.733.733,0,0,0,.535-.178l1.8-1.823.238-.1.2.1,1.823,1.823a.768.768,0,0,0,.456.178.825.825,0,0,0,.476-.178l1.883-1.9.218-.1.218.1,1.823,1.8a.634.634,0,0,0,.912,0l3.8-3.8a.634.634,0,0,0,0-.911Zm-.238,7.352-1.347-1.347a1.639,1.639,0,0,0-2.279,0l-1.447,1.447-1.347-1.347a1.64,1.64,0,0,0-2.279,0l-1.348,1.347-1.367-1.347a1.639,1.639,0,0,0-2.279,0l-2.1,2.081h-4.736a.6.6,0,0,0-.575.377,8.541,8.541,0,1,1,0-7.807.618.618,0,0,0,.575.357h20.034l3.369,3.388Z" transform="translate(-99.039 -61.209)"/></g><g transform="translate(104.132 75.426)"><path class="a" d="M104.032,61.465a4.756,4.756,0,1,0,4.221,6.916,4.586,4.586,0,0,0,.535-2.16,4.529,4.529,0,0,0-.535-2.16A4.715,4.715,0,0,0,104.032,61.465Zm3.071,6.321a3.428,3.428,0,1,1,0-3.131,3.506,3.506,0,0,1,.376,1.566A3.57,3.57,0,0,1,107.1,67.786Z" transform="translate(-99.296 -61.465)"/></g><g transform="translate(99.039 60.723)"><path class="a" d="M141.385,60.723H99.673a.643.643,0,0,0-.634.654v5.212a.626.626,0,0,0,.634.634h41.712a.643.643,0,0,0,.654-.634V61.377A.66.66,0,0,0,141.385,60.723Zm-41.038,1.308H135.52v3.9H100.347Zm40.384,3.9h-3.9v-3.9h3.9Z" transform="translate(-99.039 -60.723)"/></g><g transform="translate(129.773 88.723)"><path class="a" d="M112.2,62.136H101.244a.656.656,0,0,0-.654.634.664.664,0,0,0,.654.674H112.2a.664.664,0,0,0,.654-.674A.656.656,0,0,0,112.2,62.136Z" transform="translate(-100.59 -62.136)"/></g><g transform="translate(118.042 88.723)"><path class="a" d="M108.34,63.444a.664.664,0,0,0,.654-.674.656.656,0,0,0-.654-.634h-7.708a.638.638,0,0,0-.634.634.648.648,0,0,0,.634.674Z" transform="translate(-99.998 -62.136)"/></g><g transform="translate(99.039 93.3)"><path class="a" d="M99.673,63.655h7.807a.644.644,0,1,0,0-1.288H99.673a.644.644,0,0,0,0,1.288Z" transform="translate(-99.039 -62.367)"/></g><g transform="translate(110.77 93.3)"><path class="a" d="M99.631,63a.647.647,0,0,0,.654.654h10.4a.644.644,0,1,0,0-1.288h-10.4A.643.643,0,0,0,99.631,63Z" transform="translate(-99.631 -62.367)"/></g><g transform="translate(125.116 93.3)"><path class="a" d="M108.8,62.367h-7.787a.644.644,0,1,0,0,1.288H108.8a.644.644,0,1,0,0-1.288Z" transform="translate(-100.355 -62.367)"/></g><g transform="translate(136.847 93.3)"><path class="a" d="M105.485,62.367H101.6a.644.644,0,1,0,0,1.288h3.884a.644.644,0,1,0,0-1.288Z" transform="translate(-100.947 -62.367)"/></g><g transform="translate(99.039 97.877)"><path class="a" d="M99.673,63.906h6.5a.664.664,0,0,0,.654-.674.656.656,0,0,0-.654-.634h-6.5a.639.639,0,0,0-.634.634A.648.648,0,0,0,99.673,63.906Z" transform="translate(-99.039 -62.598)"/></g><g transform="translate(109.462 97.877)"><path class="a" d="M106.7,63.232a.638.638,0,0,0-.634-.634h-5.846a.656.656,0,0,0-.654.634.664.664,0,0,0,.654.674h5.846A.648.648,0,0,0,106.7,63.232Z" transform="translate(-99.565 -62.598)"/></g><g transform="translate(119.251 97.877)"><path class="a" d="M100.059,63.232a.648.648,0,0,0,.634.674H111.75a.652.652,0,0,0,.654-.674.643.643,0,0,0-.654-.634H100.693A.638.638,0,0,0,100.059,63.232Z" transform="translate(-100.059 -62.598)"/></g><g transform="translate(134.232 97.877)"><path class="a" d="M107.969,62.6h-6.5a.656.656,0,0,0-.654.634.664.664,0,0,0,.654.674h6.5a.664.664,0,0,0,.654-.674A.656.656,0,0,0,107.969,62.6Z" transform="translate(-100.815 -62.598)"/></g><g transform="translate(99.039 102.455)"><path class="a" d="M109.442,62.829H99.673a.631.631,0,0,0-.634.654.656.656,0,0,0,.634.654h9.769a.656.656,0,0,0,.634-.654A.631.631,0,0,0,109.442,62.829Z" transform="translate(-99.039 -62.829)"/></g><g transform="translate(112.732 102.455)"><path class="a" d="M107.518,62.829h-7.134a.635.635,0,0,0-.654.654.659.659,0,0,0,.654.654h7.134a.673.673,0,0,0,.654-.654A.647.647,0,0,0,107.518,62.829Z" transform="translate(-99.73 -62.829)"/></g><g transform="translate(123.809 102.455)"><path class="a" d="M109.384,62.829h-8.442a.647.647,0,0,0-.654.654.673.673,0,0,0,.654.654h8.442a.673.673,0,0,0,.654-.654A.647.647,0,0,0,109.384,62.829Z" transform="translate(-100.289 -62.829)"/></g><g transform="translate(136.193 102.455)"><path class="a" d="M106.106,62.829h-4.538a.647.647,0,0,0-.654.654.673.673,0,0,0,.654.654h4.538a.673.673,0,0,0,.654-.654A.647.647,0,0,0,106.106,62.829Z" transform="translate(-100.914 -62.829)"/></g></g></g></svg>