<svg version="1.2" xmlns="http://www.w3.org/2000/svg" viewBox="0 0 72 60" width="72" height="60">
	<title>content-writing-svg</title>
	<style>
		.s0 { fill: #000000 } 
	</style>
	<g id="Layer">
		<path id="Layer" fill-rule="evenodd" class="s0" d="m71.5 58.8q0.3 0.2 0.3 0.5 0 0.3-0.3 0.5-0.2 0.2-0.5 0.2h-62.6q-0.3 0-0.6-0.2-0.2-0.2-0.2-0.5 0-0.3 0.2-0.5 0.3-0.3 0.6-0.3h10.4q0-0.9 0.4-1.8 0.3-0.8 1-1.5 0.6-0.6 1.5-1 0.9-0.3 1.8-0.3h0.6v-4.2h-17.2q-0.9 0-1.6-0.3-0.8-0.3-1.4-0.9-0.5-0.6-0.9-1.4-0.3-0.7-0.3-1.5v-43.1q0-0.5 0.2-0.9 0.2-0.5 0.6-0.9 0.3-0.3 0.8-0.5 0.5-0.2 1-0.2h56.5q0.5 0 0.9 0.2 0.5 0.2 0.9 0.5 0.3 0.4 0.5 0.9 0.2 0.4 0.2 0.9v16.5h2q0.5 0 0.9 0.2 0.4 0.1 0.8 0.5 0.3 0.3 0.5 0.8 0.2 0.4 0.2 0.9v30.4q0 0 0 0.1 0 0-0.1 0.1 0 0 0 0.1 0 0 0 0.1l-3.7 6.3h6.1q0.3 0 0.5 0.3zm-26.8-4.6q0.9 0.4 1.5 1 0.7 0.7 1.1 1.5 0.3 0.9 0.3 1.8h14.7l-3.7-6.3q-0.1-0.1-0.1-0.1 0-0.1 0-0.1 0-0.1 0-0.1 0-0.1 0-0.1c0-2.4 0-2.1 0-2.1h-16.2v4.2h0.6q0.9 0 1.8 0.3zm-39.8-52.7q-0.2 0.1-0.4 0.3-0.1 0.1-0.2 0.3-0.1 0.2-0.1 0.4v37.4h1.9v-35.8q0-0.1 0.1-0.2 0-0.2 0.1-0.3 0.1-0.1 0.3-0.1 0.1-0.1 0.3-0.1h53.3q0.1 0 0.3 0.1 0.1 0 0.2 0.1 0.1 0.1 0.1 0.2 0.1 0.2 0.1 0.3v14.9h1.9v-16.5q0-0.2 0-0.4-0.1-0.2-0.3-0.3-0.1-0.2-0.3-0.2-0.2-0.1-0.4-0.1h-56.5q-0.2 0-0.4 0zm62.3 24.6h-7.3v25h7.3zm-0.5 26.3h-6.2l3.1 5.3zm0.4-31.5q0-0.1-0.2-0.3-0.1-0.1-0.3-0.2-0.1 0-0.3 0h-5.4q-0.2 0-0.4 0-0.2 0.1-0.3 0.2-0.1 0.2-0.2 0.3-0.1 0.2-0.1 0.4v3.3h7.3v-3.3q0-0.2-0.1-0.4zm-59.5 18.9h50.9v-18.5q0-0.3 0-0.6 0.1-0.2 0.2-0.5 0.2-0.2 0.3-0.4 0.2-0.3 0.4-0.4v-14.6h-51.8zm-3.2 6.7q0.2 0.5 0.6 0.9 0.3 0.3 0.8 0.5 0.5 0.2 1.1 0.2c28.9 0 47.1 0 51.6 0v-6.8h-54.3v4.2q0 0.5 0.2 1zm21.1 7.3h15.3v-4.2h-15.3zm20.7 4.7q0-0.7-0.3-1.3-0.3-0.5-0.7-1-0.5-0.4-1.1-0.7-0.6-0.2-1.2-0.2h-19.4q-0.7 0-1.2 0.2-0.6 0.3-1.1 0.7-0.5 0.5-0.7 1-0.3 0.6-0.3 1.3z"/>
		<path id="Layer" class="s0" d="m5.8 59.3q0-0.2-0.1-0.3 0-0.1-0.1-0.3-0.1-0.1-0.3-0.1-0.1-0.1-0.2-0.1h-4.4q-0.3 0-0.5 0.2-0.2 0.3-0.2 0.6 0 0.3 0.2 0.5 0.2 0.2 0.5 0.2h4.4q0.1 0 0.2-0.1 0.2 0 0.3-0.1 0.1-0.1 0.1-0.3 0.1-0.1 0.1-0.2z"/>
		<path id="Layer" fill-rule="evenodd" class="s0" d="m32.2 47.5q-0.5-0.2-0.8-0.6-0.4-0.4-0.6-0.9-0.2-0.4-0.2-0.9c0-1.1 0.6-2 1.6-2.4 1-0.4 2.1-0.2 2.8 0.5 0.8 0.8 1 1.9 0.6 2.8-0.4 1-1.3 1.6-2.4 1.6q-0.5 0-1-0.1zm0.6-3.5q-0.2 0.1-0.4 0.3-0.1 0.1-0.2 0.3-0.1 0.2-0.1 0.5c0 0.4 0.3 0.8 0.7 1 0.4 0.2 0.9 0.1 1.2-0.2 0.3-0.4 0.4-0.9 0.2-1.3-0.1-0.4-0.5-0.7-1-0.7q-0.2 0-0.4 0.1z"/>
		<path id="Layer" fill-rule="evenodd" class="s0" d="m15.5 15.7q-0.1-0.1-0.2-0.2-0.1-0.2-0.1-0.4 0-0.1 0.1-0.3 0.1-0.2 0.2-0.3l4.3-3.2q0.2-0.1 0.4-0.1 0.2 0 0.4 0.1 0.2 0.1 0.3 0.2 0.1 0.2 0.1 0.4v6.4q0 0.2-0.1 0.4-0.1 0.2-0.3 0.3-0.2 0.1-0.4 0.1-0.2-0.1-0.4-0.2zm1.7-0.6l2.4 1.8v-3.5z"/>
		<path id="Layer" fill-rule="evenodd" class="s0" d="m46.3 18.9q-0.1-0.1-0.2-0.2 0-0.1 0-0.2-0.1-0.1-0.1-0.2v-6.4q0-0.2 0.1-0.3 0.1-0.2 0.3-0.3 0.2-0.1 0.4-0.1 0.2 0 0.4 0.2l4.3 3.2q0.2 0.1 0.2 0.2 0.1 0.2 0.1 0.3 0 0.2-0.1 0.4 0 0.1-0.2 0.2l-4.3 3.2q-0.1 0.1-0.2 0.1-0.1 0.1-0.2 0.1-0.1 0-0.2 0-0.1-0.1-0.2-0.1-0.1-0.1-0.1-0.1zm1.2-2l2.4-1.8-2.4-1.7z"/>
		<path id="Layer" fill-rule="evenodd" class="s0" d="m40.3 13.3q0.1 0.1 0.2 0.2 0.1 0.2 0.1 0.3 0.1 0.1 0.1 0.3v2.1q0 0.1-0.1 0.3 0 0.1-0.1 0.2-0.1 0.2-0.2 0.2-0.1 0.1-0.3 0.2l-0.9 0.3 0.4 1q0.1 0.1 0.1 0.2 0 0.2 0 0.3-0.1 0.2-0.1 0.3-0.1 0.1-0.2 0.2l-1.5 1.5q-0.1 0.1-0.2 0.2-0.1 0.1-0.3 0.1-0.1 0-0.3 0-0.1 0-0.3-0.1l-0.9-0.4-0.3 0.9q-0.1 0.2-0.2 0.3-0.1 0.1-0.2 0.2-0.1 0.1-0.2 0.1-0.2 0.1-0.3 0.1h-2.1q-0.2 0-0.3-0.1-0.2 0-0.3-0.1-0.1-0.1-0.2-0.2-0.1-0.1-0.1-0.3l-0.4-0.9-0.9 0.4q-0.1 0.1-0.3 0.1-0.1 0-0.3 0-0.1 0-0.3-0.1-0.1-0.1-0.2-0.2l-1.5-1.5q-0.1-0.1-0.1-0.2-0.1-0.1-0.1-0.3-0.1-0.1 0-0.3 0-0.1 0-0.2l0.4-1-0.9-0.3q-0.1-0.1-0.3-0.2-0.1 0-0.2-0.2 0-0.1-0.1-0.2 0-0.2 0-0.3v-2.1q0-0.2 0-0.3 0.1-0.1 0.2-0.3 0-0.1 0.2-0.2 0.1-0.1 0.2-0.1l0.9-0.4-0.4-0.9q0-0.1 0-0.3-0.1-0.1 0-0.3 0-0.1 0.1-0.2 0-0.2 0.1-0.3l1.5-1.5q0.1-0.1 0.2-0.1 0.2-0.1 0.3-0.1 0.2 0 0.3 0 0.2 0 0.3 0l0.9 0.5 0.4-1q0-0.1 0.1-0.2 0.1-0.1 0.2-0.2 0.1-0.1 0.3-0.2 0.1 0 0.3 0h2.1q0.1 0 0.3 0 0.1 0.1 0.2 0.2 0.1 0.1 0.2 0.2 0.1 0.1 0.2 0.2l0.3 1 0.9-0.5q0.2 0 0.3 0 0.2-0.1 0.3 0 0.2 0 0.3 0.1 0.1 0 0.2 0.1l1.5 1.5q0.1 0.1 0.2 0.3 0 0.1 0.1 0.2 0 0.2 0 0.3 0 0.2-0.1 0.3l-0.4 0.9 0.9 0.4q0.2 0 0.3 0.1zm-1.1 1.1l-1.1-0.4q-0.2-0.1-0.4-0.2-0.1-0.1-0.2-0.3-0.1-0.2-0.1-0.4 0.1-0.2 0.1-0.4l0.5-1.1-1-1-1.1 0.5q-0.1 0.1-0.3 0.1-0.2 0-0.4-0.1-0.2 0-0.3-0.2-0.2-0.1-0.3-0.3l-0.4-1.1h-1.4l-0.4 1.1q-0.1 0.2-0.2 0.3-0.1 0.2-0.3 0.2-0.2 0.1-0.4 0.1-0.2 0-0.4-0.1l-1.1-0.5-1 1 0.5 1.1q0.1 0.2 0.1 0.4 0 0.2-0.1 0.4-0.1 0.2-0.2 0.3-0.1 0.1-0.3 0.2l-1.2 0.4v1.4l1.2 0.5q0.2 0 0.3 0.2 0.1 0.1 0.2 0.3 0.1 0.2 0.1 0.4 0 0.2-0.1 0.4l-0.5 1.1 1 1 1.1-0.5q0.2-0.1 0.4-0.1 0.2 0 0.4 0 0.1 0.1 0.3 0.3 0.1 0.1 0.2 0.3l0.4 1.1h1.4l0.4-1.1q0.1-0.2 0.3-0.3 0.1-0.2 0.3-0.3 0.2 0 0.4 0 0.2 0 0.3 0.1l1.1 0.4 1-1-0.5-1q-0.1-0.2-0.1-0.4 0-0.2 0.1-0.4 0.1-0.2 0.2-0.3 0.2-0.2 0.4-0.2l1.1-0.5z"/>
		<path id="Layer" fill-rule="evenodd" class="s0" d="m34.8 12.1q0.6 0.3 1 0.7 0.5 0.5 0.7 1.1 0.3 0.6 0.3 1.2c0 1.4-0.8 2.6-2 3.1-1.3 0.5-2.7 0.2-3.6-0.7-0.9-1-1.2-2.4-0.7-3.6 0.5-1.2 1.7-2 3-2q0.7 0 1.3 0.2zm-0.6 4.7q0.3-0.1 0.6-0.4 0.3-0.2 0.4-0.6 0.1-0.3 0.1-0.7c0-0.7-0.4-1.4-1.1-1.6-0.7-0.3-1.5-0.2-2 0.3-0.5 0.6-0.6 1.3-0.4 2 0.3 0.7 1 1.2 1.7 1.2q0.4 0 0.7-0.2z"/>
		<path id="Layer" class="s0" d="m22.3 26.5h-12.4q-0.3 0-0.5 0.2-0.2 0.3-0.2 0.6 0 0.3 0.2 0.5 0.2 0.2 0.5 0.2h12.4q0.3 0 0.5-0.2 0.2-0.2 0.2-0.5 0-0.3-0.2-0.6-0.2-0.2-0.5-0.2z"/>
		<path id="Layer" class="s0" d="m22.3 30.5h-12.4q-0.3 0-0.5 0.3-0.2 0.2-0.2 0.5 0 0.3 0.2 0.5 0.2 0.2 0.5 0.2h12.4q0.3 0 0.5-0.2 0.2-0.2 0.2-0.5 0-0.3-0.2-0.5-0.2-0.3-0.5-0.3z"/>
		<path id="Layer" class="s0" d="m22.3 34.6h-12.4q-0.3 0-0.5 0.2-0.2 0.2-0.2 0.5 0 0.3 0.2 0.5 0.2 0.2 0.5 0.2h12.4q0.3 0 0.5-0.2 0.2-0.2 0.2-0.5 0-0.3-0.2-0.5-0.2-0.2-0.5-0.2z"/>
		<path id="Layer" class="s0" d="m39.7 26.5h-12.4q-0.3 0-0.5 0.2-0.2 0.3-0.2 0.6 0 0.3 0.2 0.5 0.2 0.2 0.5 0.2h12.4q0.3 0 0.5-0.2 0.2-0.2 0.2-0.5 0-0.3-0.2-0.6-0.2-0.2-0.5-0.2z"/>
		<path id="Layer" class="s0" d="m39.7 30.5h-12.4q-0.3 0-0.5 0.3-0.2 0.2-0.2 0.5 0 0.3 0.2 0.5 0.2 0.2 0.5 0.2h12.4q0.3 0 0.5-0.2 0.2-0.2 0.2-0.5 0-0.3-0.2-0.5-0.2-0.3-0.5-0.3z"/>
		<path id="Layer" class="s0" d="m39.7 34.6h-12.4q-0.3 0-0.5 0.2-0.2 0.2-0.2 0.5 0 0.3 0.2 0.5 0.2 0.2 0.5 0.2h12.4q0.3 0 0.5-0.2 0.2-0.2 0.2-0.5 0-0.3-0.2-0.5-0.2-0.2-0.5-0.2z"/>
		<path id="Layer" class="s0" d="m44.8 28h12.4q0.3 0 0.5-0.2 0.2-0.2 0.2-0.5 0-0.3-0.2-0.6-0.2-0.2-0.5-0.2h-12.4q-0.3 0-0.6 0.2-0.2 0.3-0.2 0.6 0 0.3 0.2 0.5 0.3 0.2 0.6 0.2z"/>
		<path id="Layer" class="s0" d="m57.2 30.5h-12.4q-0.3 0-0.6 0.3-0.2 0.2-0.2 0.5 0 0.3 0.2 0.5 0.3 0.2 0.6 0.2h12.4q0.3 0 0.5-0.2 0.2-0.2 0.2-0.5 0-0.3-0.2-0.5-0.2-0.3-0.5-0.3z"/>
		<path id="Layer" class="s0" d="m57.2 34.6h-12.4q-0.3 0-0.6 0.2-0.2 0.2-0.2 0.5 0 0.3 0.2 0.5 0.3 0.2 0.6 0.2h12.4q0.3 0 0.5-0.2 0.2-0.2 0.2-0.5 0-0.3-0.2-0.5-0.2-0.2-0.5-0.2z"/>
	</g>
</svg>