<svg xmlns="http://www.w3.org/2000/svg" width="71.763" height="60" viewBox="0 0 71.763 60"><g transform="translate(-6 -14.032)"><path d="M78.028,72.567h-6.18l3.727-6.372a.939.939,0,0,0,.1-.369h0V35.407a2.4,2.4,0,0,0-2.4-2.4H71.3V16.573a2.54,2.54,0,0,0-2.534-2.541h-56.5a2.544,2.544,0,0,0-2.541,2.541V59.594a4.152,4.152,0,0,0,4.145,4.145H31.088v4.168H30.5a4.736,4.736,0,0,0-4.729,4.661H15.359a.732.732,0,1,0,0,1.465H78.028a.732.732,0,1,0,0-1.465Zm-28.12-4.661h-.594V63.738H65.468c0,.029,0-.285,0,2.088a.942.942,0,0,0,.1.369l3.726,6.372H54.637a4.736,4.736,0,0,0-4.729-4.661Zm-35.321-49,51.845-.015.007,14.6a2.387,2.387,0,0,0-.971,1.915V53.919H14.6ZM74.21,65.093H66.933V40.171H74.21Zm-3.639,6.756-3.094-5.292h6.189ZM74.21,35.406v3.3H66.933v-3.3a.932.932,0,0,1,.93-.931h5.416a.932.932,0,0,1,.931.931ZM12.265,15.5h56.5a1.074,1.074,0,0,1,1.069,1.076V33.011H67.9L67.9,18.162a.732.732,0,0,0-.732-.732l-53.309.015a.733.733,0,0,0-.732.732l.014,35.742H11.189V16.573A1.077,1.077,0,0,1,12.265,15.5Zm-1.076,44.1V55.383H65.468v6.891c-4.464,0-22.643,0-51.6,0a2.691,2.691,0,0,1-2.68-2.68Zm21.364,4.145h15.3v4.168h-15.3Zm-5.325,8.829a3.271,3.271,0,0,1,3.267-3.2H49.908a3.271,3.271,0,0,1,3.267,3.2Z" transform="translate(-0.997)"/><path d="M11.785,94.7a.732.732,0,0,0-.732-.732H6.732a.732.732,0,1,0,0,1.465h4.32A.732.732,0,0,0,11.785,94.7Z" transform="translate(0 -21.401)"/><path d="M50.4,77.208a2.59,2.59,0,1,0-2.591-2.59A2.593,2.593,0,0,0,50.4,77.208Zm0-3.716a1.126,1.126,0,1,1-1.126,1.126A1.127,1.127,0,0,1,50.4,73.491Z" transform="translate(-11.193 -15.527)"/><path d="M31.385,37.053a.732.732,0,0,0,1.168-.589V30.057a.732.732,0,0,0-1.168-.589l-4.331,3.2a.732.732,0,0,0,0,1.177Zm-.3-5.544v3.5l-2.368-1.751Z" transform="translate(-5.557 -4.094)"/><path d="M69.262,37.118a.731.731,0,0,0,.765-.065l4.332-3.2a.732.732,0,0,0,0-1.177l-4.332-3.2a.732.732,0,0,0-1.168.589v6.407A.732.732,0,0,0,69.262,37.118Zm1.062-5.609,2.368,1.751-2.368,1.751Z" transform="translate(-16.829 -4.094)"/><path d="M55.669,30.139l-.944-.354.42-.925a.97.97,0,0,0-.2-1.076L53.462,26.3a.967.967,0,0,0-1.081-.2l-.917.417-.354-.943a.967.967,0,0,0-.9-.626h-2.1a.967.967,0,0,0-.9.626l-.354.945-.92-.418a.966.966,0,0,0-1.081.2l-1.482,1.485a.969.969,0,0,0-.2,1.078l.417.922-.943.354a.966.966,0,0,0-.629.9v2.1a.971.971,0,0,0,.626.9l.945.354-.418.925a.97.97,0,0,0,.2,1.075l1.48,1.484a.963.963,0,0,0,1.083.2l.921-.418.354.943a.967.967,0,0,0,.9.626h2.1a.967.967,0,0,0,.9-.626l.354-.943.917.417a.97.97,0,0,0,1.081-.2L54.948,36.4a.97.97,0,0,0,.2-1.079l-.418-.922.944-.353h0a.969.969,0,0,0,.624-.9v-2.1A.966.966,0,0,0,55.669,30.139Zm-.839,2.652-1.121.42a.963.963,0,0,0-.538,1.3l.5,1.093-1,1-1.087-.495a.963.963,0,0,0-1.3.538l-.42,1.121H48.454l-.42-1.121a.963.963,0,0,0-1.3-.538l-1.093.5-.993-1,.5-1.1a.963.963,0,0,0-.541-1.3l-1.121-.42v-1.4l1.122-.42a.965.965,0,0,0,.54-1.3l-.495-1.094.993-1,1.095.5a.964.964,0,0,0,1.3-.541l.42-1.121h1.407l.42,1.121a.963.963,0,0,0,1.3.538l1.089-.5,1,1-.5,1.092a.964.964,0,0,0,.539,1.3l1.121.42Z" transform="translate(-9.642 -2.923)"/><path d="M50.567,30.216A3.284,3.284,0,1,0,53.851,33.5,3.287,3.287,0,0,0,50.567,30.216Zm0,5.1A1.82,1.82,0,1,1,52.387,33.5,1.822,1.822,0,0,1,50.567,35.32Z" transform="translate(-11.053 -4.333)"/><path d="M31.623,50.258H19.229a.732.732,0,1,0,0,1.465H31.623a.732.732,0,1,0,0-1.465Z" transform="translate(-3.346 -9.699)"/><path d="M31.623,55.738H19.229a.732.732,0,1,0,0,1.465H31.623a.732.732,0,1,0,0-1.465Z" transform="translate(-3.346 -11.166)"/><path d="M31.623,61.217H19.229a.732.732,0,1,0,0,1.465H31.623a.732.732,0,1,0,0-1.465Z" transform="translate(-3.346 -12.633)"/><path d="M55.435,50.258H43.042a.732.732,0,1,0,0,1.465H55.435a.732.732,0,0,0,0-1.465Z" transform="translate(-9.721 -9.699)"/><path d="M55.435,55.738H43.042a.732.732,0,0,0,0,1.465H55.435a.732.732,0,0,0,0-1.465Z" transform="translate(-9.721 -11.166)"/><path d="M55.435,61.217H43.042a.732.732,0,1,0,0,1.465H55.435a.732.732,0,1,0,0-1.465Z" transform="translate(-9.721 -12.633)"/><path d="M66.855,51.723H79.249a.732.732,0,1,0,0-1.465H66.855a.732.732,0,1,0,0,1.465Z" transform="translate(-16.096 -9.699)"/><path d="M79.249,55.738H66.855a.732.732,0,1,0,0,1.465H79.249a.732.732,0,1,0,0-1.465Z" transform="translate(-16.096 -11.166)"/><path d="M79.249,61.217H66.855a.732.732,0,1,0,0,1.465H79.249a.732.732,0,1,0,0-1.465Z" transform="translate(-16.096 -12.633)"/></g></svg>