<svg xmlns="http://www.w3.org/2000/svg" width="64.586" height="60" viewBox="0 0 64.586 60"><g transform="translate(-4 -8)"><path d="M15.767,34.307a1.153,1.153,0,1,0,0-2.307H11.153A1.153,1.153,0,0,0,10,33.153v6.92a1.153,1.153,0,0,0,1.153,1.153h4.613a1.153,1.153,0,0,0,0-2.307h-3.46V34.307Z" transform="translate(0.92 3.68)"/><path d="M49.153,38.92a1.153,1.153,0,0,0,0,2.307h4.613a1.153,1.153,0,0,0,1.153-1.153v-6.92A1.153,1.153,0,0,0,53.767,32H49.153a1.153,1.153,0,1,0,0,2.307h3.46V38.92Z" transform="translate(6.746 3.68)"/><path d="M26.153,31.307h13.84a1.153,1.153,0,1,0,0-2.307H26.153a1.153,1.153,0,1,0,0,2.307Z" transform="translate(3.22 3.22)"/><path d="M29.92,38.153A1.153,1.153,0,0,0,28.767,37H24.153a1.153,1.153,0,0,0,0,2.307h4.613A1.153,1.153,0,0,0,29.92,38.153Z" transform="translate(2.913 4.446)"/><path d="M33.073,41h-6.92a1.153,1.153,0,1,0,0,2.307h6.92a1.153,1.153,0,0,0,0-2.307Z" transform="translate(3.22 5.06)"/><path d="M38.46,41H36.153a1.153,1.153,0,0,0,0,2.307H38.46a1.153,1.153,0,1,0,0-2.307Z" transform="translate(4.753 5.06)"/><path d="M42.533,38.153A1.153,1.153,0,0,0,41.38,37H32.153a1.153,1.153,0,1,0,0,2.307H41.38A1.153,1.153,0,0,0,42.533,38.153Z" transform="translate(4.14 4.446)"/><path d="M35,34.153a1.153,1.153,0,0,0,1.153,1.153h4.613a1.153,1.153,0,0,0,0-2.307H36.153A1.153,1.153,0,0,0,35,34.153Z" transform="translate(4.753 3.833)"/><path d="M24.153,35.307H33.38a1.153,1.153,0,1,0,0-2.307H24.153a1.153,1.153,0,1,0,0,2.307Z" transform="translate(2.913 3.833)"/><path d="M49.962,48.864a1.153,1.153,0,0,0-1.349-.185l-1.257-1.3a16.146,16.146,0,1,0-3.979,3.979l1.269,1.257a1.153,1.153,0,0,0,.185,1.349L55.648,64.78a3.61,3.61,0,0,0,6.182-2.549,3.564,3.564,0,0,0-1.05-2.549ZM20.31,38.15A13.84,13.84,0,1,1,34.15,51.99,13.84,13.84,0,0,1,20.31,38.15ZM45.879,49.21l1.061,1.05-.68.68-1.05-1.061ZM58.231,63.523a1.269,1.269,0,0,1-.911-.381l-10.011-10,1.834-1.834,10,10.011a1.292,1.292,0,0,1-.911,2.2Z" transform="translate(2.143 2.143)"/><path d="M67.433,8H5.153A1.153,1.153,0,0,0,4,9.153V62.206a1.153,1.153,0,0,0,1.153,1.153H47.826a1.153,1.153,0,1,0,0-2.307H6.307V19.533H66.279V62.206a1.153,1.153,0,0,0,2.307,0V9.153A1.153,1.153,0,0,0,67.433,8ZM6.307,10.307H22.453v6.92H6.307Zm18.453,6.92v-6.92H66.279v6.92Z"/><path d="M9.153,12a1.153,1.153,0,1,0,1.153,1.153A1.153,1.153,0,0,0,9.153,12Z" transform="translate(0.613 0.613)"/><path d="M13.153,12a1.153,1.153,0,1,0,1.153,1.153A1.153,1.153,0,0,0,13.153,12Z" transform="translate(1.227 0.613)"/><path d="M17.153,12a1.153,1.153,0,1,0,1.153,1.153A1.153,1.153,0,0,0,17.153,12Z" transform="translate(1.84 0.613)"/><path d="M59.753,12h-34.6a1.153,1.153,0,0,0,0,2.307h34.6a1.153,1.153,0,0,0,0-2.307Z" transform="translate(3.066 0.613)"/></g></svg>