<svg xmlns="http://www.w3.org/2000/svg" width="69.474" height="60" viewBox="0 0 69.474 60"><g transform="translate(-2 -5)"><g transform="translate(2 5)"><g transform="translate(0 47.368)"><path d="M32,47.632H2.789a.789.789,0,0,1,0-1.579H32V35.789a.789.789,0,1,1,1.579,0V46.053A1.582,1.582,0,0,1,32,47.632Z" transform="translate(-2 -35)"/></g><path d="M31.211,5H2.789a.789.789,0,1,0,0,1.579H31.211A.79.79,0,0,1,32,7.368v7.105H2.789a.789.789,0,1,0,0,1.579H32v7.895a.789.789,0,1,0,1.579,0V7.368A2.371,2.371,0,0,0,31.211,5Z" transform="translate(-2 -5)"/></g><g transform="translate(39.895 5)"><g transform="translate(0 46.579)"><path d="M56.789,47.921H27.579A1.582,1.582,0,0,1,26,46.342V35.289a.789.789,0,1,1,1.579,0V46.342H56.789a.789.789,0,1,1,0,1.579Z" transform="translate(-26 -34.5)"/></g><path d="M56.789,14.474H27.579V7.368a.79.79,0,0,1,.789-.789H56.789a.789.789,0,1,0,0-1.579H28.368A2.371,2.371,0,0,0,26,7.368V23.158a.789.789,0,0,0,1.579,0V16.053H56.789a.789.789,0,1,0,0-1.579Z" transform="translate(-26 -5)"/><g transform="translate(4.737 3.158)"><g transform="translate(15.789)"><path d="M41.368,11.737a2.368,2.368,0,1,1,2.368-2.368A2.371,2.371,0,0,1,41.368,11.737Zm0-3.158a.789.789,0,1,0,.789.789A.79.79,0,0,0,41.368,8.579Z" transform="translate(-39 -7)"/></g><g transform="translate(7.895)"><path d="M36.368,11.737a2.368,2.368,0,1,1,2.368-2.368A2.371,2.371,0,0,1,36.368,11.737Zm0-3.158a.789.789,0,1,0,.789.789A.79.79,0,0,0,36.368,8.579Z" transform="translate(-34 -7)"/></g><path d="M31.368,11.737a2.368,2.368,0,1,1,2.368-2.368A2.371,2.371,0,0,1,31.368,11.737Zm0-3.158a.789.789,0,1,0,.789.789A.79.79,0,0,0,31.368,8.579Z" transform="translate(-29 -7)"/></g></g><g transform="translate(9.895 25.526)"><g transform="translate(17.368)"><path d="M42.474,43.263H33.1a.789.789,0,0,1,0-1.579h9.376A10.275,10.275,0,0,0,52.737,31.421V29.842A10.275,10.275,0,0,0,42.474,19.579H29.842A10.275,10.275,0,0,0,19.579,29.842v1.579a10.268,10.268,0,0,0,.414,2.894.79.79,0,0,1-1.516.445A11.906,11.906,0,0,1,18,31.421V29.842A11.855,11.855,0,0,1,29.842,18H42.474A11.855,11.855,0,0,1,54.316,29.842v1.579A11.855,11.855,0,0,1,42.474,43.263Zm-.789-4.737H37.8a.789.789,0,1,1,0-1.579h3.881a6.316,6.316,0,0,0,0-12.632H30.632a6.317,6.317,0,0,0-5.217,9.878.789.789,0,0,1-1.3.892,7.9,7.9,0,0,1,6.519-12.349H41.684a7.895,7.895,0,1,1,0,15.789Z" transform="translate(-18 -18)"/></g><path d="M31.474,43.263H18.842A11.855,11.855,0,0,1,7,31.421V29.842A11.855,11.855,0,0,1,18.842,18h8.684a.789.789,0,0,1,0,1.579H18.842A10.275,10.275,0,0,0,8.579,29.842v1.579A10.275,10.275,0,0,0,18.842,41.684H31.474A10.275,10.275,0,0,0,41.737,31.421a34.815,34.815,0,0,0-.369-4.328.79.79,0,1,1,1.554-.287,35.764,35.764,0,0,1,.395,4.6A11.858,11.858,0,0,1,31.474,43.263Zm-.789-4.737H19.632a7.895,7.895,0,1,1,0-15.789h3.947a.789.789,0,0,1,0,1.579H19.632a6.316,6.316,0,0,0,0,12.632H30.684a6.317,6.317,0,0,0,5.4-9.6.789.789,0,0,1,1.348-.821,7.9,7.9,0,0,1-6.747,12Z" transform="translate(-7 -18)"/></g></g></svg>