<?xml version="1.0" encoding="UTF-8"?>
<!DOCTYPE svg PUBLIC "-//W3C//DTD SVG 1.1//EN" "http://www.w3.org/Graphics/SVG/1.1/DTD/svg11.dtd">
<svg xmlns="http://www.w3.org/2000/svg" version="1.1" width="125px" height="124px" style="shape-rendering:geometricPrecision; text-rendering:geometricPrecision; image-rendering:optimizeQuality; fill-rule:evenodd; clip-rule:evenodd" xmlns:xlink="http://www.w3.org/1999/xlink">
<g><path style="opacity:1" fill="#af4b6c" d="M 98.5,95.5 C 97.1667,96.1667 96.1667,97.1667 95.5,98.5C 95.1583,99.3382 94.4916,99.6716 93.5,99.5C 92.9569,99.44 92.6236,99.1067 92.5,98.5C 93.1925,97.4822 93.8592,96.4822 94.5,95.5C 94.8333,95.5 95.1667,95.5 95.5,95.5C 96.4907,89.021 96.824,82.3543 96.5,75.5C 88.9809,75.825 81.6476,75.4916 74.5,74.5C 75.8333,72.8333 75.8333,71.1667 74.5,69.5C 81.2741,67.8486 88.2741,66.8486 95.5,66.5C 95.5,51.5 95.5,36.5 95.5,21.5C 96.4816,18.0381 96.815,14.3714 96.5,10.5C 72.3275,10.8309 48.3275,10.4976 24.5,9.5C 49.2918,9.47603 74.2918,9.47603 99.5,9.5C 99.8246,38.2405 99.4913,66.9072 98.5,95.5 Z"/></g>
<g><path style="opacity:1" fill="#a2305c" d="M 24.5,9.5 C 48.3275,10.4976 72.3275,10.8309 96.5,10.5C 96.815,14.3714 96.4816,18.0381 95.5,21.5C 72.5,21.5 49.5,21.5 26.5,21.5C 26.5,36.5 26.5,51.5 26.5,66.5C 33.7259,66.8486 40.7259,67.8486 47.5,69.5C 47.5,70.1667 47.1667,70.5 46.5,70.5C 45.1472,72.1284 45.4805,73.4617 47.5,74.5C 40.6866,75.4912 33.6866,75.8245 26.5,75.5C 25.346,81.987 25.1794,88.6536 26,95.5C 27.0113,96.3366 28.1779,96.67 29.5,96.5C 30.7095,96.9321 31.7095,97.5987 32.5,98.5C 34.0251,101.457 33.3584,102.124 30.5,100.5C 28.847,100.34 27.5137,99.6737 26.5,98.5C 26.0269,97.0937 25.0269,96.427 23.5,96.5C 23.7937,69.6526 23.4603,42.8192 22.5,16C 22.336,13.4563 23.0027,11.2897 24.5,9.5 Z"/></g>
<g><path style="opacity:1" fill="#920043" d="M 26.5,12.5 C 49.5,12.5 72.5,12.5 95.5,12.5C 95.5,15.1667 95.5,17.8333 95.5,20.5C 72.5,20.5 49.5,20.5 26.5,20.5C 26.5,17.8333 26.5,15.1667 26.5,12.5 Z"/></g>
<g><path style="opacity:0.263" fill="#d0d0cd" d="M 73.5,32.5 C 75.0418,33.3007 76.7085,33.634 78.5,33.5C 78.8333,38.8333 79.1667,38.8333 79.5,33.5C 80.5,33.5 81.5,33.5 82.5,33.5C 82.5,35.1667 82.5,36.8333 82.5,38.5C 78.8333,38.5 75.1667,38.5 71.5,38.5C 71.7978,35.6644 71.1311,35.1644 69.5,37C 69.8333,37.3333 70.1667,37.6667 70.5,38C 68.2511,38.8632 66.4178,38.3632 65,36.5C 63.5993,38.1922 61.7659,38.8588 59.5,38.5C 59.1667,34.5 58.8333,34.5 58.5,38.5C 57.5,38.5 56.5,38.5 55.5,38.5C 55.5,36.8333 55.5,35.1667 55.5,33.5C 56.8221,33.33 57.9887,33.6634 59,34.5C 63.9336,33.8563 68.767,33.1897 73.5,32.5 Z M 61.5,35.5 C 62.7733,36.0768 62.7733,36.7435 61.5,37.5C 60.537,37.0302 60.537,36.3635 61.5,35.5 Z"/></g>
<g><path style="opacity:0.204" fill="#cdcec9" d="M 50.5,33.5 C 51.552,33.3505 52.552,33.5172 53.5,34C 51.7718,40.0482 50.7718,39.8816 50.5,33.5 Z"/></g>
<g><path style="opacity:0.243" fill="#cccece" d="M 38.5,32.5 C 39.2216,32.9175 39.7216,33.5842 40,34.5C 43.0567,33.5495 46.2234,33.2161 49.5,33.5C 49.5,35.1667 49.5,36.8333 49.5,38.5C 45.6642,38.1255 41.6642,38.1255 37.5,38.5C 37.8333,36.5 38.1667,34.5 38.5,32.5 Z"/></g>
<g><path style="opacity:0.11" fill="#e5d0cd" d="M 37.5,42.5 C 37.5,44.5 37.5,46.5 37.5,48.5C 36.8333,48.5 36.1667,48.5 35.5,48.5C 36.2178,46.8632 36.3845,45.1966 36,43.5C 35.3333,46.1667 34.6667,46.1667 34,43.5C 33.5,44.5 33,45.5 32.5,46.5C 32.8457,47.6956 33.3457,47.6956 34,46.5C 34.4828,47.448 34.6495,48.448 34.5,49.5C 33.5,49.5 32.5,49.5 31.5,49.5C 31.0074,47.1944 30.6741,44.861 30.5,42.5C 32.8333,42.5 35.1667,42.5 37.5,42.5 Z"/></g>
<g><path style="opacity:0.151" fill="#e6d4d9" d="M 39.5,42.5 C 40.1667,42.5 40.8333,42.5 41.5,42.5C 41.5,44.8333 41.5,47.1667 41.5,49.5C 40.8333,49.5 40.1667,49.5 39.5,49.5C 38.375,48.3478 38.375,47.3478 39.5,46.5C 39.5,46.1667 39.5,45.8333 39.5,45.5C 38.375,44.6522 38.375,43.6522 39.5,42.5 Z"/></g>
<g><path style="opacity:0.706" fill="#c690a6" d="M 41.5,42.5 C 42.5,42.5 43.5,42.5 44.5,42.5C 44.3573,44.2624 44.6906,45.9291 45.5,47.5C 44.6798,49.1112 43.3464,49.7778 41.5,49.5C 41.5,47.1667 41.5,44.8333 41.5,42.5 Z"/></g>
<g><path style="opacity:0.473" fill="#d8aeb7" d="M 53.5,42.5 C 53.3379,44.5273 53.5045,46.5273 54,48.5C 54.2784,47.5842 54.7784,46.9175 55.5,46.5C 55.4142,47.4959 55.7476,48.3292 56.5,49C 53.8333,49.6667 51.1667,49.6667 48.5,49C 47.5769,46.9592 47.2436,44.7925 47.5,42.5C 49.5,42.5 51.5,42.5 53.5,42.5 Z"/></g>
<g><path style="opacity:0.702" fill="#b4749d" d="M 53.5,42.5 C 54.1667,42.5 54.8333,42.5 55.5,42.5C 54.375,43.6522 54.375,44.6522 55.5,45.5C 55.5,45.8333 55.5,46.1667 55.5,46.5C 54.7784,46.9175 54.2784,47.5842 54,48.5C 53.5045,46.5273 53.3379,44.5273 53.5,42.5 Z"/></g>
<g><path style="opacity:0.556" fill="#d2aaba" d="M 55.5,42.5 C 59.3482,42.6886 63.0149,42.6886 66.5,42.5C 67.2978,44.0777 67.7978,45.7444 68,47.5C 68.3333,46.1667 68.6667,44.8333 69,43.5C 69.5613,42.9781 70.228,42.6448 71,42.5C 77.1649,42.583 83.3316,42.583 89.5,42.5C 89.9863,44.8067 89.9863,46.9734 89.5,49C 85.69,49.127 81.69,49.2936 77.5,49.5C 76.9965,45.6646 75.9965,45.6646 74.5,49.5C 71.6127,49.5874 68.6127,49.254 65.5,48.5C 63.7125,45.9108 63.3792,46.0775 64.5,49C 63.2068,49.49 61.8734,49.6567 60.5,49.5C 60.7373,48.209 60.404,47.209 59.5,46.5C 58.9377,44.3345 58.271,44.6678 57.5,47.5C 56.7321,46.7375 56.2321,45.7375 56,44.5C 55.6012,44.7284 55.4346,45.0618 55.5,45.5C 54.375,44.6522 54.375,43.6522 55.5,42.5 Z"/></g>
<g><path style="opacity:0.671" fill="#b47aa0" d="M 35.5,48.5 C 35.5,49.1667 35.1667,49.5 34.5,49.5C 34.6495,48.448 34.4828,47.448 34,46.5C 33.3457,47.6956 32.8457,47.6956 32.5,46.5C 33,45.5 33.5,44.5 34,43.5C 34.6667,46.1667 35.3333,46.1667 36,43.5C 36.3845,45.1966 36.2178,46.8632 35.5,48.5 Z"/></g>
<g><path style="opacity:0.667" fill="#b97695" d="M 37.5,42.5 C 38.1667,42.5 38.8333,42.5 39.5,42.5C 38.375,43.6522 38.375,44.6522 39.5,45.5C 39.5,45.8333 39.5,46.1667 39.5,46.5C 38.375,47.3478 38.375,48.3478 39.5,49.5C 38.5084,49.6716 37.8417,49.3382 37.5,48.5C 37.5,46.5 37.5,44.5 37.5,42.5 Z"/></g>
<g><path style="opacity:0.58" fill="#bd7b9b" d="M 59.5,46.5 C 59.719,47.675 59.3857,48.675 58.5,49.5C 57.7025,49.0431 57.3691,48.3764 57.5,47.5C 58.271,44.6678 58.9377,44.3345 59.5,46.5 Z"/></g>
<g><path style="opacity:0.776" fill="#c67e9c" d="M 65.5,63.5 C 62.0977,63.3424 58.7644,63.6758 55.5,64.5C 55.6107,63.8826 55.944,63.3826 56.5,63C 59.6965,62.1955 62.6965,62.3622 65.5,63.5 Z"/></g>
<g><path style="opacity:0.016" fill="#e4c9d7" d="M 65.5,63.5 C 67.5,63.5 68.5,64.5 68.5,66.5C 67.1667,65.8333 66.1667,64.8333 65.5,63.5 Z"/></g>
<g><path style="opacity:1" fill="#a02e58" d="M 65.5,63.5 C 66.1667,64.8333 67.1667,65.8333 68.5,66.5C 69.8333,69.5 69.8333,72.5 68.5,75.5C 67.1667,76.1667 66.1667,77.1667 65.5,78.5C 60.5572,81.5407 56.3905,80.5407 53,75.5C 50.592,71.0337 51.4253,67.367 55.5,64.5C 58.7644,63.6758 62.0977,63.3424 65.5,63.5 Z M 60.5,67.5 C 60.8333,67.5 61.1667,67.5 61.5,67.5C 62.1667,68.8333 62.8333,70.1667 63.5,71.5C 62.7627,73.3818 61.5961,74.0485 60,73.5C 59.5,72.5 59,71.5 58.5,70.5C 59.6119,69.7348 60.2786,68.7348 60.5,67.5 Z"/></g>
<g><path style="opacity:0.088" fill="#f0e1ea" d="M 26.5,66.5 C 33.8333,66.5 41.1667,66.5 48.5,66.5C 48.7373,67.791 48.404,68.791 47.5,69.5C 40.7259,67.8486 33.7259,66.8486 26.5,66.5 Z"/></g>
<g><path style="opacity:0.087" fill="#efdfe9" d="M 95.5,66.5 C 88.2741,66.8486 81.2741,67.8486 74.5,69.5C 73.596,68.791 73.2627,67.791 73.5,66.5C 80.8333,66.5 88.1667,66.5 95.5,66.5 Z"/></g>
<g><path style="opacity:0.475" fill="#d8a9bf" d="M 61.5,67.5 C 62.9008,67.9709 64.2342,68.6376 65.5,69.5C 65.1445,70.5223 64.4778,71.189 63.5,71.5C 62.8333,70.1667 62.1667,68.8333 61.5,67.5 Z"/></g>
<g><path style="opacity:0.043" fill="#e4cad7" d="M 46.5,70.5 C 46.8333,71.8333 47.1667,73.1667 47.5,74.5C 45.4805,73.4617 45.1472,72.1284 46.5,70.5 Z"/></g>
<g><path style="opacity:0.322" fill="#dab2c5" d="M 89.5,72.5 C 92.1667,72.1667 92.1667,71.8333 89.5,71.5C 91.5403,69.1335 92.5403,69.8001 92.5,73.5C 91.209,73.7373 90.209,73.404 89.5,72.5 Z"/></g>
<g><path style="opacity:0.29" fill="#dcb8c9" d="M 39.5,70.5 C 39.8333,73.1667 40.1667,73.1667 40.5,70.5C 41.404,71.209 41.7373,72.209 41.5,73.5C 40.5,73.5 39.5,73.5 38.5,73.5C 38.2627,72.209 38.596,71.209 39.5,70.5 Z"/></g>
<g><path style="opacity:0.337" fill="#dab6c7" d="M 80.5,70.5 C 81.5,70.5 82.5,70.5 83.5,70.5C 83.5,71.5 83.5,72.5 83.5,73.5C 82.5,73.5 81.5,73.5 80.5,73.5C 80.5,72.5 80.5,71.5 80.5,70.5 Z"/></g>
<g><path style="opacity:0.973" fill="#c47b99" d="M 30.5,72.5 C 29.9569,72.44 29.6236,72.1067 29.5,71.5C 30.6888,70.5713 32.0222,70.238 33.5,70.5C 34.0307,74.7119 33.0307,75.3785 30.5,72.5 Z"/></g>
<g><path style="opacity:0.576" fill="#d8abbf" d="M 60.5,67.5 C 60.2786,68.7348 59.6119,69.7348 58.5,70.5C 59,71.5 59.5,72.5 60,73.5C 61.5961,74.0485 62.7627,73.3818 63.5,71.5C 64.2916,72.9669 64.2916,74.3002 63.5,75.5C 61.8333,74.1667 60.1667,74.1667 58.5,75.5C 55.6276,71.4568 56.2942,68.7902 60.5,67.5 Z"/></g>
<g><path style="opacity:0.251" fill="#e2bdcc" d="M 47.5,74.5 C 48.0431,74.56 48.3764,74.8933 48.5,75.5C 41.1968,76.4973 33.8635,76.8306 26.5,76.5C 26.5,76.1667 26.5,75.8333 26.5,75.5C 33.6866,75.8245 40.6866,75.4912 47.5,74.5 Z"/></g>
<g><path style="opacity:0.043" fill="#e0c4d1" d="M 68.5,75.5 C 68.5,77.5 67.5,78.5 65.5,78.5C 66.1667,77.1667 67.1667,76.1667 68.5,75.5 Z"/></g>
<g><path style="opacity:0.574" fill="#c67a9a" d="M 26.5,75.5 C 26.5,75.8333 26.5,76.1667 26.5,76.5C 26.3338,82.5092 26.5005,88.5092 27,94.5C 27.9947,95.0659 28.828,95.7326 29.5,96.5C 28.1779,96.67 27.0113,96.3366 26,95.5C 25.1794,88.6536 25.346,81.987 26.5,75.5 Z"/></g>
<g><path style="opacity:0.442" fill="#d49cb4" d="M 74.5,74.5 C 81.6476,75.4916 88.9809,75.825 96.5,75.5C 96.824,82.3543 96.4907,89.021 95.5,95.5C 95.5,89.1667 95.5,82.8333 95.5,76.5C 88.1365,76.8306 80.8032,76.4973 73.5,75.5C 73.6236,74.8933 73.9569,74.56 74.5,74.5 Z"/></g>
<g><path style="opacity:0.302" fill="#d6d7d6" d="M 48.5,84.5 C 56.6707,84.6939 64.5041,84.6939 72,84.5C 72.4935,86.1341 72.6602,87.8008 72.5,89.5C 70.1667,88.1667 67.8333,88.1667 65.5,89.5C 65.3178,84.2063 64.8178,84.2063 64,89.5C 63.1822,84.2063 62.6822,84.2063 62.5,89.5C 61.5,89.5 60.5,89.5 59.5,89.5C 59.1667,84.1667 58.8333,84.1667 58.5,89.5C 55.1105,89.6321 51.7772,89.7988 48.5,90C 47.2475,88.1722 47.2475,86.3388 48.5,84.5 Z"/></g>
<g><path style="opacity:0.322" fill="#d7adc2" d="M 23.5,96.5 C 25.0269,96.427 26.0269,97.0937 26.5,98.5C 24.9731,98.573 23.9731,97.9063 23.5,96.5 Z"/></g>
<g><path style="opacity:0.572" fill="#cf9daf" d="M 62.5,96.5 C 62.1667,101.833 61.8333,101.833 61.5,96.5C 58.9407,96.1984 56.6074,96.5318 54.5,97.5C 54.5,99.5 54.5,101.5 54.5,103.5C 56.5,103.5 58.5,103.5 60.5,103.5C 62.2027,102.34 62.8693,103.007 62.5,105.5C 59.4816,105.665 56.4816,105.498 53.5,105C 52.5495,101.943 52.2161,98.7766 52.5,95.5C 56.0419,95.1872 59.3752,95.5206 62.5,96.5 Z"/></g>
<g><path style="opacity:0.059" fill="#e2c7d3" d="M 98.5,95.5 C 98.5,97.5 97.5,98.5 95.5,98.5C 96.1667,97.1667 97.1667,96.1667 98.5,95.5 Z"/></g>
<g><path style="opacity:0.153" fill="#d5ccd0" d="M 54.5,97.5 C 56.6074,96.5318 58.9407,96.1984 61.5,96.5C 61.8333,101.833 62.1667,101.833 62.5,96.5C 63.404,97.209 63.7373,98.209 63.5,99.5C 66.5,99.5 69.5,99.5 72.5,99.5C 72.5,100.5 72.5,101.5 72.5,102.5C 69.5,102.5 66.5,102.5 63.5,102.5C 63.7373,103.791 63.404,104.791 62.5,105.5C 62.8693,103.007 62.2027,102.34 60.5,103.5C 54.1503,101.804 54.1503,100.137 60.5,98.5C 58.604,97.5344 56.604,97.2011 54.5,97.5 Z"/></g>
<g><path style="opacity:0.384" fill="#d59cb2" d="M 32.5,98.5 C 34.0269,98.427 35.0269,99.0937 35.5,100.5C 34.9569,100.56 34.6236,100.893 34.5,101.5C 35.1925,102.518 35.8592,103.518 36.5,104.5C 34.1475,103.66 32.1475,102.326 30.5,100.5C 33.3584,102.124 34.0251,101.457 32.5,98.5 Z"/></g>
<g><path style="opacity:1" fill="#b8607e" d="M 94.5,95.5 C 93.8592,96.4822 93.1925,97.4822 92.5,98.5C 92.6236,99.1067 92.9569,99.44 93.5,99.5C 83.5828,106.713 73.0828,113.046 62,118.5C 53.2578,114.213 44.7578,109.547 36.5,104.5C 35.8592,103.518 35.1925,102.518 34.5,101.5C 34.6236,100.893 34.9569,100.56 35.5,100.5C 44.4893,105.148 53.4893,109.815 62.5,114.5C 73.5144,108.663 84.1811,102.33 94.5,95.5 Z"/></g>
</svg>
