<svg xmlns="http://www.w3.org/2000/svg" width="60.007" height="60" viewBox="0 0 60.007 60"><g transform="translate(-5431.999 -7027.03)"><path d="M-18.317-9.159a.883.883,0,0,1-.883.883.883.883,0,0,1-.883-.883.883.883,0,0,1,.883-.883.883.883,0,0,1,.883.883" transform="translate(5496.548 7041.66)"/><path d="M-18.319-9.159a.883.883,0,0,1-.883.883.883.883,0,0,1-.883-.883.883.883,0,0,1,.883-.883.883.883,0,0,1,.883.883" transform="translate(5500.392 7041.66)"/><path d="M-18.319-9.159a.883.883,0,0,1-.883.883.883.883,0,0,1-.883-.883.883.883,0,0,1,.883-.883.883.883,0,0,1,.883.883" transform="translate(5504.233 7041.66)"/><path d="M-29.1-6.486a.876.876,0,0,1-.622-.257.879.879,0,0,1,0-1.243l1.756-1.756a.879.879,0,0,1,1.243,0,.879.879,0,0,1,0,1.243l-1.756,1.756A.876.876,0,0,1-29.1-6.486Z" transform="translate(5482.812 7076.863)"/><path d="M-9.121-56a.876.876,0,0,1-.622-.258.879.879,0,0,1,0-1.243l4.616-4.6a.879.879,0,0,1,1.243,0,.879.879,0,0,1,0,1.243L-8.5-56.26A.876.876,0,0,1-9.121-56Z" transform="translate(5461.087 7133.948)"/><path d="M17.368-8.242H-9.121A.879.879,0,0,1-10-9.121.879.879,0,0,1-9.121-10H17.368a.879.879,0,0,1,.879.879A.879.879,0,0,1,17.368-8.242Z" transform="translate(5452.354 7041.818)"/><path d="M44.963-8.242H-9.121A.879.879,0,0,1-10-9.121.879.879,0,0,1-9.121-10H44.963a.879.879,0,0,1,.879.879A.879.879,0,0,1,44.963-8.242Z" transform="translate(5446.164 7046.214)"/><path d="M-241.292-505.167h-26.826a.879.879,0,0,1-.879-.879.879.879,0,0,1,.879-.879h26.826a1.421,1.421,0,0,0,1.42-1.42v-43.292a1.421,1.421,0,0,0-1.42-1.42h-49.487a1.421,1.421,0,0,0-1.42,1.42v35.226a.879.879,0,0,1-.879.879.879.879,0,0,1-.879-.879v-35.226a3.181,3.181,0,0,1,3.178-3.178h49.487a3.181,3.181,0,0,1,3.178,3.178v43.292A3.181,3.181,0,0,1-241.292-505.167Z" transform="translate(5730.12 7581.845)"/><path d="M-109.8-241.819a.879.879,0,0,1-.825-.575.879.879,0,0,1,.52-1.129,9.121,9.121,0,0,1,1.863-.473l1.51-.216a7.419,7.419,0,0,0,4.168-2.085l4.236-4.236a1.224,1.224,0,0,0,.087-1.659,1.176,1.176,0,0,0-.761-.386.89.89,0,0,1-.745-.579.89.89,0,0,1,.206-.927l8.1-8.1a1.183,1.183,0,0,0,.067-1.594,1.139,1.139,0,0,0-.831-.4,1.274,1.274,0,0,0-.947.378l-6.256,6.256a.879.879,0,0,1-1.243,0,.879.879,0,0,1-.017-1.226l.031-.034a1.171,1.171,0,0,0,.329-.844,1.169,1.169,0,0,0-.367-.827,1.21,1.21,0,0,0-1.676.055l-1.4,1.4a.879.879,0,0,1-1.243,0,.879.879,0,0,1,0-1.243,1.169,1.169,0,0,0,.345-.848,1.17,1.17,0,0,0-.368-.84,1.21,1.21,0,0,0-1.676.055l-.808.808a.879.879,0,0,1-1.243,0,.879.879,0,0,1,0-1.243l0,0a1.169,1.169,0,0,0,.343-.846,1.17,1.17,0,0,0-.368-.84,1.21,1.21,0,0,0-1.676.055l-4.717,4.717a7.324,7.324,0,0,0-1.631,2.475l-1.69,4.169q-.054.134-.114.265a.875.875,0,0,1-.255.554.879.879,0,0,1-1.243,0,.958.958,0,0,1-.21-1.058c.069-.138.135-.278.193-.421l1.689-4.165a9.067,9.067,0,0,1,2.019-3.061l4.717-4.717a2.979,2.979,0,0,1,4.13-.086,2.916,2.916,0,0,1,.829,1.42,2.947,2.947,0,0,1,2.92.648,2.926,2.926,0,0,1,.744,1.138,2.97,2.97,0,0,1,3.6.334,2.928,2.928,0,0,1,.715,1.06l4.353-4.353a3.036,3.036,0,0,1,2.262-.891,2.878,2.878,0,0,1,2.1,1.024,2.951,2.951,0,0,1-.164,3.975l-7.177,7.177a2.943,2.943,0,0,1,.439.4,2.966,2.966,0,0,1-.153,4.076l-4.236,4.236a9.189,9.189,0,0,1-5.161,2.582l-1.51.216a7.359,7.359,0,0,0-1.5.381A.877.877,0,0,1-109.8-241.819Z" transform="translate(5555.497 7325.915)"/><path d="M-11.168-45.831a2.151,2.151,0,0,1,1.531.634l9.5,9.5a2.168,2.168,0,0,1,0,3.063l-.953.953a2.151,2.151,0,0,1-1.531.634,2.151,2.151,0,0,1-1.531-.634l-9.5-9.5a2.151,2.151,0,0,1-.634-1.531,2.151,2.151,0,0,1,.634-1.531l.953-.953A2.151,2.151,0,0,1-11.168-45.831Zm8.543,13.023a.406.406,0,0,0,.288-.119l.953-.953a.408.408,0,0,0,0-.576l-9.5-9.5a.406.406,0,0,0-.288-.119.406.406,0,0,0-.288.119L-12.41-43a.406.406,0,0,0-.119.288.406.406,0,0,0,.119.288l9.5,9.5A.406.406,0,0,0-2.625-32.808Z" transform="translate(5446.286 7118.081)"/><path d="M-115.278-261.533a2.156,2.156,0,0,1-1.529-.63,2.156,2.156,0,0,1-.641-1.533.413.413,0,0,0-.058-.209.879.879,0,0,1,.309-1.2.879.879,0,0,1,1.2.309,2.171,2.171,0,0,1,.3,1.1.411.411,0,0,0,.122.292.411.411,0,0,0,.292.12l2.933-.01a.413.413,0,0,0,.411-.414,2.167,2.167,0,0,1,1.468-2.061,10.439,10.439,0,0,0,1.288-.538,2.166,2.166,0,0,1,2.5.4.413.413,0,0,0,.583,0l2.067-2.081a.413.413,0,0,0,0-.583,2.166,2.166,0,0,1-.42-2.492,10.425,10.425,0,0,0,.529-1.291,2.167,2.167,0,0,1,2.05-1.482.411.411,0,0,0,.292-.122.411.411,0,0,0,.12-.292l-.01-2.933a.413.413,0,0,0-.414-.411,2.166,2.166,0,0,1-2.061-1.468,10.436,10.436,0,0,0-.538-1.288,2.166,2.166,0,0,1,.4-2.5.411.411,0,0,0,.12-.292.411.411,0,0,0-.122-.291l-2.081-2.066a.411.411,0,0,0-.292-.12.41.41,0,0,0-.291.122,2.166,2.166,0,0,1-2.492.421,10.425,10.425,0,0,0-1.291-.529,2.167,2.167,0,0,1-1.482-2.05.413.413,0,0,0-.414-.411l-2.933.01a.411.411,0,0,0-.291.122.411.411,0,0,0-.12.292,2.168,2.168,0,0,1-1.468,2.061,10.437,10.437,0,0,0-1.288.538,2.166,2.166,0,0,1-2.5-.4.413.413,0,0,0-.583,0l-2.066,2.081a.413.413,0,0,0,0,.583,2.166,2.166,0,0,1,.421,2.492,10.423,10.423,0,0,0-.529,1.292,2.167,2.167,0,0,1-2.05,1.482.413.413,0,0,0-.411.414l.01,2.933a.411.411,0,0,0,.122.291.411.411,0,0,0,.292.12,2.168,2.168,0,0,1,2.061,1.468,10.433,10.433,0,0,0,.538,1.288,2.165,2.165,0,0,1-.17,2.217,2.889,2.889,0,0,1,1.489.749,2.915,2.915,0,0,1,.688,3.255.879.879,0,0,1-1.149.474.879.879,0,0,1-.474-1.149,1.169,1.169,0,0,0-.275-1.305,1.176,1.176,0,0,0-1.182-.248.879.879,0,0,1-.681-.056.879.879,0,0,1-.435-.527,2.17,2.17,0,0,1,.539-2.154.409.409,0,0,0,.078-.471,12.2,12.2,0,0,1-.629-1.505.411.411,0,0,0-.391-.278,2.157,2.157,0,0,1-1.537-.63,2.156,2.156,0,0,1-.641-1.533L-128-277.1a2.173,2.173,0,0,1,2.163-2.178.411.411,0,0,0,.389-.28,12.188,12.188,0,0,1,.619-1.51.409.409,0,0,0-.081-.47,2.173,2.173,0,0,1-.011-3.07l2.066-2.081a2.173,2.173,0,0,1,3.069-.011.409.409,0,0,0,.471.078,12.2,12.2,0,0,1,1.505-.629.411.411,0,0,0,.277-.391,2.173,2.173,0,0,1,2.163-2.179l2.933-.01a2.174,2.174,0,0,1,2.178,2.163.411.411,0,0,0,.28.389,12.191,12.191,0,0,1,1.51.619.409.409,0,0,0,.47-.081,2.156,2.156,0,0,1,1.533-.641,2.155,2.155,0,0,1,1.537.631l2.081,2.066a2.156,2.156,0,0,1,.641,1.532,2.156,2.156,0,0,1-.63,1.537.409.409,0,0,0-.078.471,12.2,12.2,0,0,1,.629,1.506.411.411,0,0,0,.391.277,2.173,2.173,0,0,1,2.179,2.163l.01,2.933a2.173,2.173,0,0,1-2.163,2.178.411.411,0,0,0-.389.28,12.188,12.188,0,0,1-.619,1.51.409.409,0,0,0,.081.47,2.173,2.173,0,0,1,.011,3.07l-2.067,2.081a2.173,2.173,0,0,1-3.069.011.409.409,0,0,0-.471-.078,12.206,12.206,0,0,1-1.506.629.41.41,0,0,0-.277.391,2.173,2.173,0,0,1-2.163,2.179l-2.933.01Z" transform="translate(5577.938 7332.196)"/><path d="M-39.035-124.032a.879.879,0,0,1-.862-.714.879.879,0,0,1,.7-1.029,5.018,5.018,0,0,0,2.627-1.4,5.052,5.052,0,0,0-.025-7.136,5.052,5.052,0,0,0-7.137.025,5.052,5.052,0,0,0,.025,7.137,5.046,5.046,0,0,0,1.279.923.879.879,0,0,1,.387,1.181.879.879,0,0,1-1.181.387,6.8,6.8,0,0,1-1.724-1.244,6.812,6.812,0,0,1-.034-9.623,6.812,6.812,0,0,1,9.623-.034,6.812,6.812,0,0,1,.034,9.623,6.769,6.769,0,0,1-3.544,1.887A.884.884,0,0,1-39.035-124.032Z" transform="translate(5504.238 7187.246)"/></g></svg>