<?xml version="1.0" encoding="utf-8"?>
<!-- Generator: Adobe Illustrator 26.0.0, SVG Export Plug-In . SVG Version: 6.00 Build 0)  -->
<svg version="1.1" id="Layer_1" xmlns="http://www.w3.org/2000/svg" xmlns:xlink="http://www.w3.org/1999/xlink" x="0px" y="0px"
	 viewBox="0 0 779.4 138.9" style="enable-background:new 0 0 779.4 138.9;" xml:space="preserve">
<style type="text/css">
	.st0{fill-rule:evenodd;clip-rule:evenodd;fill:#FF9900;}
	.st1{fill-rule:evenodd;clip-rule:evenodd;}
	.st2{enable-background:new    ;}
	.st3{fill:#FF9900;}
</style>
<g>
	<g>
		<path class="st0" d="M232.5,93.7c-16.5,12.2-40.5,18.7-61.2,18.7c-29,0-55-10.7-74.8-28.5c-1.5-1.4-0.2-3.3,1.7-2.2
			c21.3,12.4,47.6,19.8,74.8,19.8c18.3,0,38.5-3.8,57.1-11.7C232.9,88.6,235.3,91.7,232.5,93.7z"/>
		<path class="st0" d="M239.4,85.8c-2.1-2.7-14-1.3-19.3-0.6c-1.6,0.2-1.9-1.2-0.4-2.2c9.5-6.7,25-4.7,26.8-2.5s-0.5,17.8-9.4,25.2
			c-1.4,1.1-2.7,0.5-2.1-1C237.1,99.7,241.5,88.5,239.4,85.8z"/>
	</g>
	<path class="st1" d="M220.5,35.9v-6.5c0-1,0.7-1.6,1.6-1.6h29c0.9,0,1.7,0.7,1.7,1.6v5.5c0,0.9-0.8,2.1-2.2,4.1l-15,21.4
		c5.6-0.1,11.5,0.7,16.5,3.5c1.1,0.6,1.4,1.6,1.5,2.5v6.9c0,1-1,2.1-2.1,1.5c-8.9-4.7-20.8-5.2-30.6,0.1c-1,0.5-2.1-0.5-2.1-1.5V67
		c0-1,0-2.8,1.1-4.4l17.4-24.9h-15.1C221.2,37.6,220.5,36.9,220.5,35.9z"/>
	<path class="st1" d="M114.8,76.3H106c-0.8-0.1-1.5-0.7-1.6-1.5V29.6c0-0.9,0.8-1.6,1.7-1.6h8.2c0.9,0,1.5,0.7,1.6,1.5v5.9h0.2
		c2.1-5.7,6.2-8.4,11.6-8.4c5.5,0,9,2.7,11.4,8.4c2.1-5.7,7-8.4,12.2-8.4c3.7,0,7.7,1.5,10.2,5c2.8,3.8,2.2,9.3,2.2,14.2v28.6
		c0,0.9-0.8,1.6-1.7,1.6h-8.8c-0.9-0.1-1.6-0.8-1.6-1.6v-24c0-1.9,0.2-6.7-0.2-8.5c-0.7-3-2.6-3.9-5.2-3.9c-2.1,0-4.4,1.4-5.3,3.7
		c-0.9,2.3-0.8,6.1-0.8,8.7v24c0,0.9-0.8,1.6-1.7,1.6h-8.8c-0.9-0.1-1.6-0.8-1.6-1.6v-24c0-5,0.8-12.5-5.4-12.5
		c-6.3,0-6.1,7.2-6.1,12.5v24C116.5,75.6,115.7,76.3,114.8,76.3z"/>
	<path class="st1" d="M277.7,27c13.1,0,20.2,11.2,20.2,25.5c0,13.8-7.8,24.8-20.2,24.8c-12.8,0-19.8-11.2-19.8-25.2
		C257.9,37.9,264.9,27,277.7,27z M277.8,36.2c-6.5,0-6.9,8.9-6.9,14.4s-0.1,17.3,6.8,17.3c6.8,0,7.2-9.5,7.2-15.3
		c0-3.8-0.2-8.4-1.3-12C282.5,37.5,280.6,36.2,277.8,36.2z"/>
	<path class="st1" d="M314.8,76.3H306c-0.9-0.1-1.6-0.8-1.6-1.6V29.4c0.1-0.8,0.8-1.5,1.7-1.5h8.2c0.8,0,1.4,0.6,1.6,1.3v6.9h0.2
		c2.5-6.2,5.9-9.1,12-9.1c3.9,0,7.8,1.4,10.3,5.3c2.3,3.6,2.3,9.7,2.3,14.1v28.5c-0.1,0.8-0.8,1.4-1.7,1.4h-8.8
		c-0.8-0.1-1.5-0.7-1.6-1.4V50.3c0-5,0.6-12.2-5.5-12.2c-2.1,0-4.1,1.4-5.1,3.6c-1.2,2.8-1.4,5.5-1.4,8.6v24.4
		C316.5,75.6,315.8,76.3,314.8,76.3z"/>
	<path class="st1" d="M197.4,54.7c0,3.4,0.1,6.3-1.6,9.4c-1.4,2.5-3.6,4-6.1,4c-3.4,0-5.4-2.6-5.4-6.4c0-7.5,6.7-8.9,13.1-8.9V54.7z
		 M206.2,76.2c-0.6,0.5-1.4,0.6-2.1,0.2c-2.9-2.4-3.5-3.6-5.1-5.9c-4.8,4.9-8.3,6.4-14.5,6.4c-7.4,0-13.2-4.6-13.2-13.7
		c0-7.2,3.9-12,9.4-14.4c4.8-2.1,11.5-2.5,16.6-3.1v-1.1c0-2.1,0.2-4.6-1.1-6.4c-1.1-1.6-3.1-2.3-4.9-2.3c-3.4,0-6.4,1.7-7.1,5.3
		c-0.2,0.8-0.7,1.6-1.5,1.6l-8.5-0.9c-0.7-0.2-1.5-0.7-1.3-1.8c2-10.4,11.3-13.5,19.7-13.5c4.3,0,9.9,1.1,13.3,4.4
		c4.3,4,3.9,9.4,3.9,15.2v13.7c0,4.1,1.7,5.9,3.3,8.2c0.6,0.8,0.7,1.8,0,2.3C211.2,71.9,208,74.6,206.2,76.2L206.2,76.2z"/>
	<path class="st1" d="M81.8,54.7c0,3.4,0.1,6.3-1.6,9.4c-1.4,2.5-3.6,4-6.1,4c-3.4,0-5.4-2.6-5.4-6.4c0-7.5,6.7-8.9,13.1-8.9V54.7z
		 M90.7,76.2c-0.6,0.5-1.4,0.6-2.1,0.2c-2.9-2.4-3.5-3.6-5.1-5.9c-4.8,4.9-8.3,6.4-14.5,6.4c-7.4,0-13.2-4.6-13.2-13.7
		c0-7.2,3.9-12,9.4-14.4c4.8-2.1,11.5-2.5,16.6-3.1v-1.1c0-2.1,0.2-4.6-1.1-6.4c-1.1-1.6-3.1-2.3-4.9-2.3c-3.4,0-6.4,1.7-7.1,5.3
		c-0.2,0.8-0.7,1.6-1.5,1.6l-8.5-0.9c-0.7-0.2-1.5-0.7-1.3-1.8c2-10.4,11.3-13.5,19.7-13.5c4.3,0,9.9,1.1,13.3,4.4
		c4.3,4,3.9,9.4,3.9,15.2v13.7c0,4.1,1.7,5.9,3.3,8.2c0.6,0.8,0.7,1.8,0,2.3C95.7,71.9,92.5,74.6,90.7,76.2L90.7,76.2z"/>
</g>
<g class="st2">
	<path class="st3" d="M363.3,43.3c1.5-2.8,3.5-4.9,6.1-6.5c2.6-1.5,5.6-2.3,8.9-2.3c3.4,0,6.4,0.8,8.9,2.4c2.5,1.6,4.3,3.6,5.4,6.1
		v-7.9h4.6v36h-4.6v-8c-1.1,2.5-3,4.5-5.4,6.1c-2.5,1.6-5.4,2.4-8.9,2.4c-3.3,0-6.2-0.8-8.8-2.3c-2.6-1.5-4.7-3.7-6.1-6.5
		c-1.5-2.8-2.2-6.1-2.2-9.8S361.8,46.1,363.3,43.3z M390.8,45.5c-1.2-2.2-2.8-3.9-4.9-5.1c-2-1.2-4.3-1.8-6.8-1.8
		c-2.6,0-4.8,0.6-6.9,1.7c-2,1.1-3.6,2.8-4.8,5c-1.2,2.2-1.7,4.8-1.7,7.8c0,2.9,0.6,5.5,1.7,7.8c1.2,2.2,2.8,3.9,4.8,5.1
		c2,1.2,4.3,1.7,6.9,1.7c2.5,0,4.7-0.6,6.8-1.8c2-1.2,3.7-2.9,4.9-5.1c1.2-2.2,1.8-4.8,1.8-7.7C392.6,50.2,392,47.7,390.8,45.5z"/>
	<path class="st3" d="M407.9,43.3c1.5-2.8,3.6-4.9,6.2-6.5c2.6-1.5,5.6-2.3,8.9-2.3c3.2,0,6,0.8,8.6,2.3c2.6,1.5,4.4,3.5,5.6,6V22.3
		h4.6v48.8h-4.6v-8.1c-1.1,2.5-2.9,4.6-5.4,6.2c-2.5,1.6-5.5,2.4-8.8,2.4c-3.3,0-6.3-0.8-8.9-2.3c-2.6-1.5-4.7-3.7-6.1-6.5
		c-1.5-2.8-2.2-6.1-2.2-9.8S406.4,46.1,407.9,43.3z M435.3,45.5c-1.2-2.2-2.8-3.9-4.9-5.1c-2-1.2-4.3-1.8-6.8-1.8
		c-2.6,0-4.8,0.6-6.9,1.7c-2,1.1-3.6,2.8-4.8,5s-1.7,4.8-1.7,7.8c0,2.9,0.6,5.5,1.7,7.8c1.2,2.2,2.8,3.9,4.8,5.1
		c2,1.2,4.3,1.7,6.9,1.7c2.5,0,4.7-0.6,6.8-1.8c2-1.2,3.7-2.9,4.9-5.1c1.2-2.2,1.8-4.8,1.8-7.7C437.1,50.2,436.5,47.7,435.3,45.5z"
		/>
	<path class="st3" d="M465.1,66.7l12.1-31.5h4.9l-14.5,36h-5.2l-14.5-36h5L465.1,66.7z"/>
	<path class="st3" d="M520.9,54.9H491c0.1,2.7,0.8,5.1,2,7c1.2,1.9,2.8,3.4,4.7,4.4c1.9,1,4,1.5,6.3,1.5c3,0,5.5-0.7,7.6-2.2
		s3.4-3.4,4.1-5.9h4.9c-0.9,3.5-2.8,6.4-5.6,8.6s-6.5,3.3-10.9,3.3c-3.4,0-6.4-0.8-9.1-2.3c-2.7-1.5-4.8-3.7-6.3-6.5
		c-1.5-2.8-2.3-6.1-2.3-9.8c0-3.7,0.7-7,2.2-9.8c1.5-2.8,3.6-5,6.3-6.5c2.7-1.5,5.7-2.2,9.2-2.2c3.4,0,6.4,0.7,9,2.2
		c2.6,1.5,4.6,3.5,5.9,6c1.4,2.5,2.1,5.3,2.1,8.4C521,52.9,520.9,54.1,520.9,54.9z M514.7,44.3c-1.1-1.9-2.7-3.3-4.6-4.3
		c-1.9-1-4-1.5-6.3-1.5c-3.4,0-6.4,1.1-8.8,3.3s-3.8,5.3-4,9.3h25.3C516.4,48.5,515.8,46.2,514.7,44.3z"/>
	<path class="st3" d="M538.7,36.3c2.1-1.2,4.7-1.8,7.7-1.8v4.8h-1.3c-3.3,0-6,0.9-8.1,2.7c-2,1.8-3,4.8-3,9v20.1h-4.6v-36h4.6v6.4
		C535.1,39.3,536.6,37.5,538.7,36.3z"/>
	<path class="st3" d="M559.3,39v22.4c0,2.2,0.4,3.7,1.3,4.6c0.8,0.8,2.3,1.3,4.4,1.3h4.2v4h-5c-3.3,0-5.7-0.8-7.3-2.3
		c-1.6-1.5-2.4-4-2.4-7.5V39h-5v-3.9h5v-9h4.7v9h9.9V39H559.3z"/>
	<path class="st3" d="M576.8,27.3c-0.7-0.7-1-1.5-1-2.4s0.3-1.8,1-2.4s1.5-1,2.4-1s1.7,0.3,2.4,1s1,1.4,1,2.4s-0.3,1.8-1,2.4
		s-1.5,1-2.4,1S577.4,28,576.8,27.3z M581.4,35.1v36h-4.6v-36H581.4z"/>
	<path class="st3" d="M594.2,68.8c-2.6-1.9-4.1-4.5-4.4-7.8h4.8c0.2,2,1.2,3.7,2.9,4.9c1.7,1.3,4,1.9,6.8,1.9c2.5,0,4.5-0.6,5.9-1.8
		c1.4-1.2,2.1-2.7,2.1-4.4c0-1.2-0.4-2.2-1.2-3s-1.8-1.4-3-1.9c-1.2-0.5-2.8-1-4.9-1.5c-2.7-0.7-4.9-1.4-6.5-2.1
		c-1.7-0.7-3.1-1.7-4.3-3.1c-1.2-1.4-1.7-3.2-1.7-5.6c0-1.8,0.5-3.4,1.6-4.9s2.6-2.7,4.5-3.6c1.9-0.9,4.1-1.3,6.6-1.3
		c3.9,0,7,1,9.4,2.9c2.4,2,3.7,4.7,3.8,8.1h-4.6c-0.1-2.1-1-3.8-2.5-5.1c-1.5-1.3-3.6-1.9-6.2-1.9c-2.3,0-4.2,0.5-5.7,1.6
		c-1.5,1.1-2.2,2.5-2.2,4.1c0,1.4,0.4,2.6,1.3,3.5c0.9,0.9,1.9,1.6,3.2,2.1c1.3,0.5,3,1.1,5.1,1.7c2.6,0.7,4.7,1.4,6.2,2
		c1.5,0.7,2.9,1.6,4,2.9c1.1,1.3,1.7,3,1.7,5.1c0,1.9-0.5,3.7-1.6,5.2c-1.1,1.5-2.5,2.7-4.4,3.6c-1.9,0.9-4.1,1.3-6.5,1.3
		C600.2,71.7,596.8,70.7,594.2,68.8z"/>
	<path class="st3" d="M625.5,27.3c-0.7-0.7-1-1.5-1-2.4s0.3-1.8,1-2.4s1.5-1,2.4-1s1.7,0.3,2.4,1s1,1.4,1,2.4s-0.3,1.8-1,2.4
		s-1.5,1-2.4,1S626.2,28,625.5,27.3z M630.2,35.1v36h-4.6v-36H630.2z"/>
	<path class="st3" d="M668.2,38.4c2.7,2.7,4.1,6.5,4.1,11.6v21.1h-4.6V50.6c0-3.9-1-6.9-2.9-9c-2-2.1-4.6-3.1-8-3.1
		c-3.5,0-6.2,1.1-8.3,3.3c-2.1,2.2-3.1,5.4-3.1,9.7v19.7h-4.6v-36h4.6v6.1c1.1-2.2,2.8-3.9,5-5c2.2-1.2,4.6-1.7,7.3-1.7
		C661.9,34.5,665.4,35.8,668.2,38.4z"/>
	<path class="st3" d="M706.5,37c2.5,1.6,4.3,3.6,5.4,6v-7.9h4.6v37c0,3.3-0.7,6.2-2.1,8.8c-1.4,2.6-3.4,4.5-6,5.9
		c-2.6,1.4-5.5,2.1-8.7,2.1c-4.6,0-8.5-1.1-11.5-3.3c-3.1-2.2-5-5.2-5.7-9h4.6c0.8,2.5,2.3,4.5,4.5,6c2.2,1.5,4.9,2.2,8.2,2.2
		c2.3,0,4.4-0.5,6.3-1.5c1.8-1,3.3-2.5,4.4-4.4c1.1-1.9,1.6-4.2,1.6-6.9v-8.9c-1.1,2.5-3,4.5-5.4,6.1c-2.5,1.6-5.4,2.4-8.8,2.4
		c-3.3,0-6.3-0.8-8.9-2.3c-2.6-1.5-4.7-3.7-6.1-6.5c-1.5-2.8-2.2-6.1-2.2-9.8s0.7-6.9,2.2-9.7c1.5-2.8,3.5-4.9,6.1-6.5
		c2.6-1.5,5.6-2.3,8.9-2.3C701,34.6,703.9,35.4,706.5,37z M710.1,45.5c-1.2-2.2-2.8-3.9-4.9-5.1c-2-1.2-4.3-1.8-6.8-1.8
		c-2.6,0-4.8,0.6-6.9,1.7c-2,1.1-3.6,2.8-4.8,5c-1.2,2.2-1.7,4.8-1.7,7.8c0,2.9,0.6,5.5,1.7,7.8c1.2,2.2,2.8,3.9,4.8,5.1
		c2,1.2,4.3,1.7,6.9,1.7c2.5,0,4.7-0.6,6.8-1.8c2-1.2,3.7-2.9,4.9-5.1c1.2-2.2,1.8-4.8,1.8-7.7C711.9,50.2,711.3,47.7,710.1,45.5z"
		/>
</g>
</svg>
