
<svg xmlns="http://www.w3.org/2000/svg" width="50" height="50" viewBox="0 0 50 50" fill="none"><rect width="50" height="50" rx="6" fill="#edb91b"/><path d="M20.677 33.2242H34.7946V31.8878H21.7267L18.5703 18.9465H14.6815V20.2829H17.5206L20.677 33.2242Z" fill="url(#paint0_linear_4_569)"/><path d="M23.9323 35.6569C23.9323 36.431 23.3048 37.0586 22.5307 37.0586C21.7566 37.0586 21.129 36.431 21.129 35.6569C21.129 34.8828 21.7566 34.2552 22.5307 34.2552C23.3048 34.2552 23.9323 34.8828 23.9323 35.6569Z" fill="url(#paint1_linear_4_569)"/><path d="M33.4635 37.0586C34.2376 37.0586 34.8652 36.431 34.8652 35.6569C34.8652 34.8828 34.2376 34.2552 33.4635 34.2552C32.6895 34.2552 32.0619 34.8828 32.0619 35.6569C32.0619 36.431 32.6895 37.0586 33.4635 37.0586Z" fill="url(#paint2_linear_4_569)"/><path d="M14.0671 25.0657H16.59V23.7294H14.0671V25.0657Z" fill="url(#paint3_linear_4_569)"/><path d="M18.272 30.7799H13.5064V29.4435H18.272V30.7799Z" fill="url(#paint4_linear_4_569)"/><path d="M11.8244 27.9765H17.431V26.6401H11.8244V27.9765Z" fill="url(#paint5_linear_4_569)"/><path d="M22.7481 30.5387L20.4809 21.2639H38L36.9695 29.9204L22.7481 30.5387Z" fill="url(#paint6_linear_4_569)"/><path d="M11 14.4122C11 14.1845 11.1846 14 11.4122 14H18.8321C19.0597 14 19.2443 14.1845 19.2443 14.4122C19.2443 14.6399 19.0597 14.8244 18.8321 14.8244H11.4122C11.1846 14.8244 11 14.6399 11 14.4122Z" fill="white"/><path d="M11 16.0611C11 15.8334 11.1846 15.6489 11.4122 15.6489H14.2977C14.5254 15.6489 14.7099 15.8334 14.7099 16.0611C14.7099 16.2887 14.5254 16.4733 14.2977 16.4733H11.4122C11.1846 16.4733 11 16.2887 11 16.0611Z" fill="white"/><defs><linearGradient id="paint0_linear_4_569" x1="27.5847" y1="24.9839" x2="41.2714" y2="4.48863" gradientUnits="userSpaceOnUse"><stop stop-color="white"/></linearGradient><linearGradient id="paint1_linear_4_569" x1="27.5847" y1="24.9839" x2="41.2714" y2="4.48863" gradientUnits="userSpaceOnUse"><stop stop-color="white"/><stop offset="1" stop-color="#6ADFD7" stop-opacity="0"/></linearGradient><linearGradient id="paint2_linear_4_569" x1="27.5847" y1="24.9839" x2="41.2714" y2="4.48863" gradientUnits="userSpaceOnUse"><stop stop-color="white"/><stop offset="1" stop-color="#6ADFD7" stop-opacity="0"/></linearGradient><linearGradient id="paint3_linear_4_569" x1="27.5847" y1="24.9839" x2="41.2714" y2="4.48867" gradientUnits="userSpaceOnUse"><stop stop-color="white"/></linearGradient><linearGradient id="paint4_linear_4_569" x1="27.5847" y1="24.9839" x2="41.2714" y2="4.48871" gradientUnits="userSpaceOnUse"><stop stop-color="white"/></linearGradient><linearGradient id="paint5_linear_4_569" x1="27.5847" y1="24.9839" x2="41.2714" y2="4.48863" gradientUnits="userSpaceOnUse"><stop stop-color="white"/></linearGradient><linearGradient id="paint6_linear_4_569" x1="32.7463" y1="24.3555" x2="38.3354" y2="11.6358" gradientUnits="userSpaceOnUse"><stop stop-color="white"/></linearGradient></defs></svg>