<?xml version="1.0" encoding="utf-8"?>
<!-- Generator: Adobe Illustrator 26.0.0, SVG Export Plug-In . SVG Version: 6.00 Build 0)  -->
<svg version="1.1" id="Layer_1" xmlns="http://www.w3.org/2000/svg" xmlns:xlink="http://www.w3.org/1999/xlink" x="0px" y="0px"
	 viewBox="0 0 114.1 82" style="enable-background:new 0 0 114.1 82;" xml:space="preserve">
<style type="text/css">
	.st0{fill:#777677;}
	.st1{fill:none;}
	.st2{fill:#487CBF;}
	.st3{fill:#EF372C;}
	.st4{fill:#00AC4E;}
	.st5{fill:#FDB614;}
</style>
<g>
	<g>
		<path class="st0" d="M34.5,48.8v6.2h-2V39.7h5.2c1.3,0,2.4,0.4,3.4,1.3c0.9,0.9,1.4,1.9,1.4,3.2c0,1.3-0.5,2.4-1.4,3.2
			c-0.9,0.9-2,1.3-3.4,1.3H34.5z M34.5,41.6v5.3h3.3c0.8,0,1.4-0.3,1.9-0.8c0.5-0.5,0.8-1.1,0.8-1.9c0-0.7-0.3-1.3-0.8-1.8
			c-0.5-0.5-1.2-0.8-1.9-0.8H34.5z"/>
		<path class="st0" d="M47.7,44.2c1.4,0,2.6,0.4,3.4,1.2c0.8,0.8,1.3,1.8,1.3,3.2v6.4h-1.9v-1.4h-0.1c-0.8,1.2-1.9,1.8-3.2,1.8
			c-1.1,0-2.1-0.3-2.9-1c-0.8-0.7-1.2-1.5-1.2-2.5c0-1.1,0.4-1.9,1.2-2.6c0.8-0.6,1.9-1,3.3-1c1.2,0,2.1,0.2,2.9,0.6v-0.4
			c0-0.7-0.3-1.3-0.8-1.7c-0.5-0.5-1.2-0.7-1.9-0.7c-1.1,0-2,0.5-2.6,1.4l-1.7-1.1C44.4,44.9,45.9,44.2,47.7,44.2z M45.2,51.8
			c0,0.5,0.2,0.9,0.6,1.3c0.4,0.3,0.9,0.5,1.5,0.5c0.8,0,1.6-0.3,2.2-0.9c0.6-0.6,1-1.3,1-2.1C49.9,50,49,49.8,48,49.8
			c-0.8,0-1.5,0.2-2,0.6C45.4,50.7,45.2,51.2,45.2,51.8z"/>
		<path class="st0" d="M54.6,44.5h1.9v1.7h0.1c0.6-1.3,1.8-2,3.6-2l0.4,0v2l-0.9-0.1c-0.9,0-1.7,0.3-2.2,0.8
			c-0.6,0.6-0.9,1.3-0.9,2.1v5.7h-2V44.5z M66.8,55.1c-0.8,0-1.6-0.3-2.1-0.8c-0.6-0.5-0.8-1.3-0.9-2.2v-5.8H62v-1.8h1.8v-3.2h2v3.2
			h2.5v1.8h-2.5v5.2c0,0.7,0.1,1.2,0.4,1.4c0.3,0.2,0.6,0.4,0.9,0.4c0.2,0,0.3,0,0.5-0.1c0.1,0,0.3-0.1,0.4-0.1l0.6,1.7
			C68,55,67.5,55.1,66.8,55.1z"/>
		<path class="st0" d="M70.3,44.5h1.9V46h0.1c0.3-0.5,0.8-0.9,1.4-1.3c0.6-0.3,1.3-0.5,1.9-0.5c1.3,0,2.3,0.4,2.9,1.1
			c0.7,0.7,1,1.8,1,3.1v6.5h-2v-6.4c0-1.7-0.9-2.5-2.6-2.5c-0.8,0-1.4,0.3-2,0.9c-0.5,0.6-0.8,1.4-0.8,2.3v5.8h-2V44.5z"/>
		<path class="st0" d="M86.5,55.3c-1.5,0-2.8-0.5-3.8-1.6c-1-1-1.5-2.4-1.5-4c0-1.6,0.5-2.9,1.4-4c1-1.1,2.2-1.6,3.7-1.6
			c1.5,0,2.8,0.5,3.7,1.5c0.9,1,1.4,2.4,1.4,4.2l0,0.2h-8.2c0,1,0.4,1.8,1,2.5c0.7,0.6,1.4,0.9,2.3,0.9c1.2,0,2.2-0.6,2.9-1.9
			l1.7,0.8c-0.5,0.9-1.1,1.6-1.9,2.1C88.4,55,87.5,55.3,86.5,55.3z M83.3,48.5h6c-0.1-0.7-0.4-1.3-0.9-1.8c-0.5-0.5-1.2-0.7-2.1-0.7
			c-0.7,0-1.4,0.2-1.9,0.7C83.9,47.1,83.5,47.7,83.3,48.5z"/>
		<path class="st0" d="M95.1,54.9h-2V44.5H95v1.7h0.1c0.2-0.6,0.6-1,1.2-1.4c0.6-0.4,1.2-0.6,1.8-0.6c0.6,0,1,0.1,1.4,0.3L99,46.4
			c-0.2-0.1-0.6-0.1-1.1-0.1c-0.7,0-1.4,0.3-1.9,0.9c-0.5,0.6-0.8,1.3-0.8,2.1V54.9z"/>
	</g>
	<path class="st1" d="M45.1,31.1c-0.5,0-0.9,0.2-1.3,0.5c-0.3,0.3-0.5,0.8-0.5,1.3c0,0.5,0.2,1,0.5,1.3c0.3,0.4,0.8,0.5,1.3,0.5
		c0.5,0,0.9-0.2,1.2-0.5c0.3-0.4,0.5-0.8,0.5-1.3c0-0.6-0.2-1-0.5-1.3C46,31.3,45.6,31.1,45.1,31.1z"/>
	<path class="st1" d="M58.8,31.1c-0.5,0-0.9,0.2-1.2,0.6C57.2,32,57,32.5,57,33c0,0.5,0.2,1,0.5,1.3c0.3,0.4,0.8,0.5,1.2,0.5
		c0.5,0,0.9-0.2,1.2-0.5c0.3-0.4,0.5-0.8,0.5-1.3c0-0.5-0.2-1-0.5-1.4C59.7,31.3,59.3,31.1,58.8,31.1z"/>
	<path class="st1" d="M52,31.1c-0.5,0-0.9,0.2-1.3,0.5c-0.3,0.3-0.5,0.8-0.5,1.3c0,0.5,0.2,1,0.5,1.3c0.3,0.4,0.8,0.5,1.3,0.5
		c0.5,0,0.9-0.2,1.2-0.5c0.3-0.4,0.5-0.8,0.5-1.3c0-0.6-0.2-1-0.5-1.3C52.9,31.3,52.5,31.1,52,31.1z"/>
	<path class="st1" d="M68.4,31.3c-0.2-0.1-0.5-0.2-0.7-0.2c-0.4,0-0.8,0.2-1.2,0.5C66.1,32,66,32.4,66,32.9l2.8-1.2
		C68.7,31.6,68.6,31.4,68.4,31.3z"/>
	<path class="st2" d="M37,30.9v1.3h3.2c-0.1,0.8-0.5,1.5-1,2c-0.6,0.5-1.3,0.7-2.1,0.7c-1,0-1.8-0.3-2.5-1c-0.7-0.7-1-1.5-1-2.5
		c0-1,0.3-1.8,1-2.5c0.7-0.7,1.5-1,2.5-1c0.9,0,1.7,0.3,2.4,0.9l0.9-0.9c-0.9-0.9-2-1.3-3.3-1.3c-0.9,0-1.7,0.2-2.5,0.7
		c-0.8,0.4-1.4,1-1.8,1.8c-0.4,0.7-0.7,1.5-0.7,2.4c0,0.9,0.2,1.7,0.7,2.4c0.4,0.7,1,1.3,1.8,1.8c0.8,0.4,1.6,0.7,2.5,0.7
		c1.3,0,2.4-0.4,3.3-1.2c0.9-0.8,1.3-1.9,1.3-3.2c0-0.3,0-0.6-0.1-0.8H37z"/>
	<path class="st3" d="M45.1,29.9c-0.9,0-1.6,0.3-2.2,0.9C42.3,31.4,42,32.1,42,33c0,0.9,0.3,1.6,0.9,2.2c0.6,0.6,1.3,0.9,2.2,0.9
		c0.9,0,1.6-0.3,2.2-0.9c0.6-0.6,0.9-1.3,0.9-2.2c0-0.9-0.3-1.6-0.9-2.2C46.7,30.2,46,29.9,45.1,29.9z M46.4,34.4
		c-0.3,0.4-0.8,0.5-1.2,0.5c-0.5,0-0.9-0.2-1.3-0.5c-0.3-0.4-0.5-0.8-0.5-1.3c0-0.6,0.2-1,0.5-1.3c0.3-0.4,0.8-0.5,1.3-0.5
		c0.5,0,0.9,0.2,1.3,0.5c0.3,0.3,0.5,0.8,0.5,1.3C46.9,33.6,46.7,34,46.4,34.4z"/>
	<rect x="62.6" y="26.8" class="st4" width="1.4" height="9.2"/>
	<path class="st5" d="M52,29.9c-0.9,0-1.6,0.3-2.2,0.9c-0.6,0.6-0.9,1.3-0.9,2.2c0,0.9,0.3,1.6,0.9,2.2c0.6,0.6,1.3,0.9,2.2,0.9
		c0.9,0,1.6-0.3,2.2-0.9c0.6-0.6,0.9-1.3,0.9-2.2c0-0.9-0.3-1.6-0.9-2.2C53.6,30.2,52.8,29.9,52,29.9z M53.2,34.4
		c-0.3,0.4-0.8,0.5-1.2,0.5c-0.5,0-0.9-0.2-1.3-0.5c-0.3-0.4-0.5-0.8-0.5-1.3c0-0.6,0.2-1,0.5-1.3c0.3-0.4,0.8-0.5,1.3-0.5
		s0.9,0.2,1.3,0.5c0.3,0.3,0.5,0.8,0.5,1.3C53.7,33.6,53.6,34,53.2,34.4z"/>
	<path class="st3" d="M67.7,34.9c-0.7,0-1.2-0.3-1.5-0.9l4.2-1.7l-0.1-0.4c-0.1-0.3-0.3-0.6-0.4-0.8c-0.2-0.2-0.4-0.5-0.6-0.6
		c-0.2-0.2-0.5-0.3-0.8-0.4c-0.3-0.1-0.6-0.1-0.9-0.1c-0.8,0-1.5,0.3-2.1,0.9c-0.6,0.6-0.8,1.3-0.8,2.2c0,0.9,0.3,1.6,0.9,2.2
		c0.6,0.6,1.3,0.9,2.2,0.9c1.1,0,2-0.5,2.6-1.4l-1.1-0.7C68.9,34.6,68.4,34.9,67.7,34.9z M66.5,31.6c0.3-0.3,0.7-0.5,1.2-0.5
		c0.3,0,0.5,0.1,0.7,0.2c0.2,0.1,0.4,0.3,0.4,0.5L66,32.9C66,32.4,66.1,32,66.5,31.6z"/>
	<path class="st2" d="M60.4,30.6L60.4,30.6c-0.4-0.5-1-0.7-1.7-0.7c-0.8,0-1.5,0.3-2.1,0.9c-0.6,0.6-0.9,1.4-0.9,2.2
		c0,0.9,0.3,1.6,0.9,2.2c0.6,0.6,1.3,0.9,2.1,0.9c0.7,0,1.3-0.2,1.6-0.7h0v0.3c0,1.3-0.6,2-1.7,2c-0.4,0-0.7-0.1-0.9-0.3
		c-0.3-0.2-0.5-0.5-0.6-0.8l-1.2,0.5c0.1,0.3,0.3,0.5,0.5,0.8c0.2,0.2,0.4,0.4,0.6,0.6c0.2,0.2,0.5,0.3,0.8,0.4
		c0.3,0.1,0.6,0.1,0.9,0.1c0.9,0,1.7-0.3,2.2-0.8c0.5-0.6,0.8-1.4,0.8-2.4v-5.6h-1.3V30.6z M60,34.4c-0.3,0.4-0.7,0.5-1.2,0.5
		c-0.5,0-0.9-0.2-1.2-0.5C57.2,34,57,33.6,57,33c0-0.5,0.2-1,0.5-1.3c0.3-0.4,0.8-0.6,1.2-0.6c0.5,0,0.9,0.2,1.2,0.5
		c0.3,0.4,0.5,0.8,0.5,1.4C60.5,33.6,60.3,34,60,34.4z"/>
	<rect x="14.5" y="22.1" class="st2" width="10" height="37.9"/>
</g>
</svg>
