<svg xmlns="http://www.w3.org/2000/svg" width="50" height="50" viewBox="0 0 50 50" fill="none"><rect width="50" height="50" rx="6" fill="#edb91b"/><path d="M10 14.575C10 14.2574 10.2574 14 10.575 14H13.45C13.7676 14 14.025 14.2574 14.025 14.575C14.025 14.8926 13.7676 15.15 13.45 15.15H10.575C10.2574 15.15 10 14.8926 10 14.575Z" fill="white"/><path d="M10 33.55C10 33.2324 10.2574 32.975 10.575 32.975H13.45C13.7676 32.975 14.025 33.2324 14.025 33.55C14.025 33.8675 13.7676 34.125 13.45 34.125H10.575C10.2574 34.125 10 33.8675 10 33.55Z" fill="white"/><path d="M10 36.425C10 36.1075 10.2574 35.85 10.575 35.85H21.5C21.8176 35.85 22.075 36.1075 22.075 36.425C22.075 36.7426 21.8176 37 21.5 37H10.575C10.2574 37 10 36.7426 10 36.425Z" fill="white"/><path d="M15.175 14.575C15.175 14.2574 15.4324 14 15.75 14H22.65C22.9676 14 23.225 14.2574 23.225 14.575C23.225 14.8926 22.9676 15.15 22.65 15.15H15.75C15.4324 15.15 15.175 14.8926 15.175 14.575Z" fill="white"/><path d="M15.175 33.55C15.175 33.2324 15.4324 32.975 15.75 32.975H35.875C36.1926 32.975 36.45 33.2324 36.45 33.55C36.45 33.8675 36.1926 34.125 35.875 34.125H15.75C15.4324 34.125 15.175 33.8675 15.175 33.55Z" fill="white"/><path d="M23.225 36.425C23.225 36.1075 23.4824 35.85 23.8 35.85H31.275C31.5926 35.85 31.85 36.1075 31.85 36.425C31.85 36.7426 31.5926 37 31.275 37H23.8C23.4824 37 23.225 36.7426 23.225 36.425Z" fill="white"/><path d="M32.5783 23.2766C32.5783 24.285 32.8773 25.2707 33.4376 26.1091C33.9977 26.9476 34.794 27.601 35.7256 27.9869C36.6572 28.3728 37.6823 28.4737 38.6713 28.277C39.6603 28.0803 40.5687 27.5947 41.2817 26.8817C41.9947 26.1687 42.4803 25.2603 42.677 24.2713C42.8737 23.2823 42.7728 22.2572 42.3869 21.3256C42.001 20.394 41.3475 19.5977 40.5091 19.0376C39.6707 18.4773 38.685 18.1783 37.6766 18.1783V23.2766H32.5783Z" fill="white"/><path d="M31.85 22.5484C31.85 21.8788 31.9819 21.2159 32.2381 20.5973C32.4943 19.9787 32.8698 19.4167 33.3433 18.9433C33.8167 18.4698 34.3787 18.0943 34.9973 17.8381C35.6159 17.5819 36.2788 17.45 36.9484 17.45V22.5484H31.85Z" fill="white"/><path d="M10 24.35C10 24.0324 10.2574 23.775 10.575 23.775H11.725C12.0426 23.775 12.3 24.0324 12.3 24.35V28.95C12.3 29.2675 12.0426 29.525 11.725 29.525H10.575C10.2574 29.525 10 29.2675 10 28.95V24.35Z" fill="white"/><path d="M13.45 21.475C13.45 21.1575 13.7074 20.9 14.025 20.9H15.175C15.4926 20.9 15.75 21.1575 15.75 21.475V28.95C15.75 29.2676 15.4926 29.525 15.175 29.525H14.025C13.7074 29.525 13.45 29.2676 13.45 28.95V21.475Z" fill="white"/><path d="M16.9 24.925C16.9 24.6074 17.1574 24.35 17.475 24.35H18.625C18.9426 24.35 19.2 24.6074 19.2 24.925V28.95C19.2 29.2675 18.9426 29.525 18.625 29.525H17.475C17.1574 29.525 16.9 29.2675 16.9 28.95V24.925Z" fill="white"/><path d="M20.35 22.05C20.35 21.7325 20.6074 21.475 20.925 21.475H22.075C22.3926 21.475 22.65 21.7325 22.65 22.05V28.95C22.65 29.2676 22.3926 29.525 22.075 29.525H20.925C20.6074 29.525 20.35 29.2676 20.35 28.95V22.05Z" fill="white"/><path d="M23.8 25.5C23.8 25.1824 24.0574 24.925 24.375 24.925H25.525C25.8426 24.925 26.1 25.1824 26.1 25.5V28.95C26.1 29.2676 25.8426 29.525 25.525 29.525H24.375C24.0574 29.525 23.8 29.2676 23.8 28.95V25.5Z" fill="white"/><path d="M27.25 18.6C27.25 18.2825 27.5074 18.025 27.825 18.025H28.975C29.2926 18.025 29.55 18.2825 29.55 18.6V28.95C29.55 29.2676 29.2926 29.525 28.975 29.525H27.825C27.5074 29.525 27.25 29.2676 27.25 28.95V18.6Z" fill="white"/></svg>