<svg xmlns="http://www.w3.org/2000/svg" width="50" height="50" viewBox="0 0 50 50" fill="none"><rect width="50" height="50" rx="6" fill="#edb91b"/><path fill-rule="evenodd" clip-rule="evenodd" d="M29.2175 31.7422C27.5983 32.7356 25.6931 33.3083 23.6541 33.3083C17.77 33.3083 13 28.5382 13 22.6541C13 16.77 17.77 12 23.6541 12C29.5384 12 34.3083 16.77 34.3083 22.6541C34.3083 25.1319 33.4625 27.4122 32.0438 29.222L38.1486 35.3268L35.4753 38L29.2175 31.7422ZM31.1747 22.6541C31.1747 26.8077 27.8077 30.1747 23.6541 30.1747C19.5006 30.1747 16.1336 26.8077 16.1336 22.6541C16.1336 18.5006 19.5006 15.1336 23.6541 15.1336C27.8077 15.1336 31.1747 18.5006 31.1747 22.6541Z" fill="url(#paint0_linear_4_621)"/><defs><linearGradient id="paint0_linear_4_621" x1="32.6282" y1="11.2041" x2="16.915" y2="41.4282" gradientUnits="userSpaceOnUse"><stop stop-color="white"/><stop offset="1" stop-color="white" stop-opacity="0.9"/></linearGradient></defs></svg>