<svg xmlns="http://www.w3.org/2000/svg" width="49.293" height="44.857" viewBox="0 0 49.293 44.857"><defs><style>.a{fill:#85985a;}</style></defs><g transform="translate(-311.131 -94.477)"><path class="a" d="M357.554,128.408H314a2.874,2.874,0,0,1-2.87-2.87V97.347a2.874,2.874,0,0,1,2.87-2.87h43.553a2.874,2.874,0,0,1,2.87,2.87v28.191A2.874,2.874,0,0,1,357.554,128.408ZM314,96.165a1.184,1.184,0,0,0-1.182,1.182v28.191A1.184,1.184,0,0,0,314,126.72h43.553a1.184,1.184,0,0,0,1.182-1.182V97.347a1.184,1.184,0,0,0-1.182-1.182Z"/><path class="a" d="M356.223,124.975h-40.89a.844.844,0,0,1-.844-.844V98.754a.844.844,0,0,1,.844-.845h40.89a.844.844,0,0,1,.844.845v25.377A.844.844,0,0,1,356.223,124.975Zm-40.046-1.688h39.2V99.6h-39.2Z"/><path class="a" d="M344.631,134.372H326.925a.844.844,0,0,1-.844-.844v-5.964a.844.844,0,0,1,.844-.844h17.706a.844.844,0,0,1,.844.844v5.964A.844.844,0,0,1,344.631,134.372Zm-16.862-1.688h16.018v-4.276H327.769Z"/><path class="a" d="M354.478,139.334h-37.4a.844.844,0,0,1-.844-.844,5.813,5.813,0,0,1,5.806-5.806h27.476a5.813,5.813,0,0,1,5.806,5.806A.844.844,0,0,1,354.478,139.334Zm-36.469-1.688h35.538a4.126,4.126,0,0,0-4.031-3.274H322.04A4.125,4.125,0,0,0,318.009,137.646Z"/><path class="a" d="M351.665,107.7H343a.844.844,0,0,1,0-1.688h8.666a.844.844,0,0,1,0,1.688Z"/><path class="a" d="M351.665,112.286H343a.844.844,0,0,1,0-1.688h8.666a.844.844,0,0,1,0,1.688Z"/><path class="a" d="M351.665,116.873H343a.844.844,0,0,1,0-1.688h8.666a.844.844,0,0,1,0,1.688Z"/><path class="a" d="M329.967,116.51h-9.179a.346.346,0,0,1-.346-.346V104.63a.346.346,0,0,1,.346-.346h9.179a.346.346,0,0,1,.347.346v11.534A.346.346,0,0,1,329.967,116.51Zm-8.832-.693h8.486V104.976h-8.486Z"/><path class="a" d="M327.18,106.322a.346.346,0,0,1-.346-.346v-2.091a1.456,1.456,0,0,0-2.912,0v2.091a.346.346,0,0,1-.693,0v-2.091a2.148,2.148,0,1,1,4.3,0v2.091A.346.346,0,0,1,327.18,106.322Z"/><path class="a" d="M324.116,105.975a.54.54,0,1,1-.54-.54A.541.541,0,0,1,324.116,105.975Z"/><path class="a" d="M327.721,105.975a.541.541,0,1,1-.541-.54A.541.541,0,0,1,327.721,105.975Z"/><path class="a" d="M335.415,109.483a.347.347,0,0,1-.347-.347v-1.747a1.4,1.4,0,1,0-2.8,0v1.747a.346.346,0,1,1-.693,0v-1.747a2.093,2.093,0,1,1,4.186,0v1.747A.346.346,0,0,1,335.415,109.483Z"/><path class="a" d="M332.445,109.136a.524.524,0,1,1-.524-.524A.523.523,0,0,1,332.445,109.136Z"/><circle class="a" cx="0.524" cy="0.524" r="0.524" transform="translate(334.891 108.612)"/><path class="a" d="M338.113,118.529h-9.179a.346.346,0,0,1-.346-.347v-2.018a.346.346,0,0,1,.346-.347h.687v-7.679a.346.346,0,0,1,.346-.346h8.146a.346.346,0,0,1,.347.346v10.044A.347.347,0,0,1,338.113,118.529Zm-8.832-.693h8.486v-9.352h-7.453v7.68a.346.346,0,0,1-.347.346h-.686Z"/><path class="a" d="M326.1,114.936H322.35a.346.346,0,0,1-.346-.346v-5.623a.346.346,0,0,1,.693,0v5.277h3.4a.346.346,0,1,1,0,.692Z"/><path class="a" d="M336.551,117.1h-2.2a.347.347,0,1,1,0-.693H336.2v-2.249a.347.347,0,0,1,.693,0v2.6A.347.347,0,0,1,336.551,117.1Z"/><path class="a" d="M334.378,104.375a.346.346,0,0,1-.329-.453,1.414,1.414,0,0,0-.515-1.584.346.346,0,0,1,.2-.626,1.414,1.414,0,0,0,1.347-.98.347.347,0,0,1,.659,0,1.413,1.413,0,0,0,1.347.979.347.347,0,0,1,.2.627,1.414,1.414,0,0,0-.515,1.584.346.346,0,0,1-.532.387,1.414,1.414,0,0,0-1.666,0A.347.347,0,0,1,334.378,104.375Zm.06-2.09a2.1,2.1,0,0,1,.373,1.148,2.1,2.1,0,0,1,1.207,0,2.106,2.106,0,0,1,.373-1.148,1.027,1.027,0,0,0-1.953,0Z"/><path class="a" d="M322.584,121.409a.349.349,0,0,1-.2-.066l-.265-.193a1.142,1.142,0,0,0-1.345,0l-.266.193a.347.347,0,0,1-.533-.388l.1-.312a1.141,1.141,0,0,0-.416-1.278l-.266-.194a.346.346,0,0,1,.2-.626h.329a1.14,1.14,0,0,0,1.087-.79l.1-.313a.347.347,0,0,1,.659,0l.1.312a1.142,1.142,0,0,0,1.088.791h.329a.346.346,0,0,1,.2.626l-.266.193a1.141,1.141,0,0,0-.415,1.279l.1.312a.346.346,0,0,1-.329.454Zm-2.147-2.244a1.827,1.827,0,0,1,.384,1.181,1.827,1.827,0,0,1,1.242,0,1.833,1.833,0,0,1,.384-1.181,1.057,1.057,0,0,0-2.01,0Z"/></g></svg>